M48
;Layer_Color=9474304
;FILE_FORMAT=2:5
INCH,TZ
;TYPE=PLATED
T1F00S00C0.01000
T2F00S00C0.02000
T3F00S00C0.02362
T4F00S00C0.02800
T5F00S00C0.03000
T6F00S00C0.03346
T7F00S00C0.03740
T8F00S00C0.03800
T9F00S00C0.05118
%
T01
X410000Y-45000
X425000
X440000
X455000
X470000
X485000
X500000
X515000
X530000
X545000
X560000
X575000
X590000
X605000
X620000
X635000
X650000
X665000
Y20000
X650000
X635000
X620000
X605000
X590000
X575000
X560000
X545000
X530000
X515000
X500000
X485000
X470000
X455000
X440000
X425000
X410000
X417500Y60500
X417000Y158000
X410000Y200000
X425000
X442500
X457500
X472500
Y265000
X457500
X442500
X425000
X410000
X487500
X502500
X517500
X532500
X547500
X562500
X577500
X592500
X607500
X622500
X637500
Y200000
X622500
X607500
X592500
X577500
X562500
X547500
X532500
X517500
X502500
X487500
X652500
X667500
Y265000
X652500
T02
X210000Y-27500
X217500Y-15000
X210000Y57500
X217500Y70000
X210000Y131000
X215000Y147500
X210000Y231500
X215000Y247500
T03
X495000Y60000
X505000
X515000
Y70000
X505000
X495000
Y80000
Y90000
Y100000
X505000
Y110000
X495000
Y120000
Y130000
Y140000
X505000Y120000
X525000Y140000
X535000
X545000
X565000
X575000
Y130000
Y120000
Y110000
X565000
Y100000
X575000
Y90000
Y80000
Y70000
Y60000
X565000
X555000
X545000
X535000
X525000
Y70000
X535000
Y80000
X525000
X545000
Y70000
X555000
X565000
X585000
Y60000
Y80000
Y90000
Y100000
Y110000
Y120000
Y130000
Y140000
X565000Y120000
X485000
Y110000
Y100000
Y90000
Y80000
Y70000
Y60000
Y130000
Y140000
Y150000
Y160000
X495000
Y150000
X505000
X515000
X525000
Y160000
X515000
X505000
X535000
Y150000
X545000
Y160000
X555000
Y150000
X565000
Y160000
X575000
Y150000
X585000
Y160000
T04
X137795Y-31496
X149606
Y-19685
X137795
Y53150
X149606
Y66929
X137795
Y127953
X149606
Y141732
X137795
Y228346
X149606
Y242126
X137795
T05
X657480Y30512
X626968
X597441Y31496
X566929
X538386
X506890
X619685Y129528
X477362Y32138
X446850Y32480
X417323
Y190945
X449803
X479331
X509842
X539370
X569882
X600394
X629921Y189961
X659449
T06
X180385Y10100
X170385
X160385
X150385
X140385
X130385
X120385
X110385
X114385Y200100
X104385
X94385
X84385
X74385
X124385
X134385
X144385
X154385
X164385
T07
X370385Y30100
Y40100
Y50100
Y60100
Y70100
Y80100
Y90100
Y100100
Y110100
Y120100
Y130100
Y140100
X380385
Y130100
Y120100
Y110100
Y100100
Y90100
Y80100
Y70100
Y60100
Y50100
Y40100
Y30100
X260885Y100100
X250885
Y110100
Y120100
X260885
Y110100
X370385Y150100
Y160100
Y170100
Y180100
Y190100
Y200100
X380385
Y190100
Y180100
Y170100
Y160100
Y150100
T08
X619138Y103862
T09
X90200Y75000
X93200
X96200
X105000Y91700
Y94700
Y97700
X81400
Y94700
Y91700
M30
