%FSLAX25Y25*%
%MOIN*%
G70*
G01*
G75*
G04 Layer_Color=32768*
%ADD10R,0.33858X0.42126*%
%ADD11R,0.14173X0.04528*%
%ADD12R,0.03661X0.03661*%
%ADD13R,0.03500X0.03400*%
%ADD14R,0.03661X0.03661*%
%ADD15R,0.02200X0.06700*%
%ADD16R,0.02178X0.03937*%
%ADD17R,0.03200X0.03000*%
%ADD18C,0.01000*%
%ADD19C,0.04000*%
%ADD20C,0.02000*%
%ADD21C,0.03937*%
%ADD22C,0.06000*%
%ADD23C,0.04724*%
%ADD24R,0.04724X0.04724*%
%ADD25R,0.06000X0.06000*%
%ADD26P,0.06061X8X112.5*%
%ADD27P,0.06605X8X292.5*%
%ADD28P,0.17046X8X112.5*%
%ADD29C,0.07677*%
%ADD30P,0.17046X8X202.5*%
%ADD31P,0.07144X8X292.5*%
%ADD32C,0.05000*%
%ADD33C,0.02000*%
%ADD34C,0.04000*%
%ADD35R,0.07874X0.08661*%
%ADD36R,0.08661X0.07874*%
%ADD37R,0.03400X0.03500*%
%ADD38R,0.01772X0.01575*%
%ADD39R,0.04409X0.06772*%
%ADD40C,0.00984*%
%ADD41C,0.00600*%
%ADD42C,0.00787*%
%ADD43C,0.00500*%
%ADD44C,0.00800*%
%ADD45C,0.00400*%
%ADD46C,0.02800*%
%ADD47C,0.01500*%
%ADD48R,0.02000X0.02000*%
%ADD49R,0.34658X0.42926*%
%ADD50R,0.14973X0.05328*%
%ADD51R,0.04461X0.04461*%
%ADD52R,0.04461X0.04461*%
%ADD53R,0.03000X0.07500*%
%ADD54C,0.06800*%
%ADD55C,0.05524*%
%ADD56R,0.05524X0.05524*%
%ADD57P,0.06927X8X112.5*%
%ADD58P,0.07471X8X292.5*%
%ADD59P,0.17912X8X112.5*%
%ADD60C,0.08477*%
%ADD61P,0.17912X8X202.5*%
%ADD62P,0.08010X8X292.5*%
%ADD63C,0.05800*%
%ADD64C,0.02800*%
%ADD65R,0.02572X0.02375*%
%ADD66R,0.05209X0.07572*%
%ADD67C,0.04800*%
%ADD68C,0.00000*%
%ADD69C,0.00197*%
%ADD70C,0.00100*%
G36*
X429100Y54950D02*
X423900D01*
Y66050D01*
X429100D01*
Y54950D01*
D02*
G37*
G36*
X446750Y54750D02*
X441250D01*
Y66250D01*
X446750D01*
Y54750D01*
D02*
G37*
G36*
X441100Y54950D02*
X435900D01*
Y66050D01*
X441100D01*
Y54950D01*
D02*
G37*
G36*
X225343Y77031D02*
X214657D01*
Y82968D01*
X225343D01*
Y77031D01*
D02*
G37*
G36*
X232600Y69450D02*
X227400D01*
Y80550D01*
X232600D01*
Y69450D01*
D02*
G37*
G36*
Y-15550D02*
X227400D01*
Y-4450D01*
X232600D01*
Y-15550D01*
D02*
G37*
G36*
X212750Y-45750D02*
X207250D01*
Y-34250D01*
X212750D01*
Y-45750D01*
D02*
G37*
G36*
X225343Y-7969D02*
X214657D01*
Y-2032D01*
X225343D01*
Y-7969D01*
D02*
G37*
G36*
X423250Y49250D02*
X411750D01*
Y54750D01*
X423250D01*
Y49250D01*
D02*
G37*
G36*
X212750Y39250D02*
X207250D01*
Y50750D01*
X212750D01*
Y39250D01*
D02*
G37*
G36*
X624338Y97862D02*
X613938D01*
Y109862D01*
X624338D01*
Y97862D01*
D02*
G37*
G36*
X220343Y152032D02*
X209657D01*
Y157968D01*
X220343D01*
Y152032D01*
D02*
G37*
G36*
X441100Y151950D02*
X435900D01*
Y163050D01*
X441100D01*
Y151950D01*
D02*
G37*
G36*
X212750Y214250D02*
X207250D01*
Y225750D01*
X212750D01*
Y214250D01*
D02*
G37*
G36*
X220343Y252031D02*
X209657D01*
Y257968D01*
X220343D01*
Y252031D01*
D02*
G37*
G36*
X227600Y244450D02*
X222400D01*
Y255550D01*
X227600D01*
Y244450D01*
D02*
G37*
G36*
Y144450D02*
X222400D01*
Y155550D01*
X227600D01*
Y144450D01*
D02*
G37*
G36*
X212750Y114250D02*
X207250D01*
Y125750D01*
X212750D01*
Y114250D01*
D02*
G37*
G36*
X422750Y147250D02*
X411250D01*
Y152750D01*
X422750D01*
Y147250D01*
D02*
G37*
G36*
X429100Y151950D02*
X423900D01*
Y163050D01*
X429100D01*
Y151950D01*
D02*
G37*
G36*
X447250Y151750D02*
X441750D01*
Y163250D01*
X447250D01*
Y151750D01*
D02*
G37*
D41*
X207250Y-45750D02*
Y-34250D01*
Y-45750D02*
X212750D01*
X207250Y-34250D02*
X212750D01*
Y-45750D02*
Y-34250D01*
X207250Y39250D02*
Y50750D01*
Y39250D02*
X212750D01*
X207250Y50750D02*
X212750D01*
Y39250D02*
Y50750D01*
X411750Y49250D02*
Y54750D01*
Y49250D02*
X423250D01*
X411750Y54750D02*
X423250D01*
Y49250D02*
Y54750D01*
X441250D02*
Y66250D01*
Y54750D02*
X446750D01*
X441250Y66250D02*
X446750D01*
Y54750D02*
Y66250D01*
X207250Y214250D02*
Y225750D01*
Y214250D02*
X212750D01*
X207250Y225750D02*
X212750D01*
Y214250D02*
Y225750D01*
X207250Y114250D02*
Y125750D01*
Y114250D02*
X212750D01*
X207250Y125750D02*
X212750D01*
Y114250D02*
Y125750D01*
X411250Y147250D02*
Y152750D01*
Y147250D02*
X422750D01*
X411250Y152750D02*
X422750D01*
Y147250D02*
Y152750D01*
X441750Y151750D02*
Y163250D01*
Y151750D02*
X447250D01*
X441750Y163250D02*
X447250D01*
Y151750D02*
Y163250D01*
X613938Y97862D02*
Y109862D01*
Y97862D02*
X624338D01*
X613938Y109862D02*
X624338D01*
Y97862D02*
Y109862D01*
X214657Y-7969D02*
Y-2032D01*
Y-7969D02*
X225343D01*
X214657Y-2032D02*
X225343D01*
Y-7969D02*
Y-2032D01*
X227400Y-15550D02*
Y-4450D01*
Y-15550D02*
X232600D01*
X227400Y-4450D02*
X232600D01*
Y-15550D02*
Y-4450D01*
X214657Y77031D02*
Y82968D01*
Y77031D02*
X225343D01*
X214657Y82968D02*
X225343D01*
Y77031D02*
Y82968D01*
X227400Y69450D02*
Y80550D01*
Y69450D02*
X232600D01*
X227400Y80550D02*
X232600D01*
Y69450D02*
Y80550D01*
X423900Y54950D02*
Y66050D01*
Y54950D02*
X429100D01*
X423900Y66050D02*
X429100D01*
Y54950D02*
Y66050D01*
X435900Y54950D02*
Y66050D01*
Y54950D02*
X441100D01*
X435900Y66050D02*
X441100D01*
Y54950D02*
Y66050D01*
X209657Y252031D02*
Y257968D01*
Y252031D02*
X220343D01*
X209657Y257968D02*
X220343D01*
Y252031D02*
Y257968D01*
X222400Y244450D02*
Y255550D01*
Y244450D02*
X227600D01*
X222400Y255550D02*
X227600D01*
Y244450D02*
Y255550D01*
X209657Y152032D02*
Y157968D01*
Y152032D02*
X220343D01*
X209657Y157968D02*
X220343D01*
Y152032D02*
Y157968D01*
X222400Y144450D02*
Y155550D01*
Y144450D02*
X227600D01*
X222400Y155550D02*
X227600D01*
Y144450D02*
Y155550D01*
X423900Y151950D02*
Y163050D01*
Y151950D02*
X429100D01*
X423900Y163050D02*
X429100D01*
Y151950D02*
Y163050D01*
X435900Y151950D02*
Y163050D01*
Y151950D02*
X441100D01*
X435900Y163050D02*
X441100D01*
Y151950D02*
Y163050D01*
D42*
X160000Y133031D02*
Y136969D01*
X158031Y135000D02*
X161969D01*
X125551Y156653D02*
X194449D01*
X125551Y113347D02*
X194449D01*
X125551D02*
Y156653D01*
X194449Y113347D02*
Y156653D01*
X160000Y233032D02*
Y236968D01*
X158031Y235000D02*
X161969D01*
X125551Y256653D02*
X194449D01*
X125551Y213347D02*
X194449D01*
X125551D02*
Y256653D01*
X194449Y213347D02*
Y256653D01*
X160000Y58031D02*
Y61968D01*
X158031Y60000D02*
X161969D01*
X125551Y81653D02*
X194449D01*
X125551Y38346D02*
X194449D01*
X125551D02*
Y81653D01*
X194449Y38346D02*
Y81653D01*
X160000Y-26969D02*
Y-23031D01*
X158031Y-25000D02*
X161969D01*
X125551Y-3347D02*
X194449D01*
X125551Y-46654D02*
X194449D01*
X125551D02*
Y-3347D01*
X194449Y-46654D02*
Y-3347D01*
M02*
