%FSLAX25Y25*%
%MOIN*%
G70*
G01*
G75*
G04 Layer_Color=32896*
%ADD10R,0.33858X0.42126*%
%ADD11R,0.14173X0.04528*%
%ADD12R,0.03661X0.03661*%
%ADD13R,0.03500X0.03400*%
%ADD14R,0.03661X0.03661*%
%ADD15R,0.02200X0.06700*%
%ADD16R,0.02178X0.03937*%
%ADD17R,0.03200X0.03000*%
%ADD18C,0.01000*%
%ADD19C,0.04000*%
%ADD20C,0.02000*%
%ADD21C,0.03937*%
%ADD22C,0.06000*%
%ADD23C,0.04724*%
%ADD24R,0.04724X0.04724*%
%ADD25R,0.06000X0.06000*%
%ADD26P,0.06061X8X112.5*%
%ADD27P,0.06605X8X292.5*%
%ADD28P,0.17046X8X112.5*%
%ADD29C,0.07677*%
%ADD30P,0.17046X8X202.5*%
%ADD31P,0.07144X8X292.5*%
%ADD32C,0.05000*%
%ADD33C,0.02000*%
%ADD34C,0.04000*%
%ADD35R,0.07874X0.08661*%
%ADD36R,0.08661X0.07874*%
%ADD37R,0.03400X0.03500*%
%ADD38R,0.01772X0.01575*%
%ADD39R,0.04409X0.06772*%
%ADD40C,0.00984*%
%ADD41C,0.00600*%
%ADD42C,0.00787*%
%ADD43C,0.00500*%
%ADD44C,0.00800*%
%ADD45C,0.00400*%
%ADD46C,0.02800*%
%ADD47C,0.01500*%
%ADD48R,0.02000X0.02000*%
%ADD49R,0.34658X0.42926*%
%ADD50R,0.14973X0.05328*%
%ADD51R,0.04461X0.04461*%
%ADD52R,0.04461X0.04461*%
%ADD53R,0.03000X0.07500*%
%ADD54C,0.06800*%
%ADD55C,0.05524*%
%ADD56R,0.05524X0.05524*%
%ADD57P,0.06927X8X112.5*%
%ADD58P,0.07471X8X292.5*%
%ADD59P,0.17912X8X112.5*%
%ADD60C,0.08477*%
%ADD61P,0.17912X8X202.5*%
%ADD62P,0.08010X8X292.5*%
%ADD63C,0.05800*%
%ADD64C,0.02800*%
%ADD65R,0.02572X0.02375*%
%ADD66R,0.05209X0.07572*%
%ADD67C,0.04800*%
%ADD68C,0.00000*%
%ADD69C,0.00197*%
D69*
X207165Y-24787D02*
Y-13213D01*
Y-24787D02*
X212835D01*
X207165Y-13213D02*
X212835D01*
Y-24787D02*
Y-13213D01*
X207165Y60213D02*
Y71787D01*
Y60213D02*
X212835D01*
X207165Y71787D02*
X212835D01*
Y60213D02*
Y71787D01*
X429665Y54713D02*
Y66287D01*
Y54713D02*
X435335D01*
X429665Y66287D02*
X435335D01*
Y54713D02*
Y66287D01*
X501713Y-45335D02*
Y-39665D01*
Y-45335D02*
X513287D01*
X501713Y-39665D02*
X513287D01*
Y-45335D02*
Y-39665D01*
X501713Y14665D02*
Y20335D01*
Y14665D02*
X513287D01*
X501713Y20335D02*
X513287D01*
Y14665D02*
Y20335D01*
X531713Y-45335D02*
Y-39665D01*
Y-45335D02*
X543287D01*
X531713Y-39665D02*
X543287D01*
Y-45335D02*
Y-39665D01*
X531713Y14665D02*
Y20335D01*
Y14665D02*
X543287D01*
X531713Y20335D02*
X543287D01*
Y14665D02*
Y20335D01*
X561713Y-45335D02*
Y-39665D01*
Y-45335D02*
X573287D01*
X561713Y-39665D02*
X573287D01*
Y-45335D02*
Y-39665D01*
X561713Y14665D02*
Y20335D01*
Y14665D02*
X573287D01*
X561713Y20335D02*
X573287D01*
Y14665D02*
Y20335D01*
X591713Y-45335D02*
Y-39665D01*
Y-45335D02*
X603287D01*
X591713Y-39665D02*
X603287D01*
Y-45335D02*
Y-39665D01*
X591713Y14665D02*
Y20335D01*
Y14665D02*
X603287D01*
X591713Y20335D02*
X603287D01*
Y14665D02*
Y20335D01*
X621713Y-45335D02*
Y-39665D01*
Y-45335D02*
X633287D01*
X621713Y-39665D02*
X633287D01*
Y-45335D02*
Y-39665D01*
X621713Y14665D02*
Y20335D01*
Y14665D02*
X633287D01*
X621713Y20335D02*
X633287D01*
Y14665D02*
Y20335D01*
X651713Y-45335D02*
Y-39665D01*
Y-45335D02*
X663287D01*
X651713Y-39665D02*
X663287D01*
Y-45335D02*
Y-39665D01*
X651713Y14665D02*
Y20335D01*
Y14665D02*
X663287D01*
X651713Y20335D02*
X663287D01*
Y14665D02*
Y20335D01*
X441713Y-45335D02*
Y-39665D01*
Y-45335D02*
X453287D01*
X441713Y-39665D02*
X453287D01*
Y-45335D02*
Y-39665D01*
X441713Y14665D02*
Y20335D01*
Y14665D02*
X453287D01*
X441713Y20335D02*
X453287D01*
Y14665D02*
Y20335D01*
X471713Y-45335D02*
Y-39665D01*
Y-45335D02*
X483287D01*
X471713Y-39665D02*
X483287D01*
Y-45335D02*
Y-39665D01*
X471713Y14665D02*
Y20335D01*
Y14665D02*
X483287D01*
X471713Y20335D02*
X483287D01*
Y14665D02*
Y20335D01*
X411213Y14165D02*
Y19835D01*
Y14165D02*
X422787D01*
X411213Y19835D02*
X422787D01*
Y14165D02*
Y19835D01*
X411713Y-45335D02*
Y-39665D01*
Y-45335D02*
X423287D01*
X411713Y-39665D02*
X423287D01*
Y-45335D02*
Y-39665D01*
X207165Y234213D02*
Y245787D01*
Y234213D02*
X212835D01*
X207165Y245787D02*
X212835D01*
Y234213D02*
Y245787D01*
X207165Y134213D02*
Y145787D01*
Y134213D02*
X212835D01*
X207165Y145787D02*
X212835D01*
Y134213D02*
Y145787D01*
X429665Y151713D02*
Y163287D01*
Y151713D02*
X435335D01*
X429665Y163287D02*
X435335D01*
Y151713D02*
Y163287D01*
X504213Y259665D02*
Y265335D01*
Y259665D02*
X515787D01*
X504213Y265335D02*
X515787D01*
Y259665D02*
Y265335D01*
X504213Y199665D02*
Y205335D01*
Y199665D02*
X515787D01*
X504213Y205335D02*
X515787D01*
Y199665D02*
Y205335D01*
X534213Y259665D02*
Y265335D01*
Y259665D02*
X545787D01*
X534213Y265335D02*
X545787D01*
Y259665D02*
Y265335D01*
X534213Y199665D02*
Y205335D01*
Y199665D02*
X545787D01*
X534213Y205335D02*
X545787D01*
Y199665D02*
Y205335D01*
X564213Y259665D02*
Y265335D01*
Y259665D02*
X575787D01*
X564213Y265335D02*
X575787D01*
Y259665D02*
Y265335D01*
X564213Y199665D02*
Y205335D01*
Y199665D02*
X575787D01*
X564213Y205335D02*
X575787D01*
Y199665D02*
Y205335D01*
X594213Y259665D02*
Y265335D01*
Y259665D02*
X605787D01*
X594213Y265335D02*
X605787D01*
Y259665D02*
Y265335D01*
X594213Y199665D02*
Y205335D01*
Y199665D02*
X605787D01*
X594213Y205335D02*
X605787D01*
Y199665D02*
Y205335D01*
X624213Y259665D02*
Y265335D01*
Y259665D02*
X635787D01*
X624213Y265335D02*
X635787D01*
Y259665D02*
Y265335D01*
X624213Y199665D02*
Y205335D01*
Y199665D02*
X635787D01*
X624213Y205335D02*
X635787D01*
Y199665D02*
Y205335D01*
X654213Y259665D02*
Y265335D01*
Y259665D02*
X665787D01*
X654213Y265335D02*
X665787D01*
Y259665D02*
Y265335D01*
X654213Y199665D02*
Y205335D01*
Y199665D02*
X665787D01*
X654213Y205335D02*
X665787D01*
Y199665D02*
Y205335D01*
X444213Y259665D02*
Y265335D01*
Y259665D02*
X455787D01*
X444213Y265335D02*
X455787D01*
Y259665D02*
Y265335D01*
X444213Y199665D02*
Y205335D01*
Y199665D02*
X455787D01*
X444213Y205335D02*
X455787D01*
Y199665D02*
Y205335D01*
X474213Y259665D02*
Y265335D01*
Y259665D02*
X485787D01*
X474213Y265335D02*
X485787D01*
Y259665D02*
Y265335D01*
X474213Y199665D02*
Y205335D01*
Y199665D02*
X485787D01*
X474213Y205335D02*
X485787D01*
Y199665D02*
Y205335D01*
X411713Y200165D02*
Y205835D01*
Y200165D02*
X423287D01*
X411713Y205835D02*
X423287D01*
Y200165D02*
Y205835D01*
X411713Y259665D02*
Y265335D01*
Y259665D02*
X423287D01*
X411713Y265335D02*
X423287D01*
Y259665D02*
Y265335D01*
M02*
