%FSLAX25Y25*%
%MOIN*%
G70*
G01*
G75*
G04 Layer_Color=65535*
%ADD10R,0.33858X0.42126*%
%ADD11R,0.14173X0.04528*%
%ADD12R,0.03661X0.03661*%
%ADD13R,0.03500X0.03400*%
%ADD14R,0.03661X0.03661*%
%ADD15R,0.02200X0.06700*%
%ADD16R,0.02178X0.03937*%
%ADD17R,0.03200X0.03000*%
%ADD18C,0.01000*%
%ADD19C,0.04000*%
%ADD20C,0.02000*%
%ADD21C,0.03937*%
%ADD22C,0.06000*%
%ADD23C,0.04724*%
%ADD24R,0.04724X0.04724*%
%ADD25R,0.06000X0.06000*%
%ADD26P,0.06061X8X112.5*%
%ADD27P,0.06605X8X292.5*%
%ADD28P,0.17046X8X112.5*%
%ADD29C,0.07677*%
%ADD30P,0.17046X8X202.5*%
%ADD31P,0.07144X8X292.5*%
%ADD32C,0.05000*%
%ADD33C,0.02000*%
%ADD34C,0.04000*%
%ADD35R,0.07874X0.08661*%
%ADD36R,0.08661X0.07874*%
%ADD37R,0.03400X0.03500*%
%ADD38R,0.01772X0.01575*%
%ADD39R,0.04409X0.06772*%
%ADD40C,0.00984*%
%ADD41C,0.00600*%
%ADD42C,0.00787*%
%ADD43C,0.00500*%
%ADD44C,0.00800*%
%ADD45C,0.00400*%
%ADD46C,0.02800*%
%ADD47C,0.01500*%
%ADD48R,0.02000X0.02000*%
D18*
X618599Y123198D02*
X616599D01*
X617599D01*
Y118200D01*
X616599Y117200D01*
X615600D01*
X614600Y118200D01*
X620598Y117200D02*
X622597D01*
X621598D01*
Y123198D01*
X620598Y122198D01*
X466602Y94499D02*
X465602Y93499D01*
Y91500D01*
X466602Y90500D01*
X470600D01*
X471600Y91500D01*
Y93499D01*
X470600Y94499D01*
X465602Y96498D02*
X471600D01*
Y99497D01*
X470600Y100497D01*
X469601D01*
X468601Y99497D01*
Y96498D01*
Y99497D01*
X467601Y100497D01*
X466602D01*
X465602Y99497D01*
Y96498D01*
X466602Y106495D02*
X465602Y105495D01*
Y103496D01*
X466602Y102496D01*
X470600D01*
X471600Y103496D01*
Y105495D01*
X470600Y106495D01*
X471600Y108494D02*
X465602D01*
X467601Y110494D01*
X465602Y112493D01*
X471600D01*
X465602Y120490D02*
Y122490D01*
Y121490D01*
X471600D01*
Y120490D01*
Y122490D01*
X466602Y129487D02*
X465602Y128488D01*
Y126488D01*
X466602Y125489D01*
X470600D01*
X471600Y126488D01*
Y128488D01*
X470600Y129487D01*
X106100Y18400D02*
Y24398D01*
X109099D01*
X110099Y23398D01*
Y21399D01*
X109099Y20399D01*
X106100D01*
X115097Y24398D02*
X113098D01*
X112098Y23398D01*
Y19400D01*
X113098Y18400D01*
X115097D01*
X116097Y19400D01*
Y23398D01*
X115097Y24398D01*
X118096D02*
Y18400D01*
X120096Y20399D01*
X122095Y18400D01*
Y24398D01*
X128093D02*
X124094D01*
Y18400D01*
X128093D01*
X124094Y21399D02*
X126093D01*
X130092Y18400D02*
Y24398D01*
X133091D01*
X134091Y23398D01*
Y21399D01*
X133091Y20399D01*
X130092D01*
X132092D02*
X134091Y18400D01*
X70100Y185800D02*
Y191798D01*
X73099D01*
X74099Y190798D01*
Y188799D01*
X73099Y187799D01*
X70100D01*
X76098Y191798D02*
Y185800D01*
X78097Y187799D01*
X80097Y185800D01*
Y191798D01*
X82096Y185800D02*
Y191798D01*
X84096Y189799D01*
X86095Y191798D01*
Y185800D01*
X88094Y191798D02*
Y185800D01*
Y188799D01*
X92093D01*
Y191798D01*
Y185800D01*
X250599Y133398D02*
X249599Y134398D01*
X247600D01*
X246600Y133398D01*
Y132399D01*
X247600Y131399D01*
X249599D01*
X250599Y130399D01*
Y129400D01*
X249599Y128400D01*
X247600D01*
X246600Y129400D01*
X252598Y128400D02*
Y134398D01*
X255597D01*
X256597Y133398D01*
Y131399D01*
X255597Y130399D01*
X252598D01*
X258596Y134398D02*
X260595D01*
X259596D01*
Y128400D01*
X258596D01*
X260595D01*
X367770Y21998D02*
X371769Y16000D01*
Y21998D02*
X367770Y16000D01*
X373768Y21998D02*
X375767D01*
X374768D01*
Y16000D01*
X373768D01*
X375767D01*
X381766Y21998D02*
X379766D01*
X378766Y20998D01*
Y17000D01*
X379766Y16000D01*
X381766D01*
X382765Y17000D01*
Y20998D01*
X381766Y21998D01*
D20*
X620138Y112162D02*
G03*
X620138Y112162I-1000J0D01*
G01*
D40*
X185984Y116500D02*
G03*
X185984Y116500I-492J0D01*
G01*
Y216500D02*
G03*
X185984Y216500I-492J0D01*
G01*
Y41500D02*
G03*
X185984Y41500I-492J0D01*
G01*
Y-43500D02*
G03*
X185984Y-43500I-492J0D01*
G01*
D41*
X586000Y-13700D02*
G03*
X586000Y-11300I0J1200D01*
G01*
X611500Y233700D02*
G03*
X611500Y231300I0J-1200D01*
G01*
X616000Y-13700D02*
G03*
X616000Y-11300I0J1200D01*
G01*
X641500Y233700D02*
G03*
X641500Y231300I0J-1200D01*
G01*
X646000Y-13700D02*
G03*
X646000Y-11300I0J1200D01*
G01*
X671500Y233700D02*
G03*
X671500Y231300I0J-1200D01*
G01*
X429000Y-11300D02*
G03*
X429000Y-13700I0J-1200D01*
G01*
X406500Y231300D02*
G03*
X406500Y233700I0J1200D01*
G01*
X496000Y-13700D02*
G03*
X496000Y-11300I0J1200D01*
G01*
X521500Y233700D02*
G03*
X521500Y231300I0J-1200D01*
G01*
X526000Y-13700D02*
G03*
X526000Y-11300I0J1200D01*
G01*
X551500Y233700D02*
G03*
X551500Y231300I0J-1200D01*
G01*
X556000Y-13700D02*
G03*
X556000Y-11300I0J1200D01*
G01*
X581500Y233700D02*
G03*
X581500Y231300I0J-1200D01*
G01*
X466000Y-13700D02*
G03*
X466000Y-11300I0J1200D01*
G01*
X491500Y233700D02*
G03*
X491500Y231300I0J-1200D01*
G01*
X436000Y-13700D02*
G03*
X436000Y-11300I0J1200D01*
G01*
X461500Y233700D02*
G03*
X461500Y231300I0J-1200D01*
G01*
X212657Y-5000D02*
G03*
X212657Y-5000I-300J0D01*
G01*
Y80000D02*
G03*
X212657Y80000I-300J0D01*
G01*
X207657Y255000D02*
G03*
X207657Y255000I-300J0D01*
G01*
Y155000D02*
G03*
X207657Y155000I-300J0D01*
G01*
X614438Y98362D02*
X623838D01*
X614438D02*
Y109362D01*
X623838D01*
Y98362D02*
Y109362D01*
X586000Y-13700D02*
Y-11300D01*
Y-25900D02*
Y-13700D01*
Y-25900D02*
X609000D01*
X586000Y-11300D02*
Y900D01*
X609000D01*
Y-25900D02*
Y900D01*
X588500Y219100D02*
Y245900D01*
Y219100D02*
X611500D01*
X588500Y245900D02*
X611500D01*
Y231300D02*
Y233700D01*
Y219100D02*
Y231300D01*
Y233700D02*
Y245900D01*
X616000Y-13700D02*
Y-11300D01*
Y-25900D02*
Y-13700D01*
Y-25900D02*
X639000D01*
X616000Y-11300D02*
Y900D01*
X639000D01*
Y-25900D02*
Y900D01*
X618500Y219100D02*
Y245900D01*
Y219100D02*
X641500D01*
X618500Y245900D02*
X641500D01*
Y231300D02*
Y233700D01*
Y219100D02*
Y231300D01*
Y233700D02*
Y245900D01*
X646000Y-13700D02*
Y-11300D01*
Y-25900D02*
Y-13700D01*
Y-25900D02*
X669000D01*
X646000Y-11300D02*
Y900D01*
X669000D01*
Y-25900D02*
Y900D01*
X648500Y219100D02*
Y245900D01*
Y219100D02*
X671500D01*
X648500Y245900D02*
X671500D01*
Y231300D02*
Y233700D01*
Y219100D02*
Y231300D01*
Y233700D02*
Y245900D01*
X406000Y-25900D02*
Y900D01*
Y-25900D02*
X429000D01*
X406000Y900D02*
X429000D01*
Y-13700D02*
Y-11300D01*
Y-25900D02*
Y-13700D01*
Y-11300D02*
Y900D01*
X406500Y231300D02*
Y233700D01*
Y219100D02*
Y231300D01*
Y219100D02*
X429500D01*
X406500Y233700D02*
Y245900D01*
X429500D01*
Y219100D02*
Y245900D01*
X496000Y-13700D02*
Y-11300D01*
Y-25900D02*
Y-13700D01*
Y-25900D02*
X519000D01*
X496000Y-11300D02*
Y900D01*
X519000D01*
Y-25900D02*
Y900D01*
X498500Y219100D02*
Y245900D01*
Y219100D02*
X521500D01*
X498500Y245900D02*
X521500D01*
Y231300D02*
Y233700D01*
Y219100D02*
Y231300D01*
Y233700D02*
Y245900D01*
X526000Y-13700D02*
Y-11300D01*
Y-25900D02*
Y-13700D01*
Y-25900D02*
X549000D01*
X526000Y-11300D02*
Y900D01*
X549000D01*
Y-25900D02*
Y900D01*
X528500Y219100D02*
Y245900D01*
Y219100D02*
X551500D01*
X528500Y245900D02*
X551500D01*
Y231300D02*
Y233700D01*
Y219100D02*
Y231300D01*
Y233700D02*
Y245900D01*
X556000Y-13700D02*
Y-11300D01*
Y-25900D02*
Y-13700D01*
Y-25900D02*
X579000D01*
X556000Y-11300D02*
Y900D01*
X579000D01*
Y-25900D02*
Y900D01*
X558500Y219100D02*
Y245900D01*
Y219100D02*
X581500D01*
X558500Y245900D02*
X581500D01*
Y231300D02*
Y233700D01*
Y219100D02*
Y231300D01*
Y233700D02*
Y245900D01*
X466000Y-13700D02*
Y-11300D01*
Y-25900D02*
Y-13700D01*
Y-25900D02*
X489000D01*
X466000Y-11300D02*
Y900D01*
X489000D01*
Y-25900D02*
Y900D01*
X468500Y219100D02*
Y245900D01*
Y219100D02*
X491500D01*
X468500Y245900D02*
X491500D01*
Y231300D02*
Y233700D01*
Y219100D02*
Y231300D01*
Y233700D02*
Y245900D01*
X436000Y-13700D02*
Y-11300D01*
Y-25900D02*
Y-13700D01*
Y-25900D02*
X459000D01*
X436000Y-11300D02*
Y900D01*
X459000D01*
Y-25900D02*
Y900D01*
X438500Y219100D02*
Y245900D01*
Y219100D02*
X461500D01*
X438500Y245900D02*
X461500D01*
Y231300D02*
Y233700D01*
Y219100D02*
Y231300D01*
Y233700D02*
Y245900D01*
X107885Y5100D02*
X112885D01*
X105385Y7600D02*
X107885Y5100D01*
X117885D02*
X122885D01*
X112885D02*
X115385Y7600D01*
X105385D02*
Y12600D01*
X115385Y7600D02*
X117885Y5100D01*
X115385Y7600D02*
Y12600D01*
X125385Y7600D02*
X127885Y5100D01*
X122885D02*
X125385Y7600D01*
X137885Y5100D02*
X142885D01*
X127885D02*
X132885D01*
X135385Y7600D01*
X137885Y5100D01*
X142885D02*
X145385Y7600D01*
X107885Y15100D02*
X112885D01*
X125385Y7600D02*
Y12600D01*
X112885Y15100D02*
X115385Y12600D01*
X105385D02*
X107885Y15100D01*
X115385Y12600D02*
X117885Y15100D01*
X122885D01*
X125385Y12600D01*
X127885Y15100D02*
X132885D01*
X135385Y7600D02*
Y12600D01*
X132885Y15100D02*
X135385Y12600D01*
X125385D02*
X127885Y15100D01*
X135385Y12600D02*
X137885Y15100D01*
X142885D01*
X145385Y12600D01*
X152885Y5100D02*
X155385Y7600D01*
X147885Y5100D02*
X152885D01*
X162885D02*
X165385Y7600D01*
X157885Y5100D02*
X162885D01*
X145385Y7600D02*
X147885Y5100D01*
X155385Y7600D02*
X157885Y5100D01*
X155385Y7600D02*
Y12600D01*
X167885Y5100D02*
X172885D01*
X165385Y7600D02*
X167885Y5100D01*
X177885D02*
X182885D01*
X172885D02*
X175385Y7600D01*
X177885Y5100D01*
X182885D02*
X185385Y7600D01*
Y12600D01*
X145385Y7600D02*
Y12600D01*
X147885Y15100D02*
X152885D01*
X155385Y12600D01*
X145385D02*
X147885Y15100D01*
X155385Y12600D02*
X157885Y15100D01*
X162885D01*
X165385Y12600D01*
Y7600D02*
Y12600D01*
X167885Y15100D01*
X175385Y7600D02*
Y12600D01*
X172885Y15100D02*
X175385Y12600D01*
X167885Y15100D02*
X172885D01*
X175385Y12600D02*
X177885Y15100D01*
X182885D01*
X185385Y12600D01*
X71885Y195100D02*
X76885D01*
X69385Y197600D02*
X71885Y195100D01*
X81885D02*
X86885D01*
X76885D02*
X79385Y197600D01*
X81885Y195100D01*
X79385Y197600D02*
Y202600D01*
X86885Y195100D02*
X89385Y197600D01*
Y202600D01*
Y197600D02*
X91885Y195100D01*
X96885D02*
X99385Y197600D01*
X91885Y195100D02*
X96885D01*
X111885D02*
X116885D01*
X99385Y197600D02*
X101885Y195100D01*
X106885D01*
X109385Y197600D01*
X111885Y195100D01*
X116885D02*
X119385Y197600D01*
X69385D02*
Y202600D01*
X71885Y205100D02*
X76885D01*
X79385Y202600D02*
X81885Y205100D01*
X69385Y202600D02*
X71885Y205100D01*
X76885D02*
X79385Y202600D01*
X89385D02*
X91885Y205100D01*
X81885D02*
X86885D01*
X89385Y202600D01*
X99385Y197600D02*
Y202600D01*
X91885Y205100D02*
X96885D01*
X99385Y202600D02*
X101885Y205100D01*
X109385Y197600D02*
Y202600D01*
X96885Y205100D02*
X99385Y202600D01*
X101885Y205100D02*
X106885D01*
X109385Y202600D01*
X111885Y205100D01*
X116885D01*
X119385Y202600D01*
X121885Y195100D02*
X126885D01*
X119385Y197600D02*
X121885Y195100D01*
X131885D02*
X136885D01*
X126885D02*
X129385Y197600D01*
X131885Y195100D01*
X129385Y197600D02*
Y202600D01*
X136885Y195100D02*
X139385Y197600D01*
Y202600D01*
Y197600D02*
X141885Y195100D01*
X149385Y197600D02*
X151885Y195100D01*
X141885D02*
X146885D01*
X149385Y197600D01*
X166885Y195100D02*
X169385Y197600D01*
X151885Y195100D02*
X156885D01*
X161885D02*
X166885D01*
X156885D02*
X159385Y197600D01*
X161885Y195100D01*
X159385Y197600D02*
Y202600D01*
X119385Y197600D02*
Y202600D01*
X121885Y205100D02*
X126885D01*
X129385Y202600D02*
X131885Y205100D01*
X119385Y202600D02*
X121885Y205100D01*
X126885D02*
X129385Y202600D01*
X139385D02*
X141885Y205100D01*
X131885D02*
X136885D01*
X139385Y202600D01*
X149385Y197600D02*
Y202600D01*
X141885Y205100D02*
X146885D01*
X149385Y202600D02*
X151885Y205100D01*
X169385Y197600D02*
Y202600D01*
X146885Y205100D02*
X149385Y202600D01*
X151885Y205100D02*
X156885D01*
X159385Y202600D01*
X161885Y205100D01*
X166885D01*
X169385Y202600D01*
X219045Y-7468D02*
X220954D01*
X219045Y-2531D02*
X220954D01*
X227900Y-10339D02*
Y-9661D01*
X232100Y-10339D02*
Y-9661D01*
X219045Y77531D02*
X220954D01*
X219045Y82468D02*
X220954D01*
X227900Y74661D02*
Y75339D01*
X232100Y74661D02*
Y75339D01*
X214046Y252532D02*
X215954D01*
X214046Y257469D02*
X215954D01*
X222900Y249661D02*
Y250339D01*
X227100Y249661D02*
Y250339D01*
X214046Y152532D02*
X215954D01*
X214046Y157468D02*
X215954D01*
X222900Y149661D02*
Y150339D01*
X227100Y149661D02*
Y150339D01*
X245885Y97600D02*
Y102600D01*
Y97600D02*
X248385Y95100D01*
X245885Y107600D02*
X248385Y105100D01*
X245885Y102600D02*
X248385Y105100D01*
Y95100D02*
X263385D01*
X248385Y105100D02*
X263385D01*
X245885Y112600D02*
X248385Y115100D01*
X245885Y107600D02*
Y112600D01*
Y117600D02*
Y122600D01*
Y117600D02*
X248385Y115100D01*
X263385D01*
X245885Y122600D02*
X248385Y125100D01*
X263385D01*
Y95100D02*
X265885Y97600D01*
Y102600D01*
X263385Y105100D02*
X265885Y107600D01*
X263385Y105100D02*
X265885Y102600D01*
X263385Y115100D02*
X265885Y112600D01*
Y107600D02*
Y112600D01*
X263385Y115100D02*
X265885Y117600D01*
Y122600D01*
X263385Y125100D02*
X265885Y122600D01*
X365385Y47600D02*
Y52600D01*
Y47600D02*
X367885Y45100D01*
X365385Y52600D02*
X367885Y55100D01*
X365385Y57600D02*
Y62600D01*
Y57600D02*
X367885Y55100D01*
X365385Y62600D02*
X367885Y65100D01*
X365385Y27600D02*
Y32600D01*
Y27600D02*
X367885Y25100D01*
X365385Y32600D02*
X367885Y35100D01*
X365385Y37600D02*
Y42600D01*
Y37600D02*
X367885Y35100D01*
X365385Y42600D02*
X367885Y45100D01*
X365385Y87600D02*
Y92600D01*
Y97600D02*
Y102600D01*
Y107600D02*
X367885Y105100D01*
X365385Y107600D02*
Y112600D01*
X367885Y115100D01*
X365385Y117600D02*
X367885Y115100D01*
X365385Y67600D02*
Y72600D01*
Y67600D02*
X367885Y65100D01*
X365385Y72600D02*
X367885Y75100D01*
X365385Y77600D02*
Y82600D01*
Y77600D02*
X367885Y75100D01*
X365385Y82600D02*
X367885Y85100D01*
Y25100D02*
X382885D01*
X367885Y55100D02*
X382885D01*
X367885Y35100D02*
X382885D01*
X367885Y45100D02*
X382885D01*
X367885Y65100D02*
X382885D01*
X365385Y87600D02*
X367885Y85100D01*
X365385Y102600D02*
X367885Y105100D01*
X365385Y92600D02*
X367885Y95100D01*
X365385Y97600D02*
X367885Y95100D01*
X382885D01*
X367885Y75100D02*
X382885D01*
X367885Y85100D02*
X382885D01*
X367885Y105100D02*
X382885D01*
X367885Y115100D02*
X382885D01*
X365385Y137600D02*
Y142600D01*
X367885Y145100D01*
X365385Y147600D02*
X367885Y145100D01*
X365385Y147600D02*
Y152600D01*
X367885Y155100D01*
X365385Y157600D02*
X367885Y155100D01*
X365385Y117600D02*
Y122600D01*
X367885Y125100D01*
X365385Y127600D02*
X367885Y125100D01*
X365385Y127600D02*
Y132600D01*
X367885Y135100D01*
X365385Y137600D02*
X367885Y135100D01*
X365385Y187600D02*
Y192600D01*
Y187600D02*
X367885Y185100D01*
X365385Y192600D02*
X367885Y195100D01*
X365385Y197600D02*
Y202600D01*
Y197600D02*
X367885Y195100D01*
X365385Y202600D02*
X367885Y205100D01*
X365385Y157600D02*
Y162600D01*
X367885Y165100D01*
X365385Y167600D02*
X367885Y165100D01*
X365385Y167600D02*
Y172600D01*
Y177600D02*
Y182600D01*
Y172600D02*
X367885Y175100D01*
X365385Y177600D02*
X367885Y175100D01*
Y125100D02*
X382885D01*
X367885Y155100D02*
X382885D01*
X367885Y135100D02*
X382885D01*
X367885Y145100D02*
X382885D01*
X365385Y182600D02*
X367885Y185100D01*
Y165100D02*
X382885D01*
X367885Y175100D02*
X382885D01*
X367885Y185100D02*
X382885D01*
X367885Y195100D02*
X382885D01*
X367885Y205100D02*
X382885D01*
Y25100D02*
X385385Y27600D01*
X382885Y45100D02*
X385385Y42600D01*
X382885Y35100D02*
X385385Y32600D01*
X382885Y35100D02*
X385385Y37600D01*
X382885Y65100D02*
X385385Y62600D01*
X382885Y45100D02*
X385385Y47600D01*
X382885Y55100D02*
X385385Y52600D01*
Y47600D02*
Y52600D01*
Y27600D02*
Y32600D01*
Y37600D02*
Y42600D01*
X382885Y65100D02*
X385385Y67600D01*
X382885Y55100D02*
X385385Y57600D01*
Y62600D01*
X382885Y85100D02*
X385385Y87600D01*
X382885Y75100D02*
X385385Y77600D01*
X382885Y85100D02*
X385385Y82600D01*
X382885Y105100D02*
X385385Y107600D01*
X382885Y95100D02*
X385385Y92600D01*
X382885Y95100D02*
X385385Y97600D01*
Y77600D02*
Y82600D01*
Y67600D02*
Y72600D01*
X382885Y75100D02*
X385385Y72600D01*
X382885Y105100D02*
X385385Y102600D01*
Y107600D02*
Y112600D01*
Y87600D02*
Y92600D01*
Y97600D02*
Y102600D01*
X382885Y135100D02*
X385385Y132600D01*
X382885Y135100D02*
X385385Y137600D01*
Y142600D01*
X382885Y125100D02*
X385385Y122600D01*
X382885Y115100D02*
X385385Y112600D01*
X382885Y115100D02*
X385385Y117600D01*
X382885Y155100D02*
X385385Y152600D01*
X382885Y125100D02*
X385385Y127600D01*
X382885Y145100D02*
X385385Y142600D01*
X382885Y145100D02*
X385385Y147600D01*
Y117600D02*
Y122600D01*
Y127600D02*
Y132600D01*
Y157600D02*
Y162600D01*
Y147600D02*
Y152600D01*
X382885Y155100D02*
X385385Y157600D01*
X382885Y175100D02*
X385385Y172600D01*
X382885Y165100D02*
X385385Y162600D01*
X382885Y165100D02*
X385385Y167600D01*
X382885Y185100D02*
X385385Y187600D01*
X382885Y175100D02*
X385385Y177600D01*
X382885Y185100D02*
X385385Y182600D01*
Y187600D02*
Y192600D01*
Y167600D02*
Y172600D01*
Y177600D02*
Y182600D01*
Y197600D02*
Y202600D01*
X382885Y205100D02*
X385385Y202600D01*
X382885Y195100D02*
X385385Y192600D01*
X382885Y195100D02*
X385385Y197600D01*
X566299Y269999D02*
X565900Y270399D01*
X565100D01*
X564700Y269999D01*
Y268400D01*
X565100Y268000D01*
X565900D01*
X566299Y268400D01*
X567099Y269999D02*
X567499Y270399D01*
X568299D01*
X568699Y269999D01*
Y269600D01*
X568299Y269200D01*
X567899D01*
X568299D01*
X568699Y268800D01*
Y268400D01*
X568299Y268000D01*
X567499D01*
X567099Y268400D01*
X569498Y270399D02*
X571098D01*
Y269999D01*
X569498Y268400D01*
Y268000D01*
D42*
X160984Y154488D02*
X170630D01*
Y115512D02*
Y154488D01*
X160984Y115512D02*
X170630D01*
X160984Y254488D02*
X170630D01*
Y215512D02*
Y254488D01*
X160984Y215512D02*
X170630D01*
X160984Y79488D02*
X170630D01*
Y40512D02*
Y79488D01*
X160984Y40512D02*
X170630D01*
X160984Y-5512D02*
X170630D01*
Y-44488D02*
Y-5512D01*
X160984Y-44488D02*
X170630D01*
X475000Y50000D02*
Y170000D01*
Y50000D02*
X595000D01*
X475000Y170000D02*
X590000D01*
X595000Y50000D02*
Y165000D01*
X590000Y170000D02*
X595000Y165000D01*
D43*
X207461Y-22150D02*
Y-15850D01*
X212539Y-22150D02*
Y-15850D01*
X207461Y62850D02*
Y69150D01*
X212539Y62850D02*
Y69150D01*
X504350Y-45039D02*
X510650D01*
X504350Y-39961D02*
X510650D01*
X504350Y14961D02*
X510650D01*
X504350Y20039D02*
X510650D01*
X534350Y-45039D02*
X540650D01*
X534350Y-39961D02*
X540650D01*
X534350Y14961D02*
X540650D01*
X534350Y20039D02*
X540650D01*
X564350Y-45039D02*
X570650D01*
X564350Y-39961D02*
X570650D01*
X564350Y14961D02*
X570650D01*
X564350Y20039D02*
X570650D01*
X594350Y-45039D02*
X600650D01*
X594350Y-39961D02*
X600650D01*
X594350Y14961D02*
X600650D01*
X594350Y20039D02*
X600650D01*
X624350Y-45039D02*
X630650D01*
X624350Y-39961D02*
X630650D01*
X624350Y14961D02*
X630650D01*
X624350Y20039D02*
X630650D01*
X654350Y-45039D02*
X660650D01*
X654350Y-39961D02*
X660650D01*
X654350Y14961D02*
X660650D01*
X654350Y20039D02*
X660650D01*
X444350Y-45039D02*
X450650D01*
X444350Y-39961D02*
X450650D01*
X444350Y14961D02*
X450650D01*
X444350Y20039D02*
X450650D01*
X474350Y-45039D02*
X480650D01*
X474350Y-39961D02*
X480650D01*
X474350Y14961D02*
X480650D01*
X474350Y20039D02*
X480650D01*
X413850Y14461D02*
X420150D01*
X413850Y19539D02*
X420150D01*
X414350Y-45039D02*
X420650D01*
X414350Y-39961D02*
X420650D01*
X207461Y236850D02*
Y243150D01*
X212539Y236850D02*
Y243150D01*
X207461Y136850D02*
Y143150D01*
X212539Y136850D02*
Y143150D01*
X506850Y259961D02*
X513150D01*
X506850Y265039D02*
X513150D01*
X506850Y199961D02*
X513150D01*
X506850Y205039D02*
X513150D01*
X536850Y259961D02*
X543150D01*
X536850Y265039D02*
X543150D01*
X536850Y199961D02*
X543150D01*
X536850Y205039D02*
X543150D01*
X566850Y259961D02*
X573150D01*
X566850Y265039D02*
X573150D01*
X566850Y199961D02*
X573150D01*
X566850Y205039D02*
X573150D01*
X596850Y259961D02*
X603150D01*
X596850Y265039D02*
X603150D01*
X596850Y199961D02*
X603150D01*
X596850Y205039D02*
X603150D01*
X626850Y259961D02*
X633150D01*
X626850Y265039D02*
X633150D01*
X626850Y199961D02*
X633150D01*
X626850Y205039D02*
X633150D01*
X656850Y259961D02*
X663150D01*
X656850Y265039D02*
X663150D01*
X656850Y199961D02*
X663150D01*
X656850Y205039D02*
X663150D01*
X446850Y259961D02*
X453150D01*
X446850Y265039D02*
X453150D01*
X446850Y199961D02*
X453150D01*
X446850Y205039D02*
X453150D01*
X476850Y259961D02*
X483150D01*
X476850Y265039D02*
X483150D01*
X476850Y199961D02*
X483150D01*
X476850Y205039D02*
X483150D01*
X414350Y200461D02*
X420650D01*
X414350Y205539D02*
X420650D01*
X414350Y259961D02*
X420650D01*
X414350Y265039D02*
X420650D01*
X65600Y75100D02*
Y110400D01*
X51900Y75000D02*
Y110400D01*
Y75000D02*
X82500D01*
X51900Y110400D02*
X65600D01*
X105000D01*
Y75000D02*
Y83750D01*
X103750Y75000D02*
X105000D01*
Y105000D02*
Y110400D01*
D44*
X126000Y-49801D02*
Y-54600D01*
X129199D01*
X133198D02*
X131598D01*
X130798Y-53800D01*
Y-52201D01*
X131598Y-51401D01*
X133198D01*
X133997Y-52201D01*
Y-53000D01*
X130798D01*
X136397Y-54600D02*
Y-50601D01*
Y-52201D01*
X135597D01*
X137196D01*
X136397D01*
Y-50601D01*
X137196Y-49801D01*
X140395Y-50601D02*
Y-51401D01*
X139596D01*
X141195D01*
X140395D01*
Y-53800D01*
X141195Y-54600D01*
X149193Y-51401D02*
X150792D01*
X151592Y-52201D01*
Y-54600D01*
X149193D01*
X148393Y-53800D01*
X149193Y-53000D01*
X151592D01*
X153191Y-54600D02*
Y-51401D01*
X155590D01*
X156390Y-52201D01*
Y-54600D01*
X158789Y-51401D02*
X160389D01*
X161189Y-52201D01*
Y-54600D01*
X158789D01*
X157990Y-53800D01*
X158789Y-53000D01*
X161189D01*
X162788Y-54600D02*
X164388D01*
X163588D01*
Y-49801D01*
X162788D01*
X167587Y-54600D02*
X169186D01*
X169986Y-53800D01*
Y-52201D01*
X169186Y-51401D01*
X167587D01*
X166787Y-52201D01*
Y-53800D01*
X167587Y-54600D01*
X173185Y-56200D02*
X173985D01*
X174784Y-55400D01*
Y-51401D01*
X172385D01*
X171585Y-52201D01*
Y-53800D01*
X172385Y-54600D01*
X174784D01*
X181182Y-56200D02*
Y-51401D01*
X183581D01*
X184381Y-52201D01*
Y-53800D01*
X183581Y-54600D01*
X181182D01*
X186780D02*
X188380D01*
X189180Y-53800D01*
Y-52201D01*
X188380Y-51401D01*
X186780D01*
X185981Y-52201D01*
Y-53800D01*
X186780Y-54600D01*
X190779Y-51401D02*
Y-53800D01*
X191579Y-54600D01*
X192379Y-53800D01*
X193178Y-54600D01*
X193978Y-53800D01*
Y-51401D01*
X197977Y-54600D02*
X196377D01*
X195578Y-53800D01*
Y-52201D01*
X196377Y-51401D01*
X197977D01*
X198776Y-52201D01*
Y-53000D01*
X195578D01*
X200376Y-51401D02*
Y-54600D01*
Y-53000D01*
X201176Y-52201D01*
X201975Y-51401D01*
X202775D01*
X209973D02*
Y-54600D01*
Y-53000D01*
X210773Y-52201D01*
X211572Y-51401D01*
X212372D01*
X217171Y-54600D02*
X215571D01*
X214771Y-53800D01*
Y-52201D01*
X215571Y-51401D01*
X217171D01*
X217970Y-52201D01*
Y-53000D01*
X214771D01*
X221169Y-56200D02*
X221969D01*
X222769Y-55400D01*
Y-51401D01*
X220370D01*
X219570Y-52201D01*
Y-53800D01*
X220370Y-54600D01*
X222769D01*
X224368Y-51401D02*
Y-53800D01*
X225168Y-54600D01*
X227567D01*
Y-51401D01*
X229167Y-54600D02*
X230766D01*
X229966D01*
Y-49801D01*
X229167D01*
X233965Y-51401D02*
X235565D01*
X236364Y-52201D01*
Y-54600D01*
X233965D01*
X233165Y-53800D01*
X233965Y-53000D01*
X236364D01*
X238764Y-50601D02*
Y-51401D01*
X237964D01*
X239563D01*
X238764D01*
Y-53800D01*
X239563Y-54600D01*
X242762D02*
X244362D01*
X245162Y-53800D01*
Y-52201D01*
X244362Y-51401D01*
X242762D01*
X241963Y-52201D01*
Y-53800D01*
X242762Y-54600D01*
X246761Y-51401D02*
Y-54600D01*
Y-53000D01*
X247561Y-52201D01*
X248360Y-51401D01*
X249160D01*
X257957Y-54600D02*
X256358Y-53000D01*
Y-51401D01*
X257957Y-49801D01*
X260357Y-50601D02*
X261156Y-49801D01*
X262756D01*
X263556Y-50601D01*
Y-51401D01*
X262756Y-52201D01*
X261956D01*
X262756D01*
X263556Y-53000D01*
Y-53800D01*
X262756Y-54600D01*
X261156D01*
X260357Y-53800D01*
X265155Y-54600D02*
Y-53800D01*
X265955D01*
Y-54600D01*
X265155D01*
X269154Y-50601D02*
X269953Y-49801D01*
X271553D01*
X272353Y-50601D01*
Y-51401D01*
X271553Y-52201D01*
X270753D01*
X271553D01*
X272353Y-53000D01*
Y-53800D01*
X271553Y-54600D01*
X269953D01*
X269154Y-53800D01*
X273952Y-49801D02*
Y-53000D01*
X275552Y-54600D01*
X277151Y-53000D01*
Y-49801D01*
X278751Y-54600D02*
X280350Y-53000D01*
Y-51401D01*
X278751Y-49801D01*
X126000Y91198D02*
Y86400D01*
X129199D01*
X133198D02*
X131598D01*
X130798Y87200D01*
Y88799D01*
X131598Y89599D01*
X133198D01*
X133997Y88799D01*
Y87999D01*
X130798D01*
X136397Y86400D02*
Y90399D01*
Y88799D01*
X135597D01*
X137196D01*
X136397D01*
Y90399D01*
X137196Y91198D01*
X140395Y90399D02*
Y89599D01*
X139596D01*
X141195D01*
X140395D01*
Y87200D01*
X141195Y86400D01*
X151592Y91198D02*
Y86400D01*
X149193D01*
X148393Y87200D01*
Y88799D01*
X149193Y89599D01*
X151592D01*
X153191Y86400D02*
X154791D01*
X153991D01*
Y89599D01*
X153191D01*
X158789Y84800D02*
X159589D01*
X160389Y85600D01*
Y89599D01*
X157990D01*
X157190Y88799D01*
Y87200D01*
X157990Y86400D01*
X160389D01*
X161988D02*
X163588D01*
X162788D01*
Y89599D01*
X161988D01*
X166787Y90399D02*
Y89599D01*
X165987D01*
X167587D01*
X166787D01*
Y87200D01*
X167587Y86400D01*
X170785Y89599D02*
X172385D01*
X173185Y88799D01*
Y86400D01*
X170785D01*
X169986Y87200D01*
X170785Y87999D01*
X173185D01*
X174784Y86400D02*
X176384D01*
X175584D01*
Y91198D01*
X174784D01*
X183581Y84800D02*
Y89599D01*
X185981D01*
X186780Y88799D01*
Y87200D01*
X185981Y86400D01*
X183581D01*
X189180D02*
X190779D01*
X191579Y87200D01*
Y88799D01*
X190779Y89599D01*
X189180D01*
X188380Y88799D01*
Y87200D01*
X189180Y86400D01*
X193178Y89599D02*
Y87200D01*
X193978Y86400D01*
X194778Y87200D01*
X195578Y86400D01*
X196377Y87200D01*
Y89599D01*
X200376Y86400D02*
X198776D01*
X197977Y87200D01*
Y88799D01*
X198776Y89599D01*
X200376D01*
X201176Y88799D01*
Y87999D01*
X197977D01*
X202775Y89599D02*
Y86400D01*
Y87999D01*
X203575Y88799D01*
X204375Y89599D01*
X205174D01*
X212372D02*
Y86400D01*
Y87999D01*
X213172Y88799D01*
X213972Y89599D01*
X214771D01*
X219570Y86400D02*
X217970D01*
X217171Y87200D01*
Y88799D01*
X217970Y89599D01*
X219570D01*
X220370Y88799D01*
Y87999D01*
X217171D01*
X223569Y84800D02*
X224368D01*
X225168Y85600D01*
Y89599D01*
X222769D01*
X221969Y88799D01*
Y87200D01*
X222769Y86400D01*
X225168D01*
X226767Y89599D02*
Y87200D01*
X227567Y86400D01*
X229966D01*
Y89599D01*
X231566Y86400D02*
X233165D01*
X232366D01*
Y91198D01*
X231566D01*
X236364Y89599D02*
X237964D01*
X238764Y88799D01*
Y86400D01*
X236364D01*
X235565Y87200D01*
X236364Y87999D01*
X238764D01*
X241163Y90399D02*
Y89599D01*
X240363D01*
X241963D01*
X241163D01*
Y87200D01*
X241963Y86400D01*
X245162D02*
X246761D01*
X247561Y87200D01*
Y88799D01*
X246761Y89599D01*
X245162D01*
X244362Y88799D01*
Y87200D01*
X245162Y86400D01*
X249160Y89599D02*
Y86400D01*
Y87999D01*
X249960Y88799D01*
X250760Y89599D01*
X251559D01*
X260357Y86400D02*
X258757Y87999D01*
Y89599D01*
X260357Y91198D01*
X262756Y90399D02*
X263556Y91198D01*
X265155D01*
X265955Y90399D01*
Y89599D01*
X265155Y88799D01*
X264355D01*
X265155D01*
X265955Y87999D01*
Y87200D01*
X265155Y86400D01*
X263556D01*
X262756Y87200D01*
X267554Y86400D02*
Y87200D01*
X268354D01*
Y86400D01*
X267554D01*
X271553Y90399D02*
X272353Y91198D01*
X273952D01*
X274752Y90399D01*
Y89599D01*
X273952Y88799D01*
X273152D01*
X273952D01*
X274752Y87999D01*
Y87200D01*
X273952Y86400D01*
X272353D01*
X271553Y87200D01*
X276351Y91198D02*
Y87999D01*
X277951Y86400D01*
X279550Y87999D01*
Y91198D01*
X281150Y86400D02*
X282749Y87999D01*
Y89599D01*
X281150Y91198D01*
X126000Y261400D02*
Y266198D01*
X128399D01*
X129199Y265399D01*
Y263799D01*
X128399Y263000D01*
X126000D01*
X127600D02*
X129199Y261400D01*
X130798D02*
X132398D01*
X131598D01*
Y264599D01*
X130798D01*
X136397Y259801D02*
X137196D01*
X137996Y260600D01*
Y264599D01*
X135597D01*
X134797Y263799D01*
Y262200D01*
X135597Y261400D01*
X137996D01*
X139596Y266198D02*
Y261400D01*
Y263799D01*
X140395Y264599D01*
X141995D01*
X142795Y263799D01*
Y261400D01*
X145194Y265399D02*
Y264599D01*
X144394D01*
X145993D01*
X145194D01*
Y262200D01*
X145993Y261400D01*
X153991Y264599D02*
X155590D01*
X156390Y263799D01*
Y261400D01*
X153991D01*
X153191Y262200D01*
X153991Y263000D01*
X156390D01*
X157990Y261400D02*
Y264599D01*
X160389D01*
X161189Y263799D01*
Y261400D01*
X163588Y264599D02*
X165187D01*
X165987Y263799D01*
Y261400D01*
X163588D01*
X162788Y262200D01*
X163588Y263000D01*
X165987D01*
X167587Y261400D02*
X169186D01*
X168386D01*
Y266198D01*
X167587D01*
X172385Y261400D02*
X173985D01*
X174784Y262200D01*
Y263799D01*
X173985Y264599D01*
X172385D01*
X171585Y263799D01*
Y262200D01*
X172385Y261400D01*
X177983Y259801D02*
X178783D01*
X179583Y260600D01*
Y264599D01*
X177183D01*
X176384Y263799D01*
Y262200D01*
X177183Y261400D01*
X179583D01*
X185981Y259801D02*
Y264599D01*
X188380D01*
X189180Y263799D01*
Y262200D01*
X188380Y261400D01*
X185981D01*
X191579D02*
X193178D01*
X193978Y262200D01*
Y263799D01*
X193178Y264599D01*
X191579D01*
X190779Y263799D01*
Y262200D01*
X191579Y261400D01*
X195578Y264599D02*
Y262200D01*
X196377Y261400D01*
X197177Y262200D01*
X197977Y261400D01*
X198776Y262200D01*
Y264599D01*
X202775Y261400D02*
X201176D01*
X200376Y262200D01*
Y263799D01*
X201176Y264599D01*
X202775D01*
X203575Y263799D01*
Y263000D01*
X200376D01*
X205174Y264599D02*
Y261400D01*
Y263000D01*
X205974Y263799D01*
X206774Y264599D01*
X207574D01*
X214771D02*
Y261400D01*
Y263000D01*
X215571Y263799D01*
X216371Y264599D01*
X217171D01*
X221969Y261400D02*
X220370D01*
X219570Y262200D01*
Y263799D01*
X220370Y264599D01*
X221969D01*
X222769Y263799D01*
Y263000D01*
X219570D01*
X225968Y259801D02*
X226767D01*
X227567Y260600D01*
Y264599D01*
X225168D01*
X224368Y263799D01*
Y262200D01*
X225168Y261400D01*
X227567D01*
X229167Y264599D02*
Y262200D01*
X229966Y261400D01*
X232366D01*
Y264599D01*
X233965Y261400D02*
X235565D01*
X234765D01*
Y266198D01*
X233965D01*
X238764Y264599D02*
X240363D01*
X241163Y263799D01*
Y261400D01*
X238764D01*
X237964Y262200D01*
X238764Y263000D01*
X241163D01*
X243562Y265399D02*
Y264599D01*
X242762D01*
X244362D01*
X243562D01*
Y262200D01*
X244362Y261400D01*
X247561D02*
X249160D01*
X249960Y262200D01*
Y263799D01*
X249160Y264599D01*
X247561D01*
X246761Y263799D01*
Y262200D01*
X247561Y261400D01*
X251559Y264599D02*
Y261400D01*
Y263000D01*
X252359Y263799D01*
X253159Y264599D01*
X253959D01*
X262756Y261400D02*
X261156Y263000D01*
Y264599D01*
X262756Y266198D01*
X265155Y265399D02*
X265955Y266198D01*
X267554D01*
X268354Y265399D01*
Y264599D01*
X267554Y263799D01*
X266755D01*
X267554D01*
X268354Y263000D01*
Y262200D01*
X267554Y261400D01*
X265955D01*
X265155Y262200D01*
X269953Y261400D02*
Y262200D01*
X270753D01*
Y261400D01*
X269953D01*
X273952Y265399D02*
X274752Y266198D01*
X276351D01*
X277151Y265399D01*
Y264599D01*
X276351Y263799D01*
X275552D01*
X276351D01*
X277151Y263000D01*
Y262200D01*
X276351Y261400D01*
X274752D01*
X273952Y262200D01*
X278751Y266198D02*
Y263000D01*
X280350Y261400D01*
X281950Y263000D01*
Y266198D01*
X283549Y261400D02*
X285149Y263000D01*
Y264599D01*
X283549Y266198D01*
X126000Y161400D02*
Y166199D01*
X128399D01*
X129199Y165399D01*
Y163799D01*
X128399Y162999D01*
X126000D01*
X127600D02*
X129199Y161400D01*
X130798D02*
X132398D01*
X131598D01*
Y164599D01*
X130798D01*
X136397Y159801D02*
X137196D01*
X137996Y160600D01*
Y164599D01*
X135597D01*
X134797Y163799D01*
Y162200D01*
X135597Y161400D01*
X137996D01*
X139596Y166199D02*
Y161400D01*
Y163799D01*
X140395Y164599D01*
X141995D01*
X142795Y163799D01*
Y161400D01*
X145194Y165399D02*
Y164599D01*
X144394D01*
X145993D01*
X145194D01*
Y162200D01*
X145993Y161400D01*
X156390Y166199D02*
Y161400D01*
X153991D01*
X153191Y162200D01*
Y163799D01*
X153991Y164599D01*
X156390D01*
X157990Y161400D02*
X159589D01*
X158789D01*
Y164599D01*
X157990D01*
X163588Y159801D02*
X164388D01*
X165187Y160600D01*
Y164599D01*
X162788D01*
X161988Y163799D01*
Y162200D01*
X162788Y161400D01*
X165187D01*
X166787D02*
X168386D01*
X167587D01*
Y164599D01*
X166787D01*
X171585Y165399D02*
Y164599D01*
X170785D01*
X172385D01*
X171585D01*
Y162200D01*
X172385Y161400D01*
X175584Y164599D02*
X177183D01*
X177983Y163799D01*
Y161400D01*
X175584D01*
X174784Y162200D01*
X175584Y162999D01*
X177983D01*
X179583Y161400D02*
X181182D01*
X180382D01*
Y166199D01*
X179583D01*
X188380Y159801D02*
Y164599D01*
X190779D01*
X191579Y163799D01*
Y162200D01*
X190779Y161400D01*
X188380D01*
X193978D02*
X195578D01*
X196377Y162200D01*
Y163799D01*
X195578Y164599D01*
X193978D01*
X193178Y163799D01*
Y162200D01*
X193978Y161400D01*
X197977Y164599D02*
Y162200D01*
X198776Y161400D01*
X199576Y162200D01*
X200376Y161400D01*
X201176Y162200D01*
Y164599D01*
X205174Y161400D02*
X203575D01*
X202775Y162200D01*
Y163799D01*
X203575Y164599D01*
X205174D01*
X205974Y163799D01*
Y162999D01*
X202775D01*
X207574Y164599D02*
Y161400D01*
Y162999D01*
X208373Y163799D01*
X209173Y164599D01*
X209973D01*
X217171D02*
Y161400D01*
Y162999D01*
X217970Y163799D01*
X218770Y164599D01*
X219570D01*
X224368Y161400D02*
X222769D01*
X221969Y162200D01*
Y163799D01*
X222769Y164599D01*
X224368D01*
X225168Y163799D01*
Y162999D01*
X221969D01*
X228367Y159801D02*
X229167D01*
X229966Y160600D01*
Y164599D01*
X227567D01*
X226767Y163799D01*
Y162200D01*
X227567Y161400D01*
X229966D01*
X231566Y164599D02*
Y162200D01*
X232366Y161400D01*
X234765D01*
Y164599D01*
X236364Y161400D02*
X237964D01*
X237164D01*
Y166199D01*
X236364D01*
X241163Y164599D02*
X242762D01*
X243562Y163799D01*
Y161400D01*
X241163D01*
X240363Y162200D01*
X241163Y162999D01*
X243562D01*
X245961Y165399D02*
Y164599D01*
X245162D01*
X246761D01*
X245961D01*
Y162200D01*
X246761Y161400D01*
X249960D02*
X251559D01*
X252359Y162200D01*
Y163799D01*
X251559Y164599D01*
X249960D01*
X249160Y163799D01*
Y162200D01*
X249960Y161400D01*
X253959Y164599D02*
Y161400D01*
Y162999D01*
X254758Y163799D01*
X255558Y164599D01*
X256358D01*
X265155Y161400D02*
X263556Y162999D01*
Y164599D01*
X265155Y166199D01*
X267554Y165399D02*
X268354Y166199D01*
X269953D01*
X270753Y165399D01*
Y164599D01*
X269953Y163799D01*
X269154D01*
X269953D01*
X270753Y162999D01*
Y162200D01*
X269953Y161400D01*
X268354D01*
X267554Y162200D01*
X272353Y161400D02*
Y162200D01*
X273152D01*
Y161400D01*
X272353D01*
X276351Y165399D02*
X277151Y166199D01*
X278751D01*
X279550Y165399D01*
Y164599D01*
X278751Y163799D01*
X277951D01*
X278751D01*
X279550Y162999D01*
Y162200D01*
X278751Y161400D01*
X277151D01*
X276351Y162200D01*
X281150Y166199D02*
Y162999D01*
X282749Y161400D01*
X284349Y162999D01*
Y166199D01*
X285948Y161400D02*
X287548Y162999D01*
Y164599D01*
X285948Y166199D01*
D45*
X413599Y269799D02*
X413200Y270199D01*
X412400D01*
X412000Y269799D01*
Y268200D01*
X412400Y267800D01*
X413200D01*
X413599Y268200D01*
X415999Y270199D02*
X414399D01*
Y269000D01*
X415199Y269399D01*
X415599D01*
X415999Y269000D01*
Y268200D01*
X415599Y267800D01*
X414799D01*
X414399Y268200D01*
X416798Y269799D02*
X417198Y270199D01*
X417998D01*
X418398Y269799D01*
Y268200D01*
X417998Y267800D01*
X417198D01*
X416798Y268200D01*
Y269799D01*
X413599Y197299D02*
X413200Y197699D01*
X412400D01*
X412000Y197299D01*
Y195700D01*
X412400Y195300D01*
X413200D01*
X413599Y195700D01*
X415599Y195300D02*
Y197699D01*
X414399Y196500D01*
X415999D01*
X416798Y195700D02*
X417198Y195300D01*
X417998D01*
X418398Y195700D01*
Y197299D01*
X417998Y197699D01*
X417198D01*
X416798Y197299D01*
Y196899D01*
X417198Y196500D01*
X418398D01*
X413599Y-48201D02*
X413200Y-47801D01*
X412400D01*
X412000Y-48201D01*
Y-49800D01*
X412400Y-50200D01*
X413200D01*
X413599Y-49800D01*
X415999Y-50200D02*
X414399D01*
X415999Y-48601D01*
Y-48201D01*
X415599Y-47801D01*
X414799D01*
X414399Y-48201D01*
X418398Y-47801D02*
X416798D01*
Y-49000D01*
X417598Y-48601D01*
X417998D01*
X418398Y-49000D01*
Y-49800D01*
X417998Y-50200D01*
X417198D01*
X416798Y-49800D01*
X413099Y24299D02*
X412700Y24699D01*
X411900D01*
X411500Y24299D01*
Y22700D01*
X411900Y22300D01*
X412700D01*
X413099Y22700D01*
X415499Y22300D02*
X413899D01*
X415499Y23900D01*
Y24299D01*
X415099Y24699D01*
X414299D01*
X413899Y24299D01*
X417498Y22300D02*
Y24699D01*
X416298Y23500D01*
X417898D01*
X582601Y224900D02*
Y224100D01*
X583001Y223700D01*
X584600D01*
X585000Y224100D01*
Y224900D01*
X584600Y225300D01*
X583001D01*
X582601Y224900D01*
X585800Y226099D02*
X583400D01*
Y227299D01*
X583800Y227699D01*
X584600D01*
X585000Y227299D01*
Y226099D01*
X583001Y228898D02*
X583400D01*
Y228498D01*
Y229298D01*
Y228898D01*
X584600D01*
X585000Y229298D01*
X583800Y230498D02*
Y232097D01*
X583001Y234496D02*
X582601Y234097D01*
Y233297D01*
X583001Y232897D01*
X584600D01*
X585000Y233297D01*
Y234097D01*
X584600Y234496D01*
X583800D01*
Y233697D01*
X585000Y235296D02*
Y236096D01*
Y235696D01*
X582601D01*
X583001Y235296D01*
X583800Y237296D02*
Y238895D01*
X585000Y239695D02*
X582601D01*
Y240894D01*
X583001Y241294D01*
X583800D01*
X584200Y240894D01*
Y239695D01*
Y240494D02*
X585000Y241294D01*
X566100Y196799D02*
X565700Y197199D01*
X564900D01*
X564500Y196799D01*
Y195200D01*
X564900Y194800D01*
X565700D01*
X566100Y195200D01*
X566899Y196799D02*
X567299Y197199D01*
X568099D01*
X568499Y196799D01*
Y196399D01*
X568099Y196000D01*
X567699D01*
X568099D01*
X568499Y195600D01*
Y195200D01*
X568099Y194800D01*
X567299D01*
X566899Y195200D01*
X569298Y196799D02*
X569698Y197199D01*
X570498D01*
X570898Y196799D01*
Y196399D01*
X570498Y196000D01*
X570898Y195600D01*
Y195200D01*
X570498Y194800D01*
X569698D01*
X569298Y195200D01*
Y195600D01*
X569698Y196000D01*
X569298Y196399D01*
Y196799D01*
X569698Y196000D02*
X570498D01*
X215599Y-19001D02*
X215200Y-18601D01*
X214400D01*
X214000Y-19001D01*
Y-20600D01*
X214400Y-21000D01*
X215200D01*
X215599Y-20600D01*
X216399Y-21000D02*
X217199D01*
X216799D01*
Y-18601D01*
X216399Y-19001D01*
X215100Y65499D02*
X214700Y65899D01*
X213900D01*
X213500Y65499D01*
Y63900D01*
X213900Y63500D01*
X214700D01*
X215100Y63900D01*
X217499Y63500D02*
X215899D01*
X217499Y65100D01*
Y65499D01*
X217099Y65899D01*
X216299D01*
X215899Y65499D01*
X215100Y-39001D02*
X214700Y-38601D01*
X213900D01*
X213500Y-39001D01*
Y-40600D01*
X213900Y-41000D01*
X214700D01*
X215100Y-40600D01*
X215899Y-39001D02*
X216299Y-38601D01*
X217099D01*
X217499Y-39001D01*
Y-39401D01*
X217099Y-39800D01*
X216699D01*
X217099D01*
X217499Y-40200D01*
Y-40600D01*
X217099Y-41000D01*
X216299D01*
X215899Y-40600D01*
X214599Y45999D02*
X214200Y46399D01*
X213400D01*
X213000Y45999D01*
Y44400D01*
X213400Y44000D01*
X214200D01*
X214599Y44400D01*
X216599Y44000D02*
Y46399D01*
X215399Y45200D01*
X216999D01*
X503600Y-48201D02*
X503200Y-47801D01*
X502400D01*
X502000Y-48201D01*
Y-49800D01*
X502400Y-50200D01*
X503200D01*
X503600Y-49800D01*
X504399Y-48201D02*
X504799Y-47801D01*
X505599D01*
X505999Y-48201D01*
Y-48601D01*
X505599Y-49000D01*
X505999Y-49400D01*
Y-49800D01*
X505599Y-50200D01*
X504799D01*
X504399Y-49800D01*
Y-49400D01*
X504799Y-49000D01*
X504399Y-48601D01*
Y-48201D01*
X504799Y-49000D02*
X505599D01*
X503600Y24799D02*
X503200Y25199D01*
X502400D01*
X502000Y24799D01*
Y23200D01*
X502400Y22800D01*
X503200D01*
X503600Y23200D01*
X504399D02*
X504799Y22800D01*
X505599D01*
X505999Y23200D01*
Y24799D01*
X505599Y25199D01*
X504799D01*
X504399Y24799D01*
Y24399D01*
X504799Y24000D01*
X505999D01*
X533600Y-48201D02*
X533200Y-47801D01*
X532400D01*
X532000Y-48201D01*
Y-49800D01*
X532400Y-50200D01*
X533200D01*
X533600Y-49800D01*
X534399Y-50200D02*
X535199D01*
X534799D01*
Y-47801D01*
X534399Y-48201D01*
X536399D02*
X536798Y-47801D01*
X537598D01*
X537998Y-48201D01*
Y-49800D01*
X537598Y-50200D01*
X536798D01*
X536399Y-49800D01*
Y-48201D01*
X533600Y24799D02*
X533200Y25199D01*
X532400D01*
X532000Y24799D01*
Y23200D01*
X532400Y22800D01*
X533200D01*
X533600Y23200D01*
X534399Y22800D02*
X535199D01*
X534799D01*
Y25199D01*
X534399Y24799D01*
X536399Y22800D02*
X537198D01*
X536798D01*
Y25199D01*
X536399Y24799D01*
X563599Y-48201D02*
X563200Y-47801D01*
X562400D01*
X562000Y-48201D01*
Y-49800D01*
X562400Y-50200D01*
X563200D01*
X563599Y-49800D01*
X564399Y-50200D02*
X565199D01*
X564799D01*
Y-47801D01*
X564399Y-48201D01*
X567998Y-50200D02*
X566399D01*
X567998Y-48601D01*
Y-48201D01*
X567598Y-47801D01*
X566798D01*
X566399Y-48201D01*
X563599Y24799D02*
X563200Y25199D01*
X562400D01*
X562000Y24799D01*
Y23200D01*
X562400Y22800D01*
X563200D01*
X563599Y23200D01*
X564399Y22800D02*
X565199D01*
X564799D01*
Y25199D01*
X564399Y24799D01*
X566399D02*
X566798Y25199D01*
X567598D01*
X567998Y24799D01*
Y24399D01*
X567598Y24000D01*
X567198D01*
X567598D01*
X567998Y23600D01*
Y23200D01*
X567598Y22800D01*
X566798D01*
X566399Y23200D01*
X593600Y-48201D02*
X593200Y-47801D01*
X592400D01*
X592000Y-48201D01*
Y-49800D01*
X592400Y-50200D01*
X593200D01*
X593600Y-49800D01*
X594399Y-50200D02*
X595199D01*
X594799D01*
Y-47801D01*
X594399Y-48201D01*
X597598Y-50200D02*
Y-47801D01*
X596399Y-49000D01*
X597998D01*
X593600Y24799D02*
X593200Y25199D01*
X592400D01*
X592000Y24799D01*
Y23200D01*
X592400Y22800D01*
X593200D01*
X593600Y23200D01*
X594399Y22800D02*
X595199D01*
X594799D01*
Y25199D01*
X594399Y24799D01*
X597998Y25199D02*
X596399D01*
Y24000D01*
X597198Y24399D01*
X597598D01*
X597998Y24000D01*
Y23200D01*
X597598Y22800D01*
X596798D01*
X596399Y23200D01*
X623599Y-48201D02*
X623200Y-47801D01*
X622400D01*
X622000Y-48201D01*
Y-49800D01*
X622400Y-50200D01*
X623200D01*
X623599Y-49800D01*
X624399Y-50200D02*
X625199D01*
X624799D01*
Y-47801D01*
X624399Y-48201D01*
X627998Y-47801D02*
X627198Y-48201D01*
X626399Y-49000D01*
Y-49800D01*
X626798Y-50200D01*
X627598D01*
X627998Y-49800D01*
Y-49400D01*
X627598Y-49000D01*
X626399D01*
X623599Y24799D02*
X623200Y25199D01*
X622400D01*
X622000Y24799D01*
Y23200D01*
X622400Y22800D01*
X623200D01*
X623599Y23200D01*
X624399Y22800D02*
X625199D01*
X624799D01*
Y25199D01*
X624399Y24799D01*
X626399Y25199D02*
X627998D01*
Y24799D01*
X626399Y23200D01*
Y22800D01*
X653600Y-48201D02*
X653200Y-47801D01*
X652400D01*
X652000Y-48201D01*
Y-49800D01*
X652400Y-50200D01*
X653200D01*
X653600Y-49800D01*
X654399Y-50200D02*
X655199D01*
X654799D01*
Y-47801D01*
X654399Y-48201D01*
X656399D02*
X656798Y-47801D01*
X657598D01*
X657998Y-48201D01*
Y-48601D01*
X657598Y-49000D01*
X657998Y-49400D01*
Y-49800D01*
X657598Y-50200D01*
X656798D01*
X656399Y-49800D01*
Y-49400D01*
X656798Y-49000D01*
X656399Y-48601D01*
Y-48201D01*
X656798Y-49000D02*
X657598D01*
X653600Y24799D02*
X653200Y25199D01*
X652400D01*
X652000Y24799D01*
Y23200D01*
X652400Y22800D01*
X653200D01*
X653600Y23200D01*
X654399Y22800D02*
X655199D01*
X654799D01*
Y25199D01*
X654399Y24799D01*
X656399Y23200D02*
X656798Y22800D01*
X657598D01*
X657998Y23200D01*
Y24799D01*
X657598Y25199D01*
X656798D01*
X656399Y24799D01*
Y24399D01*
X656798Y24000D01*
X657998D01*
X443600Y-48201D02*
X443200Y-47801D01*
X442400D01*
X442000Y-48201D01*
Y-49800D01*
X442400Y-50200D01*
X443200D01*
X443600Y-49800D01*
X445999Y-50200D02*
X444399D01*
X445999Y-48601D01*
Y-48201D01*
X445599Y-47801D01*
X444799D01*
X444399Y-48201D01*
X446798D02*
X447198Y-47801D01*
X447998D01*
X448398Y-48201D01*
Y-49800D01*
X447998Y-50200D01*
X447198D01*
X446798Y-49800D01*
Y-48201D01*
X443600Y24799D02*
X443200Y25199D01*
X442400D01*
X442000Y24799D01*
Y23200D01*
X442400Y22800D01*
X443200D01*
X443600Y23200D01*
X445999Y22800D02*
X444399D01*
X445999Y24399D01*
Y24799D01*
X445599Y25199D01*
X444799D01*
X444399Y24799D01*
X446798Y22800D02*
X447598D01*
X447198D01*
Y25199D01*
X446798Y24799D01*
X473599Y-48201D02*
X473200Y-47801D01*
X472400D01*
X472000Y-48201D01*
Y-49800D01*
X472400Y-50200D01*
X473200D01*
X473599Y-49800D01*
X475999Y-50200D02*
X474399D01*
X475999Y-48601D01*
Y-48201D01*
X475599Y-47801D01*
X474799D01*
X474399Y-48201D01*
X478398Y-50200D02*
X476798D01*
X478398Y-48601D01*
Y-48201D01*
X477998Y-47801D01*
X477198D01*
X476798Y-48201D01*
X473599Y24799D02*
X473200Y25199D01*
X472400D01*
X472000Y24799D01*
Y23200D01*
X472400Y22800D01*
X473200D01*
X473599Y23200D01*
X475999Y22800D02*
X474399D01*
X475999Y24399D01*
Y24799D01*
X475599Y25199D01*
X474799D01*
X474399Y24799D01*
X476798D02*
X477198Y25199D01*
X477998D01*
X478398Y24799D01*
Y24399D01*
X477998Y24000D01*
X477598D01*
X477998D01*
X478398Y23600D01*
Y23200D01*
X477998Y22800D01*
X477198D01*
X476798Y23200D01*
X215599Y240999D02*
X215200Y241399D01*
X214400D01*
X214000Y240999D01*
Y239400D01*
X214400Y239000D01*
X215200D01*
X215599Y239400D01*
X217999Y239000D02*
X216399D01*
X217999Y240599D01*
Y240999D01*
X217599Y241399D01*
X216799D01*
X216399Y240999D01*
X220398Y241399D02*
X219598Y240999D01*
X218798Y240200D01*
Y239400D01*
X219198Y239000D01*
X219998D01*
X220398Y239400D01*
Y239800D01*
X219998Y240200D01*
X218798D01*
X215599Y140499D02*
X215200Y140899D01*
X214400D01*
X214000Y140499D01*
Y138900D01*
X214400Y138500D01*
X215200D01*
X215599Y138900D01*
X217999Y138500D02*
X216399D01*
X217999Y140100D01*
Y140499D01*
X217599Y140899D01*
X216799D01*
X216399Y140499D01*
X218798Y140899D02*
X220398D01*
Y140499D01*
X218798Y138900D01*
Y138500D01*
X215599Y220499D02*
X215200Y220899D01*
X214400D01*
X214000Y220499D01*
Y218900D01*
X214400Y218500D01*
X215200D01*
X215599Y218900D01*
X217999Y218500D02*
X216399D01*
X217999Y220099D01*
Y220499D01*
X217599Y220899D01*
X216799D01*
X216399Y220499D01*
X218798D02*
X219198Y220899D01*
X219998D01*
X220398Y220499D01*
Y220099D01*
X219998Y219700D01*
X220398Y219300D01*
Y218900D01*
X219998Y218500D01*
X219198D01*
X218798Y218900D01*
Y219300D01*
X219198Y219700D01*
X218798Y220099D01*
Y220499D01*
X219198Y219700D02*
X219998D01*
X214599Y121499D02*
X214200Y121899D01*
X213400D01*
X213000Y121499D01*
Y119900D01*
X213400Y119500D01*
X214200D01*
X214599Y119900D01*
X216999Y119500D02*
X215399D01*
X216999Y121099D01*
Y121499D01*
X216599Y121899D01*
X215799D01*
X215399Y121499D01*
X217798Y119900D02*
X218198Y119500D01*
X218998D01*
X219398Y119900D01*
Y121499D01*
X218998Y121899D01*
X218198D01*
X217798Y121499D01*
Y121099D01*
X218198Y120700D01*
X219398D01*
X506100Y269799D02*
X505700Y270199D01*
X504900D01*
X504500Y269799D01*
Y268200D01*
X504900Y267800D01*
X505700D01*
X506100Y268200D01*
X506899Y269799D02*
X507299Y270199D01*
X508099D01*
X508499Y269799D01*
Y269399D01*
X508099Y269000D01*
X507699D01*
X508099D01*
X508499Y268600D01*
Y268200D01*
X508099Y267800D01*
X507299D01*
X506899Y268200D01*
X509298Y269799D02*
X509698Y270199D01*
X510498D01*
X510898Y269799D01*
Y269399D01*
X510498Y269000D01*
X510098D01*
X510498D01*
X510898Y268600D01*
Y268200D01*
X510498Y267800D01*
X509698D01*
X509298Y268200D01*
X506100Y196799D02*
X505700Y197199D01*
X504900D01*
X504500Y196799D01*
Y195200D01*
X504900Y194800D01*
X505700D01*
X506100Y195200D01*
X506899Y196799D02*
X507299Y197199D01*
X508099D01*
X508499Y196799D01*
Y196399D01*
X508099Y196000D01*
X507699D01*
X508099D01*
X508499Y195600D01*
Y195200D01*
X508099Y194800D01*
X507299D01*
X506899Y195200D01*
X510498Y194800D02*
Y197199D01*
X509298Y196000D01*
X510898D01*
X536099Y269799D02*
X535700Y270199D01*
X534900D01*
X534500Y269799D01*
Y268200D01*
X534900Y267800D01*
X535700D01*
X536099Y268200D01*
X536899Y269799D02*
X537299Y270199D01*
X538099D01*
X538499Y269799D01*
Y269399D01*
X538099Y269000D01*
X537699D01*
X538099D01*
X538499Y268600D01*
Y268200D01*
X538099Y267800D01*
X537299D01*
X536899Y268200D01*
X540898Y270199D02*
X539298D01*
Y269000D01*
X540098Y269399D01*
X540498D01*
X540898Y269000D01*
Y268200D01*
X540498Y267800D01*
X539698D01*
X539298Y268200D01*
X536099Y196799D02*
X535700Y197199D01*
X534900D01*
X534500Y196799D01*
Y195200D01*
X534900Y194800D01*
X535700D01*
X536099Y195200D01*
X536899Y196799D02*
X537299Y197199D01*
X538099D01*
X538499Y196799D01*
Y196399D01*
X538099Y196000D01*
X537699D01*
X538099D01*
X538499Y195600D01*
Y195200D01*
X538099Y194800D01*
X537299D01*
X536899Y195200D01*
X540898Y197199D02*
X540098Y196799D01*
X539298Y196000D01*
Y195200D01*
X539698Y194800D01*
X540498D01*
X540898Y195200D01*
Y195600D01*
X540498Y196000D01*
X539298D01*
X596100Y269799D02*
X595700Y270199D01*
X594900D01*
X594500Y269799D01*
Y268200D01*
X594900Y267800D01*
X595700D01*
X596100Y268200D01*
X596899Y269799D02*
X597299Y270199D01*
X598099D01*
X598499Y269799D01*
Y269399D01*
X598099Y269000D01*
X597699D01*
X598099D01*
X598499Y268600D01*
Y268200D01*
X598099Y267800D01*
X597299D01*
X596899Y268200D01*
X599298D02*
X599698Y267800D01*
X600498D01*
X600898Y268200D01*
Y269799D01*
X600498Y270199D01*
X599698D01*
X599298Y269799D01*
Y269399D01*
X599698Y269000D01*
X600898D01*
X596100Y196799D02*
X595700Y197199D01*
X594900D01*
X594500Y196799D01*
Y195200D01*
X594900Y194800D01*
X595700D01*
X596100Y195200D01*
X598099Y194800D02*
Y197199D01*
X596899Y196000D01*
X598499D01*
X599298Y196799D02*
X599698Y197199D01*
X600498D01*
X600898Y196799D01*
Y195200D01*
X600498Y194800D01*
X599698D01*
X599298Y195200D01*
Y196799D01*
X626099Y269799D02*
X625700Y270199D01*
X624900D01*
X624500Y269799D01*
Y268200D01*
X624900Y267800D01*
X625700D01*
X626099Y268200D01*
X628099Y267800D02*
Y270199D01*
X626899Y269000D01*
X628499D01*
X629298Y267800D02*
X630098D01*
X629698D01*
Y270199D01*
X629298Y269799D01*
X626099Y196799D02*
X625700Y197199D01*
X624900D01*
X624500Y196799D01*
Y195200D01*
X624900Y194800D01*
X625700D01*
X626099Y195200D01*
X628099Y194800D02*
Y197199D01*
X626899Y196000D01*
X628499D01*
X630898Y194800D02*
X629298D01*
X630898Y196399D01*
Y196799D01*
X630498Y197199D01*
X629698D01*
X629298Y196799D01*
X656100Y269799D02*
X655700Y270199D01*
X654900D01*
X654500Y269799D01*
Y268200D01*
X654900Y267800D01*
X655700D01*
X656100Y268200D01*
X658099Y267800D02*
Y270199D01*
X656899Y269000D01*
X658499D01*
X659298Y269799D02*
X659698Y270199D01*
X660498D01*
X660898Y269799D01*
Y269399D01*
X660498Y269000D01*
X660098D01*
X660498D01*
X660898Y268600D01*
Y268200D01*
X660498Y267800D01*
X659698D01*
X659298Y268200D01*
X656100Y196799D02*
X655700Y197199D01*
X654900D01*
X654500Y196799D01*
Y195200D01*
X654900Y194800D01*
X655700D01*
X656100Y195200D01*
X658099Y194800D02*
Y197199D01*
X656899Y196000D01*
X658499D01*
X660498Y194800D02*
Y197199D01*
X659298Y196000D01*
X660898D01*
X446100Y269799D02*
X445700Y270199D01*
X444900D01*
X444500Y269799D01*
Y268200D01*
X444900Y267800D01*
X445700D01*
X446100Y268200D01*
X448099Y267800D02*
Y270199D01*
X446899Y269000D01*
X448499D01*
X450898Y270199D02*
X449298D01*
Y269000D01*
X450098Y269399D01*
X450498D01*
X450898Y269000D01*
Y268200D01*
X450498Y267800D01*
X449698D01*
X449298Y268200D01*
X446100Y196799D02*
X445700Y197199D01*
X444900D01*
X444500Y196799D01*
Y195200D01*
X444900Y194800D01*
X445700D01*
X446100Y195200D01*
X448099Y194800D02*
Y197199D01*
X446899Y196000D01*
X448499D01*
X450898Y197199D02*
X450098Y196799D01*
X449298Y196000D01*
Y195200D01*
X449698Y194800D01*
X450498D01*
X450898Y195200D01*
Y195600D01*
X450498Y196000D01*
X449298D01*
X476099Y269799D02*
X475700Y270199D01*
X474900D01*
X474500Y269799D01*
Y268200D01*
X474900Y267800D01*
X475700D01*
X476099Y268200D01*
X478099Y267800D02*
Y270199D01*
X476899Y269000D01*
X478499D01*
X479298Y270199D02*
X480898D01*
Y269799D01*
X479298Y268200D01*
Y267800D01*
X476099Y196799D02*
X475700Y197199D01*
X474900D01*
X474500Y196799D01*
Y195200D01*
X474900Y194800D01*
X475700D01*
X476099Y195200D01*
X478099Y194800D02*
Y197199D01*
X476899Y196000D01*
X478499D01*
X479298Y196799D02*
X479698Y197199D01*
X480498D01*
X480898Y196799D01*
Y196399D01*
X480498Y196000D01*
X480898Y195600D01*
Y195200D01*
X480498Y194800D01*
X479698D01*
X479298Y195200D01*
Y195600D01*
X479698Y196000D01*
X479298Y196399D01*
Y196799D01*
X479698Y196000D02*
X480498D01*
X580101Y-20100D02*
Y-20900D01*
X580501Y-21300D01*
X582100D01*
X582500Y-20900D01*
Y-20100D01*
X582100Y-19701D01*
X580501D01*
X580101Y-20100D01*
X583300Y-18901D02*
X580900D01*
Y-17701D01*
X581300Y-17301D01*
X582100D01*
X582500Y-17701D01*
Y-18901D01*
X580501Y-16102D02*
X580900D01*
Y-16502D01*
Y-15702D01*
Y-16102D01*
X582100D01*
X582500Y-15702D01*
X581300Y-14502D02*
Y-12903D01*
X580501Y-10503D02*
X580101Y-10903D01*
Y-11703D01*
X580501Y-12103D01*
X582100D01*
X582500Y-11703D01*
Y-10903D01*
X582100Y-10503D01*
X581300D01*
Y-11303D01*
X582500Y-9704D02*
Y-8904D01*
Y-9304D01*
X580101D01*
X580501Y-9704D01*
X581300Y-7704D02*
Y-6105D01*
X580101Y-5305D02*
X582500D01*
Y-3706D01*
X612601Y224700D02*
Y223900D01*
X613001Y223500D01*
X614600D01*
X615000Y223900D01*
Y224700D01*
X614600Y225099D01*
X613001D01*
X612601Y224700D01*
X615800Y225899D02*
X613401D01*
Y227099D01*
X613800Y227499D01*
X614600D01*
X615000Y227099D01*
Y225899D01*
X613001Y228698D02*
X613401D01*
Y228298D01*
Y229098D01*
Y228698D01*
X614600D01*
X615000Y229098D01*
X613800Y230298D02*
Y231897D01*
X613001Y234296D02*
X612601Y233897D01*
Y233097D01*
X613001Y232697D01*
X614600D01*
X615000Y233097D01*
Y233897D01*
X614600Y234296D01*
X613800D01*
Y233497D01*
X615000Y236696D02*
Y235096D01*
X613401Y236696D01*
X613001D01*
X612601Y236296D01*
Y235496D01*
X613001Y235096D01*
X613800Y237495D02*
Y239095D01*
X615000Y239895D02*
X612601D01*
Y241094D01*
X613001Y241494D01*
X613800D01*
X614200Y241094D01*
Y239895D01*
Y240694D02*
X615000Y241494D01*
X610101Y-20300D02*
Y-21100D01*
X610501Y-21500D01*
X612100D01*
X612500Y-21100D01*
Y-20300D01*
X612100Y-19900D01*
X610501D01*
X610101Y-20300D01*
X613300Y-19101D02*
X610900D01*
Y-17901D01*
X611300Y-17501D01*
X612100D01*
X612500Y-17901D01*
Y-19101D01*
X610501Y-16302D02*
X610900D01*
Y-16702D01*
Y-15902D01*
Y-16302D01*
X612100D01*
X612500Y-15902D01*
X611300Y-14702D02*
Y-13103D01*
X610501Y-10704D02*
X610101Y-11103D01*
Y-11903D01*
X610501Y-12303D01*
X612100D01*
X612500Y-11903D01*
Y-11103D01*
X612100Y-10704D01*
X611300D01*
Y-11503D01*
X612500Y-8304D02*
Y-9904D01*
X610900Y-8304D01*
X610501D01*
X610101Y-8704D01*
Y-9504D01*
X610501Y-9904D01*
X611300Y-7505D02*
Y-5905D01*
X610101Y-5105D02*
X612500D01*
Y-3506D01*
X642601Y224700D02*
Y223900D01*
X643001Y223500D01*
X644600D01*
X645000Y223900D01*
Y224700D01*
X644600Y225099D01*
X643001D01*
X642601Y224700D01*
X645800Y225899D02*
X643400D01*
Y227099D01*
X643800Y227499D01*
X644600D01*
X645000Y227099D01*
Y225899D01*
X643001Y228698D02*
X643400D01*
Y228298D01*
Y229098D01*
Y228698D01*
X644600D01*
X645000Y229098D01*
X643800Y230298D02*
Y231897D01*
X643001Y234296D02*
X642601Y233897D01*
Y233097D01*
X643001Y232697D01*
X644600D01*
X645000Y233097D01*
Y233897D01*
X644600Y234296D01*
X643800D01*
Y233497D01*
X643001Y235096D02*
X642601Y235496D01*
Y236296D01*
X643001Y236696D01*
X643400D01*
X643800Y236296D01*
Y235896D01*
Y236296D01*
X644200Y236696D01*
X644600D01*
X645000Y236296D01*
Y235496D01*
X644600Y235096D01*
X643800Y237495D02*
Y239095D01*
X645000Y239895D02*
X642601D01*
Y241094D01*
X643001Y241494D01*
X643800D01*
X644200Y241094D01*
Y239895D01*
Y240694D02*
X645000Y241494D01*
X640101Y-20300D02*
Y-21100D01*
X640501Y-21500D01*
X642100D01*
X642500Y-21100D01*
Y-20300D01*
X642100Y-19900D01*
X640501D01*
X640101Y-20300D01*
X643300Y-19101D02*
X640901D01*
Y-17901D01*
X641300Y-17501D01*
X642100D01*
X642500Y-17901D01*
Y-19101D01*
X640501Y-16302D02*
X640901D01*
Y-16702D01*
Y-15902D01*
Y-16302D01*
X642100D01*
X642500Y-15902D01*
X641300Y-14702D02*
Y-13103D01*
X640501Y-10704D02*
X640101Y-11103D01*
Y-11903D01*
X640501Y-12303D01*
X642100D01*
X642500Y-11903D01*
Y-11103D01*
X642100Y-10704D01*
X641300D01*
Y-11503D01*
X640501Y-9904D02*
X640101Y-9504D01*
Y-8704D01*
X640501Y-8304D01*
X640901D01*
X641300Y-8704D01*
Y-9104D01*
Y-8704D01*
X641700Y-8304D01*
X642100D01*
X642500Y-8704D01*
Y-9504D01*
X642100Y-9904D01*
X641300Y-7505D02*
Y-5905D01*
X640101Y-5105D02*
X642500D01*
Y-3506D01*
X400101Y-22500D02*
Y-23300D01*
X400501Y-23700D01*
X402100D01*
X402500Y-23300D01*
Y-22500D01*
X402100Y-22100D01*
X400501D01*
X400101Y-22500D01*
X403300Y-21301D02*
X400901D01*
Y-20101D01*
X401300Y-19701D01*
X402100D01*
X402500Y-20101D01*
Y-21301D01*
X400501Y-18502D02*
X400901D01*
Y-18902D01*
Y-18102D01*
Y-18502D01*
X402100D01*
X402500Y-18102D01*
X401300Y-16902D02*
Y-15303D01*
X402500Y-14503D02*
X400101D01*
X402500Y-12903D01*
X400101D01*
X402500Y-11704D02*
Y-10904D01*
X402100Y-10504D01*
X401300D01*
X400901Y-10904D01*
Y-11704D01*
X401300Y-12104D01*
X402100D01*
X402500Y-11704D01*
X400901Y-9705D02*
X402100D01*
X402500Y-9305D01*
Y-8105D01*
X400901D01*
X400501Y-6905D02*
X400901D01*
Y-7305D01*
Y-6506D01*
Y-6905D01*
X402100D01*
X402500Y-6506D01*
X401300Y-5306D02*
Y-3706D01*
X400101Y-2907D02*
X402500D01*
Y-1307D01*
X490101Y-22300D02*
Y-23100D01*
X490501Y-23500D01*
X492100D01*
X492500Y-23100D01*
Y-22300D01*
X492100Y-21901D01*
X490501D01*
X490101Y-22300D01*
X493300Y-21101D02*
X490901D01*
Y-19901D01*
X491300Y-19501D01*
X492100D01*
X492500Y-19901D01*
Y-21101D01*
X490501Y-18302D02*
X490901D01*
Y-18702D01*
Y-17902D01*
Y-18302D01*
X492100D01*
X492500Y-17902D01*
X491300Y-16702D02*
Y-15103D01*
X493300Y-14303D02*
X490901D01*
Y-13103D01*
X491300Y-12704D01*
X492100D01*
X492500Y-13103D01*
Y-14303D01*
X490101Y-11904D02*
X492500D01*
X491300D01*
X490901Y-11504D01*
Y-10704D01*
X491300Y-10304D01*
X492500D01*
Y-9505D02*
Y-8705D01*
Y-9105D01*
X490901D01*
Y-9505D01*
X492500Y-7505D02*
Y-6706D01*
Y-7105D01*
X490101D01*
X490501Y-7505D01*
X491300Y-5506D02*
Y-3906D01*
X490101Y-3107D02*
X492500D01*
Y-1507D01*
X492601Y222700D02*
Y221900D01*
X493001Y221500D01*
X494600D01*
X495000Y221900D01*
Y222700D01*
X494600Y223099D01*
X493001D01*
X492601Y222700D01*
X495800Y223899D02*
X493400D01*
Y225099D01*
X493800Y225499D01*
X494600D01*
X495000Y225099D01*
Y223899D01*
X493001Y226698D02*
X493400D01*
Y226298D01*
Y227098D01*
Y226698D01*
X494600D01*
X495000Y227098D01*
X493800Y228298D02*
Y229897D01*
X495800Y230697D02*
X493400D01*
Y231897D01*
X493800Y232296D01*
X494600D01*
X495000Y231897D01*
Y230697D01*
X492601Y233096D02*
X495000D01*
X493800D01*
X493400Y233496D01*
Y234296D01*
X493800Y234696D01*
X495000D01*
Y235495D02*
Y236295D01*
Y235895D01*
X493400D01*
Y235495D01*
X495000Y237495D02*
Y238295D01*
Y237895D01*
X492601D01*
X493001Y237495D01*
X493800Y239494D02*
Y241094D01*
X495000Y241893D02*
X492601D01*
Y243093D01*
X493001Y243493D01*
X493800D01*
X494200Y243093D01*
Y241893D01*
Y242693D02*
X495000Y243493D01*
X520101Y-22500D02*
Y-23300D01*
X520501Y-23700D01*
X522100D01*
X522500Y-23300D01*
Y-22500D01*
X522100Y-22100D01*
X520501D01*
X520101Y-22500D01*
X523300Y-21301D02*
X520900D01*
Y-20101D01*
X521300Y-19701D01*
X522100D01*
X522500Y-20101D01*
Y-21301D01*
X520501Y-18502D02*
X520900D01*
Y-18902D01*
Y-18102D01*
Y-18502D01*
X522100D01*
X522500Y-18102D01*
X521300Y-16902D02*
Y-15303D01*
X523300Y-14503D02*
X520900D01*
Y-13303D01*
X521300Y-12903D01*
X522100D01*
X522500Y-13303D01*
Y-14503D01*
X520101Y-12104D02*
X522500D01*
X521300D01*
X520900Y-11704D01*
Y-10904D01*
X521300Y-10504D01*
X522500D01*
Y-9705D02*
Y-8905D01*
Y-9305D01*
X520900D01*
Y-9705D01*
X522500Y-6106D02*
Y-7705D01*
X520900Y-6106D01*
X520501D01*
X520101Y-6506D01*
Y-7305D01*
X520501Y-7705D01*
X521300Y-5306D02*
Y-3706D01*
X520101Y-2907D02*
X522500D01*
Y-1307D01*
X522601Y222500D02*
Y221700D01*
X523001Y221300D01*
X524600D01*
X525000Y221700D01*
Y222500D01*
X524600Y222900D01*
X523001D01*
X522601Y222500D01*
X525800Y223699D02*
X523400D01*
Y224899D01*
X523800Y225299D01*
X524600D01*
X525000Y224899D01*
Y223699D01*
X523001Y226498D02*
X523400D01*
Y226098D01*
Y226898D01*
Y226498D01*
X524600D01*
X525000Y226898D01*
X523800Y228098D02*
Y229697D01*
X525800Y230497D02*
X523400D01*
Y231697D01*
X523800Y232097D01*
X524600D01*
X525000Y231697D01*
Y230497D01*
X522601Y232896D02*
X525000D01*
X523800D01*
X523400Y233296D01*
Y234096D01*
X523800Y234496D01*
X525000D01*
Y235295D02*
Y236095D01*
Y235695D01*
X523400D01*
Y235295D01*
X525000Y238894D02*
Y237295D01*
X523400Y238894D01*
X523001D01*
X522601Y238494D01*
Y237695D01*
X523001Y237295D01*
X523800Y239694D02*
Y241294D01*
X525000Y242093D02*
X522601D01*
Y243293D01*
X523001Y243693D01*
X523800D01*
X524200Y243293D01*
Y242093D01*
Y242893D02*
X525000Y243693D01*
X552601Y222500D02*
Y221700D01*
X553001Y221300D01*
X554600D01*
X555000Y221700D01*
Y222500D01*
X554600Y222900D01*
X553001D01*
X552601Y222500D01*
X555800Y223699D02*
X553401D01*
Y224899D01*
X553800Y225299D01*
X554600D01*
X555000Y224899D01*
Y223699D01*
X553001Y226498D02*
X553401D01*
Y226098D01*
Y226898D01*
Y226498D01*
X554600D01*
X555000Y226898D01*
X553800Y228098D02*
Y229697D01*
X555800Y230497D02*
X553401D01*
Y231697D01*
X553800Y232097D01*
X554600D01*
X555000Y231697D01*
Y230497D01*
X552601Y232896D02*
X555000D01*
X553800D01*
X553401Y233296D01*
Y234096D01*
X553800Y234496D01*
X555000D01*
Y235295D02*
Y236095D01*
Y235695D01*
X553401D01*
Y235295D01*
X553001Y237295D02*
X552601Y237695D01*
Y238494D01*
X553001Y238894D01*
X553401D01*
X553800Y238494D01*
Y238094D01*
Y238494D01*
X554200Y238894D01*
X554600D01*
X555000Y238494D01*
Y237695D01*
X554600Y237295D01*
X553800Y239694D02*
Y241294D01*
X555000Y242093D02*
X552601D01*
Y243293D01*
X553001Y243693D01*
X553800D01*
X554200Y243293D01*
Y242093D01*
Y242893D02*
X555000Y243693D01*
X550101Y-22500D02*
Y-23300D01*
X550501Y-23700D01*
X552100D01*
X552500Y-23300D01*
Y-22500D01*
X552100Y-22100D01*
X550501D01*
X550101Y-22500D01*
X553300Y-21301D02*
X550901D01*
Y-20101D01*
X551300Y-19701D01*
X552100D01*
X552500Y-20101D01*
Y-21301D01*
X550501Y-18502D02*
X550901D01*
Y-18902D01*
Y-18102D01*
Y-18502D01*
X552100D01*
X552500Y-18102D01*
X551300Y-16902D02*
Y-15303D01*
X553300Y-14503D02*
X550901D01*
Y-13303D01*
X551300Y-12903D01*
X552100D01*
X552500Y-13303D01*
Y-14503D01*
X550101Y-12104D02*
X552500D01*
X551300D01*
X550901Y-11704D01*
Y-10904D01*
X551300Y-10504D01*
X552500D01*
Y-9705D02*
Y-8905D01*
Y-9305D01*
X550901D01*
Y-9705D01*
X550501Y-7705D02*
X550101Y-7305D01*
Y-6506D01*
X550501Y-6106D01*
X550901D01*
X551300Y-6506D01*
Y-6905D01*
Y-6506D01*
X551700Y-6106D01*
X552100D01*
X552500Y-6506D01*
Y-7305D01*
X552100Y-7705D01*
X551300Y-5306D02*
Y-3706D01*
X550101Y-2907D02*
X552500D01*
Y-1307D01*
X462601Y222500D02*
Y221700D01*
X463001Y221300D01*
X464600D01*
X465000Y221700D01*
Y222500D01*
X464600Y222900D01*
X463001D01*
X462601Y222500D01*
X465800Y223699D02*
X463401D01*
Y224899D01*
X463800Y225299D01*
X464600D01*
X465000Y224899D01*
Y223699D01*
X463001Y226498D02*
X463401D01*
Y226098D01*
Y226898D01*
Y226498D01*
X464600D01*
X465000Y226898D01*
X463800Y228098D02*
Y229697D01*
X463001Y232097D02*
X462601Y231697D01*
Y230897D01*
X463001Y230497D01*
X463401D01*
X463800Y230897D01*
Y231697D01*
X464200Y232097D01*
X464600D01*
X465000Y231697D01*
Y230897D01*
X464600Y230497D01*
X463401Y234496D02*
Y233296D01*
X463800Y232896D01*
X464600D01*
X465000Y233296D01*
Y234496D01*
Y235295D02*
Y236095D01*
Y235695D01*
X462601D01*
Y235295D01*
X465000Y237295D02*
X462601D01*
X464200D02*
X463401Y238494D01*
X464200Y237295D02*
X465000Y238494D01*
X463800Y239694D02*
Y241294D01*
X465000Y242093D02*
X462601D01*
Y243293D01*
X463001Y243693D01*
X463800D01*
X464200Y243293D01*
Y242093D01*
Y242893D02*
X465000Y243693D01*
X460101Y-22500D02*
Y-23300D01*
X460501Y-23700D01*
X462100D01*
X462500Y-23300D01*
Y-22500D01*
X462100Y-22100D01*
X460501D01*
X460101Y-22500D01*
X463300Y-21301D02*
X460900D01*
Y-20101D01*
X461300Y-19701D01*
X462100D01*
X462500Y-20101D01*
Y-21301D01*
X460501Y-18502D02*
X460900D01*
Y-18902D01*
Y-18102D01*
Y-18502D01*
X462100D01*
X462500Y-18102D01*
X461300Y-16902D02*
Y-15303D01*
X460501Y-12903D02*
X460101Y-13303D01*
Y-14103D01*
X460501Y-14503D01*
X460900D01*
X461300Y-14103D01*
Y-13303D01*
X461700Y-12903D01*
X462100D01*
X462500Y-13303D01*
Y-14103D01*
X462100Y-14503D01*
X460900Y-10504D02*
Y-11704D01*
X461300Y-12104D01*
X462100D01*
X462500Y-11704D01*
Y-10504D01*
Y-9705D02*
Y-8905D01*
Y-9305D01*
X460101D01*
Y-9705D01*
X462500Y-7705D02*
X460101D01*
X461700D02*
X460900Y-6506D01*
X461700Y-7705D02*
X462500Y-6506D01*
X461300Y-5306D02*
Y-3706D01*
X460101Y-2907D02*
X462500D01*
Y-1307D01*
X432601Y223700D02*
Y222900D01*
X433001Y222500D01*
X434600D01*
X435000Y222900D01*
Y223700D01*
X434600Y224099D01*
X433001D01*
X432601Y223700D01*
X435800Y224899D02*
X433400D01*
Y226099D01*
X433800Y226499D01*
X434600D01*
X435000Y226099D01*
Y224899D01*
X433001Y227698D02*
X433400D01*
Y227298D01*
Y228098D01*
Y227698D01*
X434600D01*
X435000Y228098D01*
X433800Y229298D02*
Y230897D01*
X433001Y233296D02*
X432601Y232897D01*
Y232097D01*
X433001Y231697D01*
X433400D01*
X433800Y232097D01*
Y232897D01*
X434200Y233296D01*
X434600D01*
X435000Y232897D01*
Y232097D01*
X434600Y231697D01*
X435000Y234096D02*
Y234896D01*
Y234496D01*
X433400D01*
Y234096D01*
X435000Y236096D02*
X433400D01*
Y237295D01*
X433800Y237695D01*
X435000D01*
X433800Y238495D02*
Y240094D01*
X435000Y240894D02*
X432601D01*
Y242094D01*
X433001Y242494D01*
X433800D01*
X434200Y242094D01*
Y240894D01*
Y241694D02*
X435000Y242494D01*
X430101Y-21300D02*
Y-22100D01*
X430501Y-22500D01*
X432100D01*
X432500Y-22100D01*
Y-21300D01*
X432100Y-20900D01*
X430501D01*
X430101Y-21300D01*
X433300Y-20101D02*
X430900D01*
Y-18901D01*
X431300Y-18501D01*
X432100D01*
X432500Y-18901D01*
Y-20101D01*
X430501Y-17302D02*
X430900D01*
Y-17702D01*
Y-16902D01*
Y-17302D01*
X432100D01*
X432500Y-16902D01*
X431300Y-15702D02*
Y-14103D01*
X430501Y-11704D02*
X430101Y-12103D01*
Y-12903D01*
X430501Y-13303D01*
X430900D01*
X431300Y-12903D01*
Y-12103D01*
X431700Y-11704D01*
X432100D01*
X432500Y-12103D01*
Y-12903D01*
X432100Y-13303D01*
X432500Y-10904D02*
Y-10104D01*
Y-10504D01*
X430900D01*
Y-10904D01*
X432500Y-8904D02*
X430900D01*
Y-7705D01*
X431300Y-7305D01*
X432500D01*
X431300Y-6505D02*
Y-4906D01*
X430101Y-4106D02*
X432500D01*
Y-2506D01*
X218500Y0D02*
Y2399D01*
X219700D01*
X220099Y1999D01*
Y1200D01*
X219700Y800D01*
X218500D01*
X219300D02*
X220099Y0D01*
X220899D02*
X221699D01*
X221299D01*
Y2399D01*
X220899Y1999D01*
X228000Y-3500D02*
Y-1101D01*
X229200D01*
X229599Y-1501D01*
Y-2300D01*
X229200Y-2700D01*
X228000D01*
X228800D02*
X229599Y-3500D01*
X231999D02*
X230399D01*
X231999Y-1901D01*
Y-1501D01*
X231599Y-1101D01*
X230799D01*
X230399Y-1501D01*
X217500Y84000D02*
Y86399D01*
X218700D01*
X219099Y85999D01*
Y85200D01*
X218700Y84800D01*
X217500D01*
X218300D02*
X219099Y84000D01*
X219899Y85999D02*
X220299Y86399D01*
X221099D01*
X221499Y85999D01*
Y85599D01*
X221099Y85200D01*
X220699D01*
X221099D01*
X221499Y84800D01*
Y84400D01*
X221099Y84000D01*
X220299D01*
X219899Y84400D01*
X228000Y81000D02*
Y83399D01*
X229200D01*
X229599Y82999D01*
Y82200D01*
X229200Y81800D01*
X228000D01*
X228800D02*
X229599Y81000D01*
X231599D02*
Y83399D01*
X230399Y82200D01*
X231999D01*
X213000Y259000D02*
Y261399D01*
X214200D01*
X214599Y260999D01*
Y260200D01*
X214200Y259800D01*
X213000D01*
X213800D02*
X214599Y259000D01*
X215399Y261399D02*
X216999D01*
Y260999D01*
X215399Y259400D01*
Y259000D01*
X223000Y256000D02*
Y258399D01*
X224200D01*
X224600Y257999D01*
Y257200D01*
X224200Y256800D01*
X223000D01*
X223800D02*
X224600Y256000D01*
X225399Y257999D02*
X225799Y258399D01*
X226599D01*
X226999Y257999D01*
Y257599D01*
X226599Y257200D01*
X226999Y256800D01*
Y256400D01*
X226599Y256000D01*
X225799D01*
X225399Y256400D01*
Y256800D01*
X225799Y257200D01*
X225399Y257599D01*
Y257999D01*
X225799Y257200D02*
X226599D01*
X211500Y159000D02*
Y161399D01*
X212700D01*
X213100Y160999D01*
Y160200D01*
X212700Y159800D01*
X211500D01*
X212300D02*
X213100Y159000D01*
X213899Y159400D02*
X214299Y159000D01*
X215099D01*
X215499Y159400D01*
Y160999D01*
X215099Y161399D01*
X214299D01*
X213899Y160999D01*
Y160600D01*
X214299Y160200D01*
X215499D01*
X222000Y156000D02*
Y158399D01*
X223200D01*
X223600Y157999D01*
Y157200D01*
X223200Y156800D01*
X222000D01*
X222800D02*
X223600Y156000D01*
X224399D02*
X225199D01*
X224799D01*
Y158399D01*
X224399Y157999D01*
X226399D02*
X226798Y158399D01*
X227598D01*
X227998Y157999D01*
Y156400D01*
X227598Y156000D01*
X226798D01*
X226399Y156400D01*
Y157999D01*
X400601Y222500D02*
Y221700D01*
X401001Y221300D01*
X402600D01*
X403000Y221700D01*
Y222500D01*
X402600Y222900D01*
X401001D01*
X400601Y222500D01*
X403800Y223699D02*
X401401D01*
Y224899D01*
X401800Y225299D01*
X402600D01*
X403000Y224899D01*
Y223699D01*
X401001Y226498D02*
X401401D01*
Y226098D01*
Y226898D01*
Y226498D01*
X402600D01*
X403000Y226898D01*
X401800Y228098D02*
Y229697D01*
X403000Y230497D02*
X400601D01*
X403000Y232097D01*
X400601D01*
X403000Y233296D02*
Y234096D01*
X402600Y234496D01*
X401800D01*
X401401Y234096D01*
Y233296D01*
X401800Y232896D01*
X402600D01*
X403000Y233296D01*
X401401Y235295D02*
X402600D01*
X403000Y235695D01*
Y236895D01*
X401401D01*
X401001Y238094D02*
X401401D01*
Y237695D01*
Y238494D01*
Y238094D01*
X402600D01*
X403000Y238494D01*
X401800Y239694D02*
Y241294D01*
X403000Y242093D02*
X400601D01*
Y243293D01*
X401001Y243693D01*
X401800D01*
X402200Y243293D01*
Y242093D01*
Y242893D02*
X403000Y243693D01*
D46*
X634504Y54500D02*
X646500D01*
Y60498D01*
X644501Y62497D01*
X642501D01*
X640502Y60498D01*
Y54500D01*
Y60498D01*
X638503Y62497D01*
X636503D01*
X634504Y60498D01*
Y54500D01*
X646500Y66496D02*
Y70495D01*
Y68496D01*
X638503D01*
Y66496D01*
X646500Y78492D02*
Y82491D01*
X644501Y84490D01*
X640502D01*
X638503Y82491D01*
Y78492D01*
X640502Y76493D01*
X644501D01*
X646500Y78492D01*
X636503Y96486D02*
X634504Y94487D01*
Y90488D01*
X636503Y88489D01*
X638503D01*
X640502Y90488D01*
Y94487D01*
X642501Y96486D01*
X644501D01*
X646500Y94487D01*
Y90488D01*
X644501Y88489D01*
X646500Y100485D02*
X638503D01*
X634504Y104484D01*
X638503Y108483D01*
X646500D01*
X640502D01*
Y100485D01*
X634504Y124477D02*
X646500D01*
Y132475D01*
X638503Y138473D02*
Y142472D01*
X640502Y144471D01*
X646500D01*
Y138473D01*
X644501Y136474D01*
X642501Y138473D01*
Y144471D01*
X634504Y148470D02*
X646500D01*
Y154468D01*
X644501Y156467D01*
X642501D01*
X640502D01*
X638503Y154468D01*
Y148470D01*
D47*
X654503Y57832D02*
Y52500D01*
X662500D01*
Y57832D01*
X658501Y52500D02*
Y55166D01*
X654503Y65829D02*
Y60497D01*
X662500D01*
Y65829D01*
X658501Y60497D02*
Y63163D01*
X655835Y73826D02*
X654503Y72493D01*
Y69828D01*
X655835Y68495D01*
X661167D01*
X662500Y69828D01*
Y72493D01*
X661167Y73826D01*
X655835Y81824D02*
X654503Y80491D01*
Y77825D01*
X655835Y76492D01*
X657168D01*
X658501Y77825D01*
Y80491D01*
X659834Y81824D01*
X661167D01*
X662500Y80491D01*
Y77825D01*
X661167Y76492D01*
X663833Y85822D02*
X662500Y87155D01*
X661167D01*
Y85822D01*
X662500D01*
Y87155D01*
X663833Y85822D01*
X665166Y84490D01*
X654503Y92487D02*
X662500D01*
Y97819D01*
Y100485D02*
X657168D01*
X654503Y103150D01*
X657168Y105816D01*
X662500D01*
X658501D01*
Y100485D01*
X655835Y113813D02*
X654503Y112481D01*
Y109815D01*
X655835Y108482D01*
X657168D01*
X658501Y109815D01*
Y112481D01*
X659834Y113813D01*
X661167D01*
X662500Y112481D01*
Y109815D01*
X661167Y108482D01*
X663833Y117812D02*
X662500Y119145D01*
X661167D01*
Y117812D01*
X662500D01*
Y119145D01*
X663833Y117812D01*
X665166Y116479D01*
X654503Y124477D02*
X655835D01*
X658501Y127143D01*
X655835Y129808D01*
X654503D01*
X658501Y127143D02*
X662500D01*
Y133807D02*
Y136473D01*
X661167Y137806D01*
X658501D01*
X657168Y136473D01*
Y133807D01*
X658501Y132474D01*
X661167D01*
X662500Y133807D01*
X657168Y140471D02*
X662500D01*
X659834D01*
X658501Y141804D01*
X657168Y143137D01*
Y144470D01*
X662500Y148469D02*
X654503D01*
X659834D02*
X657168Y152468D01*
X659834Y148469D02*
X662500Y152468D01*
X654503Y156466D02*
X661167D01*
X662500Y157799D01*
Y160465D01*
X661167Y161798D01*
X654503D01*
D48*
X110385Y10100D02*
D03*
X120385D02*
D03*
X130385D02*
D03*
X140385D02*
D03*
X160385D02*
D03*
X150385D02*
D03*
X170385D02*
D03*
X180385D02*
D03*
X94385Y200100D02*
D03*
X74385D02*
D03*
X84385D02*
D03*
X104385D02*
D03*
X114385D02*
D03*
X144385D02*
D03*
X124385D02*
D03*
X134385D02*
D03*
X154385D02*
D03*
X164385D02*
D03*
X250885Y110100D02*
D03*
Y100100D02*
D03*
X260885D02*
D03*
X250885Y120100D02*
D03*
X260885Y110100D02*
D03*
Y120100D02*
D03*
X370385Y60100D02*
D03*
Y70100D02*
D03*
Y120100D02*
D03*
Y130100D02*
D03*
Y140100D02*
D03*
Y150100D02*
D03*
Y170100D02*
D03*
Y200100D02*
D03*
Y30100D02*
D03*
Y40100D02*
D03*
Y50100D02*
D03*
X380385Y40100D02*
D03*
Y30100D02*
D03*
Y50100D02*
D03*
Y60100D02*
D03*
X370385Y80100D02*
D03*
Y90100D02*
D03*
Y100100D02*
D03*
X380385Y80100D02*
D03*
Y70100D02*
D03*
Y90100D02*
D03*
Y100100D02*
D03*
Y110100D02*
D03*
X370385D02*
D03*
X380385Y130100D02*
D03*
Y120100D02*
D03*
Y150100D02*
D03*
Y140100D02*
D03*
X370385Y160100D02*
D03*
Y180100D02*
D03*
Y190100D02*
D03*
X380385Y160100D02*
D03*
Y170100D02*
D03*
Y180100D02*
D03*
Y190100D02*
D03*
Y200100D02*
D03*
M02*
