%FSLAX25Y25*%
%MOIN*%
G70*
G01*
G75*
G04 Layer_Physical_Order=1*
G04 Layer_Color=255*
%ADD10R,0.33858X0.42126*%
%ADD11R,0.14173X0.04528*%
%ADD12R,0.03661X0.03661*%
%ADD13R,0.03500X0.03400*%
%ADD14R,0.03661X0.03661*%
%ADD15R,0.02200X0.06700*%
%ADD16R,0.02178X0.03937*%
%ADD17R,0.03200X0.03000*%
%ADD18C,0.01000*%
%ADD19C,0.04000*%
%ADD20C,0.02000*%
%ADD21C,0.03937*%
%ADD22C,0.06000*%
%ADD23C,0.04724*%
%ADD24R,0.04724X0.04724*%
%ADD25R,0.06000X0.06000*%
%ADD26P,0.06061X8X112.5*%
%ADD27P,0.06605X8X292.5*%
%ADD28P,0.17046X8X112.5*%
%ADD29C,0.07677*%
%ADD30P,0.17046X8X202.5*%
%ADD31P,0.07144X8X292.5*%
%ADD32C,0.05000*%
%ADD33C,0.02000*%
%ADD34C,0.04000*%
D10*
X143465Y135000D02*
D03*
Y235000D02*
D03*
Y60000D02*
D03*
Y-25000D02*
D03*
D11*
X185394Y148386D02*
D03*
Y141693D02*
D03*
Y135000D02*
D03*
Y128307D02*
D03*
Y121614D02*
D03*
Y248386D02*
D03*
Y241693D02*
D03*
Y235000D02*
D03*
Y228307D02*
D03*
Y221614D02*
D03*
Y73386D02*
D03*
Y66693D02*
D03*
Y60000D02*
D03*
Y53307D02*
D03*
Y46614D02*
D03*
Y-11614D02*
D03*
Y-18307D02*
D03*
Y-25000D02*
D03*
Y-31693D02*
D03*
Y-38386D02*
D03*
D12*
X210000Y-21953D02*
D03*
Y-16047D02*
D03*
Y63047D02*
D03*
Y68953D02*
D03*
Y237047D02*
D03*
Y242953D02*
D03*
Y137047D02*
D03*
Y142953D02*
D03*
D13*
Y-43050D02*
D03*
Y-36950D02*
D03*
Y41950D02*
D03*
Y48050D02*
D03*
Y216950D02*
D03*
Y223050D02*
D03*
Y116950D02*
D03*
Y123050D02*
D03*
D14*
X504547Y-42500D02*
D03*
X510453D02*
D03*
X504547Y17500D02*
D03*
X510453D02*
D03*
X534547Y-42500D02*
D03*
X540453D02*
D03*
X534547Y17500D02*
D03*
X540453D02*
D03*
X564547Y-42500D02*
D03*
X570453D02*
D03*
X564547Y17500D02*
D03*
X570453D02*
D03*
X594547Y-42500D02*
D03*
X600453D02*
D03*
X594547Y17500D02*
D03*
X600453D02*
D03*
X624547Y-42500D02*
D03*
X630453D02*
D03*
X624547Y17500D02*
D03*
X630453D02*
D03*
X654547Y-42500D02*
D03*
X660453D02*
D03*
X654547Y17500D02*
D03*
X660453D02*
D03*
X444547Y-42500D02*
D03*
X450453D02*
D03*
X444547Y17500D02*
D03*
X450453D02*
D03*
X474547Y-42500D02*
D03*
X480453D02*
D03*
X474547Y17500D02*
D03*
X480453D02*
D03*
X414047Y17000D02*
D03*
X419953D02*
D03*
X414547Y-42500D02*
D03*
X420453D02*
D03*
X507047Y262500D02*
D03*
X512953D02*
D03*
X507047Y202500D02*
D03*
X512953D02*
D03*
X537047Y262500D02*
D03*
X542953D02*
D03*
X537047Y202500D02*
D03*
X542953D02*
D03*
X567047Y262500D02*
D03*
X572953D02*
D03*
X567047Y202500D02*
D03*
X572953D02*
D03*
X597047Y262500D02*
D03*
X602953D02*
D03*
X597047Y202500D02*
D03*
X602953D02*
D03*
X627047Y262500D02*
D03*
X632953D02*
D03*
X627047Y202500D02*
D03*
X632953D02*
D03*
X657047Y262500D02*
D03*
X662953D02*
D03*
X657047Y202500D02*
D03*
X662953D02*
D03*
X447047Y262500D02*
D03*
X452953D02*
D03*
X447047Y202500D02*
D03*
X452953D02*
D03*
X477047Y262500D02*
D03*
X482953D02*
D03*
X477047Y202500D02*
D03*
X482953D02*
D03*
X414547Y203000D02*
D03*
X420453D02*
D03*
X414547Y262500D02*
D03*
X420453D02*
D03*
D15*
X590000Y-33700D02*
D03*
X595000D02*
D03*
X590000Y8700D02*
D03*
X595000D02*
D03*
X600000Y-33700D02*
D03*
X605000D02*
D03*
X600000Y8700D02*
D03*
X605000D02*
D03*
X592500Y211300D02*
D03*
X597500D02*
D03*
X602500D02*
D03*
X592500Y253700D02*
D03*
X597500D02*
D03*
X607500Y211300D02*
D03*
X602500Y253700D02*
D03*
X607500D02*
D03*
X620000Y-33700D02*
D03*
X625000D02*
D03*
X620000Y8700D02*
D03*
X625000D02*
D03*
X630000Y-33700D02*
D03*
X635000D02*
D03*
X630000Y8700D02*
D03*
X635000D02*
D03*
X622500Y211300D02*
D03*
X627500D02*
D03*
X632500D02*
D03*
X622500Y253700D02*
D03*
X627500D02*
D03*
X637500Y211300D02*
D03*
X632500Y253700D02*
D03*
X637500D02*
D03*
X650000Y-33700D02*
D03*
X655000D02*
D03*
X650000Y8700D02*
D03*
X655000D02*
D03*
X660000Y-33700D02*
D03*
X665000D02*
D03*
X660000Y8700D02*
D03*
X665000D02*
D03*
X652500Y211300D02*
D03*
X657500D02*
D03*
X662500D02*
D03*
X652500Y253700D02*
D03*
X657500D02*
D03*
X667500Y211300D02*
D03*
X662500Y253700D02*
D03*
X667500D02*
D03*
X410000Y-33700D02*
D03*
X415000D02*
D03*
X420000D02*
D03*
X410000Y8700D02*
D03*
X415000D02*
D03*
X425000Y-33700D02*
D03*
X420000Y8700D02*
D03*
X425000D02*
D03*
X410500Y211300D02*
D03*
X415500D02*
D03*
X410500Y253700D02*
D03*
X415500D02*
D03*
X420500Y211300D02*
D03*
X425500D02*
D03*
X420500Y253700D02*
D03*
X425500D02*
D03*
X500000Y-33700D02*
D03*
X505000D02*
D03*
X500000Y8700D02*
D03*
X505000D02*
D03*
X510000Y-33700D02*
D03*
X515000D02*
D03*
X510000Y8700D02*
D03*
X515000D02*
D03*
X502500Y211300D02*
D03*
X507500D02*
D03*
X512500D02*
D03*
X502500Y253700D02*
D03*
X507500D02*
D03*
X517500Y211300D02*
D03*
X512500Y253700D02*
D03*
X517500D02*
D03*
X530000Y-33700D02*
D03*
X535000D02*
D03*
X530000Y8700D02*
D03*
X535000D02*
D03*
X540000Y-33700D02*
D03*
X545000D02*
D03*
X540000Y8700D02*
D03*
X545000D02*
D03*
X532500Y211300D02*
D03*
X537500D02*
D03*
X542500D02*
D03*
X532500Y253700D02*
D03*
X537500D02*
D03*
X547500Y211300D02*
D03*
X542500Y253700D02*
D03*
X547500D02*
D03*
X560000Y-33700D02*
D03*
X565000D02*
D03*
X560000Y8700D02*
D03*
X565000D02*
D03*
X570000Y-33700D02*
D03*
X575000D02*
D03*
X570000Y8700D02*
D03*
X575000D02*
D03*
X562500Y211300D02*
D03*
X567500D02*
D03*
X572500D02*
D03*
X562500Y253700D02*
D03*
X567500D02*
D03*
X577500Y211300D02*
D03*
X572500Y253700D02*
D03*
X577500D02*
D03*
X470000Y-33700D02*
D03*
X475000D02*
D03*
X470000Y8700D02*
D03*
X475000D02*
D03*
X480000Y-33700D02*
D03*
X485000D02*
D03*
X480000Y8700D02*
D03*
X485000D02*
D03*
X472500Y211300D02*
D03*
X477500D02*
D03*
X482500D02*
D03*
X472500Y253700D02*
D03*
X477500D02*
D03*
X487500Y211300D02*
D03*
X482500Y253700D02*
D03*
X487500D02*
D03*
X440000Y-33700D02*
D03*
X445000D02*
D03*
X440000Y8700D02*
D03*
X445000D02*
D03*
X450000Y-33700D02*
D03*
X455000D02*
D03*
X450000Y8700D02*
D03*
X455000D02*
D03*
X442500Y211300D02*
D03*
X447500D02*
D03*
X452500D02*
D03*
X442500Y253700D02*
D03*
X447500D02*
D03*
X457500Y211300D02*
D03*
X452500Y253700D02*
D03*
X457500D02*
D03*
D16*
X216746Y-5000D02*
D03*
X223254D02*
D03*
X216746Y80000D02*
D03*
X223254D02*
D03*
X211746Y255000D02*
D03*
X218254D02*
D03*
X211746Y155000D02*
D03*
X218254D02*
D03*
D17*
X230000Y-13050D02*
D03*
Y-6950D02*
D03*
Y71950D02*
D03*
Y78050D02*
D03*
X225000Y246950D02*
D03*
Y253050D02*
D03*
Y146950D02*
D03*
Y153050D02*
D03*
D18*
X410400Y-59800D02*
X541200D01*
X403350Y-52750D02*
X410400Y-59800D01*
X403350Y-52750D02*
Y-26350D01*
X541200Y-59800D02*
X557400Y-43600D01*
X657500Y211300D02*
X659878Y208922D01*
Y190390D02*
Y208922D01*
X659449Y189961D02*
X659878Y190390D01*
X627500Y211300D02*
X629921Y208879D01*
Y189961D02*
Y208879D01*
X597500Y211300D02*
X600122Y208678D01*
Y191217D02*
Y208678D01*
Y191217D02*
X600394Y190945D01*
X567500Y211300D02*
X569882Y208918D01*
Y190945D02*
Y208918D01*
X537500Y211300D02*
X539878Y208922D01*
Y191453D02*
Y208922D01*
X539370Y190945D02*
X539878Y191453D01*
X507500Y211300D02*
X509878Y208922D01*
Y190980D02*
Y208922D01*
X509842Y190945D02*
X509878Y190980D01*
X477500Y211300D02*
X479878Y208922D01*
Y191492D02*
Y208922D01*
X479331Y190945D02*
X479878Y191492D01*
X447500Y211300D02*
X449878Y208922D01*
Y191020D02*
Y208922D01*
X449803Y190945D02*
X449878Y191020D01*
X415000Y211300D02*
X417900Y214200D01*
X415000Y211300D02*
X417378Y208922D01*
Y191000D02*
Y208922D01*
X417323Y190945D02*
X417378Y191000D01*
X657480Y11220D02*
X660000Y8700D01*
X657480Y11220D02*
Y30512D01*
X627378Y11322D02*
X630000Y8700D01*
X627378Y11322D02*
Y30102D01*
X626968Y30512D02*
X627378Y30102D01*
X597441Y11259D02*
X600000Y8700D01*
X597441Y11259D02*
Y31496D01*
X567378Y11322D02*
X570000Y8700D01*
X567378Y11322D02*
Y31047D01*
X566929Y31496D02*
X567378Y31047D01*
X527400Y4729D02*
Y44450D01*
Y4729D02*
X528279Y3850D01*
X536721D01*
X537600Y4729D01*
Y6300D01*
X540000Y8700D01*
X518330Y53521D02*
X527400Y44450D01*
X501991Y53521D02*
X518330D01*
X512900Y56638D02*
X519455D01*
X508862Y60676D02*
X512900Y56638D01*
X504400Y55138D02*
X518834D01*
X500862Y58676D02*
X504400Y55138D01*
X519455Y56638D02*
X527093Y49000D01*
X518834Y55138D02*
X526972Y47000D01*
X497987Y57525D02*
X501991Y53521D01*
X537622Y30732D02*
X538386Y31496D01*
X537622Y15255D02*
Y30732D01*
Y15255D02*
X540000Y12877D01*
Y8700D02*
Y12877D01*
X506890Y31496D02*
X507622Y30764D01*
Y15255D02*
Y30764D01*
Y15255D02*
X510000Y12877D01*
Y8700D02*
Y12877D01*
X447378Y11322D02*
X450000Y8700D01*
X447378Y11322D02*
Y31953D01*
X446850Y32480D02*
X447378Y31953D01*
X420000Y8700D02*
Y11291D01*
X417122Y14169D02*
X420000Y11291D01*
X417122Y14169D02*
Y32280D01*
X417323Y32480D01*
X612205Y183071D02*
X619900Y190766D01*
X593504Y183071D02*
X612205D01*
X585850Y190725D02*
X593504Y183071D01*
X673000Y182843D02*
Y217000D01*
X666339Y176181D02*
X673000Y182843D01*
X568898Y176181D02*
X666339D01*
X619900Y190766D02*
Y215271D01*
X585850Y190725D02*
Y210410D01*
X559950Y218150D02*
X578110D01*
X585850Y210410D01*
X557000Y188079D02*
X568898Y176181D01*
X557000Y188079D02*
Y212371D01*
X467900Y186475D02*
X486513Y167862D01*
X469900Y186596D02*
X487134Y169362D01*
X469900Y186596D02*
Y215271D01*
X465500Y186753D02*
X485891Y166362D01*
X490378Y167862D02*
X498257D01*
X489757Y166362D02*
X496309D01*
X489135Y164862D02*
X494981D01*
X488514Y163362D02*
X491638D01*
X483632Y166500D02*
X485270Y164862D01*
X488878Y169362D02*
X490378Y167862D01*
X487134Y169362D02*
X488878D01*
X488257Y167862D02*
X489757Y166362D01*
X486513Y167862D02*
X488257D01*
X487635Y166362D02*
X489135Y164862D01*
X485891Y166362D02*
X487635D01*
X487014Y164862D02*
X488514Y163362D01*
X485270Y164862D02*
X487014D01*
X487893Y161862D02*
X488600D01*
X486393Y163362D02*
X487893Y161862D01*
X484649Y163362D02*
X486393D01*
X483511Y164500D02*
X484649Y163362D01*
X488600Y161862D02*
X488862Y161600D01*
X433500Y164500D02*
X483511D01*
X491638Y163362D02*
X495000Y160000D01*
X461453Y166500D02*
X483632D01*
X494981Y164862D02*
X495981Y163862D01*
X496309Y166362D02*
X496809Y165862D01*
X428100Y199853D02*
X461453Y166500D01*
X428100Y199853D02*
Y215271D01*
X671500Y8629D02*
Y39130D01*
X657630Y53000D02*
X671500Y39130D01*
X546538Y53000D02*
X657630D01*
X647400Y4729D02*
Y26813D01*
X623213Y51000D02*
X647400Y26813D01*
X538538Y51000D02*
X623213D01*
X519900Y7029D02*
Y33250D01*
X495000Y58150D02*
X519900Y33250D01*
X495000Y58150D02*
Y60000D01*
X557400Y4729D02*
Y38072D01*
X548472Y47000D02*
X557400Y38072D01*
X526972Y47000D02*
X548472D01*
X527093Y49000D02*
X598500D01*
X481138Y44862D02*
X493600Y32400D01*
Y8529D02*
Y32400D01*
Y8529D02*
X498279Y3850D01*
X514721Y1850D02*
X519900Y7029D01*
X354000Y113715D02*
X370385Y130100D01*
X354000Y31485D02*
Y113715D01*
X358164Y97879D02*
X370385Y110100D01*
X358164Y31564D02*
Y97879D01*
X375185Y114900D02*
X384900D01*
X370385Y110100D02*
X375185Y114900D01*
Y124900D02*
X384900D01*
X370385Y120100D02*
X375185Y124900D01*
X497987Y57525D02*
X498862Y58400D01*
X492269Y62731D02*
X493400Y63862D01*
X485000Y70000D02*
X492269Y62731D01*
X481138Y76138D02*
X485000Y80000D01*
X481138Y44862D02*
Y76138D01*
X459221Y216150D02*
X465500Y209871D01*
Y186753D02*
Y209871D01*
X584107Y103862D02*
X619138D01*
X576383Y96138D02*
X584107Y103862D01*
X563400Y96138D02*
X576383D01*
X269021Y110100D02*
X363585Y15536D01*
X260885Y110100D02*
X269021D01*
X363585Y15444D02*
Y15536D01*
X350000Y31243D02*
X365085Y16158D01*
X350000Y31243D02*
Y169715D01*
X352000Y31364D02*
Y161715D01*
Y31364D02*
X366585Y16779D01*
X354000Y31485D02*
X368085Y17400D01*
X356000Y31607D02*
Y105715D01*
Y31607D02*
X369585Y18022D01*
X358164Y31564D02*
X371085Y18643D01*
X360164Y31685D02*
Y49879D01*
Y31685D02*
X372585Y19264D01*
X362785Y31186D02*
X374085Y19886D01*
X362785Y31186D02*
Y42500D01*
X375585Y20415D02*
Y34900D01*
X372585Y19172D02*
Y19264D01*
X371085Y18551D02*
Y18643D01*
X369585Y17930D02*
Y18022D01*
X368085Y17308D02*
Y17400D01*
X366585Y16687D02*
Y16779D01*
X365085Y16066D02*
Y16158D01*
X374085Y19794D02*
Y19886D01*
X403971Y-24850D02*
X407971Y-28850D01*
X404593Y-23350D02*
X408093Y-26850D01*
X405214Y-21850D02*
X408214Y-24850D01*
X405835Y-20350D02*
X408335Y-22850D01*
X406457Y-18850D02*
X408457Y-20850D01*
X407078Y-17350D02*
X408578Y-18850D01*
X407699Y-15850D02*
X408699Y-16850D01*
X403258Y-26350D02*
X403350D01*
X362085Y14823D02*
X403258Y-26350D01*
X362085Y14823D02*
Y14915D01*
X272349Y104651D02*
X362085Y14915D01*
X403879Y-24850D02*
X403971D01*
X363585Y15444D02*
X403879Y-24850D01*
X404501Y-23350D02*
X404593D01*
X365085Y16066D02*
X404501Y-23350D01*
X405122Y-21850D02*
X405214D01*
X366585Y16687D02*
X405122Y-21850D01*
X405743Y-20350D02*
X405835D01*
X368085Y17308D02*
X405743Y-20350D01*
X406365Y-18850D02*
X406457D01*
X369585Y17930D02*
X406365Y-18850D01*
X406986Y-17350D02*
X407078D01*
X371085Y18551D02*
X406986Y-17350D01*
X407607Y-15850D02*
X407699D01*
X372585Y19172D02*
X407607Y-15850D01*
X408321Y-14350D02*
X408821Y-14850D01*
X408229Y-14350D02*
X408321D01*
X374085Y19794D02*
X408229Y-14350D01*
X408850Y-12850D02*
X418349D01*
X375585Y20415D02*
X408850Y-12850D01*
X408821Y-14850D02*
X417520D01*
X408699Y-16850D02*
X416692D01*
X408578Y-18850D02*
X415863D01*
X408457Y-20850D02*
X415035D01*
X408335Y-22850D02*
X414207D01*
X408214Y-24850D02*
X413378D01*
X408093Y-26850D02*
X412550D01*
X407971Y-28850D02*
X411721D01*
X256334Y104651D02*
X272349D01*
X410000Y-37953D02*
X414547Y-42500D01*
X410000Y-37953D02*
Y-33700D01*
X185394Y-11614D02*
X190386D01*
X185394Y73386D02*
X190386D01*
X185394Y248386D02*
X190386D01*
X185394Y148386D02*
X190386D01*
X407400Y190600D02*
X433500Y164500D01*
X413000Y203000D02*
X414547D01*
X410000Y200000D02*
X413000Y203000D01*
X422000D02*
X425000Y200000D01*
X420453Y203000D02*
X422000D01*
X420453D02*
X425500Y208047D01*
Y211300D01*
X410500Y207047D02*
X414547Y203000D01*
X410500Y207047D02*
Y211300D01*
X487600Y4729D02*
Y21900D01*
X468000Y41500D02*
X487600Y21900D01*
X468000Y41500D02*
Y81290D01*
X482572Y95862D01*
X457600Y73719D02*
X481743Y97862D01*
X457600Y4729D02*
Y73719D01*
X422000Y17000D02*
X425000Y20000D01*
X419953Y17000D02*
X422000D01*
X425000Y8700D02*
Y11953D01*
X419953Y17000D02*
X425000Y11953D01*
X662500Y17500D02*
X665000Y20000D01*
X660453Y17500D02*
X662500D01*
X650000Y20000D02*
X652500Y17500D01*
X654547D01*
X632500D02*
X635000Y20000D01*
X630453Y17500D02*
X632500D01*
X620000Y20000D02*
X622500Y17500D01*
X624547D01*
X602500D02*
X605000Y20000D01*
X600453Y17500D02*
X602500D01*
X590000Y20000D02*
X592500Y17500D01*
X594547D01*
X210000Y-27500D02*
Y-27047D01*
Y142953D02*
X210453D01*
X665000Y262500D02*
X667500Y265000D01*
X662953Y262500D02*
X665000D01*
X652500Y265000D02*
X655000Y262500D01*
X657047D01*
X635000D02*
X637500Y265000D01*
X632953Y262500D02*
X635000D01*
X622500Y265000D02*
X625000Y262500D01*
X627047D01*
X605000D02*
X607500Y265000D01*
X602953Y262500D02*
X605000D01*
X592500Y265000D02*
X595000Y262500D01*
X597047D01*
X575000D02*
X577500Y265000D01*
X572953Y262500D02*
X575000D01*
X562500Y265000D02*
X565000Y262500D01*
X567047D01*
X545000D02*
X547500Y265000D01*
X542953Y262500D02*
X545000D01*
X532500Y265000D02*
X535000Y262500D01*
X537047D01*
X515000D02*
X517500Y265000D01*
X512953Y262500D02*
X515000D01*
X502500Y265000D02*
X505000Y262500D01*
X507047D01*
X485000D02*
X487500Y265000D01*
X482953Y262500D02*
X485000D01*
X472500Y265000D02*
X475000Y262500D01*
X477047D01*
X455000D02*
X457500Y265000D01*
X452953Y262500D02*
X455000D01*
X442500Y265000D02*
X445000Y262500D01*
X447047D01*
X422500D02*
X425000Y265000D01*
X420453Y262500D02*
X422500D01*
X410000Y265000D02*
X412500Y262500D01*
X414547D01*
X665000Y202500D02*
X667500Y200000D01*
X662953Y202500D02*
X665000D01*
X652500Y200000D02*
X655000Y202500D01*
X657047D01*
X635000D02*
X637500Y200000D01*
X632953Y202500D02*
X635000D01*
X622500Y200000D02*
X625000Y202500D01*
X627047D01*
X605000D02*
X607500Y200000D01*
X602953Y202500D02*
X605000D01*
X592500Y200000D02*
X595000Y202500D01*
X597047D01*
X575000D02*
X577500Y200000D01*
X572953Y202500D02*
X575000D01*
X562500Y200000D02*
X565000Y202500D01*
X567047D01*
X545000D02*
X547500Y200000D01*
X542953Y202500D02*
X545000D01*
X532500Y200000D02*
X535000Y202500D01*
X537047D01*
X515000D02*
X517500Y200000D01*
X512953Y202500D02*
X515000D01*
X502500Y200000D02*
X505000Y202500D01*
X507047D01*
X485000D02*
X487500Y200000D01*
X482953Y202500D02*
X485000D01*
X472500Y200000D02*
X475000Y202500D01*
X477047D01*
X455000D02*
X457500Y200000D01*
X452953Y202500D02*
X455000D01*
X442500Y200000D02*
X445000Y202500D01*
X447047D01*
X572500Y17500D02*
X575000Y20000D01*
X570453Y17500D02*
X572500D01*
X560000Y20000D02*
X562500Y17500D01*
X564547D01*
X540600D02*
X542500D01*
X540453D02*
X540600D01*
X542500D02*
X545000Y20000D01*
X530000D02*
X532500Y17500D01*
X534547D01*
X512500D02*
X515000Y20000D01*
X510453Y17500D02*
X512500D01*
X500000Y20000D02*
X502500Y17500D01*
X504547D01*
X482500D02*
X485000Y20000D01*
X480453Y17500D02*
X482500D01*
X470000Y20000D02*
X472500Y17500D01*
X474547D01*
X452500D02*
X455000Y20000D01*
X450453Y17500D02*
X452500D01*
X440000Y20000D02*
X442500Y17500D01*
X444547D01*
X662500Y-42500D02*
X665000Y-45000D01*
X660453Y-42500D02*
X662500D01*
X650000Y-45000D02*
X652500Y-42500D01*
X654547D01*
X632500D02*
X635000Y-45000D01*
X630453Y-42500D02*
X632500D01*
X620000Y-45000D02*
X622500Y-42500D01*
X624547D01*
X602500D02*
X605000Y-45000D01*
X600453Y-42500D02*
X602500D01*
X590000Y-45000D02*
X592500Y-42500D01*
X594547D01*
X572500D02*
X575000Y-45000D01*
X570453Y-42500D02*
X572500D01*
X560000Y-45000D02*
X562500Y-42500D01*
X564547D01*
X542500D02*
X545000Y-45000D01*
X540453Y-42500D02*
X542500D01*
X530000Y-45000D02*
X532500Y-42500D01*
X534547D01*
X512500D02*
X515000Y-45000D01*
X510453Y-42500D02*
X512500D01*
X500000Y-45000D02*
X502500Y-42500D01*
X504547D01*
X482500D02*
X485000Y-45000D01*
X480453Y-42500D02*
X482500D01*
X470000Y-45000D02*
X472500Y-42500D01*
X474547D01*
X452500D02*
X455000Y-45000D01*
X450453Y-42500D02*
X452500D01*
X440000Y-45000D02*
X442500Y-42500D01*
X444547D01*
X422500D02*
X425000Y-45000D01*
X420453Y-42500D02*
X422500D01*
X410000Y-45000D02*
X412500Y-42500D01*
X414547D01*
X619900Y215271D02*
X620779Y216150D01*
X624221D01*
X413000Y17000D02*
X414047D01*
X410000Y20000D02*
X413000Y17000D01*
X665850Y224150D02*
X673000Y217000D01*
X433777Y224150D02*
X665850D01*
X557000Y212371D02*
X560779Y216150D01*
X499900Y175428D02*
Y215271D01*
X509138Y146638D02*
Y161324D01*
X467900Y186475D02*
Y216100D01*
X506600Y163862D02*
X509138Y161324D01*
X502257Y163862D02*
X506600D01*
X498257Y167862D02*
X502257Y163862D01*
X500862Y150400D02*
Y162428D01*
X498862Y158400D02*
Y161600D01*
X497428Y165862D02*
X500862Y162428D01*
X496809Y165862D02*
X497428D01*
X496600Y163862D02*
X498862Y161600D01*
X495981Y163862D02*
X496600D01*
Y156138D02*
X498862Y158400D01*
X418779Y216150D02*
X427221D01*
X428100Y215271D01*
X407400Y190600D02*
Y215271D01*
X557400Y-43600D02*
Y-29729D01*
X558279Y-28850D01*
X561721D01*
X456721Y3850D02*
X457600Y4729D01*
X453279Y3850D02*
X456721D01*
X664721Y1850D02*
X671500Y8629D01*
X617400Y4729D02*
Y30100D01*
X598500Y49000D02*
X617400Y30100D01*
X647400Y4729D02*
X648279Y3850D01*
X656721D01*
X538862Y60676D02*
X546538Y53000D01*
X528862Y60676D02*
X538538Y51000D01*
X559538Y100000D02*
X563400Y96138D01*
X505000Y100000D02*
X559538D01*
X553721Y-20850D02*
X561721Y-28850D01*
X562600Y-29729D01*
X250885Y110100D02*
X256334Y104651D01*
X380385Y200100D02*
Y213712D01*
X400823Y234150D01*
X402521D01*
X418100Y249729D01*
Y251300D01*
X420500Y253700D01*
X391400Y197400D02*
Y221899D01*
X389300Y195300D02*
X391400Y197400D01*
X375585Y195300D02*
X389300D01*
X400000Y185673D02*
X405400Y191073D01*
X400000Y62644D02*
Y185673D01*
X397728Y186230D02*
X403400Y191902D01*
X397728Y70372D02*
Y186230D01*
X395657Y186987D02*
X401400Y192730D01*
X395657Y78300D02*
Y186987D01*
X399400Y193558D02*
Y218585D01*
X392993Y187151D02*
X399400Y193558D01*
X392993Y122993D02*
Y187151D01*
X397400Y194387D02*
Y219413D01*
X390328Y187315D02*
X397400Y194387D01*
X390328Y130328D02*
Y187315D01*
X395400Y195215D02*
Y220242D01*
X387500Y187315D02*
X395400Y195215D01*
X387500Y140144D02*
Y187315D01*
X382656Y185300D02*
X393400Y196044D01*
X382656Y45300D02*
X400000Y62644D01*
X382656Y65300D02*
X395657Y78300D01*
X382656Y55300D02*
X397728Y70372D01*
X384900Y114900D02*
X392993Y122993D01*
X402480Y230150D02*
X410151D01*
X403308Y228150D02*
X410980D01*
X404137Y226150D02*
X411808D01*
X404965Y224150D02*
X412637D01*
X405793Y222150D02*
X413465D01*
X406622Y220150D02*
X414293D01*
X407450Y218150D02*
X415122D01*
X408279Y216150D02*
X415950D01*
X417900Y214200D02*
Y215271D01*
X411323Y234150D02*
X421150D01*
X401651Y232150D02*
X409323D01*
X436678Y246850D02*
X477221D01*
X412151Y232150D02*
X421978D01*
X412980Y230150D02*
X422807D01*
X438335Y242850D02*
X533221D01*
X413808Y228150D02*
X423635D01*
X414637Y226150D02*
X424464D01*
X415465Y224150D02*
X425292D01*
X416293Y222150D02*
X426121D01*
X426949Y220150D02*
X441649Y234850D01*
X417122Y220150D02*
X426949D01*
X417950Y218150D02*
X427777D01*
X409323Y232150D02*
X411323Y234150D01*
X410151Y230150D02*
X412151Y232150D01*
X410980Y228150D02*
X412980Y230150D01*
X411808Y226150D02*
X413808Y228150D01*
X412637Y224150D02*
X414637Y226150D01*
X413465Y222150D02*
X415465Y224150D01*
X414293Y220150D02*
X416293Y222150D01*
X415122Y218150D02*
X417122Y220150D01*
X415950Y216150D02*
X417950Y218150D01*
X417900Y215271D02*
X418779Y216150D01*
X421150Y234150D02*
X435850Y248850D01*
X421978Y232150D02*
X436678Y246850D01*
X422807Y230150D02*
X437507Y244850D01*
X423635Y228150D02*
X438335Y242850D01*
X424464Y226150D02*
X439164Y240850D01*
X425292Y224150D02*
X439992Y238850D01*
X426121Y222150D02*
X440821Y236850D01*
X427777Y218150D02*
X433777Y224150D01*
X441649Y234850D02*
X536535D01*
X440821Y236850D02*
X535707D01*
X439992Y238850D02*
X534878D01*
X439164Y240850D02*
X534050D01*
X437507Y244850D02*
X478050D01*
X435850Y248850D02*
X449221D01*
X420453Y-42500D02*
X425000Y-37953D01*
Y-33700D01*
X420453Y262500D02*
X425500Y257453D01*
Y253700D02*
Y257453D01*
X410500Y258453D02*
X414547Y262500D01*
X410500Y253700D02*
Y258453D01*
X410000Y12953D02*
X414047Y17000D01*
X410000Y8700D02*
Y12953D01*
X407400Y215271D02*
X408279Y216150D01*
X405400Y216100D02*
X407450Y218150D01*
X405400Y191073D02*
Y216100D01*
X391400Y221899D02*
X401651Y232150D01*
X393400Y221070D02*
X402480Y230150D01*
X393400Y196044D02*
Y221070D01*
X395400Y220242D02*
X403308Y228150D01*
X397400Y219413D02*
X404137Y226150D01*
X399400Y218585D02*
X404965Y224150D01*
X401400Y217757D02*
X405793Y222150D01*
X401400Y192730D02*
Y217757D01*
X403400Y216928D02*
X406622Y220150D01*
X403400Y191902D02*
Y216928D01*
X481138Y91600D02*
X483400Y93862D01*
X481138Y88400D02*
Y91600D01*
Y88400D02*
X483400Y86138D01*
X488862Y153862D02*
Y161600D01*
X605150Y1850D02*
X664721D01*
X600000Y7000D02*
X605150Y1850D01*
X600000Y7000D02*
Y8700D01*
X485000Y110000D02*
X491138Y103862D01*
X496600D01*
X498862Y101600D01*
Y100676D02*
Y101600D01*
Y100676D02*
X525676Y73862D01*
X526600D01*
X528862Y71600D01*
Y70676D02*
Y71600D01*
Y70676D02*
X535676Y63862D01*
X536600D01*
X538862Y61600D01*
Y60676D02*
Y61600D01*
X425279Y1850D02*
X514721D01*
X422400Y4729D02*
X425279Y1850D01*
X498279Y3850D02*
X506721D01*
X507600Y4729D01*
Y6300D01*
X510000Y8700D01*
X486721Y3850D02*
X487600Y4729D01*
X483279Y3850D02*
X486721D01*
X480000Y7129D02*
X483279Y3850D01*
X480000Y7129D02*
Y8700D01*
X485000Y150000D02*
X488862Y153862D01*
X560779Y216150D02*
X564221D01*
X565100Y215271D01*
Y213700D02*
Y215271D01*
Y213700D02*
X567500Y211300D01*
X592500Y207047D02*
Y211300D01*
Y207047D02*
X597047Y202500D01*
X477500Y117500D02*
Y137962D01*
Y117500D02*
X481138Y113862D01*
X477500Y137962D02*
X485676Y146138D01*
X481138Y136138D02*
X485000Y140000D01*
X481138Y118400D02*
Y136138D01*
Y118400D02*
X483400Y116138D01*
X481138Y113862D02*
X491138D01*
X483400Y116138D02*
X506600D01*
X528862Y60676D02*
Y61600D01*
X526600Y63862D02*
X528862Y61600D01*
X525676Y63862D02*
X526600D01*
X518862Y70676D02*
X525676Y63862D01*
X518862Y70676D02*
Y71600D01*
X516600Y73862D02*
X518862Y71600D01*
X511138Y73862D02*
X516600D01*
X617400Y4729D02*
X618279Y3850D01*
X626721D01*
X508862Y60676D02*
Y61600D01*
X506600Y63862D02*
X508862Y61600D01*
X505676Y63862D02*
X506600D01*
X498862Y70676D02*
X505676Y63862D01*
X498862Y70676D02*
Y71600D01*
X496600Y73862D02*
X498862Y71600D01*
X495676Y73862D02*
X496600D01*
X491138Y78400D02*
X495676Y73862D01*
X600453Y17500D02*
X605000Y12953D01*
Y8700D02*
Y12953D01*
X570453Y17500D02*
X575000Y12953D01*
X567600Y6300D02*
X570000Y8700D01*
X567600Y4729D02*
Y6300D01*
X566721Y3850D02*
X567600Y4729D01*
X558279Y3850D02*
X566721D01*
X557400Y4729D02*
X558279Y3850D01*
X500862Y58676D02*
Y62428D01*
X497428Y65862D02*
X500862Y62428D01*
X493676Y65862D02*
X497428D01*
X489138Y70400D02*
X493676Y65862D01*
X498862Y58400D02*
Y61600D01*
X496600Y63862D02*
X498862Y61600D01*
X493400Y63862D02*
X496600D01*
X560000Y12953D02*
X564547Y17500D01*
X560000Y8700D02*
Y12953D01*
X590000D02*
X594547Y17500D01*
X590000Y8700D02*
Y12953D01*
X545000Y8700D02*
Y13100D01*
X540600Y17500D02*
X545000Y13100D01*
X412600Y-31300D02*
Y-29729D01*
X420349Y-14850D02*
X637721D01*
X418349Y-12850D02*
X420349Y-14850D01*
X417520D02*
X419520Y-16850D01*
X416692D02*
X418692Y-18850D01*
X415863D02*
X417863Y-20850D01*
X415035D02*
X417035Y-22850D01*
X414207D02*
X416207Y-24850D01*
X413378D02*
X415378Y-26850D01*
X412550D02*
X414550Y-28850D01*
X411721D02*
X412600Y-29729D01*
X482862Y97862D02*
X485000Y100000D01*
X481743Y97862D02*
X482862D01*
X450000Y7129D02*
X453279Y3850D01*
X450000Y7129D02*
Y8700D01*
X490862Y95862D02*
X495000Y100000D01*
X482572Y95862D02*
X490862D01*
X489138Y70400D02*
Y81324D01*
X495000Y80000D02*
Y82828D01*
X488862Y88966D02*
X495000Y82828D01*
X488862Y88966D02*
Y91600D01*
X486600Y93862D02*
X488862Y91600D01*
X483400Y93862D02*
X486600D01*
X483400Y86138D02*
X484324D01*
X489138Y81324D01*
X485000Y90000D02*
X491138Y83862D01*
Y78400D02*
Y83862D01*
X626721Y3850D02*
X627600Y4729D01*
Y6300D01*
X630000Y8700D01*
X495000Y90000D02*
X511138Y73862D01*
X656721Y3850D02*
X657600Y4729D01*
Y6300D01*
X660000Y8700D01*
X419520Y-16850D02*
X609721D01*
X491138Y113862D02*
X495000Y110000D01*
X485000Y120000D02*
X491138Y126138D01*
X418692Y-18850D02*
X581721D01*
X417863Y-20850D02*
X553721D01*
X417035Y-22850D02*
X525721D01*
X416207Y-24850D02*
X497721D01*
X414550Y-28850D02*
X441721D01*
X415378Y-26850D02*
X469721D01*
X422400Y4729D02*
Y6300D01*
X420000Y8700D02*
X422400Y6300D01*
X485000Y130000D02*
X491138Y136138D01*
X467900Y216100D02*
X473950Y222150D01*
X648221D01*
X655100Y215271D01*
X491138Y136138D02*
Y141600D01*
X493400Y143862D01*
X494324D01*
X500862Y150400D01*
X655100Y213700D02*
Y215271D01*
Y213700D02*
X657500Y211300D01*
X529000Y138538D02*
Y214371D01*
X506600Y116138D02*
X529000Y138538D01*
X495000Y120000D02*
X519138Y144138D01*
X521138Y136138D02*
Y161600D01*
X519138Y162428D02*
X525000Y168290D01*
X521138Y161600D02*
X527000Y167462D01*
X519138Y144138D02*
Y162428D01*
X529000Y214371D02*
X530779Y216150D01*
X527000Y215200D02*
X529950Y218150D01*
X527000Y167462D02*
Y215200D01*
X525000Y217500D02*
X527650Y220150D01*
X525000Y168290D02*
Y217500D01*
X527650Y220150D02*
X535878D01*
X529950Y218150D02*
X535050D01*
X530779Y216150D02*
X534221D01*
X590221Y220150D02*
X595100Y215271D01*
X559122Y220150D02*
X590221D01*
X534221Y216150D02*
X535100Y215271D01*
X558972Y220000D02*
X559122Y220150D01*
X536028Y220000D02*
X558972D01*
X559800Y218000D02*
X559950Y218150D01*
X535200Y218000D02*
X559800D01*
X535878Y220150D02*
X536028Y220000D01*
X535050Y218150D02*
X535200Y218000D01*
X511138Y145809D02*
Y164191D01*
X495328Y130000D02*
X511138Y145809D01*
X495000Y130000D02*
X495328D01*
X496362Y133862D02*
X509138Y146638D01*
X493400Y133862D02*
X496362D01*
X499900Y175428D02*
X511138Y164191D01*
X505000Y120000D02*
X521138Y136138D01*
X624221Y216150D02*
X625100Y215271D01*
Y213700D02*
Y215271D01*
Y213700D02*
X627500Y211300D01*
X595100Y213700D02*
Y215271D01*
Y213700D02*
X597500Y211300D01*
X535100Y213700D02*
Y215271D01*
Y213700D02*
X537500Y211300D01*
X491138Y126138D02*
Y131600D01*
X493400Y133862D01*
X469900Y215271D02*
X470779Y216150D01*
X474221D01*
X477500Y212871D01*
Y211300D02*
Y212871D01*
X488862Y149324D02*
X495676Y156138D01*
X488862Y148400D02*
Y149324D01*
X486600Y146138D02*
X488862Y148400D01*
X485676Y146138D02*
X486600D01*
X499900Y215271D02*
X500779Y216150D01*
X504221D01*
X507500Y212871D01*
Y211300D02*
Y212871D01*
X495676Y156138D02*
X496600D01*
X450779Y216150D02*
X459221D01*
X449900Y215271D02*
X450779Y216150D01*
X449900Y213700D02*
Y215271D01*
X447500Y211300D02*
X449900Y213700D01*
X412600Y-31300D02*
X415000Y-33700D01*
X637721Y-14850D02*
X655000Y-32129D01*
Y-33700D02*
Y-32129D01*
X370385Y40100D02*
X375585Y34900D01*
X362785Y42500D02*
X370385Y50100D01*
X356000Y105715D02*
X370385Y120100D01*
X352000Y161715D02*
X370385Y180100D01*
X350000Y169715D02*
X370385Y190100D01*
X622600Y-31300D02*
Y-29729D01*
X609721Y-16850D02*
X622600Y-29729D01*
X581721Y-18850D02*
X592600Y-29729D01*
X360164Y49879D02*
X370385Y60100D01*
X525721Y-22850D02*
X532600Y-29729D01*
X502600Y-31300D02*
X505000Y-33700D01*
X502600Y-31300D02*
Y-29729D01*
X497721Y-24850D02*
X502600Y-29729D01*
X472600Y-31300D02*
X475000Y-33700D01*
X469721Y-26850D02*
X472600Y-29729D01*
Y-31300D02*
Y-29729D01*
X442600Y-31300D02*
X445000Y-33700D01*
X442600Y-31300D02*
Y-29729D01*
X441721Y-28850D02*
X442600Y-29729D01*
X660100Y251300D02*
X662500Y253700D01*
X653221Y242850D02*
X660100Y249729D01*
X544535Y242850D02*
X653221D01*
X660100Y249729D02*
Y251300D01*
X536535Y234850D02*
X544535Y242850D01*
X375585Y45300D02*
X382656D01*
X370385Y40100D02*
X375585Y45300D01*
X625221Y244850D02*
X630100Y249729D01*
X543707Y244850D02*
X625221D01*
X535707Y236850D02*
X543707Y244850D01*
X375585Y55300D02*
X382656D01*
X370385Y50100D02*
X375585Y55300D01*
X597221Y246850D02*
X600100Y249729D01*
X542878Y246850D02*
X597221D01*
X534878Y238850D02*
X542878Y246850D01*
X375585Y65300D02*
X382656D01*
X370385Y60100D02*
X375585Y65300D01*
X569221Y248850D02*
X570100Y249729D01*
X542050Y248850D02*
X569221D01*
X534050Y240850D02*
X542050Y248850D01*
X384900Y124900D02*
X390328Y130328D01*
X478050Y244850D02*
X481700Y248500D01*
X382656Y135300D02*
X387500Y140144D01*
X375585Y135300D02*
X382656D01*
X370385Y130100D02*
X375585Y135300D01*
X480100Y251300D02*
X482500Y253700D01*
X477221Y246850D02*
X480100Y249729D01*
Y251300D01*
X375585Y185300D02*
X382656D01*
X370385Y180100D02*
X375585Y185300D01*
X450100Y251300D02*
X452500Y253700D01*
X450100Y249729D02*
Y251300D01*
X449221Y248850D02*
X450100Y249729D01*
X370385Y190100D02*
X375585Y195300D01*
X481700Y248500D02*
X508871D01*
X510100Y249729D01*
Y251300D01*
X533221Y242850D02*
X540100Y249729D01*
X630100Y251300D02*
X632500Y253700D01*
X630100Y249729D02*
Y251300D01*
X502500Y207047D02*
X507047Y202500D01*
X512953D02*
X517500Y207047D01*
X532500D02*
X537047Y202500D01*
X542953D02*
X547500Y207047D01*
Y211300D01*
X562500Y207047D02*
X567047Y202500D01*
X572953D02*
X577500Y207047D01*
Y211300D01*
X570100Y249729D02*
Y251300D01*
X502500Y207047D02*
Y211300D01*
X532500Y207047D02*
Y211300D01*
X540100Y249729D02*
Y251300D01*
X517500Y207047D02*
Y211300D01*
X622600Y-31300D02*
X625000Y-33700D01*
X592600Y-31300D02*
X595000Y-33700D01*
X592600Y-31300D02*
Y-29729D01*
X600100Y251300D02*
X602500Y253700D01*
X600100Y249729D02*
Y251300D01*
X562600Y-31300D02*
X565000Y-33700D01*
X562600Y-31300D02*
Y-29729D01*
X570100Y251300D02*
X572500Y253700D01*
X532600Y-31300D02*
X535000Y-33700D01*
X532600Y-31300D02*
Y-29729D01*
X540100Y251300D02*
X542500Y253700D01*
X510100Y251300D02*
X512500Y253700D01*
X218254Y255000D02*
Y256746D01*
Y155000D02*
Y156746D01*
X223254Y80000D02*
Y81746D01*
X480453Y-42500D02*
X485000Y-37953D01*
Y-33700D01*
X470000Y-37953D02*
X474547Y-42500D01*
X470000Y-37953D02*
Y-33700D01*
X480453Y17500D02*
X485000Y12953D01*
Y8700D02*
Y12953D01*
X470000D02*
X474547Y17500D01*
X470000Y8700D02*
Y12953D01*
X500000Y-37953D02*
Y-33700D01*
X223254Y-5000D02*
Y-3254D01*
X482953Y202500D02*
X487500Y207047D01*
Y211300D01*
X472500Y207047D02*
X477047Y202500D01*
X472500Y207047D02*
Y211300D01*
X482953Y262500D02*
X487500Y257953D01*
Y253700D02*
Y257953D01*
X472500D02*
X477047Y262500D01*
X472500Y253700D02*
Y257953D01*
X452953Y202500D02*
X457500Y207047D01*
Y211300D01*
X442500Y207047D02*
X447047Y202500D01*
X442500Y207047D02*
Y211300D01*
X452953Y262500D02*
X457500Y257953D01*
Y253700D02*
Y257953D01*
X442500D02*
X447047Y262500D01*
X442500Y253700D02*
Y257953D01*
X662953Y262500D02*
X667500Y257953D01*
Y253700D02*
Y257953D01*
X652500D02*
X657047Y262500D01*
X652500Y253700D02*
Y257953D01*
X662953Y202500D02*
X667500Y207047D01*
Y211300D01*
X652500Y207047D02*
X657047Y202500D01*
X652500Y207047D02*
Y211300D01*
X632953Y202500D02*
X637500Y207047D01*
Y211300D01*
X622500Y207047D02*
X627047Y202500D01*
X622500Y207047D02*
Y211300D01*
X632953Y262500D02*
X637500Y257953D01*
Y253700D02*
Y257953D01*
X622500D02*
X627047Y262500D01*
X622500Y253700D02*
Y257953D01*
X602953Y202500D02*
X607500Y207047D01*
Y211300D01*
X562500Y207047D02*
Y211300D01*
X602953Y262500D02*
X607500Y257953D01*
Y253700D02*
Y257953D01*
X592500D02*
X597047Y262500D01*
X592500Y253700D02*
Y257953D01*
X572953Y262500D02*
X577500Y257953D01*
Y253700D02*
Y257953D01*
X562500D02*
X567047Y262500D01*
X562500Y253700D02*
Y257953D01*
X542953Y262500D02*
X547500Y257953D01*
Y253700D02*
Y257953D01*
X532500D02*
X537047Y262500D01*
X532500Y253700D02*
Y257953D01*
X512953Y262500D02*
X517500Y257953D01*
Y253700D02*
Y257953D01*
X502500D02*
X507047Y262500D01*
X502500Y253700D02*
Y257953D01*
X450453Y-42500D02*
X455000Y-37953D01*
Y-33700D01*
X440000Y-37953D02*
X444547Y-42500D01*
X440000Y-37953D02*
Y-33700D01*
X450453Y17500D02*
X455000Y12953D01*
Y8700D02*
Y12953D01*
X440000D02*
X444547Y17500D01*
X440000Y8700D02*
Y12953D01*
X660453Y17500D02*
X665000Y12953D01*
Y8700D02*
Y12953D01*
X650000D02*
X654547Y17500D01*
X650000Y8700D02*
Y12953D01*
X660453Y-42500D02*
X665000Y-37953D01*
Y-33700D01*
X650000Y-37953D02*
X654547Y-42500D01*
X650000Y-37953D02*
Y-33700D01*
X630453Y-42500D02*
X635000Y-37953D01*
Y-33700D01*
X620000Y-37953D02*
X624547Y-42500D01*
X620000Y-37953D02*
Y-33700D01*
X630453Y17500D02*
X635000Y12953D01*
Y8700D02*
Y12953D01*
X620000D02*
X624547Y17500D01*
X620000Y8700D02*
Y12953D01*
X600453Y-42500D02*
X605000Y-37953D01*
Y-33700D01*
X590000Y-37953D02*
X594547Y-42500D01*
X590000Y-37953D02*
Y-33700D01*
X570453Y-42500D02*
X575000Y-37953D01*
Y-33700D01*
X560000Y-37953D02*
X564547Y-42500D01*
X560000Y-37953D02*
Y-33700D01*
X575000Y8700D02*
Y12953D01*
X530000D02*
X534547Y17500D01*
X530000Y8700D02*
Y12953D01*
X540453Y-42500D02*
X545000Y-37953D01*
Y-33700D01*
X530000Y-37953D02*
X534547Y-42500D01*
X530000Y-37953D02*
Y-33700D01*
X510453Y-42500D02*
X515000Y-37953D01*
Y-33700D01*
X500000Y-37953D02*
X504547Y-42500D01*
X510453Y17500D02*
X515000Y12953D01*
Y8700D02*
Y12953D01*
X500000D02*
X504547Y17500D01*
X500000Y8700D02*
Y12953D01*
D19*
X105000Y94700D02*
X152700D01*
X105000Y97700D02*
Y158937D01*
Y94700D02*
Y97700D01*
X133563Y187500D02*
X165000D01*
X105000Y158937D02*
X133563Y187500D01*
X117106Y32500D02*
X164587D01*
X105085Y44521D02*
X117106Y32500D01*
X105085Y44521D02*
Y52915D01*
X118429Y-51500D02*
X165823D01*
X105085Y-38156D02*
X118429Y-51500D01*
X105085Y-38156D02*
Y52915D01*
X172638Y-31693D02*
X185394D01*
X169291Y-35039D02*
X172638Y-31693D01*
X169291Y-48031D02*
Y-35039D01*
X165823Y-51500D02*
X169291Y-48031D01*
X173779Y53307D02*
X185394D01*
X168504Y48031D02*
X173779Y53307D01*
X168504Y36417D02*
Y48031D01*
X164587Y32500D02*
X168504Y36417D01*
X174000Y226000D02*
X176307Y228307D01*
X174000Y196500D02*
Y226000D01*
X165000Y187500D02*
X174000Y196500D01*
X105000Y91700D02*
Y94700D01*
Y53000D02*
Y91700D01*
Y53000D02*
X105085Y52915D01*
X152700Y94700D02*
X164735Y106736D01*
Y118236D01*
X207953Y135000D02*
X210000Y137047D01*
X160000Y135000D02*
X207953D01*
X174807Y128307D02*
X185394D01*
X164735Y118236D02*
X174807Y128307D01*
X176307Y228307D02*
X185394D01*
X160000Y60000D02*
X198000D01*
X143465Y235000D02*
X198000D01*
D20*
X202000Y0D02*
X220000D01*
X190386Y-11614D02*
X202000Y0D01*
X200468Y83469D02*
X221532D01*
X190386Y73386D02*
X200468Y83469D01*
Y258469D02*
X216531D01*
X190386Y248386D02*
X200468Y258469D01*
Y158468D02*
X216531D01*
X190386Y148386D02*
X200468Y158468D01*
X185394Y46614D02*
X192008Y40000D01*
X208050D01*
X204743Y53307D02*
X210000Y48050D01*
X185394Y53307D02*
X204743D01*
X207693Y66693D02*
X216746Y75746D01*
X185394Y66693D02*
X207693D01*
X185394Y121614D02*
X192008Y115000D01*
X208050D01*
X196693Y-18307D02*
X199000Y-16000D01*
X185394Y-18307D02*
X196693D01*
X185394Y-38386D02*
X192008Y-45000D01*
X204743Y-31693D02*
X210000Y-36950D01*
X185394Y-31693D02*
X204743D01*
X207000Y134000D02*
X210000Y131000D01*
Y141693D02*
Y153254D01*
X185394Y141693D02*
X210000D01*
X204743Y128307D02*
X210000Y123050D01*
X185394Y128307D02*
X204743D01*
X186701Y243000D02*
X210000D01*
X185394Y241693D02*
X186701Y243000D01*
X210000D02*
Y253254D01*
X204743Y228307D02*
X210000Y223050D01*
X185394Y228307D02*
X204743D01*
X185394Y221614D02*
X192008Y215000D01*
X208050Y-45000D02*
X210000Y-43050D01*
X207953Y-25000D02*
X210000Y-27047D01*
X216453Y-16047D02*
X217500Y-15000D01*
X210000Y-16047D02*
X216453D01*
X208050Y115000D02*
X210000Y116950D01*
X208050Y40000D02*
X210000Y41950D01*
X207953Y60000D02*
X209453Y58500D01*
X210000Y231500D02*
Y232953D01*
X216453Y68953D02*
X217500Y70000D01*
X210000Y68953D02*
X216453D01*
X210453Y142953D02*
X215000Y147500D01*
X215097Y137047D02*
X225000Y146950D01*
X210000Y137047D02*
X215097D01*
X208050Y215000D02*
X210000Y216950D01*
Y242953D02*
X214547Y247500D01*
X199000Y-16000D02*
X209000D01*
X216746Y75746D02*
Y80000D01*
X210000Y253254D02*
X211746Y255000D01*
X210000Y153254D02*
X211746Y155000D01*
X216746Y-8254D02*
Y-5000D01*
X216531Y258469D02*
X218254Y256746D01*
X223050Y255000D02*
X225000Y253050D01*
X218254Y255000D02*
X223050D01*
X215097Y237047D02*
X225000Y246950D01*
X210000Y237047D02*
X215097D01*
X192008Y215000D02*
X208050D01*
X216531Y158468D02*
X218254Y156746D01*
X223050Y155000D02*
X225000Y153050D01*
X218254Y155000D02*
X223050D01*
X220097Y62047D02*
X230000Y71950D01*
X210000Y62047D02*
X220097D01*
X221532Y83469D02*
X223254Y81746D01*
X228050Y80000D02*
X230000Y78050D01*
X223254Y80000D02*
X228050D01*
X220000Y0D02*
X223254Y-3254D01*
X228050Y-5000D02*
X230000Y-6950D01*
X223254Y-5000D02*
X228050D01*
X220097Y-22953D02*
X230000Y-13050D01*
X192008Y-45000D02*
X208050D01*
X210000Y-27500D02*
X213250Y-30750D01*
X210000Y-43050D02*
X213250Y-39800D01*
Y-30750D01*
X210000Y41950D02*
X213250Y45200D01*
X209453Y58500D02*
X210000D01*
Y57500D02*
X213250Y54250D01*
Y45200D02*
Y54250D01*
X210000Y116950D02*
X213250Y120200D01*
X210000Y216950D02*
X213250Y220200D01*
X210000Y231500D02*
X213250Y228250D01*
Y220200D02*
Y228250D01*
X209000Y-16000D02*
X216746Y-8254D01*
X210000Y-22953D02*
X220097D01*
X207953Y235000D02*
X210000Y232953D01*
Y131000D02*
X213250Y127750D01*
Y120200D02*
Y127750D01*
D21*
X207953Y235000D02*
X210000Y237047D01*
X198000Y235000D02*
X207953D01*
Y60000D02*
X210000Y62047D01*
X198000Y60000D02*
X207953D01*
Y-25000D02*
X210000Y-22953D01*
X143465Y-25000D02*
X207953D01*
D22*
X619685Y129528D02*
D03*
X659449Y189961D02*
D03*
X629921D02*
D03*
X600394Y190945D02*
D03*
X569882D02*
D03*
X539370D02*
D03*
X509842D02*
D03*
X479331D02*
D03*
X449803D02*
D03*
X417323D02*
D03*
X657480Y30512D02*
D03*
X626968D02*
D03*
X597441Y31496D02*
D03*
X566929D02*
D03*
X538386D02*
D03*
X506890D02*
D03*
X477362Y32138D02*
D03*
X446850Y32480D02*
D03*
X417323D02*
D03*
D23*
X485000Y60000D02*
D03*
Y70000D02*
D03*
X505000Y60000D02*
D03*
X495000Y70000D02*
D03*
Y60000D02*
D03*
X485000Y90000D02*
D03*
Y80000D02*
D03*
X495000D02*
D03*
Y100000D02*
D03*
Y90000D02*
D03*
X515000Y60000D02*
D03*
X535000D02*
D03*
X515000Y70000D02*
D03*
X525000Y60000D02*
D03*
X505000Y70000D02*
D03*
Y100000D02*
D03*
X525000Y70000D02*
D03*
X535000D02*
D03*
X525000Y80000D02*
D03*
X535000D02*
D03*
X485000Y100000D02*
D03*
Y110000D02*
D03*
X495000D02*
D03*
X485000Y120000D02*
D03*
X495000D02*
D03*
X485000Y130000D02*
D03*
Y160000D02*
D03*
Y140000D02*
D03*
X495000Y130000D02*
D03*
X485000Y150000D02*
D03*
X495000Y140000D02*
D03*
X505000Y110000D02*
D03*
X495000Y150000D02*
D03*
X505000Y120000D02*
D03*
X525000Y140000D02*
D03*
X505000Y150000D02*
D03*
X515000D02*
D03*
X505000Y160000D02*
D03*
X495000D02*
D03*
X525000Y150000D02*
D03*
X515000Y160000D02*
D03*
X525000D02*
D03*
X555000Y60000D02*
D03*
X545000D02*
D03*
X565000D02*
D03*
X575000Y70000D02*
D03*
Y60000D02*
D03*
X555000Y70000D02*
D03*
X545000Y80000D02*
D03*
Y70000D02*
D03*
X565000D02*
D03*
Y110000D02*
D03*
Y100000D02*
D03*
X575000Y80000D02*
D03*
Y90000D02*
D03*
X585000Y60000D02*
D03*
Y80000D02*
D03*
Y70000D02*
D03*
Y90000D02*
D03*
X575000Y110000D02*
D03*
Y100000D02*
D03*
X585000Y110000D02*
D03*
Y100000D02*
D03*
X545000Y140000D02*
D03*
X535000D02*
D03*
X565000Y120000D02*
D03*
X545000Y150000D02*
D03*
X565000Y140000D02*
D03*
X535000Y150000D02*
D03*
Y160000D02*
D03*
X545000D02*
D03*
X555000Y150000D02*
D03*
Y160000D02*
D03*
X565000D02*
D03*
X575000Y120000D02*
D03*
Y140000D02*
D03*
Y130000D02*
D03*
X585000Y120000D02*
D03*
Y140000D02*
D03*
Y130000D02*
D03*
X565000Y150000D02*
D03*
X575000Y160000D02*
D03*
Y150000D02*
D03*
X585000D02*
D03*
D24*
Y160000D02*
D03*
D25*
X619138Y103862D02*
D03*
D26*
X110385Y10100D02*
D03*
X120385D02*
D03*
X130385D02*
D03*
X140385D02*
D03*
X150385D02*
D03*
X160385D02*
D03*
X170385D02*
D03*
X180385D02*
D03*
X74385Y200100D02*
D03*
X84385D02*
D03*
X94385D02*
D03*
X104385D02*
D03*
X114385D02*
D03*
X124385D02*
D03*
X134385D02*
D03*
X144385D02*
D03*
X154385D02*
D03*
X164385D02*
D03*
D27*
X250885Y100100D02*
D03*
Y110100D02*
D03*
Y120100D02*
D03*
X260885Y110100D02*
D03*
Y100100D02*
D03*
Y120100D02*
D03*
D28*
X81400Y94700D02*
D03*
X105000D02*
D03*
D29*
X81400Y91700D02*
D03*
Y97700D02*
D03*
X96200Y75000D02*
D03*
X90200D02*
D03*
X105000Y91700D02*
D03*
Y97700D02*
D03*
D30*
X93200Y75000D02*
D03*
D31*
X370385Y40100D02*
D03*
Y30100D02*
D03*
Y70100D02*
D03*
Y50100D02*
D03*
Y60100D02*
D03*
Y80100D02*
D03*
Y90100D02*
D03*
Y100100D02*
D03*
Y110100D02*
D03*
Y120100D02*
D03*
Y130100D02*
D03*
Y140100D02*
D03*
Y150100D02*
D03*
Y180100D02*
D03*
Y160100D02*
D03*
Y170100D02*
D03*
Y190100D02*
D03*
Y200100D02*
D03*
X380385Y30100D02*
D03*
Y40100D02*
D03*
Y50100D02*
D03*
Y60100D02*
D03*
Y80100D02*
D03*
Y90100D02*
D03*
Y110100D02*
D03*
Y70100D02*
D03*
Y100100D02*
D03*
Y120100D02*
D03*
Y130100D02*
D03*
Y140100D02*
D03*
Y150100D02*
D03*
Y160100D02*
D03*
Y170100D02*
D03*
Y200100D02*
D03*
Y180100D02*
D03*
Y190100D02*
D03*
D32*
X149606Y-31496D02*
D03*
X137795D02*
D03*
X149606Y-19685D02*
D03*
X137795D02*
D03*
X149606Y53150D02*
D03*
X137795D02*
D03*
X149606Y66929D02*
D03*
X137795D02*
D03*
X149606Y127953D02*
D03*
X137795D02*
D03*
X149606Y141732D02*
D03*
X137795D02*
D03*
X149606Y228346D02*
D03*
X137795D02*
D03*
X149606Y242126D02*
D03*
X137795D02*
D03*
D33*
X417500Y60500D02*
D03*
X417000Y158000D02*
D03*
X410000Y200000D02*
D03*
Y265000D02*
D03*
X425000D02*
D03*
X442500D02*
D03*
X457500D02*
D03*
X472500D02*
D03*
X487500D02*
D03*
X502500D02*
D03*
X517500D02*
D03*
X532500D02*
D03*
X547500D02*
D03*
X562500D02*
D03*
X577500D02*
D03*
X592500D02*
D03*
X607500D02*
D03*
X622500D02*
D03*
X637500D02*
D03*
X652500D02*
D03*
X667500D02*
D03*
Y200000D02*
D03*
X652500D02*
D03*
X637500D02*
D03*
X622500D02*
D03*
X607500D02*
D03*
X592500D02*
D03*
X577500D02*
D03*
X562500D02*
D03*
X547500D02*
D03*
X532500D02*
D03*
X517500D02*
D03*
X502500D02*
D03*
X487500D02*
D03*
X472500D02*
D03*
X457500D02*
D03*
X442500D02*
D03*
X425000D02*
D03*
X665000Y-45000D02*
D03*
X650000D02*
D03*
X635000D02*
D03*
X620000D02*
D03*
X605000D02*
D03*
X590000D02*
D03*
X575000D02*
D03*
X560000D02*
D03*
X545000D02*
D03*
X530000D02*
D03*
X515000D02*
D03*
X500000D02*
D03*
X485000D02*
D03*
X470000D02*
D03*
X455000D02*
D03*
X440000D02*
D03*
X425000D02*
D03*
X410000D02*
D03*
X665000Y20000D02*
D03*
X650000D02*
D03*
X635000D02*
D03*
X620000D02*
D03*
X605000D02*
D03*
X590000D02*
D03*
X575000D02*
D03*
X560000D02*
D03*
X545000D02*
D03*
X530000D02*
D03*
X515000D02*
D03*
X500000D02*
D03*
X470000D02*
D03*
X410000D02*
D03*
X425000D02*
D03*
X440000D02*
D03*
X485000D02*
D03*
X455000D02*
D03*
D34*
X210000Y-27500D02*
D03*
X215000Y247500D02*
D03*
X210000Y231500D02*
D03*
X215000Y147500D02*
D03*
X210000Y131000D02*
D03*
X217500Y70000D02*
D03*
X210000Y57500D02*
D03*
X217500Y-15000D02*
D03*
M02*
