%FSLAX25Y25*%
%MOIN*%
G70*
G01*
G75*
G04 Layer_Physical_Order=4*
G04 Layer_Color=16711680*
%ADD10R,0.33858X0.42126*%
%ADD11R,0.14173X0.04528*%
%ADD12R,0.03661X0.03661*%
%ADD13R,0.03500X0.03400*%
%ADD14R,0.03661X0.03661*%
%ADD15R,0.02200X0.06700*%
%ADD16R,0.02178X0.03937*%
%ADD17R,0.03200X0.03000*%
%ADD18C,0.01000*%
%ADD19C,0.04000*%
%ADD20C,0.02000*%
%ADD21C,0.03937*%
%ADD22C,0.06000*%
%ADD23C,0.04724*%
%ADD24R,0.04724X0.04724*%
%ADD25R,0.06000X0.06000*%
%ADD26P,0.06061X8X112.5*%
%ADD27P,0.06605X8X292.5*%
%ADD28P,0.17046X8X112.5*%
%ADD29C,0.07677*%
%ADD30P,0.17046X8X202.5*%
%ADD31P,0.07144X8X292.5*%
%ADD32C,0.05000*%
%ADD33C,0.02000*%
%ADD34C,0.04000*%
%ADD35R,0.07874X0.08661*%
%ADD36R,0.08661X0.07874*%
%ADD37R,0.03400X0.03500*%
%ADD38R,0.01772X0.01575*%
%ADD39R,0.04409X0.06772*%
G36*
X633485Y-44927D02*
X633471Y-45000D01*
X633587Y-45585D01*
X633919Y-46081D01*
X634415Y-46413D01*
X634766Y-46483D01*
X634717Y-46980D01*
X620283D01*
X620234Y-46483D01*
X620585Y-46413D01*
X621081Y-46081D01*
X621413Y-45585D01*
X621529Y-45000D01*
X621413Y-44415D01*
X621081Y-43919D01*
X620585Y-43587D01*
X620234Y-43517D01*
X620283Y-43020D01*
X631578D01*
X633485Y-44927D01*
D02*
G37*
G36*
X649766Y-43517D02*
X649415Y-43587D01*
X648919Y-43919D01*
X648587Y-44415D01*
X648471Y-45000D01*
X648485Y-45073D01*
X646779Y-46779D01*
X646644Y-46980D01*
X635283D01*
X635234Y-46483D01*
X635585Y-46413D01*
X636081Y-46081D01*
X636413Y-45585D01*
X636529Y-45000D01*
X636413Y-44415D01*
X636081Y-43919D01*
X635585Y-43587D01*
X635234Y-43517D01*
X635283Y-43020D01*
X649717D01*
X649766Y-43517D01*
D02*
G37*
G36*
X619766D02*
X619415Y-43587D01*
X618919Y-43919D01*
X618587Y-44415D01*
X618471Y-45000D01*
X618485Y-45073D01*
X616578Y-46980D01*
X605283D01*
X605234Y-46483D01*
X605585Y-46413D01*
X606081Y-46081D01*
X606413Y-45585D01*
X606529Y-45000D01*
X606413Y-44415D01*
X606081Y-43919D01*
X605585Y-43587D01*
X605234Y-43517D01*
X605283Y-43020D01*
X619717D01*
X619766Y-43517D01*
D02*
G37*
G36*
X589766D02*
X589415Y-43587D01*
X588919Y-43919D01*
X588587Y-44415D01*
X588471Y-45000D01*
X588485Y-45073D01*
X586578Y-46980D01*
X575283D01*
X575234Y-46483D01*
X575585Y-46413D01*
X576081Y-46081D01*
X576413Y-45585D01*
X576529Y-45000D01*
X576413Y-44415D01*
X576081Y-43919D01*
X575585Y-43587D01*
X575234Y-43517D01*
X575283Y-43020D01*
X589717D01*
X589766Y-43517D01*
D02*
G37*
G36*
X603485Y-44927D02*
X603471Y-45000D01*
X603587Y-45585D01*
X603919Y-46081D01*
X604415Y-46413D01*
X604766Y-46483D01*
X604717Y-46980D01*
X590283D01*
X590234Y-46483D01*
X590585Y-46413D01*
X591081Y-46081D01*
X591413Y-45585D01*
X591529Y-45000D01*
X591413Y-44415D01*
X591081Y-43919D01*
X590585Y-43587D01*
X590234Y-43517D01*
X590283Y-43020D01*
X601578D01*
X603485Y-44927D01*
D02*
G37*
G36*
X690909Y-21184D02*
X680346Y-31748D01*
X679960Y-31430D01*
X680076Y-31256D01*
X680153Y-30866D01*
Y110000D01*
X690909D01*
Y-21184D01*
D02*
G37*
G36*
X705000Y272000D02*
Y112500D01*
X692949D01*
Y240571D01*
X692871Y240961D01*
X692650Y241292D01*
X669015Y264927D01*
X669029Y265000D01*
X668913Y265585D01*
X668581Y266081D01*
X668085Y266413D01*
X667500Y266529D01*
X667427Y266515D01*
X663221Y270721D01*
X662890Y270942D01*
X662500Y271020D01*
X415000D01*
X414610Y270942D01*
X414279Y270721D01*
X410073Y266515D01*
X410000Y266529D01*
X409415Y266413D01*
X408919Y266081D01*
X408587Y265585D01*
X408471Y265000D01*
X408587Y264415D01*
X408919Y263919D01*
X409415Y263587D01*
X410000Y263471D01*
X410585Y263587D01*
X411081Y263919D01*
X411413Y264415D01*
X411529Y265000D01*
X411515Y265073D01*
X415422Y268980D01*
X452078D01*
X455985Y265073D01*
X455971Y265000D01*
X456087Y264415D01*
X456419Y263919D01*
X456915Y263587D01*
X457500Y263471D01*
X458085Y263587D01*
X458581Y263919D01*
X458913Y264415D01*
X459029Y265000D01*
X458913Y265585D01*
X458581Y266081D01*
X458085Y266413D01*
X457500Y266529D01*
X457427Y266515D01*
X455423Y268518D01*
X455615Y268980D01*
X482078D01*
X485985Y265073D01*
X485971Y265000D01*
X486087Y264415D01*
X486419Y263919D01*
X486915Y263587D01*
X487500Y263471D01*
X488085Y263587D01*
X488581Y263919D01*
X488913Y264415D01*
X489029Y265000D01*
X488913Y265585D01*
X488581Y266081D01*
X488085Y266413D01*
X487500Y266529D01*
X487427Y266515D01*
X485423Y268518D01*
X485615Y268980D01*
X512078D01*
X515985Y265073D01*
X515971Y265000D01*
X516087Y264415D01*
X516419Y263919D01*
X516915Y263587D01*
X517500Y263471D01*
X518085Y263587D01*
X518581Y263919D01*
X518913Y264415D01*
X519029Y265000D01*
X518913Y265585D01*
X518581Y266081D01*
X518085Y266413D01*
X517500Y266529D01*
X517427Y266515D01*
X515423Y268518D01*
X515615Y268980D01*
X542078D01*
X545985Y265073D01*
X545971Y265000D01*
X546087Y264415D01*
X546419Y263919D01*
X546915Y263587D01*
X547500Y263471D01*
X548085Y263587D01*
X548581Y263919D01*
X548913Y264415D01*
X549029Y265000D01*
X548913Y265585D01*
X548581Y266081D01*
X548085Y266413D01*
X547500Y266529D01*
X547427Y266515D01*
X545423Y268518D01*
X545615Y268980D01*
X572078D01*
X575985Y265073D01*
X575971Y265000D01*
X576087Y264415D01*
X576419Y263919D01*
X576915Y263587D01*
X577500Y263471D01*
X578085Y263587D01*
X578581Y263919D01*
X578913Y264415D01*
X579029Y265000D01*
X578913Y265585D01*
X578581Y266081D01*
X578085Y266413D01*
X577500Y266529D01*
X577427Y266515D01*
X575423Y268518D01*
X575615Y268980D01*
X602078D01*
X605985Y265073D01*
X605971Y265000D01*
X606087Y264415D01*
X606419Y263919D01*
X606915Y263587D01*
X607500Y263471D01*
X608085Y263587D01*
X608581Y263919D01*
X608913Y264415D01*
X609029Y265000D01*
X608913Y265585D01*
X608581Y266081D01*
X608085Y266413D01*
X607500Y266529D01*
X607427Y266515D01*
X605423Y268518D01*
X605615Y268980D01*
X632078D01*
X635985Y265073D01*
X635971Y265000D01*
X636087Y264415D01*
X636419Y263919D01*
X636915Y263587D01*
X637500Y263471D01*
X638085Y263587D01*
X638581Y263919D01*
X638913Y264415D01*
X639029Y265000D01*
X638913Y265585D01*
X638581Y266081D01*
X638085Y266413D01*
X637500Y266529D01*
X637427Y266515D01*
X635423Y268518D01*
X635615Y268980D01*
X662078D01*
X665985Y265073D01*
X665971Y265000D01*
X666087Y264415D01*
X666419Y263919D01*
X666915Y263587D01*
X667500Y263471D01*
X667573Y263485D01*
X690909Y240148D01*
Y112500D01*
X680153D01*
Y238366D01*
X680076Y238756D01*
X679855Y239087D01*
X654015Y264927D01*
X654029Y265000D01*
X653913Y265585D01*
X653581Y266081D01*
X653085Y266413D01*
X652500Y266529D01*
X651915Y266413D01*
X651419Y266081D01*
X651087Y265585D01*
X650971Y265000D01*
X651087Y264415D01*
X651419Y263919D01*
X651915Y263587D01*
X652500Y263471D01*
X652573Y263485D01*
X655577Y260482D01*
X655385Y260020D01*
X628922D01*
X624015Y264927D01*
X624029Y265000D01*
X623913Y265585D01*
X623581Y266081D01*
X623085Y266413D01*
X622500Y266529D01*
X621915Y266413D01*
X621419Y266081D01*
X621087Y265585D01*
X620971Y265000D01*
X621087Y264415D01*
X621419Y263919D01*
X621915Y263587D01*
X622500Y263471D01*
X622573Y263485D01*
X625577Y260482D01*
X625385Y260020D01*
X598922D01*
X594015Y264927D01*
X594029Y265000D01*
X593913Y265585D01*
X593581Y266081D01*
X593085Y266413D01*
X592500Y266529D01*
X591915Y266413D01*
X591419Y266081D01*
X591087Y265585D01*
X590971Y265000D01*
X591087Y264415D01*
X591419Y263919D01*
X591915Y263587D01*
X592500Y263471D01*
X592573Y263485D01*
X595577Y260482D01*
X595385Y260020D01*
X568922D01*
X564015Y264927D01*
X564029Y265000D01*
X563913Y265585D01*
X563581Y266081D01*
X563085Y266413D01*
X562500Y266529D01*
X561915Y266413D01*
X561419Y266081D01*
X561087Y265585D01*
X560971Y265000D01*
X561087Y264415D01*
X561419Y263919D01*
X561915Y263587D01*
X562500Y263471D01*
X562573Y263485D01*
X565577Y260482D01*
X565385Y260020D01*
X538922D01*
X534015Y264927D01*
X534029Y265000D01*
X533913Y265585D01*
X533581Y266081D01*
X533085Y266413D01*
X532500Y266529D01*
X531915Y266413D01*
X531419Y266081D01*
X531087Y265585D01*
X530971Y265000D01*
X531087Y264415D01*
X531419Y263919D01*
X531915Y263587D01*
X532500Y263471D01*
X532573Y263485D01*
X535577Y260482D01*
X535385Y260020D01*
X508922D01*
X504015Y264927D01*
X504029Y265000D01*
X503913Y265585D01*
X503581Y266081D01*
X503085Y266413D01*
X502500Y266529D01*
X501915Y266413D01*
X501419Y266081D01*
X501087Y265585D01*
X500971Y265000D01*
X501087Y264415D01*
X501419Y263919D01*
X501915Y263587D01*
X502500Y263471D01*
X502573Y263485D01*
X505577Y260482D01*
X505385Y260020D01*
X478922D01*
X474015Y264927D01*
X474029Y265000D01*
X473913Y265585D01*
X473581Y266081D01*
X473085Y266413D01*
X472500Y266529D01*
X471915Y266413D01*
X471419Y266081D01*
X471087Y265585D01*
X470971Y265000D01*
X471087Y264415D01*
X471419Y263919D01*
X471915Y263587D01*
X472500Y263471D01*
X472573Y263485D01*
X475577Y260482D01*
X475385Y260020D01*
X448922D01*
X444015Y264927D01*
X444029Y265000D01*
X443913Y265585D01*
X443581Y266081D01*
X443085Y266413D01*
X442500Y266529D01*
X441915Y266413D01*
X441419Y266081D01*
X441087Y265585D01*
X440971Y265000D01*
X441087Y264415D01*
X441419Y263919D01*
X441915Y263587D01*
X442500Y263471D01*
X442573Y263485D01*
X445577Y260482D01*
X445385Y260020D01*
X431422D01*
X426515Y264927D01*
X426529Y265000D01*
X426413Y265585D01*
X426081Y266081D01*
X425585Y266413D01*
X425000Y266529D01*
X424415Y266413D01*
X423919Y266081D01*
X423587Y265585D01*
X423471Y265000D01*
X423587Y264415D01*
X423919Y263919D01*
X424415Y263587D01*
X425000Y263471D01*
X425073Y263485D01*
X430279Y258279D01*
X430610Y258058D01*
X431000Y257980D01*
X658078D01*
X678114Y237944D01*
Y112500D01*
X586444D01*
X586444Y112500D01*
X585747Y112788D01*
X585000Y112887D01*
X584253Y112788D01*
X583557Y112500D01*
X583556Y112500D01*
X576444D01*
X576443Y112500D01*
X575747Y112788D01*
X575000Y112887D01*
X574253Y112788D01*
X573557Y112500D01*
X573556Y112500D01*
X566444D01*
X566443Y112500D01*
X565747Y112788D01*
X565000Y112887D01*
X564253Y112788D01*
X563556Y112500D01*
X563556Y112500D01*
X510316D01*
X510125Y112962D01*
X531081Y133919D01*
X531413Y134415D01*
X531529Y135000D01*
Y151500D01*
X531413Y152085D01*
X531081Y152581D01*
X527581Y156081D01*
X527085Y156413D01*
X526500Y156529D01*
X522133D01*
X517699Y160964D01*
X517500Y161443D01*
X517041Y162041D01*
X516529Y162434D01*
Y166000D01*
X516413Y166585D01*
X516081Y167081D01*
X434581Y248581D01*
X434085Y248913D01*
X433500Y249029D01*
X216985D01*
X216802Y249302D01*
X215975Y249855D01*
X215000Y250049D01*
X214024Y249855D01*
X213198Y249302D01*
X212645Y248476D01*
X212451Y247500D01*
X212645Y246525D01*
X213198Y245698D01*
X214024Y245145D01*
X215000Y244951D01*
X215975Y245145D01*
X216802Y245698D01*
X216985Y245971D01*
X432866D01*
X513471Y165366D01*
Y162434D01*
X512959Y162041D01*
X512500Y161443D01*
X512212Y160747D01*
X512113Y160000D01*
X512212Y159253D01*
X512500Y158556D01*
X512959Y157959D01*
X513556Y157500D01*
X514253Y157211D01*
X515000Y157113D01*
X515747Y157211D01*
X516443Y157500D01*
X516666Y157671D01*
X520419Y153919D01*
X520915Y153587D01*
X521500Y153471D01*
X525867D01*
X526209Y153128D01*
X525931Y152712D01*
X525747Y152788D01*
X525000Y152887D01*
X524253Y152788D01*
X523557Y152500D01*
X522959Y152041D01*
X522500Y151444D01*
X522212Y150747D01*
X522113Y150000D01*
X522212Y149253D01*
X522500Y148556D01*
X522959Y147959D01*
X523557Y147500D01*
X524253Y147212D01*
X525000Y147113D01*
X525747Y147212D01*
X526443Y147500D01*
X527041Y147959D01*
X527500Y148556D01*
X527788Y149253D01*
X527887Y150000D01*
X527788Y150747D01*
X527712Y150931D01*
X528128Y151209D01*
X528471Y150866D01*
Y135634D01*
X505640Y112803D01*
X505000Y112887D01*
X504253Y112788D01*
X503556Y112500D01*
X503556Y112500D01*
X496444D01*
X496444Y112500D01*
X495747Y112788D01*
X495000Y112887D01*
X494253Y112788D01*
X493556Y112500D01*
X493556Y112500D01*
X486444D01*
X486444Y112500D01*
X485747Y112788D01*
X485000Y112887D01*
X484253Y112788D01*
X483557Y112500D01*
X483556Y112500D01*
X383685D01*
X382285Y113900D01*
X378485D01*
X377085Y112500D01*
X373685D01*
X372285Y113900D01*
X368485D01*
X367085Y112500D01*
X263812D01*
X262661Y113651D01*
X259109D01*
X257958Y112500D01*
X253812D01*
X252661Y113651D01*
X249109D01*
X247958Y112500D01*
X105350D01*
Y143908D01*
X126422Y164980D01*
X343578D01*
X354279Y154279D01*
X354610Y154058D01*
X355000Y153980D01*
X367912D01*
X368104Y153518D01*
X366585Y152000D01*
Y148200D01*
X368485Y146300D01*
X372285D01*
X374185Y148200D01*
Y152000D01*
X372667Y153518D01*
X372858Y153980D01*
X377912D01*
X378103Y153518D01*
X376585Y152000D01*
Y148200D01*
X378485Y146300D01*
X382285D01*
X384185Y148200D01*
Y151076D01*
X384647Y151268D01*
X386635Y149279D01*
X386966Y149058D01*
X387356Y148980D01*
X411750D01*
Y147750D01*
X416150D01*
Y152250D01*
X413142D01*
X411992Y153400D01*
Y154114D01*
X413795D01*
Y153614D01*
X416500D01*
Y158000D01*
Y162386D01*
X413795D01*
Y161886D01*
X411973D01*
Y161580D01*
X411919Y161570D01*
X411772Y161540D01*
X411441Y161319D01*
X410252Y160130D01*
X410031Y159799D01*
X409953Y159409D01*
Y156528D01*
Y152978D01*
X410031Y152587D01*
X410252Y152257D01*
X411027Y151481D01*
X410835Y151020D01*
X387779D01*
X383077Y155721D01*
X382747Y155942D01*
X382583Y155974D01*
X382438Y156453D01*
X384185Y158200D01*
Y162000D01*
X382285Y163900D01*
X378485D01*
X376585Y162000D01*
Y158200D01*
X378304Y156482D01*
X378112Y156020D01*
X372658D01*
X372466Y156482D01*
X374185Y158200D01*
Y162000D01*
X372285Y163900D01*
X368485D01*
X366585Y162000D01*
Y158200D01*
X368303Y156482D01*
X368112Y156020D01*
X355422D01*
X344721Y166721D01*
X344390Y166942D01*
X344000Y167020D01*
X126000D01*
X125610Y166942D01*
X125279Y166721D01*
X103610Y145052D01*
X103389Y144721D01*
X103311Y144331D01*
Y112500D01*
X67500D01*
Y272500D01*
X704500D01*
X705000Y272000D01*
D02*
G37*
G36*
Y-70000D02*
X67500D01*
Y110000D01*
X103311D01*
Y103074D01*
X100813D01*
X96626Y98887D01*
Y90513D01*
X100813Y86326D01*
X103311D01*
Y68898D01*
X103389Y68507D01*
X103610Y68177D01*
X125263Y46523D01*
X125594Y46302D01*
X125984Y46224D01*
X360458D01*
X360848Y46302D01*
X361179Y46523D01*
X366123Y51468D01*
X366585Y51276D01*
Y48200D01*
X368485Y46300D01*
X372285D01*
X374185Y48200D01*
Y52000D01*
X372766Y53418D01*
X372958Y53880D01*
X377812D01*
X378004Y53418D01*
X376585Y52000D01*
Y48200D01*
X378485Y46300D01*
X382285D01*
X384185Y48200D01*
Y51276D01*
X384647Y51468D01*
X384835Y51279D01*
X385166Y51058D01*
X385556Y50980D01*
X412250D01*
Y49750D01*
X416650D01*
Y54250D01*
X413642D01*
X412350Y55542D01*
Y56614D01*
X412472D01*
Y56614D01*
X414295D01*
Y56114D01*
X417000D01*
Y60500D01*
Y64886D01*
X414295D01*
Y64386D01*
X412472D01*
Y63807D01*
X412209D01*
X411819Y63729D01*
X411488Y63508D01*
X410610Y62630D01*
X410389Y62299D01*
X410311Y61909D01*
Y59091D01*
Y55119D01*
X410389Y54729D01*
X410610Y54398D01*
X411527Y53482D01*
X411335Y53020D01*
X385979D01*
X383377Y55621D01*
X383047Y55842D01*
X382656Y55920D01*
X382558D01*
X382366Y56381D01*
X384185Y58200D01*
Y62000D01*
X382285Y63900D01*
X378485D01*
X376585Y62000D01*
Y58200D01*
X378403Y56381D01*
X378212Y55920D01*
X372558D01*
X372366Y56381D01*
X374185Y58200D01*
Y62000D01*
X372285Y63900D01*
X368485D01*
X366585Y62000D01*
Y58200D01*
X368404Y56381D01*
X368212Y55920D01*
X368114D01*
X367723Y55842D01*
X367393Y55621D01*
X360035Y48264D01*
X126407D01*
X105350Y69320D01*
Y86326D01*
X109187D01*
X113374Y90513D01*
Y98887D01*
X109187Y103074D01*
X105350D01*
Y110000D01*
X247334D01*
Y108324D01*
X249109Y106549D01*
X252661D01*
X254436Y108324D01*
Y110000D01*
X257334D01*
Y108324D01*
X259109Y106549D01*
X262661D01*
X264436Y108324D01*
Y110000D01*
X366585D01*
Y108200D01*
X368485Y106300D01*
X372285D01*
X374185Y108200D01*
Y110000D01*
X376585D01*
Y108200D01*
X378485Y106300D01*
X382285D01*
X384185Y108200D01*
Y110000D01*
X482113D01*
X482211Y109253D01*
X482500Y108556D01*
X482959Y107959D01*
X483557Y107500D01*
X484253Y107211D01*
X485000Y107113D01*
X485747Y107211D01*
X486444Y107500D01*
X487041Y107959D01*
X487500Y108556D01*
X487788Y109253D01*
X487887Y110000D01*
X492113D01*
X492211Y109253D01*
X492500Y108556D01*
X492959Y107959D01*
X493556Y107500D01*
X494253Y107211D01*
X495000Y107113D01*
X495747Y107211D01*
X496444Y107500D01*
X497041Y107959D01*
X497500Y108556D01*
X497788Y109253D01*
X497887Y110000D01*
X502113D01*
X502212Y109253D01*
X502500Y108556D01*
X502959Y107959D01*
X503556Y107500D01*
X504253Y107211D01*
X505000Y107113D01*
X505747Y107211D01*
X506444Y107500D01*
X507041Y107959D01*
X507500Y108556D01*
X507789Y109253D01*
X507887Y110000D01*
X562113D01*
X562212Y109253D01*
X562500Y108556D01*
X562959Y107959D01*
X563556Y107500D01*
X564253Y107211D01*
X565000Y107113D01*
X565747Y107211D01*
X566443Y107500D01*
X567041Y107959D01*
X567500Y108556D01*
X567789Y109253D01*
X567887Y110000D01*
X572113D01*
X572212Y109253D01*
X572500Y108556D01*
X572959Y107959D01*
X573557Y107500D01*
X574253Y107211D01*
X575000Y107113D01*
X575747Y107211D01*
X576443Y107500D01*
X577041Y107959D01*
X577500Y108556D01*
X577788Y109253D01*
X577887Y110000D01*
X582113D01*
X582211Y109253D01*
X582500Y108556D01*
X582959Y107959D01*
X583557Y107500D01*
X584253Y107211D01*
X585000Y107113D01*
X585747Y107211D01*
X586444Y107500D01*
X587041Y107959D01*
X587500Y108556D01*
X587788Y109253D01*
X587887Y110000D01*
X678114D01*
Y-30444D01*
X665250Y-43308D01*
X664750D01*
X662721Y-41279D01*
X662390Y-41058D01*
X662000Y-40980D01*
X413000D01*
X412610Y-41058D01*
X412279Y-41279D01*
X410073Y-43485D01*
X410000Y-43471D01*
X409415Y-43587D01*
X408919Y-43919D01*
X408877Y-43980D01*
X222973D01*
X209974Y-30982D01*
X210135Y-30508D01*
X210783Y-30423D01*
X211513Y-30121D01*
X212140Y-29640D01*
X212620Y-29013D01*
X212923Y-28283D01*
X212960Y-28000D01*
X210000D01*
Y-27500D01*
X209500D01*
Y-24540D01*
X209217Y-24577D01*
X208487Y-24880D01*
X207860Y-25360D01*
X207804Y-25434D01*
X207304Y-25418D01*
X207221Y-25294D01*
X173581Y8346D01*
X173685Y8450D01*
Y11750D01*
X172035Y13400D01*
X168735D01*
X167085Y11750D01*
Y8450D01*
X168735Y6800D01*
X172035D01*
X172139Y6904D01*
X205480Y-26437D01*
Y-28950D01*
X205558Y-29340D01*
X205779Y-29671D01*
X221829Y-45721D01*
X222160Y-45942D01*
X222550Y-46020D01*
X408877D01*
X408919Y-46081D01*
X409415Y-46413D01*
X409766Y-46483D01*
X409717Y-46980D01*
X198907D01*
X143581Y8346D01*
X143685Y8450D01*
Y11750D01*
X142035Y13400D01*
X138735D01*
X137085Y11750D01*
Y8450D01*
X138735Y6800D01*
X142035D01*
X142139Y6904D01*
X197764Y-48721D01*
X198095Y-48942D01*
X198485Y-49020D01*
X497000D01*
X497250Y-48970D01*
X497500Y-49020D01*
X665535D01*
X665926Y-48942D01*
X666257Y-48721D01*
X692650Y-22327D01*
X692871Y-21997D01*
X692949Y-21606D01*
Y110000D01*
X705000D01*
Y-70000D01*
D02*
G37*
G36*
X663485Y-44927D02*
X663471Y-45000D01*
X663587Y-45585D01*
X663919Y-46081D01*
X664415Y-46413D01*
X664578Y-46446D01*
X664651Y-46518D01*
X664460Y-46980D01*
X650283D01*
X650234Y-46483D01*
X650585Y-46413D01*
X651081Y-46081D01*
X651413Y-45585D01*
X651529Y-45000D01*
X651413Y-44415D01*
X651081Y-43919D01*
X650585Y-43587D01*
X650234Y-43517D01*
X650283Y-43020D01*
X661578D01*
X663485Y-44927D01*
D02*
G37*
G36*
X453485D02*
X453471Y-45000D01*
X453587Y-45585D01*
X453919Y-46081D01*
X454415Y-46413D01*
X454766Y-46483D01*
X454717Y-46980D01*
X440615D01*
X440423Y-46518D01*
D01*
X440585Y-46413D01*
X440585D01*
X441081Y-46081D01*
X441413Y-45585D01*
X441529Y-45000D01*
X441413Y-44415D01*
X441081Y-43919D01*
X440585Y-43587D01*
X440234Y-43517D01*
X440283Y-43020D01*
X451578D01*
X453485Y-44927D01*
D02*
G37*
G36*
X483485D02*
X483471Y-45000D01*
X483587Y-45585D01*
X483919Y-46081D01*
X484415Y-46413D01*
X484766Y-46483D01*
X484717Y-46980D01*
X470283D01*
X470234Y-46483D01*
X470585Y-46413D01*
X471081Y-46081D01*
X471413Y-45585D01*
X471529Y-45000D01*
X471413Y-44415D01*
X471081Y-43919D01*
X470585Y-43587D01*
X470234Y-43517D01*
X470283Y-43020D01*
X481578D01*
X483485Y-44927D01*
D02*
G37*
G36*
X499766Y-43517D02*
X499415Y-43587D01*
X498919Y-43919D01*
X498587Y-44415D01*
X498471Y-45000D01*
X498485Y-45073D01*
X496578Y-46980D01*
X485283D01*
X485234Y-46483D01*
X485585Y-46413D01*
X486081Y-46081D01*
X486413Y-45585D01*
X486529Y-45000D01*
X486413Y-44415D01*
X486081Y-43919D01*
X485585Y-43587D01*
X485234Y-43517D01*
X485283Y-43020D01*
X499717D01*
X499766Y-43517D01*
D02*
G37*
G36*
X469766D02*
X469415Y-43587D01*
X468919Y-43919D01*
X468587Y-44415D01*
X468471Y-45000D01*
X468485Y-45073D01*
X466578Y-46980D01*
X455283D01*
X455234Y-46483D01*
X455585Y-46413D01*
X456081Y-46081D01*
X456413Y-45585D01*
X456529Y-45000D01*
X456413Y-44415D01*
X456081Y-43919D01*
X455585Y-43587D01*
X455234Y-43517D01*
X455283Y-43020D01*
X469717D01*
X469766Y-43517D01*
D02*
G37*
G36*
X424766D02*
X424415Y-43587D01*
X423919Y-43919D01*
X423587Y-44415D01*
X423471Y-45000D01*
X423485Y-45073D01*
X421578Y-46980D01*
X410283D01*
X410234Y-46483D01*
X410585Y-46413D01*
X411081Y-46081D01*
X411413Y-45585D01*
X411529Y-45000D01*
X411515Y-44927D01*
X413422Y-43020D01*
X424717D01*
X424766Y-43517D01*
D02*
G37*
G36*
X439766D02*
X439415Y-43587D01*
X438919Y-43919D01*
X438587Y-44415D01*
X438471Y-45000D01*
X438568Y-45490D01*
X437078Y-46980D01*
X425283D01*
X425234Y-46483D01*
X425585Y-46413D01*
X426081Y-46081D01*
X426413Y-45585D01*
X426529Y-45000D01*
X426413Y-44415D01*
X426081Y-43919D01*
X425585Y-43587D01*
X425234Y-43517D01*
X425283Y-43020D01*
X439717D01*
X439766Y-43517D01*
D02*
G37*
G36*
X573485Y-44927D02*
X573471Y-45000D01*
X573587Y-45585D01*
X573919Y-46081D01*
X574415Y-46413D01*
X574766Y-46483D01*
X574717Y-46980D01*
X560283D01*
X560234Y-46483D01*
X560585Y-46413D01*
X561081Y-46081D01*
X561413Y-45585D01*
X561529Y-45000D01*
X561413Y-44415D01*
X561081Y-43919D01*
X560585Y-43587D01*
X560234Y-43517D01*
X560283Y-43020D01*
X571578D01*
X573485Y-44927D01*
D02*
G37*
G36*
X559766Y-43517D02*
X559415Y-43587D01*
X558919Y-43919D01*
X558587Y-44415D01*
X558471Y-45000D01*
X558485Y-45073D01*
X556578Y-46980D01*
X545283D01*
X545234Y-46483D01*
X545585Y-46413D01*
X546081Y-46081D01*
X546413Y-45585D01*
X546529Y-45000D01*
X546413Y-44415D01*
X546081Y-43919D01*
X545585Y-43587D01*
X545234Y-43517D01*
X545283Y-43020D01*
X559717D01*
X559766Y-43517D01*
D02*
G37*
G36*
X543485Y-44927D02*
X543471Y-45000D01*
X543587Y-45585D01*
X543919Y-46081D01*
X544415Y-46413D01*
X544766Y-46483D01*
X544717Y-46980D01*
X530283D01*
X530234Y-46483D01*
X530585Y-46413D01*
X531081Y-46081D01*
X531413Y-45585D01*
X531529Y-45000D01*
X531413Y-44415D01*
X531081Y-43919D01*
X530585Y-43587D01*
X530234Y-43517D01*
X530283Y-43020D01*
X541578D01*
X543485Y-44927D01*
D02*
G37*
G36*
X513485D02*
X513471Y-45000D01*
X513587Y-45585D01*
X513919Y-46081D01*
X514415Y-46413D01*
X514766Y-46483D01*
X514717Y-46980D01*
X500283D01*
X500234Y-46483D01*
X500585Y-46413D01*
X501081Y-46081D01*
X501413Y-45585D01*
X501529Y-45000D01*
X501413Y-44415D01*
X501081Y-43919D01*
X500585Y-43587D01*
X500234Y-43517D01*
X500283Y-43020D01*
X511578D01*
X513485Y-44927D01*
D02*
G37*
G36*
X529766Y-43517D02*
X529415Y-43587D01*
X528919Y-43919D01*
X528587Y-44415D01*
X528471Y-45000D01*
X528485Y-45073D01*
X526578Y-46980D01*
X515283D01*
X515234Y-46483D01*
X515585Y-46413D01*
X516081Y-46081D01*
X516413Y-45585D01*
X516529Y-45000D01*
X516413Y-44415D01*
X516081Y-43919D01*
X515585Y-43587D01*
X515234Y-43517D01*
X515283Y-43020D01*
X529717D01*
X529766Y-43517D01*
D02*
G37*
%LPC*%
G36*
X372285Y73900D02*
X368485D01*
X366585Y72000D01*
Y68200D01*
X368485Y66300D01*
X372285D01*
X374185Y68200D01*
Y72000D01*
X372285Y73900D01*
D02*
G37*
G36*
X382285D02*
X378485D01*
X376585Y72000D01*
Y68200D01*
X378485Y66300D01*
X382285D01*
X384185Y68200D01*
Y72000D01*
X382285Y73900D01*
D02*
G37*
G36*
X137795Y69955D02*
X137012Y69852D01*
X136282Y69550D01*
X135656Y69069D01*
X135175Y68442D01*
X134872Y67712D01*
X134769Y66929D01*
X134872Y66146D01*
X135175Y65416D01*
X135656Y64789D01*
X136282Y64309D01*
X137012Y64006D01*
X137795Y63903D01*
X138578Y64006D01*
X139308Y64309D01*
X139935Y64789D01*
X140416Y65416D01*
X140718Y66146D01*
X140821Y66929D01*
X140718Y67712D01*
X140416Y68442D01*
X139935Y69069D01*
X139308Y69550D01*
X138578Y69852D01*
X137795Y69955D01*
D02*
G37*
G36*
X441454Y60150D02*
Y60150D01*
X441250Y60150D01*
X441100Y59950D01*
X440896Y59950D01*
X440896Y59950D01*
Y59950D01*
X439000D01*
Y57450D01*
Y54950D01*
X440896D01*
X440896Y54950D01*
Y54950D01*
X441100Y54950D01*
X441250Y54750D01*
X441454Y54750D01*
X441454Y54750D01*
Y54750D01*
X443500D01*
Y57450D01*
Y60150D01*
X441454D01*
X441454Y60150D01*
D02*
G37*
G36*
X441050Y67570D02*
X436279D01*
X435888Y67492D01*
X435558Y67271D01*
X434070Y65784D01*
X430169D01*
Y64570D01*
X428600D01*
Y65550D01*
X424400D01*
Y64118D01*
X422528D01*
Y64386D01*
X420705D01*
Y64886D01*
X418000D01*
Y60500D01*
Y56114D01*
X419256D01*
Y56114D01*
X420122D01*
Y54750D01*
X417850D01*
Y52500D01*
X423250D01*
Y54750D01*
X422161D01*
Y56114D01*
X423028D01*
Y57402D01*
X421142D01*
Y58402D01*
X423028D01*
Y58827D01*
X423490Y59018D01*
X424400Y58108D01*
Y55450D01*
X428600D01*
Y56430D01*
X430169D01*
Y55216D01*
X434831D01*
Y58439D01*
X435438Y59046D01*
X435900Y58855D01*
Y57950D01*
X438000D01*
Y59950D01*
X436995D01*
X436804Y60412D01*
X437942Y61550D01*
X440600D01*
Y64905D01*
X441062Y65096D01*
X441750Y64408D01*
Y61350D01*
X446250D01*
Y62843D01*
X483225D01*
X483386Y62369D01*
X482959Y62041D01*
X482500Y61443D01*
X482211Y60747D01*
X482113Y60000D01*
X482211Y59253D01*
X482500Y58557D01*
X482959Y57959D01*
X483557Y57500D01*
X484253Y57212D01*
X485000Y57113D01*
X485747Y57212D01*
X486444Y57500D01*
X487041Y57959D01*
X487500Y58557D01*
X487788Y59253D01*
X487887Y60000D01*
X487788Y60747D01*
X487500Y61443D01*
X487041Y62041D01*
X486614Y62369D01*
X486775Y62843D01*
X493225D01*
X493386Y62369D01*
X492959Y62041D01*
X492500Y61443D01*
X492211Y60747D01*
X492113Y60000D01*
X492211Y59253D01*
X492500Y58557D01*
X492959Y57959D01*
X493556Y57500D01*
X494253Y57212D01*
X495000Y57113D01*
X495747Y57212D01*
X496444Y57500D01*
X497041Y57959D01*
X497500Y58557D01*
X497788Y59253D01*
X497887Y60000D01*
X497817Y60534D01*
X498265Y60755D01*
X499741Y59279D01*
X500072Y59058D01*
X500462Y58980D01*
X502324D01*
X502500Y58557D01*
X502959Y57959D01*
X503556Y57500D01*
X504253Y57212D01*
X505000Y57113D01*
X505747Y57212D01*
X506444Y57500D01*
X507041Y57959D01*
X507500Y58557D01*
X507789Y59253D01*
X507887Y60000D01*
X507789Y60747D01*
X507500Y61443D01*
X507041Y62041D01*
X506444Y62500D01*
X505747Y62788D01*
X505000Y62887D01*
X504253Y62788D01*
X503556Y62500D01*
X502959Y62041D01*
X502500Y61443D01*
X502324Y61020D01*
X500884D01*
X497321Y64583D01*
X496990Y64804D01*
X496600Y64882D01*
X446250D01*
Y65750D01*
X443292D01*
X441771Y67271D01*
X441440Y67492D01*
X441050Y67570D01*
D02*
G37*
G36*
X149606Y69955D02*
X148823Y69852D01*
X148093Y69550D01*
X147467Y69069D01*
X146986Y68442D01*
X146684Y67712D01*
X146580Y66929D01*
X146684Y66146D01*
X146986Y65416D01*
X147467Y64789D01*
X148093Y64309D01*
X148823Y64006D01*
X149606Y63903D01*
X150390Y64006D01*
X151119Y64309D01*
X151746Y64789D01*
X152227Y65416D01*
X152529Y66146D01*
X152632Y66929D01*
X152529Y67712D01*
X152227Y68442D01*
X151746Y69069D01*
X151119Y69550D01*
X150390Y69852D01*
X149606Y69955D01*
D02*
G37*
G36*
X495000Y72887D02*
X494253Y72789D01*
X493556Y72500D01*
X492959Y72041D01*
X492500Y71443D01*
X492211Y70747D01*
X492113Y70000D01*
X492211Y69253D01*
X492500Y68557D01*
X492959Y67959D01*
X493556Y67500D01*
X494253Y67212D01*
X495000Y67113D01*
X495747Y67212D01*
X496444Y67500D01*
X497041Y67959D01*
X497500Y68557D01*
X497788Y69253D01*
X497887Y70000D01*
X497788Y70747D01*
X497500Y71443D01*
X497041Y72041D01*
X496444Y72500D01*
X495747Y72789D01*
X495000Y72887D01*
D02*
G37*
G36*
X505000D02*
X504253Y72789D01*
X503556Y72500D01*
X502959Y72041D01*
X502500Y71443D01*
X502212Y70747D01*
X502113Y70000D01*
X502212Y69253D01*
X502500Y68557D01*
X502959Y67959D01*
X503556Y67500D01*
X504253Y67212D01*
X505000Y67113D01*
X505747Y67212D01*
X506444Y67500D01*
X507041Y67959D01*
X507500Y68557D01*
X507789Y69253D01*
X507887Y70000D01*
X507789Y70747D01*
X507500Y71443D01*
X507041Y72041D01*
X506444Y72500D01*
X505747Y72789D01*
X505000Y72887D01*
D02*
G37*
G36*
X525000D02*
X524253Y72789D01*
X523557Y72500D01*
X522959Y72041D01*
X522500Y71443D01*
X522212Y70747D01*
X522113Y70000D01*
X522212Y69253D01*
X522500Y68557D01*
X522959Y67959D01*
X523557Y67500D01*
X524253Y67212D01*
X525000Y67113D01*
X525747Y67212D01*
X526443Y67500D01*
X527041Y67959D01*
X527500Y68557D01*
X527788Y69253D01*
X527887Y70000D01*
X527788Y70747D01*
X527500Y71443D01*
X527041Y72041D01*
X526443Y72500D01*
X525747Y72789D01*
X525000Y72887D01*
D02*
G37*
G36*
X485000D02*
X484253Y72789D01*
X483557Y72500D01*
X482959Y72041D01*
X482500Y71443D01*
X482211Y70747D01*
X482113Y70000D01*
X482211Y69253D01*
X482500Y68557D01*
X482959Y67959D01*
X483557Y67500D01*
X484253Y67212D01*
X485000Y67113D01*
X485747Y67212D01*
X486444Y67500D01*
X487041Y67959D01*
X487500Y68557D01*
X487788Y69253D01*
X487887Y70000D01*
X487788Y70747D01*
X487500Y71443D01*
X487041Y72041D01*
X486444Y72500D01*
X485747Y72789D01*
X485000Y72887D01*
D02*
G37*
G36*
X97387Y83374D02*
X89013D01*
X84826Y79187D01*
Y70813D01*
X89013Y66626D01*
X97387D01*
X101574Y70813D01*
Y79187D01*
X97387Y83374D01*
D02*
G37*
G36*
X514500Y69500D02*
X511675D01*
X511724Y69122D01*
X512063Y68304D01*
X512602Y67602D01*
X513304Y67063D01*
X514122Y66724D01*
X514500Y66675D01*
Y69500D01*
D02*
G37*
G36*
X518325D02*
X515500D01*
Y66675D01*
X515878Y66724D01*
X516696Y67063D01*
X517398Y67602D01*
X517937Y68304D01*
X518276Y69122D01*
X518325Y69500D01*
D02*
G37*
G36*
X446750Y60150D02*
X444500D01*
Y57950D01*
X446750D01*
Y60150D01*
D02*
G37*
G36*
Y56950D02*
X444500D01*
Y54750D01*
X446750D01*
Y56950D01*
D02*
G37*
G36*
X438000D02*
X435900D01*
Y54950D01*
X438000D01*
Y56950D01*
D02*
G37*
G36*
X210000Y60049D02*
X209025Y59855D01*
X208198Y59302D01*
X207645Y58476D01*
X207451Y57500D01*
X207645Y56524D01*
X208198Y55698D01*
X209025Y55145D01*
X210000Y54951D01*
X210976Y55145D01*
X211802Y55698D01*
X212355Y56524D01*
X212549Y57500D01*
X212355Y58476D01*
X211802Y59302D01*
X210976Y59855D01*
X210000Y60049D01*
D02*
G37*
G36*
X423250Y51500D02*
X421050D01*
Y49250D01*
X423250D01*
Y51500D01*
D02*
G37*
G36*
X137795Y56176D02*
X137012Y56072D01*
X136282Y55770D01*
X135656Y55289D01*
X135175Y54663D01*
X134872Y53933D01*
X134769Y53150D01*
X134872Y52366D01*
X135175Y51637D01*
X135656Y51010D01*
X136282Y50529D01*
X137012Y50227D01*
X137795Y50124D01*
X138578Y50227D01*
X139308Y50529D01*
X139935Y51010D01*
X140416Y51637D01*
X140718Y52366D01*
X140821Y53150D01*
X140718Y53933D01*
X140416Y54663D01*
X139935Y55289D01*
X139308Y55770D01*
X138578Y56072D01*
X137795Y56176D01*
D02*
G37*
G36*
X149606D02*
X148823Y56072D01*
X148093Y55770D01*
X147467Y55289D01*
X146986Y54663D01*
X146684Y53933D01*
X146580Y53150D01*
X146684Y52366D01*
X146986Y51637D01*
X147467Y51010D01*
X148093Y50529D01*
X148823Y50227D01*
X149606Y50124D01*
X150390Y50227D01*
X151119Y50529D01*
X151746Y51010D01*
X152227Y51637D01*
X152529Y52366D01*
X152632Y53150D01*
X152529Y53933D01*
X152227Y54663D01*
X151746Y55289D01*
X151119Y55770D01*
X150390Y56072D01*
X149606Y56176D01*
D02*
G37*
G36*
X525000Y62887D02*
X524253Y62788D01*
X523557Y62500D01*
X522959Y62041D01*
X522500Y61443D01*
X522212Y60747D01*
X522113Y60000D01*
X522212Y59253D01*
X522500Y58557D01*
X522959Y57959D01*
X523557Y57500D01*
X524253Y57212D01*
X525000Y57113D01*
X525747Y57212D01*
X526443Y57500D01*
X527041Y57959D01*
X527500Y58557D01*
X527788Y59253D01*
X527887Y60000D01*
X527788Y60747D01*
X527500Y61443D01*
X527041Y62041D01*
X526443Y62500D01*
X525747Y62788D01*
X525000Y62887D01*
D02*
G37*
G36*
X565000D02*
X564253Y62788D01*
X563556Y62500D01*
X562959Y62041D01*
X562500Y61443D01*
X562212Y60747D01*
X562113Y60000D01*
X562212Y59253D01*
X562500Y58557D01*
X562959Y57959D01*
X563556Y57500D01*
X564253Y57212D01*
X565000Y57113D01*
X565747Y57212D01*
X566443Y57500D01*
X567041Y57959D01*
X567500Y58557D01*
X567789Y59253D01*
X567887Y60000D01*
X567789Y60747D01*
X567500Y61443D01*
X567041Y62041D01*
X566443Y62500D01*
X565747Y62788D01*
X565000Y62887D01*
D02*
G37*
G36*
X575000D02*
X574253Y62788D01*
X573557Y62500D01*
X572959Y62041D01*
X572500Y61443D01*
X572212Y60747D01*
X572113Y60000D01*
X572212Y59253D01*
X572500Y58557D01*
X572959Y57959D01*
X573557Y57500D01*
X574253Y57212D01*
X575000Y57113D01*
X575747Y57212D01*
X576443Y57500D01*
X577041Y57959D01*
X577500Y58557D01*
X577788Y59253D01*
X577887Y60000D01*
X577788Y60747D01*
X577500Y61443D01*
X577041Y62041D01*
X576443Y62500D01*
X575747Y62788D01*
X575000Y62887D01*
D02*
G37*
G36*
X585000D02*
X584253Y62788D01*
X583557Y62500D01*
X582959Y62041D01*
X582500Y61443D01*
X582211Y60747D01*
X582113Y60000D01*
X582211Y59253D01*
X582500Y58557D01*
X582959Y57959D01*
X583557Y57500D01*
X584253Y57212D01*
X585000Y57113D01*
X585747Y57212D01*
X586444Y57500D01*
X587041Y57959D01*
X587500Y58557D01*
X587788Y59253D01*
X587887Y60000D01*
X587788Y60747D01*
X587500Y61443D01*
X587041Y62041D01*
X586444Y62500D01*
X585747Y62788D01*
X585000Y62887D01*
D02*
G37*
G36*
X535000D02*
X534253Y62788D01*
X533557Y62500D01*
X532959Y62041D01*
X532500Y61443D01*
X532211Y60747D01*
X532113Y60000D01*
X532211Y59253D01*
X532500Y58557D01*
X532959Y57959D01*
X533557Y57500D01*
X534253Y57212D01*
X535000Y57113D01*
X535747Y57212D01*
X536444Y57500D01*
X537041Y57959D01*
X537500Y58557D01*
X537788Y59253D01*
X537887Y60000D01*
X537788Y60747D01*
X537500Y61443D01*
X537041Y62041D01*
X536444Y62500D01*
X535747Y62788D01*
X535000Y62887D01*
D02*
G37*
G36*
X545000D02*
X544253Y62788D01*
X543556Y62500D01*
X542959Y62041D01*
X542500Y61443D01*
X542211Y60747D01*
X542113Y60000D01*
X542211Y59253D01*
X542500Y58557D01*
X542959Y57959D01*
X543556Y57500D01*
X544253Y57212D01*
X545000Y57113D01*
X545747Y57212D01*
X546444Y57500D01*
X547041Y57959D01*
X547500Y58557D01*
X547788Y59253D01*
X547887Y60000D01*
X547788Y60747D01*
X547500Y61443D01*
X547041Y62041D01*
X546444Y62500D01*
X545747Y62788D01*
X545000Y62887D01*
D02*
G37*
G36*
X555000D02*
X554253Y62788D01*
X553556Y62500D01*
X552959Y62041D01*
X552500Y61443D01*
X552212Y60747D01*
X552113Y60000D01*
X552212Y59253D01*
X552500Y58557D01*
X552959Y57959D01*
X553556Y57500D01*
X554253Y57212D01*
X555000Y57113D01*
X555747Y57212D01*
X556444Y57500D01*
X557041Y57959D01*
X557500Y58557D01*
X557789Y59253D01*
X557887Y60000D01*
X557789Y60747D01*
X557500Y61443D01*
X557041Y62041D01*
X556444Y62500D01*
X555747Y62788D01*
X555000Y62887D01*
D02*
G37*
G36*
X535000Y72887D02*
X534253Y72789D01*
X533557Y72500D01*
X532959Y72041D01*
X532500Y71443D01*
X532211Y70747D01*
X532113Y70000D01*
X532211Y69253D01*
X532500Y68557D01*
X532959Y67959D01*
X533557Y67500D01*
X534253Y67212D01*
X535000Y67113D01*
X535747Y67212D01*
X536444Y67500D01*
X537041Y67959D01*
X537500Y68557D01*
X537788Y69253D01*
X537887Y70000D01*
X537788Y70747D01*
X537500Y71443D01*
X537041Y72041D01*
X536444Y72500D01*
X535747Y72789D01*
X535000Y72887D01*
D02*
G37*
G36*
X372285Y93900D02*
X368485D01*
X366585Y92000D01*
Y88200D01*
X368485Y86300D01*
X372285D01*
X374185Y88200D01*
Y92000D01*
X372285Y93900D01*
D02*
G37*
G36*
X382285D02*
X378485D01*
X376585Y92000D01*
Y88200D01*
X378485Y86300D01*
X382285D01*
X384185Y88200D01*
Y92000D01*
X382285Y93900D01*
D02*
G37*
G36*
X85587Y103074D02*
X77213D01*
X73026Y98887D01*
Y90513D01*
X77213Y86326D01*
X85587D01*
X89774Y90513D01*
Y98887D01*
X85587Y103074D01*
D02*
G37*
G36*
X545000Y82887D02*
X544253Y82788D01*
X543556Y82500D01*
X542959Y82041D01*
X542500Y81443D01*
X542211Y80747D01*
X542113Y80000D01*
X542211Y79253D01*
X542500Y78557D01*
X542959Y77959D01*
X543556Y77500D01*
X544253Y77211D01*
X545000Y77113D01*
X545747Y77211D01*
X546444Y77500D01*
X547041Y77959D01*
X547500Y78557D01*
X547788Y79253D01*
X547887Y80000D01*
X547788Y80747D01*
X547500Y81443D01*
X547041Y82041D01*
X546444Y82500D01*
X545747Y82788D01*
X545000Y82887D01*
D02*
G37*
G36*
X575000D02*
X574253Y82788D01*
X573557Y82500D01*
X572959Y82041D01*
X572500Y81443D01*
X572212Y80747D01*
X572113Y80000D01*
X572212Y79253D01*
X572500Y78557D01*
X572959Y77959D01*
X573557Y77500D01*
X574253Y77211D01*
X575000Y77113D01*
X575747Y77211D01*
X576443Y77500D01*
X577041Y77959D01*
X577500Y78557D01*
X577788Y79253D01*
X577887Y80000D01*
X577788Y80747D01*
X577500Y81443D01*
X577041Y82041D01*
X576443Y82500D01*
X575747Y82788D01*
X575000Y82887D01*
D02*
G37*
G36*
X585000D02*
X584253Y82788D01*
X583557Y82500D01*
X582959Y82041D01*
X582500Y81443D01*
X582211Y80747D01*
X582113Y80000D01*
X582211Y79253D01*
X582500Y78557D01*
X582959Y77959D01*
X583557Y77500D01*
X584253Y77211D01*
X585000Y77113D01*
X585747Y77211D01*
X586444Y77500D01*
X587041Y77959D01*
X587500Y78557D01*
X587788Y79253D01*
X587887Y80000D01*
X587788Y80747D01*
X587500Y81443D01*
X587041Y82041D01*
X586444Y82500D01*
X585747Y82788D01*
X585000Y82887D01*
D02*
G37*
G36*
X485000Y92887D02*
X484253Y92788D01*
X483557Y92500D01*
X482959Y92041D01*
X482500Y91443D01*
X482211Y90747D01*
X482113Y90000D01*
X482211Y89253D01*
X482500Y88557D01*
X482959Y87959D01*
X483557Y87500D01*
X484253Y87212D01*
X485000Y87113D01*
X485747Y87212D01*
X486444Y87500D01*
X487041Y87959D01*
X487500Y88557D01*
X487788Y89253D01*
X487887Y90000D01*
X487788Y90747D01*
X487500Y91443D01*
X487041Y92041D01*
X486444Y92500D01*
X485747Y92788D01*
X485000Y92887D01*
D02*
G37*
G36*
X372285Y103900D02*
X368485D01*
X366585Y102000D01*
Y98200D01*
X368485Y96300D01*
X372285D01*
X374185Y98200D01*
Y102000D01*
X372285Y103900D01*
D02*
G37*
G36*
X382285D02*
X378485D01*
X376585Y102000D01*
Y98200D01*
X378485Y96300D01*
X382285D01*
X384185Y98200D01*
Y102000D01*
X382285Y103900D01*
D02*
G37*
G36*
X252661Y103651D02*
X249109D01*
X247334Y101876D01*
Y98324D01*
X249109Y96549D01*
X252661D01*
X254436Y98324D01*
Y101876D01*
X252661Y103651D01*
D02*
G37*
G36*
X495000Y92887D02*
X494253Y92788D01*
X493556Y92500D01*
X492959Y92041D01*
X492500Y91443D01*
X492211Y90747D01*
X492113Y90000D01*
X492211Y89253D01*
X492500Y88557D01*
X492959Y87959D01*
X493556Y87500D01*
X494253Y87212D01*
X495000Y87113D01*
X495747Y87212D01*
X496444Y87500D01*
X497041Y87959D01*
X497500Y88557D01*
X497788Y89253D01*
X497887Y90000D01*
X497788Y90747D01*
X497500Y91443D01*
X497041Y92041D01*
X496444Y92500D01*
X495747Y92788D01*
X495000Y92887D01*
D02*
G37*
G36*
X575000D02*
X574253Y92788D01*
X573557Y92500D01*
X572959Y92041D01*
X572500Y91443D01*
X572212Y90747D01*
X572113Y90000D01*
X572212Y89253D01*
X572500Y88557D01*
X572959Y87959D01*
X573557Y87500D01*
X574253Y87212D01*
X575000Y87113D01*
X575747Y87212D01*
X576443Y87500D01*
X577041Y87959D01*
X577500Y88557D01*
X577788Y89253D01*
X577887Y90000D01*
X577788Y90747D01*
X577500Y91443D01*
X577041Y92041D01*
X576443Y92500D01*
X575747Y92788D01*
X575000Y92887D01*
D02*
G37*
G36*
X585000D02*
X584253Y92788D01*
X583557Y92500D01*
X582959Y92041D01*
X582500Y91443D01*
X582211Y90747D01*
X582113Y90000D01*
X582211Y89253D01*
X582500Y88557D01*
X582959Y87959D01*
X583557Y87500D01*
X584253Y87212D01*
X585000Y87113D01*
X585747Y87212D01*
X586444Y87500D01*
X587041Y87959D01*
X587500Y88557D01*
X587788Y89253D01*
X587887Y90000D01*
X587788Y90747D01*
X587500Y91443D01*
X587041Y92041D01*
X586444Y92500D01*
X585747Y92788D01*
X585000Y92887D01*
D02*
G37*
G36*
X535000Y82887D02*
X534253Y82788D01*
X533557Y82500D01*
X532959Y82041D01*
X532500Y81443D01*
X532211Y80747D01*
X532113Y80000D01*
X532211Y79253D01*
X532500Y78557D01*
X532959Y77959D01*
X533557Y77500D01*
X534253Y77211D01*
X535000Y77113D01*
X535747Y77211D01*
X536444Y77500D01*
X537041Y77959D01*
X537500Y78557D01*
X537788Y79253D01*
X537887Y80000D01*
X537788Y80747D01*
X537500Y81443D01*
X537041Y82041D01*
X536444Y82500D01*
X535747Y82788D01*
X535000Y82887D01*
D02*
G37*
G36*
X575000Y72887D02*
X574253Y72789D01*
X573557Y72500D01*
X572959Y72041D01*
X572500Y71443D01*
X572212Y70747D01*
X572113Y70000D01*
X572212Y69253D01*
X572500Y68557D01*
X572959Y67959D01*
X573557Y67500D01*
X574253Y67212D01*
X575000Y67113D01*
X575747Y67212D01*
X576443Y67500D01*
X577041Y67959D01*
X577500Y68557D01*
X577788Y69253D01*
X577887Y70000D01*
X577788Y70747D01*
X577500Y71443D01*
X577041Y72041D01*
X576443Y72500D01*
X575747Y72789D01*
X575000Y72887D01*
D02*
G37*
G36*
X585000D02*
X584253Y72789D01*
X583557Y72500D01*
X582959Y72041D01*
X582500Y71443D01*
X582211Y70747D01*
X582113Y70000D01*
X582211Y69253D01*
X582500Y68557D01*
X582959Y67959D01*
X583557Y67500D01*
X584253Y67212D01*
X585000Y67113D01*
X585747Y67212D01*
X586444Y67500D01*
X587041Y67959D01*
X587500Y68557D01*
X587788Y69253D01*
X587887Y70000D01*
X587788Y70747D01*
X587500Y71443D01*
X587041Y72041D01*
X586444Y72500D01*
X585747Y72789D01*
X585000Y72887D01*
D02*
G37*
G36*
X217500Y72549D02*
X216525Y72355D01*
X215698Y71802D01*
X215145Y70976D01*
X214951Y70000D01*
X215145Y69024D01*
X215698Y68198D01*
X216525Y67645D01*
X217500Y67451D01*
X218476Y67645D01*
X219302Y68198D01*
X219855Y69024D01*
X220049Y70000D01*
X219855Y70976D01*
X219302Y71802D01*
X218476Y72355D01*
X217500Y72549D01*
D02*
G37*
G36*
X545000Y72887D02*
X544253Y72789D01*
X543556Y72500D01*
X542959Y72041D01*
X542500Y71443D01*
X542211Y70747D01*
X542113Y70000D01*
X542211Y69253D01*
X542500Y68557D01*
X542959Y67959D01*
X543556Y67500D01*
X544253Y67212D01*
X545000Y67113D01*
X545747Y67212D01*
X546444Y67500D01*
X547041Y67959D01*
X547500Y68557D01*
X547788Y69253D01*
X547887Y70000D01*
X547788Y70747D01*
X547500Y71443D01*
X547041Y72041D01*
X546444Y72500D01*
X545747Y72789D01*
X545000Y72887D01*
D02*
G37*
G36*
X555000D02*
X554253Y72789D01*
X553556Y72500D01*
X552959Y72041D01*
X552500Y71443D01*
X552212Y70747D01*
X552113Y70000D01*
X552212Y69253D01*
X552500Y68557D01*
X552959Y67959D01*
X553556Y67500D01*
X554253Y67212D01*
X555000Y67113D01*
X555747Y67212D01*
X556444Y67500D01*
X557041Y67959D01*
X557500Y68557D01*
X557789Y69253D01*
X557887Y70000D01*
X557789Y70747D01*
X557500Y71443D01*
X557041Y72041D01*
X556444Y72500D01*
X555747Y72789D01*
X555000Y72887D01*
D02*
G37*
G36*
X565000D02*
X564253Y72789D01*
X563556Y72500D01*
X562959Y72041D01*
X562500Y71443D01*
X562212Y70747D01*
X562113Y70000D01*
X562212Y69253D01*
X562500Y68557D01*
X562959Y67959D01*
X563556Y67500D01*
X564253Y67212D01*
X565000Y67113D01*
X565747Y67212D01*
X566443Y67500D01*
X567041Y67959D01*
X567500Y68557D01*
X567789Y69253D01*
X567887Y70000D01*
X567789Y70747D01*
X567500Y71443D01*
X567041Y72041D01*
X566443Y72500D01*
X565747Y72789D01*
X565000Y72887D01*
D02*
G37*
G36*
X514500Y73325D02*
X514122Y73276D01*
X513304Y72937D01*
X512602Y72398D01*
X512063Y71696D01*
X511724Y70878D01*
X511675Y70500D01*
X514500D01*
Y73325D01*
D02*
G37*
G36*
X485000Y82887D02*
X484253Y82788D01*
X483557Y82500D01*
X482959Y82041D01*
X482500Y81443D01*
X482211Y80747D01*
X482113Y80000D01*
X482211Y79253D01*
X482500Y78557D01*
X482959Y77959D01*
X483557Y77500D01*
X484253Y77211D01*
X485000Y77113D01*
X485747Y77211D01*
X486444Y77500D01*
X487041Y77959D01*
X487500Y78557D01*
X487788Y79253D01*
X487887Y80000D01*
X487788Y80747D01*
X487500Y81443D01*
X487041Y82041D01*
X486444Y82500D01*
X485747Y82788D01*
X485000Y82887D01*
D02*
G37*
G36*
X495000D02*
X494253Y82788D01*
X493556Y82500D01*
X492959Y82041D01*
X492500Y81443D01*
X492211Y80747D01*
X492113Y80000D01*
X492211Y79253D01*
X492500Y78557D01*
X492959Y77959D01*
X493556Y77500D01*
X494253Y77211D01*
X495000Y77113D01*
X495747Y77211D01*
X496444Y77500D01*
X497041Y77959D01*
X497500Y78557D01*
X497788Y79253D01*
X497887Y80000D01*
X497788Y80747D01*
X497500Y81443D01*
X497041Y82041D01*
X496444Y82500D01*
X495747Y82788D01*
X495000Y82887D01*
D02*
G37*
G36*
X525000D02*
X524253Y82788D01*
X523557Y82500D01*
X522959Y82041D01*
X522500Y81443D01*
X522212Y80747D01*
X522113Y80000D01*
X522212Y79253D01*
X522500Y78557D01*
X522959Y77959D01*
X523557Y77500D01*
X524253Y77211D01*
X525000Y77113D01*
X525747Y77211D01*
X526443Y77500D01*
X527041Y77959D01*
X527500Y78557D01*
X527788Y79253D01*
X527887Y80000D01*
X527788Y80747D01*
X527500Y81443D01*
X527041Y82041D01*
X526443Y82500D01*
X525747Y82788D01*
X525000Y82887D01*
D02*
G37*
G36*
X515500Y73325D02*
Y70500D01*
X518325D01*
X518276Y70878D01*
X517937Y71696D01*
X517398Y72398D01*
X516696Y72937D01*
X515878Y73276D01*
X515500Y73325D01*
D02*
G37*
G36*
X372285Y83900D02*
X368485D01*
X366585Y82000D01*
Y78200D01*
X368485Y76300D01*
X372285D01*
X374185Y78200D01*
Y82000D01*
X372285Y83900D01*
D02*
G37*
G36*
X382285D02*
X378485D01*
X376585Y82000D01*
Y78200D01*
X378485Y76300D01*
X382285D01*
X384185Y78200D01*
Y82000D01*
X382285Y83900D01*
D02*
G37*
G36*
X112035Y13400D02*
X108735D01*
X107085Y11750D01*
Y8450D01*
X108735Y6800D01*
X112035D01*
X113685Y8450D01*
Y11750D01*
X112035Y13400D01*
D02*
G37*
G36*
X122035D02*
X118735D01*
X117085Y11750D01*
Y8450D01*
X118735Y6800D01*
X122035D01*
X123685Y8450D01*
Y11750D01*
X122035Y13400D01*
D02*
G37*
G36*
X132035D02*
X128735D01*
X127085Y11750D01*
Y8450D01*
X128735Y6800D01*
X132035D01*
X133685Y8450D01*
Y11750D01*
X132035Y13400D01*
D02*
G37*
G36*
X515000Y62887D02*
X514253Y62788D01*
X513556Y62500D01*
X512959Y62041D01*
X512500Y61443D01*
X512212Y60747D01*
X512113Y60000D01*
X512212Y59253D01*
X512500Y58557D01*
X512959Y57959D01*
X513471Y57566D01*
Y47041D01*
X508110D01*
X507525Y46925D01*
X507029Y46593D01*
X493013Y32577D01*
X492682Y32081D01*
X492565Y31496D01*
Y21303D01*
X457792Y-13471D01*
X219485D01*
X219302Y-13198D01*
X218476Y-12645D01*
X217500Y-12451D01*
X216525Y-12645D01*
X215698Y-13198D01*
X215145Y-14025D01*
X214951Y-15000D01*
X215145Y-15976D01*
X215698Y-16802D01*
X216525Y-17355D01*
X217500Y-17549D01*
X218476Y-17355D01*
X219302Y-16802D01*
X219485Y-16529D01*
X458425D01*
X459011Y-16413D01*
X459507Y-16081D01*
X495176Y19588D01*
X495507Y20084D01*
X495624Y20669D01*
Y30863D01*
X508744Y43982D01*
X515000D01*
X515585Y44099D01*
X516081Y44430D01*
X516413Y44927D01*
X516529Y45512D01*
Y57566D01*
X517041Y57959D01*
X517500Y58557D01*
X517789Y59253D01*
X517887Y60000D01*
X517789Y60747D01*
X517500Y61443D01*
X517041Y62041D01*
X516443Y62500D01*
X515747Y62788D01*
X515000Y62887D01*
D02*
G37*
G36*
X138295Y-16221D02*
Y-19185D01*
X141260D01*
X141205Y-18771D01*
X140852Y-17920D01*
X140292Y-17189D01*
X139560Y-16628D01*
X138709Y-16275D01*
X138295Y-16221D01*
D02*
G37*
G36*
X149106D02*
X148693Y-16275D01*
X147841Y-16628D01*
X147110Y-17189D01*
X146549Y-17920D01*
X146196Y-18771D01*
X146142Y-19185D01*
X149106D01*
Y-16221D01*
D02*
G37*
G36*
X150106D02*
Y-19185D01*
X153071D01*
X153016Y-18771D01*
X152664Y-17920D01*
X152102Y-17189D01*
X151371Y-16628D01*
X150520Y-16275D01*
X150106Y-16221D01*
D02*
G37*
G36*
X425000Y21529D02*
X424415Y21413D01*
X423919Y21081D01*
X423587Y20585D01*
X423471Y20000D01*
X423587Y19415D01*
X423919Y18919D01*
X424415Y18587D01*
X425000Y18471D01*
X425585Y18587D01*
X426081Y18919D01*
X426413Y19415D01*
X426529Y20000D01*
X426413Y20585D01*
X426081Y21081D01*
X425585Y21413D01*
X425000Y21529D01*
D02*
G37*
G36*
X440000D02*
X439415Y21413D01*
X438919Y21081D01*
X438587Y20585D01*
X438471Y20000D01*
X438587Y19415D01*
X438919Y18919D01*
X439415Y18587D01*
X440000Y18471D01*
X440585Y18587D01*
X441081Y18919D01*
X441413Y19415D01*
X441529Y20000D01*
X441413Y20585D01*
X441081Y21081D01*
X440585Y21413D01*
X440000Y21529D01*
D02*
G37*
G36*
X455000D02*
X454415Y21413D01*
X453919Y21081D01*
X453587Y20585D01*
X453471Y20000D01*
X453587Y19415D01*
X453919Y18919D01*
X454415Y18587D01*
X455000Y18471D01*
X455585Y18587D01*
X456081Y18919D01*
X456413Y19415D01*
X456529Y20000D01*
X456413Y20585D01*
X456081Y21081D01*
X455585Y21413D01*
X455000Y21529D01*
D02*
G37*
G36*
X410000D02*
X409415Y21413D01*
X408919Y21081D01*
X408587Y20585D01*
X408471Y20000D01*
X408587Y19415D01*
X408919Y18919D01*
X409415Y18587D01*
X410000Y18471D01*
X410585Y18587D01*
X411081Y18919D01*
X411413Y19415D01*
X411529Y20000D01*
X411413Y20585D01*
X411081Y21081D01*
X410585Y21413D01*
X410000Y21529D01*
D02*
G37*
G36*
X152035Y13400D02*
X148735D01*
X147085Y11750D01*
Y8450D01*
X148735Y6800D01*
X152035D01*
X153685Y8450D01*
Y11750D01*
X152035Y13400D01*
D02*
G37*
G36*
X162035D02*
X158735D01*
X157085Y11750D01*
Y8450D01*
X158735Y6800D01*
X162035D01*
X163685Y8450D01*
Y11750D01*
X162035Y13400D01*
D02*
G37*
G36*
X182035D02*
X178735D01*
X177085Y11750D01*
Y8450D01*
X178735Y6800D01*
X182035D01*
X183685Y8450D01*
Y11750D01*
X182035Y13400D01*
D02*
G37*
G36*
X137295Y-28032D02*
X136882Y-28086D01*
X136030Y-28439D01*
X135299Y-29000D01*
X134738Y-29731D01*
X134385Y-30582D01*
X134331Y-30996D01*
X137295D01*
Y-28032D01*
D02*
G37*
G36*
X138295D02*
Y-30996D01*
X141260D01*
X141205Y-30582D01*
X140852Y-29731D01*
X140292Y-29000D01*
X139560Y-28439D01*
X138709Y-28086D01*
X138295Y-28032D01*
D02*
G37*
G36*
X149106D02*
X148693Y-28086D01*
X147841Y-28439D01*
X147110Y-29000D01*
X146549Y-29731D01*
X146196Y-30582D01*
X146142Y-30996D01*
X149106D01*
Y-28032D01*
D02*
G37*
G36*
X153071Y-31996D02*
X150106D01*
Y-34960D01*
X150520Y-34906D01*
X151371Y-34553D01*
X152102Y-33992D01*
X152664Y-33261D01*
X153016Y-32410D01*
X153071Y-31996D01*
D02*
G37*
G36*
X137295D02*
X134331D01*
X134385Y-32410D01*
X134738Y-33261D01*
X135299Y-33992D01*
X136030Y-34553D01*
X136882Y-34906D01*
X137295Y-34960D01*
Y-31996D01*
D02*
G37*
G36*
X141260D02*
X138295D01*
Y-34960D01*
X138709Y-34906D01*
X139560Y-34553D01*
X140292Y-33992D01*
X140852Y-33261D01*
X141205Y-32410D01*
X141260Y-31996D01*
D02*
G37*
G36*
X149106D02*
X146142D01*
X146196Y-32410D01*
X146549Y-33261D01*
X147110Y-33992D01*
X147841Y-34553D01*
X148693Y-34906D01*
X149106Y-34960D01*
Y-31996D01*
D02*
G37*
G36*
Y-20185D02*
X146142D01*
X146196Y-20599D01*
X146549Y-21450D01*
X147110Y-22181D01*
X147841Y-22742D01*
X148693Y-23095D01*
X149106Y-23149D01*
Y-20185D01*
D02*
G37*
G36*
X153071D02*
X150106D01*
Y-23149D01*
X150520Y-23095D01*
X151371Y-22742D01*
X152102Y-22181D01*
X152664Y-21450D01*
X153016Y-20599D01*
X153071Y-20185D01*
D02*
G37*
G36*
X137295Y-16221D02*
X136882Y-16275D01*
X136030Y-16628D01*
X135299Y-17189D01*
X134738Y-17920D01*
X134385Y-18771D01*
X134331Y-19185D01*
X137295D01*
Y-16221D01*
D02*
G37*
G36*
X141260Y-20185D02*
X138295D01*
Y-23149D01*
X138709Y-23095D01*
X139560Y-22742D01*
X140292Y-22181D01*
X140852Y-21450D01*
X141205Y-20599D01*
X141260Y-20185D01*
D02*
G37*
G36*
X150106Y-28032D02*
Y-30996D01*
X153071D01*
X153016Y-30582D01*
X152664Y-29731D01*
X152102Y-29000D01*
X151371Y-28439D01*
X150520Y-28086D01*
X150106Y-28032D01*
D02*
G37*
G36*
X210500Y-24540D02*
Y-27000D01*
X212960D01*
X212923Y-26717D01*
X212620Y-25987D01*
X212140Y-25360D01*
X211513Y-24880D01*
X210783Y-24577D01*
X210500Y-24540D01*
D02*
G37*
G36*
X137295Y-20185D02*
X134331D01*
X134385Y-20599D01*
X134738Y-21450D01*
X135299Y-22181D01*
X136030Y-22742D01*
X136882Y-23095D01*
X137295Y-23149D01*
Y-20185D01*
D02*
G37*
G36*
X506890Y35026D02*
X505976Y34906D01*
X505125Y34553D01*
X504393Y33992D01*
X503832Y33261D01*
X503480Y32410D01*
X503360Y31496D01*
X503480Y30582D01*
X503832Y29731D01*
X504393Y29000D01*
X505125Y28439D01*
X505976Y28086D01*
X506890Y27966D01*
X507803Y28086D01*
X508655Y28439D01*
X509386Y29000D01*
X509947Y29731D01*
X510300Y30582D01*
X510420Y31496D01*
X510300Y32410D01*
X509947Y33261D01*
X509386Y33992D01*
X508655Y34553D01*
X507803Y34906D01*
X506890Y35026D01*
D02*
G37*
G36*
X538386D02*
X537472Y34906D01*
X536621Y34553D01*
X535890Y33992D01*
X535329Y33261D01*
X534976Y32410D01*
X534856Y31496D01*
X534976Y30582D01*
X535329Y29731D01*
X535890Y29000D01*
X536621Y28439D01*
X537472Y28086D01*
X538386Y27966D01*
X539299Y28086D01*
X540151Y28439D01*
X540882Y29000D01*
X541443Y29731D01*
X541796Y30582D01*
X541916Y31496D01*
X541796Y32410D01*
X541443Y33261D01*
X540882Y33992D01*
X540151Y34553D01*
X539299Y34906D01*
X538386Y35026D01*
D02*
G37*
G36*
X566929D02*
X566015Y34906D01*
X565164Y34553D01*
X564433Y33992D01*
X563872Y33261D01*
X563519Y32410D01*
X563399Y31496D01*
X563519Y30582D01*
X563872Y29731D01*
X564433Y29000D01*
X565164Y28439D01*
X566015Y28086D01*
X566929Y27966D01*
X567843Y28086D01*
X568694Y28439D01*
X569425Y29000D01*
X569986Y29731D01*
X570339Y30582D01*
X570459Y31496D01*
X570339Y32410D01*
X569986Y33261D01*
X569425Y33992D01*
X568694Y34553D01*
X567843Y34906D01*
X566929Y35026D01*
D02*
G37*
G36*
X657480Y34042D02*
X656567Y33922D01*
X655715Y33569D01*
X654984Y33008D01*
X654423Y32277D01*
X654070Y31425D01*
X653950Y30512D01*
X654070Y29598D01*
X654423Y28747D01*
X654984Y28016D01*
X655715Y27455D01*
X656567Y27102D01*
X657480Y26982D01*
X658394Y27102D01*
X659245Y27455D01*
X659976Y28016D01*
X660538Y28747D01*
X660890Y29598D01*
X661011Y30512D01*
X660890Y31425D01*
X660538Y32277D01*
X659976Y33008D01*
X659245Y33569D01*
X658394Y33922D01*
X657480Y34042D01*
D02*
G37*
G36*
X372285Y33900D02*
X368485D01*
X366585Y32000D01*
Y28200D01*
X368485Y26300D01*
X372285D01*
X374185Y28200D01*
Y32000D01*
X372285Y33900D01*
D02*
G37*
G36*
X382285D02*
X378485D01*
X376585Y32000D01*
Y28200D01*
X378485Y26300D01*
X382285D01*
X384185Y28200D01*
Y32000D01*
X382285Y33900D01*
D02*
G37*
G36*
X626968Y34042D02*
X626055Y33922D01*
X625203Y33569D01*
X624472Y33008D01*
X623911Y32277D01*
X623559Y31425D01*
X623438Y30512D01*
X623559Y29598D01*
X623911Y28747D01*
X624472Y28016D01*
X625203Y27455D01*
X626055Y27102D01*
X626968Y26982D01*
X627882Y27102D01*
X628734Y27455D01*
X629465Y28016D01*
X630026Y28747D01*
X630378Y29598D01*
X630499Y30512D01*
X630378Y31425D01*
X630026Y32277D01*
X629465Y33008D01*
X628734Y33569D01*
X627882Y33922D01*
X626968Y34042D01*
D02*
G37*
G36*
X372285Y43900D02*
X368485D01*
X366585Y42000D01*
Y38200D01*
X368485Y36300D01*
X372285D01*
X374185Y38200D01*
Y42000D01*
X372285Y43900D01*
D02*
G37*
G36*
X382285D02*
X378485D01*
X376585Y42000D01*
Y38200D01*
X378485Y36300D01*
X382285D01*
X384185Y38200D01*
Y42000D01*
X382285Y43900D01*
D02*
G37*
G36*
X420050Y51500D02*
X417850D01*
Y49250D01*
X420050D01*
Y51500D01*
D02*
G37*
G36*
X446850Y36011D02*
X445937Y35890D01*
X445085Y35537D01*
X444354Y34977D01*
X443793Y34245D01*
X443440Y33394D01*
X443320Y32480D01*
X443440Y31567D01*
X443793Y30715D01*
X444354Y29984D01*
X445085Y29423D01*
X445937Y29070D01*
X446850Y28950D01*
X447764Y29070D01*
X448616Y29423D01*
X449347Y29984D01*
X449908Y30715D01*
X450260Y31567D01*
X450381Y32480D01*
X450260Y33394D01*
X449908Y34245D01*
X449347Y34977D01*
X448616Y35537D01*
X447764Y35890D01*
X446850Y36011D01*
D02*
G37*
G36*
X597441Y35026D02*
X596527Y34906D01*
X595676Y34553D01*
X594945Y33992D01*
X594384Y33261D01*
X594031Y32410D01*
X593911Y31496D01*
X594031Y30582D01*
X594384Y29731D01*
X594945Y29000D01*
X595676Y28439D01*
X596527Y28086D01*
X597441Y27966D01*
X598355Y28086D01*
X599206Y28439D01*
X599937Y29000D01*
X600498Y29731D01*
X600851Y30582D01*
X600971Y31496D01*
X600851Y32410D01*
X600498Y33261D01*
X599937Y33992D01*
X599206Y34553D01*
X598355Y34906D01*
X597441Y35026D01*
D02*
G37*
G36*
X477362Y35668D02*
X476448Y35548D01*
X475597Y35195D01*
X474866Y34634D01*
X474305Y33903D01*
X473952Y33051D01*
X473832Y32138D01*
X473952Y31224D01*
X474305Y30373D01*
X474866Y29642D01*
X475597Y29081D01*
X476448Y28728D01*
X477362Y28608D01*
X478276Y28728D01*
X479127Y29081D01*
X479858Y29642D01*
X480419Y30373D01*
X480772Y31224D01*
X480892Y32138D01*
X480772Y33051D01*
X480419Y33903D01*
X479858Y34634D01*
X479127Y35195D01*
X478276Y35548D01*
X477362Y35668D01*
D02*
G37*
G36*
X417323Y36011D02*
X416409Y35890D01*
X415558Y35537D01*
X414827Y34977D01*
X414266Y34245D01*
X413913Y33394D01*
X413793Y32480D01*
X413913Y31567D01*
X414266Y30715D01*
X414827Y29984D01*
X415558Y29423D01*
X416409Y29070D01*
X417323Y28950D01*
X418236Y29070D01*
X419088Y29423D01*
X419819Y29984D01*
X420380Y30715D01*
X420733Y31567D01*
X420853Y32480D01*
X420733Y33394D01*
X420380Y34245D01*
X419819Y34977D01*
X419088Y35537D01*
X418236Y35890D01*
X417323Y36011D01*
D02*
G37*
G36*
X530000Y21529D02*
X529415Y21413D01*
X528919Y21081D01*
X528587Y20585D01*
X528471Y20000D01*
X528587Y19415D01*
X528919Y18919D01*
X529415Y18587D01*
X530000Y18471D01*
X530585Y18587D01*
X531081Y18919D01*
X531413Y19415D01*
X531529Y20000D01*
X531413Y20585D01*
X531081Y21081D01*
X530585Y21413D01*
X530000Y21529D01*
D02*
G37*
G36*
X545000D02*
X544415Y21413D01*
X543919Y21081D01*
X543587Y20585D01*
X543471Y20000D01*
X543587Y19415D01*
X543919Y18919D01*
X544415Y18587D01*
X545000Y18471D01*
X545585Y18587D01*
X546081Y18919D01*
X546413Y19415D01*
X546529Y20000D01*
X546413Y20585D01*
X546081Y21081D01*
X545585Y21413D01*
X545000Y21529D01*
D02*
G37*
G36*
X560000D02*
X559415Y21413D01*
X558919Y21081D01*
X558587Y20585D01*
X558471Y20000D01*
X558587Y19415D01*
X558919Y18919D01*
X559415Y18587D01*
X560000Y18471D01*
X560585Y18587D01*
X561081Y18919D01*
X561413Y19415D01*
X561529Y20000D01*
X561413Y20585D01*
X561081Y21081D01*
X560585Y21413D01*
X560000Y21529D01*
D02*
G37*
G36*
X515000D02*
X514415Y21413D01*
X513919Y21081D01*
X513587Y20585D01*
X513471Y20000D01*
X513587Y19415D01*
X513919Y18919D01*
X514415Y18587D01*
X515000Y18471D01*
X515585Y18587D01*
X516081Y18919D01*
X516413Y19415D01*
X516529Y20000D01*
X516413Y20585D01*
X516081Y21081D01*
X515585Y21413D01*
X515000Y21529D01*
D02*
G37*
G36*
X470000D02*
X469415Y21413D01*
X468919Y21081D01*
X468587Y20585D01*
X468471Y20000D01*
X468587Y19415D01*
X468919Y18919D01*
X469415Y18587D01*
X470000Y18471D01*
X470585Y18587D01*
X471081Y18919D01*
X471413Y19415D01*
X471529Y20000D01*
X471413Y20585D01*
X471081Y21081D01*
X470585Y21413D01*
X470000Y21529D01*
D02*
G37*
G36*
X485000D02*
X484415Y21413D01*
X483919Y21081D01*
X483587Y20585D01*
X483471Y20000D01*
X483587Y19415D01*
X483919Y18919D01*
X484415Y18587D01*
X485000Y18471D01*
X485585Y18587D01*
X486081Y18919D01*
X486413Y19415D01*
X486529Y20000D01*
X486413Y20585D01*
X486081Y21081D01*
X485585Y21413D01*
X485000Y21529D01*
D02*
G37*
G36*
X500000D02*
X499415Y21413D01*
X498919Y21081D01*
X498587Y20585D01*
X498471Y20000D01*
X498587Y19415D01*
X498919Y18919D01*
X499415Y18587D01*
X500000Y18471D01*
X500585Y18587D01*
X501081Y18919D01*
X501413Y19415D01*
X501529Y20000D01*
X501413Y20585D01*
X501081Y21081D01*
X500585Y21413D01*
X500000Y21529D01*
D02*
G37*
G36*
X635000D02*
X634415Y21413D01*
X633919Y21081D01*
X633587Y20585D01*
X633471Y20000D01*
X633587Y19415D01*
X633919Y18919D01*
X634415Y18587D01*
X635000Y18471D01*
X635585Y18587D01*
X636081Y18919D01*
X636413Y19415D01*
X636529Y20000D01*
X636413Y20585D01*
X636081Y21081D01*
X635585Y21413D01*
X635000Y21529D01*
D02*
G37*
G36*
X650000D02*
X649415Y21413D01*
X648919Y21081D01*
X648587Y20585D01*
X648471Y20000D01*
X648587Y19415D01*
X648919Y18919D01*
X649415Y18587D01*
X650000Y18471D01*
X650585Y18587D01*
X651081Y18919D01*
X651413Y19415D01*
X651529Y20000D01*
X651413Y20585D01*
X651081Y21081D01*
X650585Y21413D01*
X650000Y21529D01*
D02*
G37*
G36*
X665000D02*
X664415Y21413D01*
X663919Y21081D01*
X663587Y20585D01*
X663471Y20000D01*
X663587Y19415D01*
X663919Y18919D01*
X664415Y18587D01*
X665000Y18471D01*
X665585Y18587D01*
X666081Y18919D01*
X666413Y19415D01*
X666529Y20000D01*
X666413Y20585D01*
X666081Y21081D01*
X665585Y21413D01*
X665000Y21529D01*
D02*
G37*
G36*
X620000D02*
X619415Y21413D01*
X618919Y21081D01*
X618587Y20585D01*
X618471Y20000D01*
X618587Y19415D01*
X618919Y18919D01*
X619415Y18587D01*
X620000Y18471D01*
X620585Y18587D01*
X621081Y18919D01*
X621413Y19415D01*
X621529Y20000D01*
X621413Y20585D01*
X621081Y21081D01*
X620585Y21413D01*
X620000Y21529D01*
D02*
G37*
G36*
X575000D02*
X574415Y21413D01*
X573919Y21081D01*
X573587Y20585D01*
X573471Y20000D01*
X573587Y19415D01*
X573919Y18919D01*
X574415Y18587D01*
X575000Y18471D01*
X575585Y18587D01*
X576081Y18919D01*
X576413Y19415D01*
X576529Y20000D01*
X576413Y20585D01*
X576081Y21081D01*
X575585Y21413D01*
X575000Y21529D01*
D02*
G37*
G36*
X590000D02*
X589415Y21413D01*
X588919Y21081D01*
X588587Y20585D01*
X588471Y20000D01*
X588587Y19415D01*
X588919Y18919D01*
X589415Y18587D01*
X590000Y18471D01*
X590585Y18587D01*
X591081Y18919D01*
X591413Y19415D01*
X591529Y20000D01*
X591413Y20585D01*
X591081Y21081D01*
X590585Y21413D01*
X590000Y21529D01*
D02*
G37*
G36*
X605000D02*
X604415Y21413D01*
X603919Y21081D01*
X603587Y20585D01*
X603471Y20000D01*
X603587Y19415D01*
X603919Y18919D01*
X604415Y18587D01*
X605000Y18471D01*
X605585Y18587D01*
X606081Y18919D01*
X606413Y19415D01*
X606529Y20000D01*
X606413Y20585D01*
X606081Y21081D01*
X605585Y21413D01*
X605000Y21529D01*
D02*
G37*
G36*
X262661Y103651D02*
X259109D01*
X257334Y101876D01*
Y98324D01*
X259109Y96549D01*
X262661D01*
X264436Y98324D01*
Y101876D01*
X262661Y103651D01*
D02*
G37*
G36*
X106035Y203400D02*
X102735D01*
X101085Y201750D01*
Y198450D01*
X102735Y196800D01*
X106035D01*
X107685Y198450D01*
Y201750D01*
X106035Y203400D01*
D02*
G37*
G36*
X96035D02*
X92735D01*
X91085Y201750D01*
Y198450D01*
X92735Y196800D01*
X96035D01*
X97685Y198450D01*
Y201750D01*
X96035Y203400D01*
D02*
G37*
G36*
X126035D02*
X122735D01*
X121085Y201750D01*
Y198450D01*
X122735Y196800D01*
X126035D01*
X127685Y198450D01*
Y201750D01*
X126035Y203400D01*
D02*
G37*
G36*
X116035D02*
X112735D01*
X111085Y201750D01*
Y198450D01*
X112735Y196800D01*
X116035D01*
X117685Y198450D01*
Y201750D01*
X116035Y203400D01*
D02*
G37*
G36*
X382285Y203900D02*
X378485D01*
X376585Y202000D01*
Y198200D01*
X378485Y196300D01*
X382285D01*
X384185Y198200D01*
Y202000D01*
X382285Y203900D01*
D02*
G37*
G36*
X372285D02*
X368485D01*
X366585Y202000D01*
Y198200D01*
X368485Y196300D01*
X372285D01*
X374185Y198200D01*
Y202000D01*
X372285Y203900D01*
D02*
G37*
G36*
X86035Y203400D02*
X82735D01*
X81085Y201750D01*
Y198450D01*
X82735Y196800D01*
X86035D01*
X87685Y198450D01*
Y201750D01*
X86035Y203400D01*
D02*
G37*
G36*
X76035D02*
X72735D01*
X71085Y201750D01*
Y198450D01*
X72735Y196800D01*
X76035D01*
X77685Y198450D01*
Y201750D01*
X76035Y203400D01*
D02*
G37*
G36*
X442500Y201529D02*
X441915Y201413D01*
X441419Y201081D01*
X441087Y200585D01*
X440971Y200000D01*
X441087Y199415D01*
X441419Y198919D01*
X441915Y198587D01*
X442500Y198471D01*
X443085Y198587D01*
X443581Y198919D01*
X443913Y199415D01*
X444029Y200000D01*
X443913Y200585D01*
X443581Y201081D01*
X443085Y201413D01*
X442500Y201529D01*
D02*
G37*
G36*
X425000D02*
X424415Y201413D01*
X423919Y201081D01*
X423587Y200585D01*
X423471Y200000D01*
X423587Y199415D01*
X423919Y198919D01*
X424415Y198587D01*
X425000Y198471D01*
X425585Y198587D01*
X426081Y198919D01*
X426413Y199415D01*
X426529Y200000D01*
X426413Y200585D01*
X426081Y201081D01*
X425585Y201413D01*
X425000Y201529D01*
D02*
G37*
G36*
X472500D02*
X471915Y201413D01*
X471419Y201081D01*
X471087Y200585D01*
X470971Y200000D01*
X471087Y199415D01*
X471419Y198919D01*
X471915Y198587D01*
X472500Y198471D01*
X473085Y198587D01*
X473581Y198919D01*
X473913Y199415D01*
X474029Y200000D01*
X473913Y200585D01*
X473581Y201081D01*
X473085Y201413D01*
X472500Y201529D01*
D02*
G37*
G36*
X457500D02*
X456915Y201413D01*
X456419Y201081D01*
X456087Y200585D01*
X455971Y200000D01*
X456087Y199415D01*
X456419Y198919D01*
X456915Y198587D01*
X457500Y198471D01*
X458085Y198587D01*
X458581Y198919D01*
X458913Y199415D01*
X459029Y200000D01*
X458913Y200585D01*
X458581Y201081D01*
X458085Y201413D01*
X457500Y201529D01*
D02*
G37*
G36*
X156035Y203400D02*
X152735D01*
X151085Y201750D01*
Y198450D01*
X152735Y196800D01*
X156035D01*
X157685Y198450D01*
Y201750D01*
X156035Y203400D01*
D02*
G37*
G36*
X136035D02*
X132735D01*
X131085Y201750D01*
Y198450D01*
X132735Y196800D01*
X136035D01*
X137685Y198450D01*
Y201750D01*
X136035Y203400D01*
D02*
G37*
G36*
X410000Y201529D02*
X409415Y201413D01*
X408919Y201081D01*
X408587Y200585D01*
X408471Y200000D01*
X408587Y199415D01*
X408919Y198919D01*
X409415Y198587D01*
X410000Y198471D01*
X410585Y198587D01*
X411081Y198919D01*
X411413Y199415D01*
X411529Y200000D01*
X411413Y200585D01*
X411081Y201081D01*
X410585Y201413D01*
X410000Y201529D01*
D02*
G37*
G36*
X166035Y203400D02*
X162735D01*
X161085Y201750D01*
Y198450D01*
X162735Y196800D01*
X166035D01*
X167685Y198450D01*
Y201750D01*
X166035Y203400D01*
D02*
G37*
G36*
X372285Y193900D02*
X368485D01*
X366585Y192000D01*
Y188200D01*
X368485Y186300D01*
X372285D01*
X374185Y188200D01*
Y192000D01*
X372285Y193900D01*
D02*
G37*
G36*
X382285Y183900D02*
X378485D01*
X376585Y182000D01*
Y178200D01*
X378485Y176300D01*
X382285D01*
X384185Y178200D01*
Y182000D01*
X382285Y183900D01*
D02*
G37*
G36*
X629921Y193491D02*
X629008Y193370D01*
X628156Y193018D01*
X627425Y192457D01*
X626864Y191726D01*
X626511Y190874D01*
X626391Y189961D01*
X626511Y189047D01*
X626864Y188196D01*
X627425Y187464D01*
X628156Y186903D01*
X629008Y186551D01*
X629921Y186430D01*
X630835Y186551D01*
X631686Y186903D01*
X632417Y187464D01*
X632978Y188196D01*
X633331Y189047D01*
X633452Y189961D01*
X633331Y190874D01*
X632978Y191726D01*
X632417Y192457D01*
X631686Y193018D01*
X630835Y193370D01*
X629921Y193491D01*
D02*
G37*
G36*
X382285Y193900D02*
X378485D01*
X376585Y192000D01*
Y188200D01*
X378485Y186300D01*
X382285D01*
X384185Y188200D01*
Y192000D01*
X382285Y193900D01*
D02*
G37*
G36*
X372285Y173900D02*
X368485D01*
X366585Y172000D01*
Y168200D01*
X368485Y166300D01*
X372285D01*
X374185Y168200D01*
Y172000D01*
X372285Y173900D01*
D02*
G37*
G36*
X485500Y163325D02*
Y160500D01*
X488325D01*
X488276Y160878D01*
X487937Y161696D01*
X487398Y162398D01*
X486696Y162937D01*
X485878Y163276D01*
X485500Y163325D01*
D02*
G37*
G36*
X372285Y183900D02*
X368485D01*
X366585Y182000D01*
Y178200D01*
X368485Y176300D01*
X372285D01*
X374185Y178200D01*
Y182000D01*
X372285Y183900D01*
D02*
G37*
G36*
X382285Y173900D02*
X378485D01*
X376585Y172000D01*
Y168200D01*
X378485Y166300D01*
X382285D01*
X384185Y168200D01*
Y172000D01*
X382285Y173900D01*
D02*
G37*
G36*
X539370Y194475D02*
X538456Y194355D01*
X537605Y194002D01*
X536874Y193441D01*
X536313Y192710D01*
X535960Y191859D01*
X535840Y190945D01*
X535960Y190031D01*
X536313Y189180D01*
X536874Y188449D01*
X537605Y187888D01*
X538456Y187535D01*
X539370Y187415D01*
X540284Y187535D01*
X541135Y187888D01*
X541866Y188449D01*
X542427Y189180D01*
X542780Y190031D01*
X542900Y190945D01*
X542780Y191859D01*
X542427Y192710D01*
X541866Y193441D01*
X541135Y194002D01*
X540284Y194355D01*
X539370Y194475D01*
D02*
G37*
G36*
X509842D02*
X508929Y194355D01*
X508077Y194002D01*
X507346Y193441D01*
X506785Y192710D01*
X506433Y191859D01*
X506312Y190945D01*
X506433Y190031D01*
X506785Y189180D01*
X507346Y188449D01*
X508077Y187888D01*
X508929Y187535D01*
X509842Y187415D01*
X510756Y187535D01*
X511608Y187888D01*
X512339Y188449D01*
X512900Y189180D01*
X513252Y190031D01*
X513373Y190945D01*
X513252Y191859D01*
X512900Y192710D01*
X512339Y193441D01*
X511608Y194002D01*
X510756Y194355D01*
X509842Y194475D01*
D02*
G37*
G36*
X600394D02*
X599480Y194355D01*
X598629Y194002D01*
X597897Y193441D01*
X597336Y192710D01*
X596984Y191859D01*
X596864Y190945D01*
X596984Y190031D01*
X597336Y189180D01*
X597897Y188449D01*
X598629Y187888D01*
X599480Y187535D01*
X600394Y187415D01*
X601307Y187535D01*
X602159Y187888D01*
X602890Y188449D01*
X603451Y189180D01*
X603804Y190031D01*
X603924Y190945D01*
X603804Y191859D01*
X603451Y192710D01*
X602890Y193441D01*
X602159Y194002D01*
X601307Y194355D01*
X600394Y194475D01*
D02*
G37*
G36*
X569882D02*
X568968Y194355D01*
X568117Y194002D01*
X567386Y193441D01*
X566825Y192710D01*
X566472Y191859D01*
X566352Y190945D01*
X566472Y190031D01*
X566825Y189180D01*
X567386Y188449D01*
X568117Y187888D01*
X568968Y187535D01*
X569882Y187415D01*
X570796Y187535D01*
X571647Y187888D01*
X572378Y188449D01*
X572939Y189180D01*
X573292Y190031D01*
X573412Y190945D01*
X573292Y191859D01*
X572939Y192710D01*
X572378Y193441D01*
X571647Y194002D01*
X570796Y194355D01*
X569882Y194475D01*
D02*
G37*
G36*
X417323D02*
X416409Y194355D01*
X415558Y194002D01*
X414827Y193441D01*
X414266Y192710D01*
X413913Y191859D01*
X413793Y190945D01*
X413913Y190031D01*
X414266Y189180D01*
X414827Y188449D01*
X415558Y187888D01*
X416409Y187535D01*
X417323Y187415D01*
X418236Y187535D01*
X419088Y187888D01*
X419819Y188449D01*
X420380Y189180D01*
X420733Y190031D01*
X420853Y190945D01*
X420733Y191859D01*
X420380Y192710D01*
X419819Y193441D01*
X419088Y194002D01*
X418236Y194355D01*
X417323Y194475D01*
D02*
G37*
G36*
X659449Y193491D02*
X658535Y193370D01*
X657684Y193018D01*
X656953Y192457D01*
X656392Y191726D01*
X656039Y190874D01*
X655919Y189961D01*
X656039Y189047D01*
X656392Y188196D01*
X656953Y187464D01*
X657684Y186903D01*
X658535Y186551D01*
X659449Y186430D01*
X660362Y186551D01*
X661214Y186903D01*
X661945Y187464D01*
X662506Y188196D01*
X662859Y189047D01*
X662979Y189961D01*
X662859Y190874D01*
X662506Y191726D01*
X661945Y192457D01*
X661214Y193018D01*
X660362Y193370D01*
X659449Y193491D01*
D02*
G37*
G36*
X479331Y194475D02*
X478417Y194355D01*
X477566Y194002D01*
X476834Y193441D01*
X476273Y192710D01*
X475921Y191859D01*
X475801Y190945D01*
X475921Y190031D01*
X476273Y189180D01*
X476834Y188449D01*
X477566Y187888D01*
X478417Y187535D01*
X479331Y187415D01*
X480244Y187535D01*
X481096Y187888D01*
X481827Y188449D01*
X482388Y189180D01*
X482741Y190031D01*
X482861Y190945D01*
X482741Y191859D01*
X482388Y192710D01*
X481827Y193441D01*
X481096Y194002D01*
X480244Y194355D01*
X479331Y194475D01*
D02*
G37*
G36*
X449803D02*
X448889Y194355D01*
X448038Y194002D01*
X447307Y193441D01*
X446746Y192710D01*
X446393Y191859D01*
X446273Y190945D01*
X446393Y190031D01*
X446746Y189180D01*
X447307Y188449D01*
X448038Y187888D01*
X448889Y187535D01*
X449803Y187415D01*
X450717Y187535D01*
X451568Y187888D01*
X452299Y188449D01*
X452860Y189180D01*
X453213Y190031D01*
X453333Y190945D01*
X453213Y191859D01*
X452860Y192710D01*
X452299Y193441D01*
X451568Y194002D01*
X450717Y194355D01*
X449803Y194475D01*
D02*
G37*
G36*
X487500Y201529D02*
X486915Y201413D01*
X486419Y201081D01*
X486087Y200585D01*
X485971Y200000D01*
X486087Y199415D01*
X486419Y198919D01*
X486915Y198587D01*
X487500Y198471D01*
X488085Y198587D01*
X488581Y198919D01*
X488913Y199415D01*
X489029Y200000D01*
X488913Y200585D01*
X488581Y201081D01*
X488085Y201413D01*
X487500Y201529D01*
D02*
G37*
G36*
X150106Y231811D02*
Y228847D01*
X153071D01*
X153016Y229260D01*
X152664Y230112D01*
X152102Y230843D01*
X151371Y231404D01*
X150520Y231756D01*
X150106Y231811D01*
D02*
G37*
G36*
X149106D02*
X148693Y231756D01*
X147841Y231404D01*
X147110Y230843D01*
X146549Y230112D01*
X146196Y229260D01*
X146142Y228847D01*
X149106D01*
Y231811D01*
D02*
G37*
G36*
X210500Y234460D02*
Y232000D01*
X212960D01*
X212923Y232283D01*
X212620Y233013D01*
X212140Y233640D01*
X211513Y234120D01*
X210783Y234423D01*
X210500Y234460D01*
D02*
G37*
G36*
X209500D02*
X209217Y234423D01*
X208487Y234120D01*
X207860Y233640D01*
X207380Y233013D01*
X207077Y232283D01*
X207040Y232000D01*
X209500D01*
Y234460D01*
D02*
G37*
G36*
X212960Y231000D02*
X210500D01*
Y228540D01*
X210783Y228577D01*
X211513Y228879D01*
X212140Y229360D01*
X212620Y229987D01*
X212923Y230717D01*
X212960Y231000D01*
D02*
G37*
G36*
X209500D02*
X207040D01*
X207077Y230717D01*
X207380Y229987D01*
X207860Y229360D01*
X208487Y228879D01*
X209217Y228577D01*
X209500Y228540D01*
Y231000D01*
D02*
G37*
G36*
X138295Y231811D02*
Y228847D01*
X141260D01*
X141205Y229260D01*
X140852Y230112D01*
X140292Y230843D01*
X139560Y231404D01*
X138709Y231756D01*
X138295Y231811D01*
D02*
G37*
G36*
X137295D02*
X136882Y231756D01*
X136030Y231404D01*
X135299Y230843D01*
X134738Y230112D01*
X134385Y229260D01*
X134331Y228847D01*
X137295D01*
Y231811D01*
D02*
G37*
G36*
X138295Y245590D02*
Y242626D01*
X141260D01*
X141205Y243040D01*
X140852Y243891D01*
X140292Y244622D01*
X139560Y245183D01*
X138709Y245536D01*
X138295Y245590D01*
D02*
G37*
G36*
X137295D02*
X136882Y245536D01*
X136030Y245183D01*
X135299Y244622D01*
X134738Y243891D01*
X134385Y243040D01*
X134331Y242626D01*
X137295D01*
Y245590D01*
D02*
G37*
G36*
X150106D02*
Y242626D01*
X153071D01*
X153016Y243040D01*
X152664Y243891D01*
X152102Y244622D01*
X151371Y245183D01*
X150520Y245536D01*
X150106Y245590D01*
D02*
G37*
G36*
X149106D02*
X148693Y245536D01*
X147841Y245183D01*
X147110Y244622D01*
X146549Y243891D01*
X146196Y243040D01*
X146142Y242626D01*
X149106D01*
Y245590D01*
D02*
G37*
G36*
X141260Y241626D02*
X138295D01*
Y238662D01*
X138709Y238716D01*
X139560Y239069D01*
X140292Y239630D01*
X140852Y240361D01*
X141205Y241212D01*
X141260Y241626D01*
D02*
G37*
G36*
X137295D02*
X134331D01*
X134385Y241212D01*
X134738Y240361D01*
X135299Y239630D01*
X136030Y239069D01*
X136882Y238716D01*
X137295Y238662D01*
Y241626D01*
D02*
G37*
G36*
X153071D02*
X150106D01*
Y238662D01*
X150520Y238716D01*
X151371Y239069D01*
X152102Y239630D01*
X152664Y240361D01*
X153016Y241212D01*
X153071Y241626D01*
D02*
G37*
G36*
X149106D02*
X146142D01*
X146196Y241212D01*
X146549Y240361D01*
X147110Y239630D01*
X147841Y239069D01*
X148693Y238716D01*
X149106Y238662D01*
Y241626D01*
D02*
G37*
G36*
X577500Y201529D02*
X576915Y201413D01*
X576419Y201081D01*
X576087Y200585D01*
X575971Y200000D01*
X576087Y199415D01*
X576419Y198919D01*
X576915Y198587D01*
X577500Y198471D01*
X578085Y198587D01*
X578581Y198919D01*
X578913Y199415D01*
X579029Y200000D01*
X578913Y200585D01*
X578581Y201081D01*
X578085Y201413D01*
X577500Y201529D01*
D02*
G37*
G36*
X562500D02*
X561915Y201413D01*
X561419Y201081D01*
X561087Y200585D01*
X560971Y200000D01*
X561087Y199415D01*
X561419Y198919D01*
X561915Y198587D01*
X562500Y198471D01*
X563085Y198587D01*
X563581Y198919D01*
X563913Y199415D01*
X564029Y200000D01*
X563913Y200585D01*
X563581Y201081D01*
X563085Y201413D01*
X562500Y201529D01*
D02*
G37*
G36*
X607500D02*
X606915Y201413D01*
X606419Y201081D01*
X606087Y200585D01*
X605971Y200000D01*
X606087Y199415D01*
X606419Y198919D01*
X606915Y198587D01*
X607500Y198471D01*
X608085Y198587D01*
X608581Y198919D01*
X608913Y199415D01*
X609029Y200000D01*
X608913Y200585D01*
X608581Y201081D01*
X608085Y201413D01*
X607500Y201529D01*
D02*
G37*
G36*
X592500D02*
X591915Y201413D01*
X591419Y201081D01*
X591087Y200585D01*
X590971Y200000D01*
X591087Y199415D01*
X591419Y198919D01*
X591915Y198587D01*
X592500Y198471D01*
X593085Y198587D01*
X593581Y198919D01*
X593913Y199415D01*
X594029Y200000D01*
X593913Y200585D01*
X593581Y201081D01*
X593085Y201413D01*
X592500Y201529D01*
D02*
G37*
G36*
X517500D02*
X516915Y201413D01*
X516419Y201081D01*
X516087Y200585D01*
X515971Y200000D01*
X516087Y199415D01*
X516419Y198919D01*
X516915Y198587D01*
X517500Y198471D01*
X518085Y198587D01*
X518581Y198919D01*
X518913Y199415D01*
X519029Y200000D01*
X518913Y200585D01*
X518581Y201081D01*
X518085Y201413D01*
X517500Y201529D01*
D02*
G37*
G36*
X502500D02*
X501915Y201413D01*
X501419Y201081D01*
X501087Y200585D01*
X500971Y200000D01*
X501087Y199415D01*
X501419Y198919D01*
X501915Y198587D01*
X502500Y198471D01*
X503085Y198587D01*
X503581Y198919D01*
X503913Y199415D01*
X504029Y200000D01*
X503913Y200585D01*
X503581Y201081D01*
X503085Y201413D01*
X502500Y201529D01*
D02*
G37*
G36*
X547500D02*
X546915Y201413D01*
X546419Y201081D01*
X546087Y200585D01*
X545971Y200000D01*
X546087Y199415D01*
X546419Y198919D01*
X546915Y198587D01*
X547500Y198471D01*
X548085Y198587D01*
X548581Y198919D01*
X548913Y199415D01*
X549029Y200000D01*
X548913Y200585D01*
X548581Y201081D01*
X548085Y201413D01*
X547500Y201529D01*
D02*
G37*
G36*
X532500D02*
X531915Y201413D01*
X531419Y201081D01*
X531087Y200585D01*
X530971Y200000D01*
X531087Y199415D01*
X531419Y198919D01*
X531915Y198587D01*
X532500Y198471D01*
X533085Y198587D01*
X533581Y198919D01*
X533913Y199415D01*
X534029Y200000D01*
X533913Y200585D01*
X533581Y201081D01*
X533085Y201413D01*
X532500Y201529D01*
D02*
G37*
G36*
X141260Y227847D02*
X138295D01*
Y224882D01*
X138709Y224937D01*
X139560Y225289D01*
X140292Y225850D01*
X140852Y226581D01*
X141205Y227433D01*
X141260Y227847D01*
D02*
G37*
G36*
X137295D02*
X134331D01*
X134385Y227433D01*
X134738Y226581D01*
X135299Y225850D01*
X136030Y225289D01*
X136882Y224937D01*
X137295Y224882D01*
Y227847D01*
D02*
G37*
G36*
X153071D02*
X150106D01*
Y224882D01*
X150520Y224937D01*
X151371Y225289D01*
X152102Y225850D01*
X152664Y226581D01*
X153016Y227433D01*
X153071Y227847D01*
D02*
G37*
G36*
X149106D02*
X146142D01*
X146196Y227433D01*
X146549Y226581D01*
X147110Y225850D01*
X147841Y225289D01*
X148693Y224937D01*
X149106Y224882D01*
Y227847D01*
D02*
G37*
G36*
X637500Y201529D02*
X636915Y201413D01*
X636419Y201081D01*
X636087Y200585D01*
X635971Y200000D01*
X636087Y199415D01*
X636419Y198919D01*
X636915Y198587D01*
X637500Y198471D01*
X638085Y198587D01*
X638581Y198919D01*
X638913Y199415D01*
X639029Y200000D01*
X638913Y200585D01*
X638581Y201081D01*
X638085Y201413D01*
X637500Y201529D01*
D02*
G37*
G36*
X622500D02*
X621915Y201413D01*
X621419Y201081D01*
X621087Y200585D01*
X620971Y200000D01*
X621087Y199415D01*
X621419Y198919D01*
X621915Y198587D01*
X622500Y198471D01*
X623085Y198587D01*
X623581Y198919D01*
X623913Y199415D01*
X624029Y200000D01*
X623913Y200585D01*
X623581Y201081D01*
X623085Y201413D01*
X622500Y201529D01*
D02*
G37*
G36*
X667500D02*
X666915Y201413D01*
X666419Y201081D01*
X666087Y200585D01*
X665971Y200000D01*
X666087Y199415D01*
X666419Y198919D01*
X666915Y198587D01*
X667500Y198471D01*
X668085Y198587D01*
X668581Y198919D01*
X668913Y199415D01*
X669029Y200000D01*
X668913Y200585D01*
X668581Y201081D01*
X668085Y201413D01*
X667500Y201529D01*
D02*
G37*
G36*
X652500D02*
X651915Y201413D01*
X651419Y201081D01*
X651087Y200585D01*
X650971Y200000D01*
X651087Y199415D01*
X651419Y198919D01*
X651915Y198587D01*
X652500Y198471D01*
X653085Y198587D01*
X653581Y198919D01*
X653913Y199415D01*
X654029Y200000D01*
X653913Y200585D01*
X653581Y201081D01*
X653085Y201413D01*
X652500Y201529D01*
D02*
G37*
G36*
X575000Y132887D02*
X574253Y132789D01*
X573557Y132500D01*
X572959Y132041D01*
X572500Y131444D01*
X572212Y130747D01*
X572113Y130000D01*
X572212Y129253D01*
X572500Y128557D01*
X572959Y127959D01*
X573557Y127500D01*
X574253Y127211D01*
X575000Y127113D01*
X575747Y127211D01*
X576443Y127500D01*
X577041Y127959D01*
X577500Y128557D01*
X577788Y129253D01*
X577887Y130000D01*
X577788Y130747D01*
X577500Y131444D01*
X577041Y132041D01*
X576443Y132500D01*
X575747Y132789D01*
X575000Y132887D01*
D02*
G37*
G36*
X495000D02*
X494253Y132789D01*
X493556Y132500D01*
X492959Y132041D01*
X492500Y131444D01*
X492211Y130747D01*
X492113Y130000D01*
X492211Y129253D01*
X492500Y128557D01*
X492959Y127959D01*
X493556Y127500D01*
X494253Y127211D01*
X495000Y127113D01*
X495747Y127211D01*
X496444Y127500D01*
X497041Y127959D01*
X497500Y128557D01*
X497788Y129253D01*
X497887Y130000D01*
X497788Y130747D01*
X497500Y131444D01*
X497041Y132041D01*
X496444Y132500D01*
X495747Y132789D01*
X495000Y132887D01*
D02*
G37*
G36*
X210000Y133549D02*
X209025Y133355D01*
X208198Y132802D01*
X207645Y131975D01*
X207451Y131000D01*
X207645Y130025D01*
X208198Y129198D01*
X209025Y128645D01*
X210000Y128451D01*
X210976Y128645D01*
X211802Y129198D01*
X212355Y130025D01*
X212549Y131000D01*
X212355Y131975D01*
X211802Y132802D01*
X210976Y133355D01*
X210000Y133549D01*
D02*
G37*
G36*
X585000Y132887D02*
X584253Y132789D01*
X583557Y132500D01*
X582959Y132041D01*
X582500Y131444D01*
X582211Y130747D01*
X582113Y130000D01*
X582211Y129253D01*
X582500Y128557D01*
X582959Y127959D01*
X583557Y127500D01*
X584253Y127211D01*
X585000Y127113D01*
X585747Y127211D01*
X586444Y127500D01*
X587041Y127959D01*
X587500Y128557D01*
X587788Y129253D01*
X587887Y130000D01*
X587788Y130747D01*
X587500Y131444D01*
X587041Y132041D01*
X586444Y132500D01*
X585747Y132789D01*
X585000Y132887D01*
D02*
G37*
G36*
X149606Y130979D02*
X148823Y130876D01*
X148093Y130573D01*
X147467Y130092D01*
X146986Y129466D01*
X146684Y128736D01*
X146580Y127953D01*
X146684Y127170D01*
X146986Y126440D01*
X147467Y125813D01*
X148093Y125332D01*
X148823Y125030D01*
X149606Y124927D01*
X150390Y125030D01*
X151119Y125332D01*
X151746Y125813D01*
X152227Y126440D01*
X152529Y127170D01*
X152632Y127953D01*
X152529Y128736D01*
X152227Y129466D01*
X151746Y130092D01*
X151119Y130573D01*
X150390Y130876D01*
X149606Y130979D01*
D02*
G37*
G36*
X137795D02*
X137012Y130876D01*
X136282Y130573D01*
X135656Y130092D01*
X135175Y129466D01*
X134872Y128736D01*
X134769Y127953D01*
X134872Y127170D01*
X135175Y126440D01*
X135656Y125813D01*
X136282Y125332D01*
X137012Y125030D01*
X137795Y124927D01*
X138578Y125030D01*
X139308Y125332D01*
X139935Y125813D01*
X140416Y126440D01*
X140718Y127170D01*
X140821Y127953D01*
X140718Y128736D01*
X140416Y129466D01*
X139935Y130092D01*
X139308Y130573D01*
X138578Y130876D01*
X137795Y130979D01*
D02*
G37*
G36*
X485000Y132887D02*
X484253Y132789D01*
X483557Y132500D01*
X482959Y132041D01*
X482500Y131444D01*
X482211Y130747D01*
X482113Y130000D01*
X482211Y129253D01*
X482500Y128557D01*
X482959Y127959D01*
X483557Y127500D01*
X484253Y127211D01*
X485000Y127113D01*
X485747Y127211D01*
X486444Y127500D01*
X487041Y127959D01*
X487500Y128557D01*
X487788Y129253D01*
X487887Y130000D01*
X487788Y130747D01*
X487500Y131444D01*
X487041Y132041D01*
X486444Y132500D01*
X485747Y132789D01*
X485000Y132887D01*
D02*
G37*
G36*
X619685Y133058D02*
X618771Y132938D01*
X617920Y132585D01*
X617189Y132024D01*
X616628Y131293D01*
X616275Y130441D01*
X616155Y129528D01*
X616275Y128614D01*
X616628Y127762D01*
X617189Y127031D01*
X617920Y126470D01*
X618771Y126118D01*
X619685Y125997D01*
X620599Y126118D01*
X621450Y126470D01*
X622181Y127031D01*
X622742Y127762D01*
X623095Y128614D01*
X623215Y129528D01*
X623095Y130441D01*
X622742Y131293D01*
X622181Y132024D01*
X621450Y132585D01*
X620599Y132938D01*
X619685Y133058D01*
D02*
G37*
G36*
X535000Y142887D02*
X534253Y142789D01*
X533557Y142500D01*
X532959Y142041D01*
X532500Y141444D01*
X532211Y140747D01*
X532113Y140000D01*
X532211Y139253D01*
X532500Y138557D01*
X532959Y137959D01*
X533557Y137500D01*
X534253Y137212D01*
X535000Y137113D01*
X535747Y137212D01*
X536444Y137500D01*
X537041Y137959D01*
X537500Y138557D01*
X537788Y139253D01*
X537887Y140000D01*
X537788Y140747D01*
X537500Y141444D01*
X537041Y142041D01*
X536444Y142500D01*
X535747Y142789D01*
X535000Y142887D01*
D02*
G37*
G36*
X525000D02*
X524253Y142789D01*
X523557Y142500D01*
X522959Y142041D01*
X522500Y141444D01*
X522212Y140747D01*
X522113Y140000D01*
X522212Y139253D01*
X522500Y138557D01*
X522959Y137959D01*
X523557Y137500D01*
X524253Y137212D01*
X525000Y137113D01*
X525747Y137212D01*
X526443Y137500D01*
X527041Y137959D01*
X527500Y138557D01*
X527788Y139253D01*
X527887Y140000D01*
X527788Y140747D01*
X527500Y141444D01*
X527041Y142041D01*
X526443Y142500D01*
X525747Y142789D01*
X525000Y142887D01*
D02*
G37*
G36*
X565000D02*
X564253Y142789D01*
X563556Y142500D01*
X562959Y142041D01*
X562500Y141444D01*
X562212Y140747D01*
X562113Y140000D01*
X562212Y139253D01*
X562500Y138557D01*
X562959Y137959D01*
X563556Y137500D01*
X564253Y137212D01*
X565000Y137113D01*
X565747Y137212D01*
X566443Y137500D01*
X567041Y137959D01*
X567500Y138557D01*
X567789Y139253D01*
X567887Y140000D01*
X567789Y140747D01*
X567500Y141444D01*
X567041Y142041D01*
X566443Y142500D01*
X565747Y142789D01*
X565000Y142887D01*
D02*
G37*
G36*
X545000D02*
X544253Y142789D01*
X543556Y142500D01*
X542959Y142041D01*
X542500Y141444D01*
X542211Y140747D01*
X542113Y140000D01*
X542211Y139253D01*
X542500Y138557D01*
X542959Y137959D01*
X543556Y137500D01*
X544253Y137212D01*
X545000Y137113D01*
X545747Y137212D01*
X546444Y137500D01*
X547041Y137959D01*
X547500Y138557D01*
X547788Y139253D01*
X547887Y140000D01*
X547788Y140747D01*
X547500Y141444D01*
X547041Y142041D01*
X546444Y142500D01*
X545747Y142789D01*
X545000Y142887D01*
D02*
G37*
G36*
X382285Y143900D02*
X378485D01*
X376585Y142000D01*
Y138200D01*
X378485Y136300D01*
X382285D01*
X384185Y138200D01*
Y142000D01*
X382285Y143900D01*
D02*
G37*
G36*
X372285D02*
X368485D01*
X366585Y142000D01*
Y138200D01*
X368485Y136300D01*
X372285D01*
X374185Y138200D01*
Y142000D01*
X372285Y143900D01*
D02*
G37*
G36*
X495000Y142887D02*
X494253Y142789D01*
X493556Y142500D01*
X492959Y142041D01*
X492500Y141444D01*
X492211Y140747D01*
X492113Y140000D01*
X492211Y139253D01*
X492500Y138557D01*
X492959Y137959D01*
X493556Y137500D01*
X494253Y137212D01*
X495000Y137113D01*
X495747Y137212D01*
X496444Y137500D01*
X497041Y137959D01*
X497500Y138557D01*
X497788Y139253D01*
X497887Y140000D01*
X497788Y140747D01*
X497500Y141444D01*
X497041Y142041D01*
X496444Y142500D01*
X495747Y142789D01*
X495000Y142887D01*
D02*
G37*
G36*
X485000D02*
X484253Y142789D01*
X483557Y142500D01*
X482959Y142041D01*
X482500Y141444D01*
X482211Y140747D01*
X482113Y140000D01*
X482211Y139253D01*
X482500Y138557D01*
X482959Y137959D01*
X483557Y137500D01*
X484253Y137212D01*
X485000Y137113D01*
X485747Y137212D01*
X486444Y137500D01*
X487041Y137959D01*
X487500Y138557D01*
X487788Y139253D01*
X487887Y140000D01*
X487788Y140747D01*
X487500Y141444D01*
X487041Y142041D01*
X486444Y142500D01*
X485747Y142789D01*
X485000Y142887D01*
D02*
G37*
G36*
X585000Y102887D02*
X584253Y102788D01*
X583557Y102500D01*
X582959Y102041D01*
X582500Y101443D01*
X582211Y100747D01*
X582113Y100000D01*
X582211Y99253D01*
X582500Y98557D01*
X582959Y97959D01*
X583557Y97500D01*
X584253Y97211D01*
X585000Y97113D01*
X585747Y97211D01*
X586444Y97500D01*
X587041Y97959D01*
X587500Y98557D01*
X587788Y99253D01*
X587887Y100000D01*
X587788Y100747D01*
X587500Y101443D01*
X587041Y102041D01*
X586444Y102500D01*
X585747Y102788D01*
X585000Y102887D01*
D02*
G37*
G36*
X575000D02*
X574253Y102788D01*
X573557Y102500D01*
X572959Y102041D01*
X572500Y101443D01*
X572212Y100747D01*
X572113Y100000D01*
X572212Y99253D01*
X572500Y98557D01*
X572959Y97959D01*
X573557Y97500D01*
X574253Y97211D01*
X575000Y97113D01*
X575747Y97211D01*
X576443Y97500D01*
X577041Y97959D01*
X577500Y98557D01*
X577788Y99253D01*
X577887Y100000D01*
X577788Y100747D01*
X577500Y101443D01*
X577041Y102041D01*
X576443Y102500D01*
X575747Y102788D01*
X575000Y102887D01*
D02*
G37*
G36*
X372285Y123900D02*
X368485D01*
X366585Y122000D01*
Y118200D01*
X368485Y116300D01*
X372285D01*
X374185Y118200D01*
Y122000D01*
X372285Y123900D01*
D02*
G37*
G36*
X622638Y107362D02*
X615638D01*
Y100362D01*
X622638D01*
Y107362D01*
D02*
G37*
G36*
X495000Y102887D02*
X494253Y102788D01*
X493556Y102500D01*
X492959Y102041D01*
X492500Y101443D01*
X492211Y100747D01*
X492113Y100000D01*
X492211Y99253D01*
X492500Y98557D01*
X492959Y97959D01*
X493556Y97500D01*
X494253Y97211D01*
X495000Y97113D01*
X495747Y97211D01*
X496444Y97500D01*
X497041Y97959D01*
X497500Y98557D01*
X497788Y99253D01*
X497887Y100000D01*
X497788Y100747D01*
X497500Y101443D01*
X497041Y102041D01*
X496444Y102500D01*
X495747Y102788D01*
X495000Y102887D01*
D02*
G37*
G36*
X485000D02*
X484253Y102788D01*
X483557Y102500D01*
X482959Y102041D01*
X482500Y101443D01*
X482211Y100747D01*
X482113Y100000D01*
X482211Y99253D01*
X482500Y98557D01*
X482959Y97959D01*
X483557Y97500D01*
X484253Y97211D01*
X485000Y97113D01*
X485747Y97211D01*
X486444Y97500D01*
X487041Y97959D01*
X487500Y98557D01*
X487788Y99253D01*
X487887Y100000D01*
X487788Y100747D01*
X487500Y101443D01*
X487041Y102041D01*
X486444Y102500D01*
X485747Y102788D01*
X485000Y102887D01*
D02*
G37*
G36*
X565000D02*
X564253Y102788D01*
X563556Y102500D01*
X562959Y102041D01*
X562500Y101443D01*
X562212Y100747D01*
X562113Y100000D01*
X562212Y99253D01*
X562500Y98557D01*
X562959Y97959D01*
X563556Y97500D01*
X564253Y97211D01*
X565000Y97113D01*
X565747Y97211D01*
X566443Y97500D01*
X567041Y97959D01*
X567500Y98557D01*
X567789Y99253D01*
X567887Y100000D01*
X567789Y100747D01*
X567500Y101443D01*
X567041Y102041D01*
X566443Y102500D01*
X565747Y102788D01*
X565000Y102887D01*
D02*
G37*
G36*
X505000D02*
X504253Y102788D01*
X503556Y102500D01*
X502959Y102041D01*
X502500Y101443D01*
X502212Y100747D01*
X502113Y100000D01*
X502212Y99253D01*
X502500Y98557D01*
X502959Y97959D01*
X503556Y97500D01*
X504253Y97211D01*
X505000Y97113D01*
X505747Y97211D01*
X506444Y97500D01*
X507041Y97959D01*
X507500Y98557D01*
X507789Y99253D01*
X507887Y100000D01*
X507789Y100747D01*
X507500Y101443D01*
X507041Y102041D01*
X506444Y102500D01*
X505747Y102788D01*
X505000Y102887D01*
D02*
G37*
G36*
X565000Y122887D02*
X564253Y122789D01*
X563556Y122500D01*
X562959Y122041D01*
X562500Y121443D01*
X562212Y120747D01*
X562113Y120000D01*
X562212Y119253D01*
X562500Y118556D01*
X562959Y117959D01*
X563556Y117500D01*
X564253Y117211D01*
X565000Y117113D01*
X565747Y117211D01*
X566443Y117500D01*
X567041Y117959D01*
X567500Y118556D01*
X567789Y119253D01*
X567887Y120000D01*
X567789Y120747D01*
X567500Y121443D01*
X567041Y122041D01*
X566443Y122500D01*
X565747Y122789D01*
X565000Y122887D01*
D02*
G37*
G36*
X505000D02*
X504253Y122789D01*
X503556Y122500D01*
X502959Y122041D01*
X502500Y121443D01*
X502212Y120747D01*
X502113Y120000D01*
X502212Y119253D01*
X502500Y118556D01*
X502959Y117959D01*
X503556Y117500D01*
X504253Y117211D01*
X505000Y117113D01*
X505747Y117211D01*
X506444Y117500D01*
X507041Y117959D01*
X507500Y118556D01*
X507789Y119253D01*
X507887Y120000D01*
X507789Y120747D01*
X507500Y121443D01*
X507041Y122041D01*
X506444Y122500D01*
X505747Y122789D01*
X505000Y122887D01*
D02*
G37*
G36*
X585000D02*
X584253Y122789D01*
X583557Y122500D01*
X582959Y122041D01*
X582500Y121443D01*
X582211Y120747D01*
X582113Y120000D01*
X582211Y119253D01*
X582500Y118556D01*
X582959Y117959D01*
X583557Y117500D01*
X584253Y117211D01*
X585000Y117113D01*
X585747Y117211D01*
X586444Y117500D01*
X587041Y117959D01*
X587500Y118556D01*
X587788Y119253D01*
X587887Y120000D01*
X587788Y120747D01*
X587500Y121443D01*
X587041Y122041D01*
X586444Y122500D01*
X585747Y122789D01*
X585000Y122887D01*
D02*
G37*
G36*
X575000D02*
X574253Y122789D01*
X573557Y122500D01*
X572959Y122041D01*
X572500Y121443D01*
X572212Y120747D01*
X572113Y120000D01*
X572212Y119253D01*
X572500Y118556D01*
X572959Y117959D01*
X573557Y117500D01*
X574253Y117211D01*
X575000Y117113D01*
X575747Y117211D01*
X576443Y117500D01*
X577041Y117959D01*
X577500Y118556D01*
X577788Y119253D01*
X577887Y120000D01*
X577788Y120747D01*
X577500Y121443D01*
X577041Y122041D01*
X576443Y122500D01*
X575747Y122789D01*
X575000Y122887D01*
D02*
G37*
G36*
X262661Y123651D02*
X259109D01*
X257334Y121876D01*
Y118324D01*
X259109Y116549D01*
X262661D01*
X264436Y118324D01*
Y121876D01*
X262661Y123651D01*
D02*
G37*
G36*
X252661D02*
X249109D01*
X247334Y121876D01*
Y118324D01*
X249109Y116549D01*
X252661D01*
X254436Y118324D01*
Y121876D01*
X252661Y123651D01*
D02*
G37*
G36*
X495000Y122887D02*
X494253Y122789D01*
X493556Y122500D01*
X492959Y122041D01*
X492500Y121443D01*
X492211Y120747D01*
X492113Y120000D01*
X492211Y119253D01*
X492500Y118556D01*
X492959Y117959D01*
X493556Y117500D01*
X494253Y117211D01*
X495000Y117113D01*
X495747Y117211D01*
X496444Y117500D01*
X497041Y117959D01*
X497500Y118556D01*
X497788Y119253D01*
X497887Y120000D01*
X497788Y120747D01*
X497500Y121443D01*
X497041Y122041D01*
X496444Y122500D01*
X495747Y122789D01*
X495000Y122887D01*
D02*
G37*
G36*
X485000D02*
X484253Y122789D01*
X483557Y122500D01*
X482959Y122041D01*
X482500Y121443D01*
X482211Y120747D01*
X482113Y120000D01*
X482211Y119253D01*
X482500Y118556D01*
X482959Y117959D01*
X483557Y117500D01*
X484253Y117211D01*
X485000Y117113D01*
X485747Y117211D01*
X486444Y117500D01*
X487041Y117959D01*
X487500Y118556D01*
X487788Y119253D01*
X487887Y120000D01*
X487788Y120747D01*
X487500Y121443D01*
X487041Y122041D01*
X486444Y122500D01*
X485747Y122789D01*
X485000Y122887D01*
D02*
G37*
G36*
X575000Y142887D02*
X574253Y142789D01*
X573557Y142500D01*
X572959Y142041D01*
X572500Y141444D01*
X572212Y140747D01*
X572113Y140000D01*
X572212Y139253D01*
X572500Y138557D01*
X572959Y137959D01*
X573557Y137500D01*
X574253Y137212D01*
X575000Y137113D01*
X575747Y137212D01*
X576443Y137500D01*
X577041Y137959D01*
X577500Y138557D01*
X577788Y139253D01*
X577887Y140000D01*
X577788Y140747D01*
X577500Y141444D01*
X577041Y142041D01*
X576443Y142500D01*
X575747Y142789D01*
X575000Y142887D01*
D02*
G37*
G36*
X444000Y157150D02*
X441750D01*
Y154950D01*
X444000D01*
Y157150D01*
D02*
G37*
G36*
X441100Y156950D02*
X439000D01*
Y154950D01*
X441100D01*
Y156950D01*
D02*
G37*
G36*
X504500Y159500D02*
X501675D01*
X501724Y159122D01*
X502063Y158304D01*
X502602Y157602D01*
X503304Y157063D01*
X504122Y156724D01*
X504500Y156675D01*
Y159500D01*
D02*
G37*
G36*
X447250Y157150D02*
X445000D01*
Y154950D01*
X447250D01*
Y157150D01*
D02*
G37*
G36*
X438000Y153950D02*
X435900D01*
Y151950D01*
X438000D01*
Y153950D01*
D02*
G37*
G36*
X447250D02*
X445000D01*
Y151750D01*
X447250D01*
Y153950D01*
D02*
G37*
G36*
X422528Y154902D02*
X421142D01*
Y153614D01*
X422528D01*
Y154902D01*
D02*
G37*
G36*
X441100Y153950D02*
X439000D01*
Y151950D01*
X441100D01*
Y153950D01*
D02*
G37*
G36*
X565000Y162887D02*
X564253Y162788D01*
X563556Y162500D01*
X562959Y162041D01*
X562500Y161443D01*
X562212Y160747D01*
X562113Y160000D01*
X562212Y159253D01*
X562500Y158556D01*
X562959Y157959D01*
X563556Y157500D01*
X564253Y157211D01*
X565000Y157113D01*
X565747Y157211D01*
X566443Y157500D01*
X567041Y157959D01*
X567500Y158556D01*
X567789Y159253D01*
X567887Y160000D01*
X567789Y160747D01*
X567500Y161443D01*
X567041Y162041D01*
X566443Y162500D01*
X565747Y162788D01*
X565000Y162887D01*
D02*
G37*
G36*
X555000D02*
X554253Y162788D01*
X553556Y162500D01*
X552959Y162041D01*
X552500Y161443D01*
X552212Y160747D01*
X552113Y160000D01*
X552212Y159253D01*
X552500Y158556D01*
X552959Y157959D01*
X553556Y157500D01*
X554253Y157211D01*
X555000Y157113D01*
X555747Y157211D01*
X556444Y157500D01*
X557041Y157959D01*
X557500Y158556D01*
X557789Y159253D01*
X557887Y160000D01*
X557789Y160747D01*
X557500Y161443D01*
X557041Y162041D01*
X556444Y162500D01*
X555747Y162788D01*
X555000Y162887D01*
D02*
G37*
G36*
X587862Y162862D02*
X582138D01*
Y157138D01*
X587862D01*
Y162862D01*
D02*
G37*
G36*
X575000Y162887D02*
X574253Y162788D01*
X573557Y162500D01*
X572959Y162041D01*
X572500Y161443D01*
X572212Y160747D01*
X572113Y160000D01*
X572212Y159253D01*
X572500Y158556D01*
X572959Y157959D01*
X573557Y157500D01*
X574253Y157211D01*
X575000Y157113D01*
X575747Y157211D01*
X576443Y157500D01*
X577041Y157959D01*
X577500Y158556D01*
X577788Y159253D01*
X577887Y160000D01*
X577788Y160747D01*
X577500Y161443D01*
X577041Y162041D01*
X576443Y162500D01*
X575747Y162788D01*
X575000Y162887D01*
D02*
G37*
G36*
X525000D02*
X524253Y162788D01*
X523557Y162500D01*
X522959Y162041D01*
X522500Y161443D01*
X522212Y160747D01*
X522113Y160000D01*
X522212Y159253D01*
X522500Y158556D01*
X522959Y157959D01*
X523557Y157500D01*
X524253Y157211D01*
X525000Y157113D01*
X525747Y157211D01*
X526443Y157500D01*
X527041Y157959D01*
X527500Y158556D01*
X527788Y159253D01*
X527887Y160000D01*
X527788Y160747D01*
X527500Y161443D01*
X527041Y162041D01*
X526443Y162500D01*
X525747Y162788D01*
X525000Y162887D01*
D02*
G37*
G36*
X495000D02*
X494253Y162788D01*
X493556Y162500D01*
X492959Y162041D01*
X492500Y161443D01*
X492211Y160747D01*
X492113Y160000D01*
X492211Y159253D01*
X492500Y158556D01*
X492959Y157959D01*
X493556Y157500D01*
X494253Y157211D01*
X495000Y157113D01*
X495747Y157211D01*
X496444Y157500D01*
X497041Y157959D01*
X497500Y158556D01*
X497788Y159253D01*
X497887Y160000D01*
X497788Y160747D01*
X497500Y161443D01*
X497041Y162041D01*
X496444Y162500D01*
X495747Y162788D01*
X495000Y162887D01*
D02*
G37*
G36*
X545000D02*
X544253Y162788D01*
X543556Y162500D01*
X542959Y162041D01*
X542500Y161443D01*
X542211Y160747D01*
X542113Y160000D01*
X542211Y159253D01*
X542500Y158556D01*
X542959Y157959D01*
X543556Y157500D01*
X544253Y157211D01*
X545000Y157113D01*
X545747Y157211D01*
X546444Y157500D01*
X547041Y157959D01*
X547500Y158556D01*
X547788Y159253D01*
X547887Y160000D01*
X547788Y160747D01*
X547500Y161443D01*
X547041Y162041D01*
X546444Y162500D01*
X545747Y162788D01*
X545000Y162887D01*
D02*
G37*
G36*
X535000D02*
X534253Y162788D01*
X533557Y162500D01*
X532959Y162041D01*
X532500Y161443D01*
X532211Y160747D01*
X532113Y160000D01*
X532211Y159253D01*
X532500Y158556D01*
X532959Y157959D01*
X533557Y157500D01*
X534253Y157211D01*
X535000Y157113D01*
X535747Y157211D01*
X536444Y157500D01*
X537041Y157959D01*
X537500Y158556D01*
X537788Y159253D01*
X537887Y160000D01*
X537788Y160747D01*
X537500Y161443D01*
X537041Y162041D01*
X536444Y162500D01*
X535747Y162788D01*
X535000Y162887D01*
D02*
G37*
G36*
X545000Y152887D02*
X544253Y152788D01*
X543556Y152500D01*
X542959Y152041D01*
X542500Y151444D01*
X542211Y150747D01*
X542113Y150000D01*
X542211Y149253D01*
X542500Y148556D01*
X542959Y147959D01*
X543556Y147500D01*
X544253Y147212D01*
X545000Y147113D01*
X545747Y147212D01*
X546444Y147500D01*
X547041Y147959D01*
X547500Y148556D01*
X547788Y149253D01*
X547887Y150000D01*
X547788Y150747D01*
X547500Y151444D01*
X547041Y152041D01*
X546444Y152500D01*
X545747Y152788D01*
X545000Y152887D01*
D02*
G37*
G36*
X535000D02*
X534253Y152788D01*
X533557Y152500D01*
X532959Y152041D01*
X532500Y151444D01*
X532211Y150747D01*
X532113Y150000D01*
X532211Y149253D01*
X532500Y148556D01*
X532959Y147959D01*
X533557Y147500D01*
X534253Y147212D01*
X535000Y147113D01*
X535747Y147212D01*
X536444Y147500D01*
X537041Y147959D01*
X537500Y148556D01*
X537788Y149253D01*
X537887Y150000D01*
X537788Y150747D01*
X537500Y151444D01*
X537041Y152041D01*
X536444Y152500D01*
X535747Y152788D01*
X535000Y152887D01*
D02*
G37*
G36*
X565000D02*
X564253Y152788D01*
X563556Y152500D01*
X562959Y152041D01*
X562500Y151444D01*
X562212Y150747D01*
X562113Y150000D01*
X562212Y149253D01*
X562500Y148556D01*
X562959Y147959D01*
X563556Y147500D01*
X564253Y147212D01*
X565000Y147113D01*
X565747Y147212D01*
X566443Y147500D01*
X567041Y147959D01*
X567500Y148556D01*
X567789Y149253D01*
X567887Y150000D01*
X567789Y150747D01*
X567500Y151444D01*
X567041Y152041D01*
X566443Y152500D01*
X565747Y152788D01*
X565000Y152887D01*
D02*
G37*
G36*
X555000D02*
X554253Y152788D01*
X553556Y152500D01*
X552959Y152041D01*
X552500Y151444D01*
X552212Y150747D01*
X552113Y150000D01*
X552212Y149253D01*
X552500Y148556D01*
X552959Y147959D01*
X553556Y147500D01*
X554253Y147212D01*
X555000Y147113D01*
X555747Y147212D01*
X556444Y147500D01*
X557041Y147959D01*
X557500Y148556D01*
X557789Y149253D01*
X557887Y150000D01*
X557789Y150747D01*
X557500Y151444D01*
X557041Y152041D01*
X556444Y152500D01*
X555747Y152788D01*
X555000Y152887D01*
D02*
G37*
G36*
X137795Y144758D02*
X137012Y144655D01*
X136282Y144353D01*
X135656Y143872D01*
X135175Y143245D01*
X134872Y142515D01*
X134769Y141732D01*
X134872Y140949D01*
X135175Y140219D01*
X135656Y139593D01*
X136282Y139112D01*
X137012Y138810D01*
X137795Y138706D01*
X138578Y138810D01*
X139308Y139112D01*
X139935Y139593D01*
X140416Y140219D01*
X140718Y140949D01*
X140821Y141732D01*
X140718Y142515D01*
X140416Y143245D01*
X139935Y143872D01*
X139308Y144353D01*
X138578Y144655D01*
X137795Y144758D01*
D02*
G37*
G36*
X585000Y142887D02*
X584253Y142789D01*
X583557Y142500D01*
X582959Y142041D01*
X582500Y141444D01*
X582211Y140747D01*
X582113Y140000D01*
X582211Y139253D01*
X582500Y138557D01*
X582959Y137959D01*
X583557Y137500D01*
X584253Y137212D01*
X585000Y137113D01*
X585747Y137212D01*
X586444Y137500D01*
X587041Y137959D01*
X587500Y138557D01*
X587788Y139253D01*
X587887Y140000D01*
X587788Y140747D01*
X587500Y141444D01*
X587041Y142041D01*
X586444Y142500D01*
X585747Y142789D01*
X585000Y142887D01*
D02*
G37*
G36*
X215000Y150049D02*
X214024Y149855D01*
X213198Y149302D01*
X212645Y148476D01*
X212451Y147500D01*
X212645Y146525D01*
X213198Y145698D01*
X214024Y145145D01*
X215000Y144951D01*
X215975Y145145D01*
X216802Y145698D01*
X217355Y146525D01*
X217549Y147500D01*
X217355Y148476D01*
X216802Y149302D01*
X215975Y149855D01*
X215000Y150049D01*
D02*
G37*
G36*
X149606Y144758D02*
X148823Y144655D01*
X148093Y144353D01*
X147467Y143872D01*
X146986Y143245D01*
X146684Y142515D01*
X146580Y141732D01*
X146684Y140949D01*
X146986Y140219D01*
X147467Y139593D01*
X148093Y139112D01*
X148823Y138810D01*
X149606Y138706D01*
X150390Y138810D01*
X151119Y139112D01*
X151746Y139593D01*
X152227Y140219D01*
X152529Y140949D01*
X152632Y141732D01*
X152529Y142515D01*
X152227Y143245D01*
X151746Y143872D01*
X151119Y144353D01*
X150390Y144655D01*
X149606Y144758D01*
D02*
G37*
G36*
X422750Y152750D02*
X420550D01*
Y150500D01*
X422750D01*
Y152750D01*
D02*
G37*
G36*
X419550D02*
X417350D01*
Y150500D01*
X419550D01*
Y152750D01*
D02*
G37*
G36*
X444000Y153950D02*
X441750D01*
Y151750D01*
X444000D01*
Y153950D01*
D02*
G37*
G36*
X409500Y211020D02*
X154285D01*
X153895Y210942D01*
X153564Y210721D01*
X146139Y203296D01*
X146035Y203400D01*
X142735D01*
X141085Y201750D01*
Y198450D01*
X142735Y196800D01*
X146035D01*
X147685Y198450D01*
Y201750D01*
X147581Y201854D01*
X154707Y208980D01*
X409078D01*
X452917Y165141D01*
X453248Y164920D01*
X453638Y164843D01*
X504177D01*
X505156Y163864D01*
X504995Y163391D01*
X504122Y163276D01*
X503304Y162937D01*
X502602Y162398D01*
X502063Y161696D01*
X501724Y160878D01*
X501675Y160500D01*
X505000D01*
Y160000D01*
X505500D01*
Y156675D01*
X505878Y156724D01*
X506696Y157063D01*
X507398Y157602D01*
X507421Y157632D01*
X507908Y157519D01*
X507920Y157457D01*
X508141Y157126D01*
X512126Y153141D01*
X512457Y152920D01*
X512847Y152843D01*
X513225D01*
X513386Y152369D01*
X512959Y152041D01*
X512513Y151461D01*
X512014Y151428D01*
X507721Y155721D01*
X507390Y155942D01*
X507000Y156020D01*
X485831D01*
X485539Y156426D01*
X485630Y156692D01*
X485878Y156724D01*
X486696Y157063D01*
X487398Y157602D01*
X487937Y158304D01*
X488276Y159122D01*
X488325Y159500D01*
X485000D01*
Y160000D01*
X484500D01*
Y163325D01*
X484122Y163276D01*
X483304Y162937D01*
X482602Y162398D01*
X482063Y161696D01*
X481724Y160878D01*
X481692Y160630D01*
X481218Y160469D01*
X480416Y161271D01*
X480085Y161492D01*
X479695Y161570D01*
X446750D01*
Y162750D01*
X443742D01*
X442221Y164271D01*
X441890Y164492D01*
X441500Y164570D01*
X436279D01*
X435888Y164492D01*
X435558Y164271D01*
X434070Y162784D01*
X430169D01*
Y161618D01*
X428600D01*
Y162550D01*
X424400D01*
Y161618D01*
X422027D01*
Y161886D01*
X420205D01*
Y162386D01*
X417500D01*
Y158000D01*
Y153614D01*
X418756D01*
Y153614D01*
X420142D01*
Y155402D01*
X420642D01*
Y155902D01*
X422528D01*
Y156327D01*
X422990Y156518D01*
X424400Y155108D01*
Y152450D01*
X428600D01*
Y153528D01*
X430169D01*
Y152216D01*
X434831D01*
Y155439D01*
X435438Y156046D01*
X435900Y155855D01*
Y154950D01*
X438000D01*
Y156950D01*
X436995D01*
X436804Y157412D01*
X437942Y158550D01*
X440600D01*
Y162530D01*
X441078D01*
X442250Y161358D01*
Y158350D01*
X446750D01*
Y159530D01*
X479273D01*
X484524Y154279D01*
X484855Y154058D01*
X485245Y153980D01*
X506578D01*
X511279Y149279D01*
X511610Y149058D01*
X512000Y148980D01*
X512324D01*
X512500Y148556D01*
X512959Y147959D01*
X513386Y147631D01*
X513225Y147157D01*
X506775D01*
X506614Y147631D01*
X507041Y147959D01*
X507500Y148556D01*
X507789Y149253D01*
X507887Y150000D01*
X507789Y150747D01*
X507500Y151444D01*
X507041Y152041D01*
X506444Y152500D01*
X505747Y152788D01*
X505000Y152887D01*
X504253Y152788D01*
X503556Y152500D01*
X502959Y152041D01*
X502500Y151444D01*
X502212Y150747D01*
X502113Y150000D01*
X502212Y149253D01*
X502500Y148556D01*
X502959Y147959D01*
X503386Y147631D01*
X503225Y147157D01*
X496775D01*
X496614Y147631D01*
X497041Y147959D01*
X497500Y148556D01*
X497788Y149253D01*
X497887Y150000D01*
X497788Y150747D01*
X497500Y151444D01*
X497041Y152041D01*
X496444Y152500D01*
X495747Y152788D01*
X495000Y152887D01*
X494253Y152788D01*
X493556Y152500D01*
X492959Y152041D01*
X492500Y151444D01*
X492211Y150747D01*
X492113Y150000D01*
X492211Y149253D01*
X492500Y148556D01*
X492959Y147959D01*
X493386Y147631D01*
X493225Y147157D01*
X486775D01*
X486614Y147631D01*
X487041Y147959D01*
X487500Y148556D01*
X487788Y149253D01*
X487887Y150000D01*
X487788Y150747D01*
X487500Y151444D01*
X487041Y152041D01*
X486444Y152500D01*
X485747Y152788D01*
X485000Y152887D01*
X484253Y152788D01*
X483557Y152500D01*
X482959Y152041D01*
X482500Y151444D01*
X482211Y150747D01*
X482113Y150000D01*
X482211Y149253D01*
X482500Y148556D01*
X482959Y147959D01*
X483386Y147631D01*
X483225Y147157D01*
X434638D01*
X434248Y147080D01*
X433917Y146859D01*
X413078Y126020D01*
X382658D01*
X382467Y126481D01*
X384185Y128200D01*
Y132000D01*
X382285Y133900D01*
X378485D01*
X376585Y132000D01*
Y128200D01*
X378304Y126481D01*
X378112Y126020D01*
X375907D01*
X373956Y127971D01*
X374185Y128200D01*
Y132000D01*
X372285Y133900D01*
X368485D01*
X366585Y132000D01*
Y128200D01*
X368485Y126300D01*
X372285D01*
X372514Y126529D01*
X374764Y124279D01*
X375095Y124058D01*
X375485Y123980D01*
X377912D01*
X378103Y123519D01*
X376585Y122000D01*
Y118200D01*
X378485Y116300D01*
X382285D01*
X384185Y118200D01*
Y122000D01*
X382666Y123519D01*
X382858Y123980D01*
X413500D01*
X413890Y124058D01*
X414221Y124279D01*
X435060Y145118D01*
X516600D01*
X516990Y145196D01*
X517321Y145417D01*
X519583Y147679D01*
X519804Y148010D01*
X519882Y148400D01*
Y151600D01*
X519804Y151990D01*
X519583Y152321D01*
X517321Y154583D01*
X516990Y154804D01*
X516600Y154882D01*
X513270D01*
X509882Y158270D01*
Y161600D01*
X509804Y161990D01*
X509583Y162321D01*
X505321Y166583D01*
X504990Y166804D01*
X504600Y166882D01*
X454060D01*
X410221Y210721D01*
X409890Y210942D01*
X409500Y211020D01*
D02*
G37*
G36*
X585000Y152887D02*
X584253Y152788D01*
X583557Y152500D01*
X582959Y152041D01*
X582500Y151444D01*
X582211Y150747D01*
X582113Y150000D01*
X582211Y149253D01*
X582500Y148556D01*
X582959Y147959D01*
X583557Y147500D01*
X584253Y147212D01*
X585000Y147113D01*
X585747Y147212D01*
X586444Y147500D01*
X587041Y147959D01*
X587500Y148556D01*
X587788Y149253D01*
X587887Y150000D01*
X587788Y150747D01*
X587500Y151444D01*
X587041Y152041D01*
X586444Y152500D01*
X585747Y152788D01*
X585000Y152887D01*
D02*
G37*
G36*
X575000D02*
X574253Y152788D01*
X573557Y152500D01*
X572959Y152041D01*
X572500Y151444D01*
X572212Y150747D01*
X572113Y150000D01*
X572212Y149253D01*
X572500Y148556D01*
X572959Y147959D01*
X573557Y147500D01*
X574253Y147212D01*
X575000Y147113D01*
X575747Y147212D01*
X576443Y147500D01*
X577041Y147959D01*
X577500Y148556D01*
X577788Y149253D01*
X577887Y150000D01*
X577788Y150747D01*
X577500Y151444D01*
X577041Y152041D01*
X576443Y152500D01*
X575747Y152788D01*
X575000Y152887D01*
D02*
G37*
G36*
X422750Y149500D02*
X420550D01*
Y147250D01*
X422750D01*
Y149500D01*
D02*
G37*
G36*
X419550D02*
X417350D01*
Y147250D01*
X419550D01*
Y149500D01*
D02*
G37*
%LPD*%
D12*
X432500Y57547D02*
D03*
Y63453D02*
D03*
Y154547D02*
D03*
Y160453D02*
D03*
D13*
X444000Y57450D02*
D03*
Y63550D02*
D03*
X444500Y154450D02*
D03*
Y160550D02*
D03*
D17*
X426500Y57450D02*
D03*
Y63550D02*
D03*
X438500Y57450D02*
D03*
Y63550D02*
D03*
X426500Y154450D02*
D03*
Y160550D02*
D03*
X438500Y154450D02*
D03*
Y160550D02*
D03*
D18*
X652500Y265000D02*
X679134Y238366D01*
Y-30866D02*
Y238366D01*
X665000Y-45000D02*
X679134Y-30866D01*
X667500Y265000D02*
X691929Y240571D01*
Y-21606D02*
Y240571D01*
X665535Y-48000D02*
X691929Y-21606D01*
X662000Y-42000D02*
X664370Y-44370D01*
X104331Y144331D02*
X126000Y166000D01*
X104331Y98581D02*
Y144331D01*
Y97031D02*
X105000Y97700D01*
X104331Y68898D02*
Y97031D01*
Y68898D02*
X125984Y47244D01*
X360458D01*
X368114Y54900D01*
X382356Y155000D02*
X387356Y150000D01*
X355000Y155000D02*
X382356D01*
X344000Y166000D02*
X355000Y155000D01*
X512000Y150000D02*
X515000D01*
X507000Y155000D02*
X512000Y150000D01*
X485245Y155000D02*
X507000D01*
X444500Y160550D02*
X479695D01*
X485245Y155000D01*
X628500Y259000D02*
X658500D01*
X598500D02*
X628500D01*
X622500Y265000D02*
X628500Y259000D01*
X568500D02*
X598500D01*
X592500Y265000D02*
X598500Y259000D01*
X538500D02*
X568500D01*
X562500Y265000D02*
X568500Y259000D01*
X508500D02*
X538500D01*
X532500Y265000D02*
X538500Y259000D01*
X478500D02*
X508500D01*
X502500Y265000D02*
X508500Y259000D01*
X448500D02*
X478500D01*
X472500Y265000D02*
X478500Y259000D01*
X431000D02*
X448500D01*
X442500Y265000D02*
X448500Y259000D01*
X425000Y265000D02*
X431000Y259000D01*
X452500Y270000D02*
X482500D01*
X415000D02*
X452500D01*
X457500Y265000D01*
X572500Y270000D02*
X602500D01*
X632500D01*
X662500D02*
X667500Y265000D01*
X632500Y270000D02*
X662500D01*
X632500D02*
X637500Y265000D01*
X602500Y270000D02*
X607500Y265000D01*
X572500Y270000D02*
X577500Y265000D01*
X542500Y270000D02*
X572500D01*
X542500D02*
X547500Y265000D01*
X512500Y270000D02*
X542500D01*
X512500D02*
X517500Y265000D01*
X482500Y270000D02*
X512500D01*
X482500D02*
X487500Y265000D01*
X410000D02*
X415000Y270000D01*
X140385Y10100D02*
X198485Y-48000D01*
X126000Y166000D02*
X344000D01*
X422000Y-48000D02*
X437500D01*
X440000Y-45500D01*
Y-45000D01*
X422000Y-48000D02*
X425000Y-45000D01*
X198485Y-48000D02*
X422000D01*
X437500D02*
X467000D01*
X410000Y-45000D02*
X413000Y-42000D01*
X222550Y-45000D02*
X410000D01*
X206500Y-28950D02*
X222550Y-45000D01*
X413000Y-42000D02*
X452000D01*
X515000Y160000D02*
X516500D01*
X518862Y148400D02*
Y151600D01*
X512847Y153862D02*
X516600D01*
X518862Y151600D01*
X516600Y146138D02*
X518862Y148400D01*
X508862Y157847D02*
X512847Y153862D01*
X508862Y157847D02*
Y161600D01*
X496600Y63862D02*
X500462Y60000D01*
X505000D01*
X413343Y58213D02*
X413654Y57902D01*
X412209Y58213D02*
X413343D01*
X411331Y59091D02*
X412209Y58213D01*
X411331Y59091D02*
Y61909D01*
X412209Y62787D01*
X413343D01*
X413654Y63098D01*
X426500Y63550D02*
X432403D01*
X432500Y63453D01*
X433181D01*
X436279Y66550D01*
X441050D01*
X444000Y63600D01*
X426500Y57450D02*
X432400D01*
X438500Y63550D01*
X421142Y52592D02*
Y57902D01*
X420550Y52000D02*
X421142Y52592D01*
X412098Y155402D02*
X413358D01*
X410972Y159409D02*
X412162Y160598D01*
X410972Y156528D02*
X412098Y155402D01*
X412162Y160598D02*
X413295D01*
X410972Y156528D02*
Y159409D01*
Y152978D02*
Y156528D01*
Y152978D02*
X413950Y150000D01*
X420050D02*
X420705Y150655D01*
X420642Y158000D02*
X422950D01*
X426403Y154547D01*
X432497D01*
X438500Y160550D01*
X433327Y160599D02*
X436279Y163550D01*
X441500D01*
X444500Y160550D01*
X420642Y160599D02*
X433327D01*
X421142Y63098D02*
X426048D01*
X426500Y63550D01*
X421142Y60500D02*
X423450D01*
X426500Y57450D01*
X444000Y63550D02*
X444312Y63862D01*
X496600D01*
X411331Y55119D02*
Y59091D01*
Y55119D02*
X414450Y52000D01*
X385556D02*
X414450D01*
X382656Y54900D02*
X385556Y52000D01*
X368114Y54900D02*
X382656D01*
X387356Y150000D02*
X413950D01*
X420831Y58213D02*
X421142Y57902D01*
X420642Y155402D02*
X420705D01*
X482000Y-42000D02*
X485000Y-45000D01*
X467000Y-48000D02*
X470000Y-45000D01*
X602000Y-42000D02*
X605000Y-45000D01*
X512000Y-42000D02*
X515000Y-45000D01*
X482000Y-42000D02*
X512000D01*
X542000D02*
X545000Y-45000D01*
X512000Y-42000D02*
X542000D01*
X572000D02*
X575000Y-45000D01*
X542000Y-42000D02*
X572000D01*
X602000D01*
X632000D02*
X635000Y-45000D01*
X602000Y-42000D02*
X632000D01*
X662000D01*
X617000Y-48000D02*
X620000Y-45000D01*
X587000Y-48000D02*
X590000Y-45000D01*
X587000Y-48000D02*
X617000D01*
X557000D02*
X560000Y-45000D01*
X557000Y-48000D02*
X587000D01*
X527000D02*
X530000Y-45000D01*
X527000Y-48000D02*
X557000D01*
X497500D02*
X527000D01*
X467000D02*
X497000D01*
X500000Y-45000D01*
X206500Y-28950D02*
Y-26015D01*
X170385Y10100D02*
X206500Y-26015D01*
X452000Y-42000D02*
X455000Y-45000D01*
X452000Y-42000D02*
X482000D01*
X647500Y-47500D02*
X650000Y-45000D01*
X617000Y-48000D02*
X665535D01*
X144385Y200100D02*
X154285Y210000D01*
X409500D01*
X453638Y165862D01*
X504600D01*
X508862Y161600D01*
X434638Y146138D02*
X516600D01*
X413500Y125000D02*
X434638Y146138D01*
X370385Y130100D02*
X375485Y125000D01*
X413500D01*
D20*
X508110Y45512D02*
X515000D01*
X494095Y31496D02*
X508110Y45512D01*
X494095Y20669D02*
Y31496D01*
X458425Y-15000D02*
X494095Y20669D01*
X217500Y-15000D02*
X458425D01*
X515000Y45512D02*
Y60000D01*
X521500Y155000D02*
X526500D01*
X530000Y151500D01*
Y135000D02*
Y151500D01*
X516500Y160000D02*
X521500Y155000D01*
X505000Y110000D02*
X530000Y135000D01*
X215000Y247500D02*
X433500D01*
X515000Y166000D01*
Y160000D02*
Y166000D01*
D22*
X619685Y129528D02*
D03*
X659449Y189961D02*
D03*
X629921D02*
D03*
X600394Y190945D02*
D03*
X569882D02*
D03*
X539370D02*
D03*
X509842D02*
D03*
X479331D02*
D03*
X449803D02*
D03*
X417323D02*
D03*
X657480Y30512D02*
D03*
X626968D02*
D03*
X597441Y31496D02*
D03*
X566929D02*
D03*
X538386D02*
D03*
X506890D02*
D03*
X477362Y32138D02*
D03*
X446850Y32480D02*
D03*
X417323D02*
D03*
D23*
X485000Y60000D02*
D03*
Y70000D02*
D03*
X505000Y60000D02*
D03*
X495000Y70000D02*
D03*
Y60000D02*
D03*
X485000Y90000D02*
D03*
Y80000D02*
D03*
X495000D02*
D03*
Y100000D02*
D03*
Y90000D02*
D03*
X515000Y60000D02*
D03*
X535000D02*
D03*
X515000Y70000D02*
D03*
X525000Y60000D02*
D03*
X505000Y70000D02*
D03*
Y100000D02*
D03*
X525000Y70000D02*
D03*
X535000D02*
D03*
X525000Y80000D02*
D03*
X535000D02*
D03*
X485000Y100000D02*
D03*
Y110000D02*
D03*
X495000D02*
D03*
X485000Y120000D02*
D03*
X495000D02*
D03*
X485000Y130000D02*
D03*
Y160000D02*
D03*
Y140000D02*
D03*
X495000Y130000D02*
D03*
X485000Y150000D02*
D03*
X495000Y140000D02*
D03*
X505000Y110000D02*
D03*
X495000Y150000D02*
D03*
X505000Y120000D02*
D03*
X525000Y140000D02*
D03*
X505000Y150000D02*
D03*
X515000D02*
D03*
X505000Y160000D02*
D03*
X495000D02*
D03*
X525000Y150000D02*
D03*
X515000Y160000D02*
D03*
X525000D02*
D03*
X555000Y60000D02*
D03*
X545000D02*
D03*
X565000D02*
D03*
X575000Y70000D02*
D03*
Y60000D02*
D03*
X555000Y70000D02*
D03*
X545000Y80000D02*
D03*
Y70000D02*
D03*
X565000D02*
D03*
Y110000D02*
D03*
Y100000D02*
D03*
X575000Y80000D02*
D03*
Y90000D02*
D03*
X585000Y60000D02*
D03*
Y80000D02*
D03*
Y70000D02*
D03*
Y90000D02*
D03*
X575000Y110000D02*
D03*
Y100000D02*
D03*
X585000Y110000D02*
D03*
Y100000D02*
D03*
X545000Y140000D02*
D03*
X535000D02*
D03*
X565000Y120000D02*
D03*
X545000Y150000D02*
D03*
X565000Y140000D02*
D03*
X535000Y150000D02*
D03*
Y160000D02*
D03*
X545000D02*
D03*
X555000Y150000D02*
D03*
Y160000D02*
D03*
X565000D02*
D03*
X575000Y120000D02*
D03*
Y140000D02*
D03*
Y130000D02*
D03*
X585000Y120000D02*
D03*
Y140000D02*
D03*
Y130000D02*
D03*
X565000Y150000D02*
D03*
X575000Y160000D02*
D03*
Y150000D02*
D03*
X585000D02*
D03*
D24*
Y160000D02*
D03*
D25*
X619138Y103862D02*
D03*
D26*
X110385Y10100D02*
D03*
X120385D02*
D03*
X130385D02*
D03*
X140385D02*
D03*
X150385D02*
D03*
X160385D02*
D03*
X170385D02*
D03*
X180385D02*
D03*
X74385Y200100D02*
D03*
X84385D02*
D03*
X94385D02*
D03*
X104385D02*
D03*
X114385D02*
D03*
X124385D02*
D03*
X134385D02*
D03*
X144385D02*
D03*
X154385D02*
D03*
X164385D02*
D03*
D27*
X250885Y100100D02*
D03*
Y110100D02*
D03*
Y120100D02*
D03*
X260885Y110100D02*
D03*
Y100100D02*
D03*
Y120100D02*
D03*
D28*
X81400Y94700D02*
D03*
X105000D02*
D03*
D29*
X81400Y91700D02*
D03*
Y97700D02*
D03*
X96200Y75000D02*
D03*
X90200D02*
D03*
X105000Y91700D02*
D03*
Y97700D02*
D03*
D30*
X93200Y75000D02*
D03*
D31*
X370385Y40100D02*
D03*
Y30100D02*
D03*
Y70100D02*
D03*
Y50100D02*
D03*
Y60100D02*
D03*
Y80100D02*
D03*
Y90100D02*
D03*
Y100100D02*
D03*
Y110100D02*
D03*
Y120100D02*
D03*
Y130100D02*
D03*
Y140100D02*
D03*
Y150100D02*
D03*
Y180100D02*
D03*
Y160100D02*
D03*
Y170100D02*
D03*
Y190100D02*
D03*
Y200100D02*
D03*
X380385Y30100D02*
D03*
Y40100D02*
D03*
Y50100D02*
D03*
Y60100D02*
D03*
Y80100D02*
D03*
Y90100D02*
D03*
Y110100D02*
D03*
Y70100D02*
D03*
Y100100D02*
D03*
Y120100D02*
D03*
Y130100D02*
D03*
Y140100D02*
D03*
Y150100D02*
D03*
Y160100D02*
D03*
Y170100D02*
D03*
Y200100D02*
D03*
Y180100D02*
D03*
Y190100D02*
D03*
D32*
X149606Y-31496D02*
D03*
X137795D02*
D03*
X149606Y-19685D02*
D03*
X137795D02*
D03*
X149606Y53150D02*
D03*
X137795D02*
D03*
X149606Y66929D02*
D03*
X137795D02*
D03*
X149606Y127953D02*
D03*
X137795D02*
D03*
X149606Y141732D02*
D03*
X137795D02*
D03*
X149606Y228346D02*
D03*
X137795D02*
D03*
X149606Y242126D02*
D03*
X137795D02*
D03*
D33*
X417500Y60500D02*
D03*
X417000Y158000D02*
D03*
X410000Y200000D02*
D03*
Y265000D02*
D03*
X425000D02*
D03*
X442500D02*
D03*
X457500D02*
D03*
X472500D02*
D03*
X487500D02*
D03*
X502500D02*
D03*
X517500D02*
D03*
X532500D02*
D03*
X547500D02*
D03*
X562500D02*
D03*
X577500D02*
D03*
X592500D02*
D03*
X607500D02*
D03*
X622500D02*
D03*
X637500D02*
D03*
X652500D02*
D03*
X667500D02*
D03*
Y200000D02*
D03*
X652500D02*
D03*
X637500D02*
D03*
X622500D02*
D03*
X607500D02*
D03*
X592500D02*
D03*
X577500D02*
D03*
X562500D02*
D03*
X547500D02*
D03*
X532500D02*
D03*
X517500D02*
D03*
X502500D02*
D03*
X487500D02*
D03*
X472500D02*
D03*
X457500D02*
D03*
X442500D02*
D03*
X425000D02*
D03*
X665000Y-45000D02*
D03*
X650000D02*
D03*
X635000D02*
D03*
X620000D02*
D03*
X605000D02*
D03*
X590000D02*
D03*
X575000D02*
D03*
X560000D02*
D03*
X545000D02*
D03*
X530000D02*
D03*
X515000D02*
D03*
X500000D02*
D03*
X485000D02*
D03*
X470000D02*
D03*
X455000D02*
D03*
X440000D02*
D03*
X425000D02*
D03*
X410000D02*
D03*
X665000Y20000D02*
D03*
X650000D02*
D03*
X635000D02*
D03*
X620000D02*
D03*
X605000D02*
D03*
X590000D02*
D03*
X575000D02*
D03*
X560000D02*
D03*
X545000D02*
D03*
X530000D02*
D03*
X515000D02*
D03*
X500000D02*
D03*
X470000D02*
D03*
X410000D02*
D03*
X425000D02*
D03*
X440000D02*
D03*
X485000D02*
D03*
X455000D02*
D03*
D34*
X210000Y-27500D02*
D03*
X215000Y247500D02*
D03*
X210000Y231500D02*
D03*
X215000Y147500D02*
D03*
X210000Y131000D02*
D03*
X217500Y70000D02*
D03*
X210000Y57500D02*
D03*
X217500Y-15000D02*
D03*
D35*
X131200Y106800D02*
D03*
Y115300D02*
D03*
X93200Y63600D02*
D03*
Y72100D02*
D03*
X122047Y115205D02*
D03*
Y106705D02*
D03*
D36*
X83220Y94882D02*
D03*
X91720D02*
D03*
D37*
X414450Y52000D02*
D03*
X420550D02*
D03*
X413950Y150000D02*
D03*
X420050D02*
D03*
D38*
X413858Y57902D02*
D03*
Y63098D02*
D03*
Y60500D02*
D03*
X421142Y57902D02*
D03*
Y60500D02*
D03*
Y63098D02*
D03*
X413358Y155402D02*
D03*
Y160599D02*
D03*
Y158000D02*
D03*
X420642Y155402D02*
D03*
Y158000D02*
D03*
Y160599D02*
D03*
D39*
X417500Y60500D02*
D03*
X417000Y158000D02*
D03*
M02*
