%FSLAX25Y25*%
%MOIN*%
G70*
G01*
G75*
G04 Layer_Color=2752767*
%ADD10R,0.33858X0.42126*%
%ADD11R,0.14173X0.04528*%
%ADD12R,0.03661X0.03661*%
%ADD13R,0.03500X0.03400*%
%ADD14R,0.03661X0.03661*%
%ADD15R,0.02200X0.06700*%
%ADD16R,0.02178X0.03937*%
%ADD17R,0.03200X0.03000*%
%ADD18C,0.01000*%
%ADD19C,0.04000*%
%ADD20C,0.02000*%
%ADD21C,0.03937*%
%ADD22C,0.06000*%
%ADD23C,0.04724*%
%ADD24R,0.04724X0.04724*%
%ADD25R,0.06000X0.06000*%
%ADD26P,0.06061X8X112.5*%
%ADD27P,0.06605X8X292.5*%
%ADD28P,0.17046X8X112.5*%
%ADD29C,0.07677*%
%ADD30P,0.17046X8X202.5*%
%ADD31P,0.07144X8X292.5*%
%ADD32C,0.05000*%
%ADD33C,0.02000*%
%ADD34C,0.04000*%
%ADD35R,0.07874X0.08661*%
%ADD36R,0.08661X0.07874*%
%ADD37R,0.03400X0.03500*%
%ADD38R,0.01772X0.01575*%
%ADD39R,0.04409X0.06772*%
%ADD40C,0.00984*%
%ADD41C,0.00600*%
%ADD42C,0.00787*%
%ADD43C,0.00500*%
%ADD44C,0.00800*%
%ADD45C,0.00400*%
%ADD46C,0.02800*%
%ADD47C,0.01500*%
%ADD48R,0.02000X0.02000*%
%ADD49R,0.34658X0.42926*%
%ADD50R,0.14973X0.05328*%
%ADD51R,0.04461X0.04461*%
%ADD52R,0.04461X0.04461*%
%ADD53R,0.03000X0.07500*%
%ADD54C,0.06800*%
%ADD55C,0.05524*%
%ADD56R,0.05524X0.05524*%
%ADD57P,0.06927X8X112.5*%
%ADD58P,0.07471X8X292.5*%
%ADD59P,0.17912X8X112.5*%
%ADD60C,0.08477*%
%ADD61P,0.17912X8X202.5*%
%ADD62P,0.08010X8X292.5*%
%ADD63C,0.05800*%
%ADD64C,0.02800*%
%ADD65R,0.02572X0.02375*%
%ADD66R,0.05209X0.07572*%
%ADD67C,0.04800*%
%ADD68C,0.00000*%
%ADD69C,0.00197*%
%ADD70C,0.00100*%
%ADD71C,0.00667*%
D43*
X617685Y127528D02*
Y131528D01*
X621685D01*
Y127528D01*
X617685D01*
X657449Y187961D02*
Y191961D01*
X661449D01*
Y187961D01*
X657449D01*
X627921D02*
Y191961D01*
X631921D01*
Y187961D01*
X627921D01*
X598394Y188945D02*
Y192945D01*
X602394D01*
Y188945D01*
X598394D01*
X567882D02*
Y192945D01*
X571882D01*
Y188945D01*
X567882D01*
X537370D02*
Y192945D01*
X541370D01*
Y188945D01*
X537370D01*
X507842D02*
Y192945D01*
X511842D01*
Y188945D01*
X507842D01*
X477331D02*
Y192945D01*
X481331D01*
Y188945D01*
X477331D01*
X447803D02*
Y192945D01*
X451803D01*
Y188945D01*
X447803D01*
X415323D02*
Y192945D01*
X419323D01*
Y188945D01*
X415323D01*
X655480Y28512D02*
Y32512D01*
X659480D01*
Y28512D01*
X655480D01*
X624968D02*
Y32512D01*
X628968D01*
Y28512D01*
X624968D01*
X595441Y29496D02*
Y33496D01*
X599441D01*
Y29496D01*
X595441D01*
X564929D02*
Y33496D01*
X568929D01*
Y29496D01*
X564929D01*
X536386D02*
Y33496D01*
X540386D01*
Y29496D01*
X536386D01*
X504890D02*
Y33496D01*
X508890D01*
Y29496D01*
X504890D01*
X475362Y30138D02*
Y34138D01*
X479362D01*
Y30138D01*
X475362D01*
X444850Y30480D02*
Y34480D01*
X448850D01*
Y30480D01*
X444850D01*
X415323D02*
Y34480D01*
X419323D01*
Y30480D01*
X415323D01*
X619138Y101862D02*
X617138Y105862D01*
X621138D01*
X619138Y101862D01*
X110385Y8100D02*
X111385Y9100D01*
X112385D01*
X111385Y10100D01*
X112385Y11100D01*
X111385D01*
X110385Y12100D01*
X109385Y11100D01*
X108385D01*
X109385Y10100D01*
X108385Y9100D01*
X109385D01*
X110385Y8100D01*
X120385D02*
X121385Y9100D01*
X122385D01*
X121385Y10100D01*
X122385Y11100D01*
X121385D01*
X120385Y12100D01*
X119385Y11100D01*
X118385D01*
X119385Y10100D01*
X118385Y9100D01*
X119385D01*
X120385Y8100D01*
X130385D02*
X131385Y9100D01*
X132385D01*
X131385Y10100D01*
X132385Y11100D01*
X131385D01*
X130385Y12100D01*
X129385Y11100D01*
X128385D01*
X129385Y10100D01*
X128385Y9100D01*
X129385D01*
X130385Y8100D01*
X140385D02*
X141385Y9100D01*
X142385D01*
X141385Y10100D01*
X142385Y11100D01*
X141385D01*
X140385Y12100D01*
X139385Y11100D01*
X138385D01*
X139385Y10100D01*
X138385Y9100D01*
X139385D01*
X140385Y8100D01*
X150385D02*
X151385Y9100D01*
X152385D01*
X151385Y10100D01*
X152385Y11100D01*
X151385D01*
X150385Y12100D01*
X149385Y11100D01*
X148385D01*
X149385Y10100D01*
X148385Y9100D01*
X149385D01*
X150385Y8100D01*
X160385D02*
X161385Y9100D01*
X162385D01*
X161385Y10100D01*
X162385Y11100D01*
X161385D01*
X160385Y12100D01*
X159385Y11100D01*
X158385D01*
X159385Y10100D01*
X158385Y9100D01*
X159385D01*
X160385Y8100D01*
X170385D02*
X171385Y9100D01*
X172385D01*
X171385Y10100D01*
X172385Y11100D01*
X171385D01*
X170385Y12100D01*
X169385Y11100D01*
X168385D01*
X169385Y10100D01*
X168385Y9100D01*
X169385D01*
X170385Y8100D01*
X180385D02*
X181385Y9100D01*
X182385D01*
X181385Y10100D01*
X182385Y11100D01*
X181385D01*
X180385Y12100D01*
X179385Y11100D01*
X178385D01*
X179385Y10100D01*
X178385Y9100D01*
X179385D01*
X180385Y8100D01*
X74385Y198100D02*
X75385Y199100D01*
X76385D01*
X75385Y200100D01*
X76385Y201100D01*
X75385D01*
X74385Y202100D01*
X73385Y201100D01*
X72385D01*
X73385Y200100D01*
X72385Y199100D01*
X73385D01*
X74385Y198100D01*
X84385D02*
X85385Y199100D01*
X86385D01*
X85385Y200100D01*
X86385Y201100D01*
X85385D01*
X84385Y202100D01*
X83385Y201100D01*
X82385D01*
X83385Y200100D01*
X82385Y199100D01*
X83385D01*
X84385Y198100D01*
X94385D02*
X95385Y199100D01*
X96385D01*
X95385Y200100D01*
X96385Y201100D01*
X95385D01*
X94385Y202100D01*
X93385Y201100D01*
X92385D01*
X93385Y200100D01*
X92385Y199100D01*
X93385D01*
X94385Y198100D01*
X104385D02*
X105385Y199100D01*
X106385D01*
X105385Y200100D01*
X106385Y201100D01*
X105385D01*
X104385Y202100D01*
X103385Y201100D01*
X102385D01*
X103385Y200100D01*
X102385Y199100D01*
X103385D01*
X104385Y198100D01*
X114385D02*
X115385Y199100D01*
X116385D01*
X115385Y200100D01*
X116385Y201100D01*
X115385D01*
X114385Y202100D01*
X113385Y201100D01*
X112385D01*
X113385Y200100D01*
X112385Y199100D01*
X113385D01*
X114385Y198100D01*
X124385D02*
X125385Y199100D01*
X126385D01*
X125385Y200100D01*
X126385Y201100D01*
X125385D01*
X124385Y202100D01*
X123385Y201100D01*
X122385D01*
X123385Y200100D01*
X122385Y199100D01*
X123385D01*
X124385Y198100D01*
X134385D02*
X135385Y199100D01*
X136385D01*
X135385Y200100D01*
X136385Y201100D01*
X135385D01*
X134385Y202100D01*
X133385Y201100D01*
X132385D01*
X133385Y200100D01*
X132385Y199100D01*
X133385D01*
X134385Y198100D01*
X144385D02*
X145385Y199100D01*
X146385D01*
X145385Y200100D01*
X146385Y201100D01*
X145385D01*
X144385Y202100D01*
X143385Y201100D01*
X142385D01*
X143385Y200100D01*
X142385Y199100D01*
X143385D01*
X144385Y198100D01*
X154385D02*
X155385Y199100D01*
X156385D01*
X155385Y200100D01*
X156385Y201100D01*
X155385D01*
X154385Y202100D01*
X153385Y201100D01*
X152385D01*
X153385Y200100D01*
X152385Y199100D01*
X153385D01*
X154385Y198100D01*
X164385D02*
X165385Y199100D01*
X166385D01*
X165385Y200100D01*
X166385Y201100D01*
X165385D01*
X164385Y202100D01*
X163385Y201100D01*
X162385D01*
X163385Y200100D01*
X162385Y199100D01*
X163385D01*
X164385Y198100D01*
X248885Y98100D02*
X249885Y100100D01*
X248885Y102100D01*
X250885Y101100D01*
X252885Y102100D01*
X251885Y100100D01*
X252885Y98100D01*
X250885Y99100D01*
X248885Y98100D01*
Y108100D02*
X249885Y110100D01*
X248885Y112100D01*
X250885Y111100D01*
X252885Y112100D01*
X251885Y110100D01*
X252885Y108100D01*
X250885Y109100D01*
X248885Y108100D01*
Y118100D02*
X249885Y120100D01*
X248885Y122100D01*
X250885Y121100D01*
X252885Y122100D01*
X251885Y120100D01*
X252885Y118100D01*
X250885Y119100D01*
X248885Y118100D01*
X258885Y108100D02*
X259885Y110100D01*
X258885Y112100D01*
X260885Y111100D01*
X262885Y112100D01*
X261885Y110100D01*
X262885Y108100D01*
X260885Y109100D01*
X258885Y108100D01*
Y98100D02*
X259885Y100100D01*
X258885Y102100D01*
X260885Y101100D01*
X262885Y102100D01*
X261885Y100100D01*
X262885Y98100D01*
X260885Y99100D01*
X258885Y98100D01*
Y118100D02*
X259885Y120100D01*
X258885Y122100D01*
X260885Y121100D01*
X262885Y122100D01*
X261885Y120100D01*
X262885Y118100D01*
X260885Y119100D01*
X258885Y118100D01*
X80400Y93700D02*
Y92700D01*
X82400D01*
Y93700D01*
X83400D01*
Y95700D01*
X82400D01*
Y96700D01*
X80400D01*
Y95700D01*
X79400D01*
Y93700D01*
X80400D01*
Y90700D02*
Y89700D01*
X82400D01*
Y90700D01*
X83400D01*
Y92700D01*
X82400D01*
Y93700D01*
X80400D01*
Y92700D01*
X79400D01*
Y90700D01*
X80400D01*
Y96700D02*
Y95700D01*
X82400D01*
Y96700D01*
X83400D01*
Y98700D01*
X82400D01*
Y99700D01*
X80400D01*
Y98700D01*
X79400D01*
Y96700D01*
X80400D01*
X95200Y74000D02*
Y73000D01*
X97200D01*
Y74000D01*
X98200D01*
Y76000D01*
X97200D01*
Y77000D01*
X95200D01*
Y76000D01*
X94200D01*
Y74000D01*
X95200D01*
X89200D02*
Y73000D01*
X91200D01*
Y74000D01*
X92200D01*
Y76000D01*
X91200D01*
Y77000D01*
X89200D01*
Y76000D01*
X88200D01*
Y74000D01*
X89200D01*
X92200D02*
Y73000D01*
X94200D01*
Y74000D01*
X95200D01*
Y76000D01*
X94200D01*
Y77000D01*
X92200D01*
Y76000D01*
X91200D01*
Y74000D01*
X92200D01*
X104000Y90700D02*
Y89700D01*
X106000D01*
Y90700D01*
X107000D01*
Y92700D01*
X106000D01*
Y93700D01*
X104000D01*
Y92700D01*
X103000D01*
Y90700D01*
X104000D01*
Y93700D02*
Y92700D01*
X106000D01*
Y93700D01*
X107000D01*
Y95700D01*
X106000D01*
Y96700D01*
X104000D01*
Y95700D01*
X103000D01*
Y93700D01*
X104000D01*
Y96700D02*
Y95700D01*
X106000D01*
Y96700D01*
X107000D01*
Y98700D01*
X106000D01*
Y99700D01*
X104000D01*
Y98700D01*
X103000D01*
Y96700D01*
X104000D01*
X368385Y38100D02*
X369385Y40100D01*
X368385Y42100D01*
X370385Y41100D01*
X372385Y42100D01*
X371385Y40100D01*
X372385Y38100D01*
X370385Y39100D01*
X368385Y38100D01*
Y28100D02*
X369385Y30100D01*
X368385Y32100D01*
X370385Y31100D01*
X372385Y32100D01*
X371385Y30100D01*
X372385Y28100D01*
X370385Y29100D01*
X368385Y28100D01*
Y68100D02*
X369385Y70100D01*
X368385Y72100D01*
X370385Y71100D01*
X372385Y72100D01*
X371385Y70100D01*
X372385Y68100D01*
X370385Y69100D01*
X368385Y68100D01*
Y48100D02*
X369385Y50100D01*
X368385Y52100D01*
X370385Y51100D01*
X372385Y52100D01*
X371385Y50100D01*
X372385Y48100D01*
X370385Y49100D01*
X368385Y48100D01*
Y58100D02*
X369385Y60100D01*
X368385Y62100D01*
X370385Y61100D01*
X372385Y62100D01*
X371385Y60100D01*
X372385Y58100D01*
X370385Y59100D01*
X368385Y58100D01*
Y78100D02*
X369385Y80100D01*
X368385Y82100D01*
X370385Y81100D01*
X372385Y82100D01*
X371385Y80100D01*
X372385Y78100D01*
X370385Y79100D01*
X368385Y78100D01*
Y88100D02*
X369385Y90100D01*
X368385Y92100D01*
X370385Y91100D01*
X372385Y92100D01*
X371385Y90100D01*
X372385Y88100D01*
X370385Y89100D01*
X368385Y88100D01*
Y98100D02*
X369385Y100100D01*
X368385Y102100D01*
X370385Y101100D01*
X372385Y102100D01*
X371385Y100100D01*
X372385Y98100D01*
X370385Y99100D01*
X368385Y98100D01*
Y108100D02*
X369385Y110100D01*
X368385Y112100D01*
X370385Y111100D01*
X372385Y112100D01*
X371385Y110100D01*
X372385Y108100D01*
X370385Y109100D01*
X368385Y108100D01*
Y118100D02*
X369385Y120100D01*
X368385Y122100D01*
X370385Y121100D01*
X372385Y122100D01*
X371385Y120100D01*
X372385Y118100D01*
X370385Y119100D01*
X368385Y118100D01*
Y128100D02*
X369385Y130100D01*
X368385Y132100D01*
X370385Y131100D01*
X372385Y132100D01*
X371385Y130100D01*
X372385Y128100D01*
X370385Y129100D01*
X368385Y128100D01*
Y138100D02*
X369385Y140100D01*
X368385Y142100D01*
X370385Y141100D01*
X372385Y142100D01*
X371385Y140100D01*
X372385Y138100D01*
X370385Y139100D01*
X368385Y138100D01*
Y148100D02*
X369385Y150100D01*
X368385Y152100D01*
X370385Y151100D01*
X372385Y152100D01*
X371385Y150100D01*
X372385Y148100D01*
X370385Y149100D01*
X368385Y148100D01*
Y178100D02*
X369385Y180100D01*
X368385Y182100D01*
X370385Y181100D01*
X372385Y182100D01*
X371385Y180100D01*
X372385Y178100D01*
X370385Y179100D01*
X368385Y178100D01*
Y158100D02*
X369385Y160100D01*
X368385Y162100D01*
X370385Y161100D01*
X372385Y162100D01*
X371385Y160100D01*
X372385Y158100D01*
X370385Y159100D01*
X368385Y158100D01*
Y168100D02*
X369385Y170100D01*
X368385Y172100D01*
X370385Y171100D01*
X372385Y172100D01*
X371385Y170100D01*
X372385Y168100D01*
X370385Y169100D01*
X368385Y168100D01*
Y188100D02*
X369385Y190100D01*
X368385Y192100D01*
X370385Y191100D01*
X372385Y192100D01*
X371385Y190100D01*
X372385Y188100D01*
X370385Y189100D01*
X368385Y188100D01*
Y198100D02*
X369385Y200100D01*
X368385Y202100D01*
X370385Y201100D01*
X372385Y202100D01*
X371385Y200100D01*
X372385Y198100D01*
X370385Y199100D01*
X368385Y198100D01*
X378385Y28100D02*
X379385Y30100D01*
X378385Y32100D01*
X380385Y31100D01*
X382385Y32100D01*
X381385Y30100D01*
X382385Y28100D01*
X380385Y29100D01*
X378385Y28100D01*
Y38100D02*
X379385Y40100D01*
X378385Y42100D01*
X380385Y41100D01*
X382385Y42100D01*
X381385Y40100D01*
X382385Y38100D01*
X380385Y39100D01*
X378385Y38100D01*
Y48100D02*
X379385Y50100D01*
X378385Y52100D01*
X380385Y51100D01*
X382385Y52100D01*
X381385Y50100D01*
X382385Y48100D01*
X380385Y49100D01*
X378385Y48100D01*
Y58100D02*
X379385Y60100D01*
X378385Y62100D01*
X380385Y61100D01*
X382385Y62100D01*
X381385Y60100D01*
X382385Y58100D01*
X380385Y59100D01*
X378385Y58100D01*
Y78100D02*
X379385Y80100D01*
X378385Y82100D01*
X380385Y81100D01*
X382385Y82100D01*
X381385Y80100D01*
X382385Y78100D01*
X380385Y79100D01*
X378385Y78100D01*
Y88100D02*
X379385Y90100D01*
X378385Y92100D01*
X380385Y91100D01*
X382385Y92100D01*
X381385Y90100D01*
X382385Y88100D01*
X380385Y89100D01*
X378385Y88100D01*
Y108100D02*
X379385Y110100D01*
X378385Y112100D01*
X380385Y111100D01*
X382385Y112100D01*
X381385Y110100D01*
X382385Y108100D01*
X380385Y109100D01*
X378385Y108100D01*
Y68100D02*
X379385Y70100D01*
X378385Y72100D01*
X380385Y71100D01*
X382385Y72100D01*
X381385Y70100D01*
X382385Y68100D01*
X380385Y69100D01*
X378385Y68100D01*
Y98100D02*
X379385Y100100D01*
X378385Y102100D01*
X380385Y101100D01*
X382385Y102100D01*
X381385Y100100D01*
X382385Y98100D01*
X380385Y99100D01*
X378385Y98100D01*
Y118100D02*
X379385Y120100D01*
X378385Y122100D01*
X380385Y121100D01*
X382385Y122100D01*
X381385Y120100D01*
X382385Y118100D01*
X380385Y119100D01*
X378385Y118100D01*
Y128100D02*
X379385Y130100D01*
X378385Y132100D01*
X380385Y131100D01*
X382385Y132100D01*
X381385Y130100D01*
X382385Y128100D01*
X380385Y129100D01*
X378385Y128100D01*
Y138100D02*
X379385Y140100D01*
X378385Y142100D01*
X380385Y141100D01*
X382385Y142100D01*
X381385Y140100D01*
X382385Y138100D01*
X380385Y139100D01*
X378385Y138100D01*
Y148100D02*
X379385Y150100D01*
X378385Y152100D01*
X380385Y151100D01*
X382385Y152100D01*
X381385Y150100D01*
X382385Y148100D01*
X380385Y149100D01*
X378385Y148100D01*
Y158100D02*
X379385Y160100D01*
X378385Y162100D01*
X380385Y161100D01*
X382385Y162100D01*
X381385Y160100D01*
X382385Y158100D01*
X380385Y159100D01*
X378385Y158100D01*
Y168100D02*
X379385Y170100D01*
X378385Y172100D01*
X380385Y171100D01*
X382385Y172100D01*
X381385Y170100D01*
X382385Y168100D01*
X380385Y169100D01*
X378385Y168100D01*
Y198100D02*
X379385Y200100D01*
X378385Y202100D01*
X380385Y201100D01*
X382385Y202100D01*
X381385Y200100D01*
X382385Y198100D01*
X380385Y199100D01*
X378385Y198100D01*
Y178100D02*
X379385Y180100D01*
X378385Y182100D01*
X380385Y181100D01*
X382385Y182100D01*
X381385Y180100D01*
X382385Y178100D01*
X380385Y179100D01*
X378385Y178100D01*
Y188100D02*
X379385Y190100D01*
X378385Y192100D01*
X380385Y191100D01*
X382385Y192100D01*
X381385Y190100D01*
X382385Y188100D01*
X380385Y189100D01*
X378385Y188100D01*
X147606Y-33496D02*
X148606D01*
X149606Y-32496D01*
X150606Y-33496D01*
X151606D01*
Y-32496D01*
X150606Y-31496D01*
X151606Y-30496D01*
Y-29496D01*
X150606D01*
X149606Y-30496D01*
X148606Y-29496D01*
X147606D01*
Y-30496D01*
X148606Y-31496D01*
X147606Y-32496D01*
Y-33496D01*
X135795D02*
X136795D01*
X137795Y-32496D01*
X138795Y-33496D01*
X139795D01*
Y-32496D01*
X138795Y-31496D01*
X139795Y-30496D01*
Y-29496D01*
X138795D01*
X137795Y-30496D01*
X136795Y-29496D01*
X135795D01*
Y-30496D01*
X136795Y-31496D01*
X135795Y-32496D01*
Y-33496D01*
X147606Y-21685D02*
X148606D01*
X149606Y-20685D01*
X150606Y-21685D01*
X151606D01*
Y-20685D01*
X150606Y-19685D01*
X151606Y-18685D01*
Y-17685D01*
X150606D01*
X149606Y-18685D01*
X148606Y-17685D01*
X147606D01*
Y-18685D01*
X148606Y-19685D01*
X147606Y-20685D01*
Y-21685D01*
X135795D02*
X136795D01*
X137795Y-20685D01*
X138795Y-21685D01*
X139795D01*
Y-20685D01*
X138795Y-19685D01*
X139795Y-18685D01*
Y-17685D01*
X138795D01*
X137795Y-18685D01*
X136795Y-17685D01*
X135795D01*
Y-18685D01*
X136795Y-19685D01*
X135795Y-20685D01*
Y-21685D01*
X147606Y51150D02*
X148606D01*
X149606Y52150D01*
X150606Y51150D01*
X151606D01*
Y52150D01*
X150606Y53150D01*
X151606Y54150D01*
Y55150D01*
X150606D01*
X149606Y54150D01*
X148606Y55150D01*
X147606D01*
Y54150D01*
X148606Y53150D01*
X147606Y52150D01*
Y51150D01*
X135795D02*
X136795D01*
X137795Y52150D01*
X138795Y51150D01*
X139795D01*
Y52150D01*
X138795Y53150D01*
X139795Y54150D01*
Y55150D01*
X138795D01*
X137795Y54150D01*
X136795Y55150D01*
X135795D01*
Y54150D01*
X136795Y53150D01*
X135795Y52150D01*
Y51150D01*
X147606Y64929D02*
X148606D01*
X149606Y65929D01*
X150606Y64929D01*
X151606D01*
Y65929D01*
X150606Y66929D01*
X151606Y67929D01*
Y68929D01*
X150606D01*
X149606Y67929D01*
X148606Y68929D01*
X147606D01*
Y67929D01*
X148606Y66929D01*
X147606Y65929D01*
Y64929D01*
X135795D02*
X136795D01*
X137795Y65929D01*
X138795Y64929D01*
X139795D01*
Y65929D01*
X138795Y66929D01*
X139795Y67929D01*
Y68929D01*
X138795D01*
X137795Y67929D01*
X136795Y68929D01*
X135795D01*
Y67929D01*
X136795Y66929D01*
X135795Y65929D01*
Y64929D01*
X147606Y125953D02*
X148606D01*
X149606Y126953D01*
X150606Y125953D01*
X151606D01*
Y126953D01*
X150606Y127953D01*
X151606Y128953D01*
Y129953D01*
X150606D01*
X149606Y128953D01*
X148606Y129953D01*
X147606D01*
Y128953D01*
X148606Y127953D01*
X147606Y126953D01*
Y125953D01*
X135795D02*
X136795D01*
X137795Y126953D01*
X138795Y125953D01*
X139795D01*
Y126953D01*
X138795Y127953D01*
X139795Y128953D01*
Y129953D01*
X138795D01*
X137795Y128953D01*
X136795Y129953D01*
X135795D01*
Y128953D01*
X136795Y127953D01*
X135795Y126953D01*
Y125953D01*
X147606Y139732D02*
X148606D01*
X149606Y140732D01*
X150606Y139732D01*
X151606D01*
Y140732D01*
X150606Y141732D01*
X151606Y142732D01*
Y143732D01*
X150606D01*
X149606Y142732D01*
X148606Y143732D01*
X147606D01*
Y142732D01*
X148606Y141732D01*
X147606Y140732D01*
Y139732D01*
X135795D02*
X136795D01*
X137795Y140732D01*
X138795Y139732D01*
X139795D01*
Y140732D01*
X138795Y141732D01*
X139795Y142732D01*
Y143732D01*
X138795D01*
X137795Y142732D01*
X136795Y143732D01*
X135795D01*
Y142732D01*
X136795Y141732D01*
X135795Y140732D01*
Y139732D01*
X147606Y226346D02*
X148606D01*
X149606Y227346D01*
X150606Y226346D01*
X151606D01*
Y227346D01*
X150606Y228346D01*
X151606Y229346D01*
Y230346D01*
X150606D01*
X149606Y229346D01*
X148606Y230346D01*
X147606D01*
Y229346D01*
X148606Y228346D01*
X147606Y227346D01*
Y226346D01*
X135795D02*
X136795D01*
X137795Y227346D01*
X138795Y226346D01*
X139795D01*
Y227346D01*
X138795Y228346D01*
X139795Y229346D01*
Y230346D01*
X138795D01*
X137795Y229346D01*
X136795Y230346D01*
X135795D01*
Y229346D01*
X136795Y228346D01*
X135795Y227346D01*
Y226346D01*
X147606Y240126D02*
X148606D01*
X149606Y241126D01*
X150606Y240126D01*
X151606D01*
Y241126D01*
X150606Y242126D01*
X151606Y243126D01*
Y244126D01*
X150606D01*
X149606Y243126D01*
X148606Y244126D01*
X147606D01*
Y243126D01*
X148606Y242126D01*
X147606Y241126D01*
Y240126D01*
X135795D02*
X136795D01*
X137795Y241126D01*
X138795Y240126D01*
X139795D01*
Y241126D01*
X138795Y242126D01*
X139795Y243126D01*
Y244126D01*
X138795D01*
X137795Y243126D01*
X136795Y244126D01*
X135795D01*
Y243126D01*
X136795Y242126D01*
X135795Y241126D01*
Y240126D01*
X415500Y60500D02*
X417500Y62500D01*
X419500Y60500D01*
X417500Y58500D01*
X415500Y60500D01*
X415000Y158000D02*
X417000Y160000D01*
X419000Y158000D01*
X417000Y156000D01*
X415000Y158000D01*
X408000Y200000D02*
X410000Y202000D01*
X412000Y200000D01*
X410000Y198000D01*
X408000Y200000D01*
X208000Y-29500D02*
Y-25500D01*
X212000D01*
Y-29500D01*
X208000D01*
X208800Y-28700D02*
Y-26300D01*
X211200D01*
Y-28700D01*
X208800D01*
X213000Y245500D02*
Y249500D01*
X217000D01*
Y245500D01*
X213000D01*
X213800Y246300D02*
Y248700D01*
X216200D01*
Y246300D01*
X213800D01*
X208000Y229500D02*
Y233500D01*
X212000D01*
Y229500D01*
X208000D01*
X208800Y230300D02*
Y232700D01*
X211200D01*
Y230300D01*
X208800D01*
X213000Y145500D02*
Y149500D01*
X217000D01*
Y145500D01*
X213000D01*
X213800Y146300D02*
Y148700D01*
X216200D01*
Y146300D01*
X213800D01*
X208000Y129000D02*
Y133000D01*
X212000D01*
Y129000D01*
X208000D01*
X208800Y129800D02*
Y132200D01*
X211200D01*
Y129800D01*
X208800D01*
X215500Y68000D02*
Y72000D01*
X219500D01*
Y68000D01*
X215500D01*
X216300Y68800D02*
Y71200D01*
X218700D01*
Y68800D01*
X216300D01*
X208000Y55500D02*
Y59500D01*
X212000D01*
Y55500D01*
X208000D01*
X208800Y56300D02*
Y58700D01*
X211200D01*
Y56300D01*
X208800D01*
X215500Y-17000D02*
Y-13000D01*
X219500D01*
Y-17000D01*
X215500D01*
X216300Y-16200D02*
Y-13800D01*
X218700D01*
Y-16200D01*
X216300D01*
X408000Y265000D02*
X410000Y267000D01*
X412000Y265000D01*
X410000Y263000D01*
X408000Y265000D01*
X423000D02*
X425000Y267000D01*
X427000Y265000D01*
X425000Y263000D01*
X423000Y265000D01*
X440500D02*
X442500Y267000D01*
X444500Y265000D01*
X442500Y263000D01*
X440500Y265000D01*
X455500D02*
X457500Y267000D01*
X459500Y265000D01*
X457500Y263000D01*
X455500Y265000D01*
X470500D02*
X472500Y267000D01*
X474500Y265000D01*
X472500Y263000D01*
X470500Y265000D01*
X485500D02*
X487500Y267000D01*
X489500Y265000D01*
X487500Y263000D01*
X485500Y265000D01*
X500500D02*
X502500Y267000D01*
X504500Y265000D01*
X502500Y263000D01*
X500500Y265000D01*
X515500D02*
X517500Y267000D01*
X519500Y265000D01*
X517500Y263000D01*
X515500Y265000D01*
X530500D02*
X532500Y267000D01*
X534500Y265000D01*
X532500Y263000D01*
X530500Y265000D01*
X545500D02*
X547500Y267000D01*
X549500Y265000D01*
X547500Y263000D01*
X545500Y265000D01*
X560500D02*
X562500Y267000D01*
X564500Y265000D01*
X562500Y263000D01*
X560500Y265000D01*
X575500D02*
X577500Y267000D01*
X579500Y265000D01*
X577500Y263000D01*
X575500Y265000D01*
X590500D02*
X592500Y267000D01*
X594500Y265000D01*
X592500Y263000D01*
X590500Y265000D01*
X605500D02*
X607500Y267000D01*
X609500Y265000D01*
X607500Y263000D01*
X605500Y265000D01*
X620500D02*
X622500Y267000D01*
X624500Y265000D01*
X622500Y263000D01*
X620500Y265000D01*
X635500D02*
X637500Y267000D01*
X639500Y265000D01*
X637500Y263000D01*
X635500Y265000D01*
X650500D02*
X652500Y267000D01*
X654500Y265000D01*
X652500Y263000D01*
X650500Y265000D01*
X665500D02*
X667500Y267000D01*
X669500Y265000D01*
X667500Y263000D01*
X665500Y265000D01*
Y200000D02*
X667500Y202000D01*
X669500Y200000D01*
X667500Y198000D01*
X665500Y200000D01*
X650500D02*
X652500Y202000D01*
X654500Y200000D01*
X652500Y198000D01*
X650500Y200000D01*
X635500D02*
X637500Y202000D01*
X639500Y200000D01*
X637500Y198000D01*
X635500Y200000D01*
X620500D02*
X622500Y202000D01*
X624500Y200000D01*
X622500Y198000D01*
X620500Y200000D01*
X605500D02*
X607500Y202000D01*
X609500Y200000D01*
X607500Y198000D01*
X605500Y200000D01*
X590500D02*
X592500Y202000D01*
X594500Y200000D01*
X592500Y198000D01*
X590500Y200000D01*
X575500D02*
X577500Y202000D01*
X579500Y200000D01*
X577500Y198000D01*
X575500Y200000D01*
X560500D02*
X562500Y202000D01*
X564500Y200000D01*
X562500Y198000D01*
X560500Y200000D01*
X545500D02*
X547500Y202000D01*
X549500Y200000D01*
X547500Y198000D01*
X545500Y200000D01*
X530500D02*
X532500Y202000D01*
X534500Y200000D01*
X532500Y198000D01*
X530500Y200000D01*
X515500D02*
X517500Y202000D01*
X519500Y200000D01*
X517500Y198000D01*
X515500Y200000D01*
X500500D02*
X502500Y202000D01*
X504500Y200000D01*
X502500Y198000D01*
X500500Y200000D01*
X485500D02*
X487500Y202000D01*
X489500Y200000D01*
X487500Y198000D01*
X485500Y200000D01*
X470500D02*
X472500Y202000D01*
X474500Y200000D01*
X472500Y198000D01*
X470500Y200000D01*
X455500D02*
X457500Y202000D01*
X459500Y200000D01*
X457500Y198000D01*
X455500Y200000D01*
X440500D02*
X442500Y202000D01*
X444500Y200000D01*
X442500Y198000D01*
X440500Y200000D01*
X423000D02*
X425000Y202000D01*
X427000Y200000D01*
X425000Y198000D01*
X423000Y200000D01*
X663000Y-45000D02*
X665000Y-43000D01*
X667000Y-45000D01*
X665000Y-47000D01*
X663000Y-45000D01*
X648000D02*
X650000Y-43000D01*
X652000Y-45000D01*
X650000Y-47000D01*
X648000Y-45000D01*
X633000D02*
X635000Y-43000D01*
X637000Y-45000D01*
X635000Y-47000D01*
X633000Y-45000D01*
X618000D02*
X620000Y-43000D01*
X622000Y-45000D01*
X620000Y-47000D01*
X618000Y-45000D01*
X603000D02*
X605000Y-43000D01*
X607000Y-45000D01*
X605000Y-47000D01*
X603000Y-45000D01*
X588000D02*
X590000Y-43000D01*
X592000Y-45000D01*
X590000Y-47000D01*
X588000Y-45000D01*
X573000D02*
X575000Y-43000D01*
X577000Y-45000D01*
X575000Y-47000D01*
X573000Y-45000D01*
X558000D02*
X560000Y-43000D01*
X562000Y-45000D01*
X560000Y-47000D01*
X558000Y-45000D01*
X543000D02*
X545000Y-43000D01*
X547000Y-45000D01*
X545000Y-47000D01*
X543000Y-45000D01*
X528000D02*
X530000Y-43000D01*
X532000Y-45000D01*
X530000Y-47000D01*
X528000Y-45000D01*
X513000D02*
X515000Y-43000D01*
X517000Y-45000D01*
X515000Y-47000D01*
X513000Y-45000D01*
X498000D02*
X500000Y-43000D01*
X502000Y-45000D01*
X500000Y-47000D01*
X498000Y-45000D01*
X483000D02*
X485000Y-43000D01*
X487000Y-45000D01*
X485000Y-47000D01*
X483000Y-45000D01*
X468000D02*
X470000Y-43000D01*
X472000Y-45000D01*
X470000Y-47000D01*
X468000Y-45000D01*
X453000D02*
X455000Y-43000D01*
X457000Y-45000D01*
X455000Y-47000D01*
X453000Y-45000D01*
X438000D02*
X440000Y-43000D01*
X442000Y-45000D01*
X440000Y-47000D01*
X438000Y-45000D01*
X423000D02*
X425000Y-43000D01*
X427000Y-45000D01*
X425000Y-47000D01*
X423000Y-45000D01*
X408000D02*
X410000Y-43000D01*
X412000Y-45000D01*
X410000Y-47000D01*
X408000Y-45000D01*
X663000Y20000D02*
X665000Y22000D01*
X667000Y20000D01*
X665000Y18000D01*
X663000Y20000D01*
X648000D02*
X650000Y22000D01*
X652000Y20000D01*
X650000Y18000D01*
X648000Y20000D01*
X633000D02*
X635000Y22000D01*
X637000Y20000D01*
X635000Y18000D01*
X633000Y20000D01*
X618000D02*
X620000Y22000D01*
X622000Y20000D01*
X620000Y18000D01*
X618000Y20000D01*
X603000D02*
X605000Y22000D01*
X607000Y20000D01*
X605000Y18000D01*
X603000Y20000D01*
X588000D02*
X590000Y22000D01*
X592000Y20000D01*
X590000Y18000D01*
X588000Y20000D01*
X573000D02*
X575000Y22000D01*
X577000Y20000D01*
X575000Y18000D01*
X573000Y20000D01*
X558000D02*
X560000Y22000D01*
X562000Y20000D01*
X560000Y18000D01*
X558000Y20000D01*
X543000D02*
X545000Y22000D01*
X547000Y20000D01*
X545000Y18000D01*
X543000Y20000D01*
X528000D02*
X530000Y22000D01*
X532000Y20000D01*
X530000Y18000D01*
X528000Y20000D01*
X513000D02*
X515000Y22000D01*
X517000Y20000D01*
X515000Y18000D01*
X513000Y20000D01*
X498000D02*
X500000Y22000D01*
X502000Y20000D01*
X500000Y18000D01*
X498000Y20000D01*
X468000D02*
X470000Y22000D01*
X472000Y20000D01*
X470000Y18000D01*
X468000Y20000D01*
X408000D02*
X410000Y22000D01*
X412000Y20000D01*
X410000Y18000D01*
X408000Y20000D01*
X423000D02*
X425000Y22000D01*
X427000Y20000D01*
X425000Y18000D01*
X423000Y20000D01*
X438000D02*
X440000Y22000D01*
X442000Y20000D01*
X440000Y18000D01*
X438000Y20000D01*
X483000D02*
X485000Y22000D01*
X487000Y20000D01*
X485000Y18000D01*
X483000Y20000D01*
X453000D02*
X455000Y22000D01*
X457000Y20000D01*
X455000Y18000D01*
X453000Y20000D01*
D71*
X487000Y60000D02*
G03*
X487000Y60000I-2000J0D01*
G01*
Y70000D02*
G03*
X487000Y70000I-2000J0D01*
G01*
X507000Y60000D02*
G03*
X507000Y60000I-2000J0D01*
G01*
X497000Y70000D02*
G03*
X497000Y70000I-2000J0D01*
G01*
Y60000D02*
G03*
X497000Y60000I-2000J0D01*
G01*
X487000Y90000D02*
G03*
X487000Y90000I-2000J0D01*
G01*
Y80000D02*
G03*
X487000Y80000I-2000J0D01*
G01*
X497000D02*
G03*
X497000Y80000I-2000J0D01*
G01*
Y100000D02*
G03*
X497000Y100000I-2000J0D01*
G01*
Y90000D02*
G03*
X497000Y90000I-2000J0D01*
G01*
X517000Y60000D02*
G03*
X517000Y60000I-2000J0D01*
G01*
X537000D02*
G03*
X537000Y60000I-2000J0D01*
G01*
X517000Y70000D02*
G03*
X517000Y70000I-2000J0D01*
G01*
X527000Y60000D02*
G03*
X527000Y60000I-2000J0D01*
G01*
X507000Y70000D02*
G03*
X507000Y70000I-2000J0D01*
G01*
Y100000D02*
G03*
X507000Y100000I-2000J0D01*
G01*
X527000Y70000D02*
G03*
X527000Y70000I-2000J0D01*
G01*
X537000D02*
G03*
X537000Y70000I-2000J0D01*
G01*
X527000Y80000D02*
G03*
X527000Y80000I-2000J0D01*
G01*
X537000D02*
G03*
X537000Y80000I-2000J0D01*
G01*
X487000Y100000D02*
G03*
X487000Y100000I-2000J0D01*
G01*
Y110000D02*
G03*
X487000Y110000I-2000J0D01*
G01*
X497000D02*
G03*
X497000Y110000I-2000J0D01*
G01*
X487000Y120000D02*
G03*
X487000Y120000I-2000J0D01*
G01*
X497000D02*
G03*
X497000Y120000I-2000J0D01*
G01*
X487000Y130000D02*
G03*
X487000Y130000I-2000J0D01*
G01*
Y160000D02*
G03*
X487000Y160000I-2000J0D01*
G01*
Y140000D02*
G03*
X487000Y140000I-2000J0D01*
G01*
X497000Y130000D02*
G03*
X497000Y130000I-2000J0D01*
G01*
X487000Y150000D02*
G03*
X487000Y150000I-2000J0D01*
G01*
X497000Y140000D02*
G03*
X497000Y140000I-2000J0D01*
G01*
X507000Y110000D02*
G03*
X507000Y110000I-2000J0D01*
G01*
X497000Y150000D02*
G03*
X497000Y150000I-2000J0D01*
G01*
X507000Y120000D02*
G03*
X507000Y120000I-2000J0D01*
G01*
X527000Y140000D02*
G03*
X527000Y140000I-2000J0D01*
G01*
X507000Y150000D02*
G03*
X507000Y150000I-2000J0D01*
G01*
X517000D02*
G03*
X517000Y150000I-2000J0D01*
G01*
X507000Y160000D02*
G03*
X507000Y160000I-2000J0D01*
G01*
X497000D02*
G03*
X497000Y160000I-2000J0D01*
G01*
X527000Y150000D02*
G03*
X527000Y150000I-2000J0D01*
G01*
X517000Y160000D02*
G03*
X517000Y160000I-2000J0D01*
G01*
X527000D02*
G03*
X527000Y160000I-2000J0D01*
G01*
X557000Y60000D02*
G03*
X557000Y60000I-2000J0D01*
G01*
X547000D02*
G03*
X547000Y60000I-2000J0D01*
G01*
X567000D02*
G03*
X567000Y60000I-2000J0D01*
G01*
X577000Y70000D02*
G03*
X577000Y70000I-2000J0D01*
G01*
Y60000D02*
G03*
X577000Y60000I-2000J0D01*
G01*
X557000Y70000D02*
G03*
X557000Y70000I-2000J0D01*
G01*
X547000Y80000D02*
G03*
X547000Y80000I-2000J0D01*
G01*
Y70000D02*
G03*
X547000Y70000I-2000J0D01*
G01*
X567000D02*
G03*
X567000Y70000I-2000J0D01*
G01*
Y110000D02*
G03*
X567000Y110000I-2000J0D01*
G01*
Y100000D02*
G03*
X567000Y100000I-2000J0D01*
G01*
X577000Y80000D02*
G03*
X577000Y80000I-2000J0D01*
G01*
Y90000D02*
G03*
X577000Y90000I-2000J0D01*
G01*
X587000Y60000D02*
G03*
X587000Y60000I-2000J0D01*
G01*
Y80000D02*
G03*
X587000Y80000I-2000J0D01*
G01*
Y70000D02*
G03*
X587000Y70000I-2000J0D01*
G01*
Y90000D02*
G03*
X587000Y90000I-2000J0D01*
G01*
X577000Y110000D02*
G03*
X577000Y110000I-2000J0D01*
G01*
Y100000D02*
G03*
X577000Y100000I-2000J0D01*
G01*
X587000Y110000D02*
G03*
X587000Y110000I-2000J0D01*
G01*
Y100000D02*
G03*
X587000Y100000I-2000J0D01*
G01*
X547000Y140000D02*
G03*
X547000Y140000I-2000J0D01*
G01*
X537000D02*
G03*
X537000Y140000I-2000J0D01*
G01*
X567000Y120000D02*
G03*
X567000Y120000I-2000J0D01*
G01*
X547000Y150000D02*
G03*
X547000Y150000I-2000J0D01*
G01*
X567000Y140000D02*
G03*
X567000Y140000I-2000J0D01*
G01*
X537000Y150000D02*
G03*
X537000Y150000I-2000J0D01*
G01*
Y160000D02*
G03*
X537000Y160000I-2000J0D01*
G01*
X547000D02*
G03*
X547000Y160000I-2000J0D01*
G01*
X557000Y150000D02*
G03*
X557000Y150000I-2000J0D01*
G01*
Y160000D02*
G03*
X557000Y160000I-2000J0D01*
G01*
X567000D02*
G03*
X567000Y160000I-2000J0D01*
G01*
X577000Y120000D02*
G03*
X577000Y120000I-2000J0D01*
G01*
Y140000D02*
G03*
X577000Y140000I-2000J0D01*
G01*
Y130000D02*
G03*
X577000Y130000I-2000J0D01*
G01*
X587000Y120000D02*
G03*
X587000Y120000I-2000J0D01*
G01*
Y140000D02*
G03*
X587000Y140000I-2000J0D01*
G01*
Y130000D02*
G03*
X587000Y130000I-2000J0D01*
G01*
X567000Y150000D02*
G03*
X567000Y150000I-2000J0D01*
G01*
X577000Y160000D02*
G03*
X577000Y160000I-2000J0D01*
G01*
Y150000D02*
G03*
X577000Y150000I-2000J0D01*
G01*
X587000D02*
G03*
X587000Y150000I-2000J0D01*
G01*
Y160000D02*
G03*
X587000Y160000I-2000J0D01*
G01*
M02*
