%FSLAX25Y25*%
%MOIN*%
G70*
G01*
G75*
G04 Layer_Color=32896*
%ADD10R,0.33858X0.42126*%
%ADD11R,0.14173X0.04528*%
%ADD12R,0.03661X0.03661*%
%ADD13R,0.03500X0.03400*%
%ADD14R,0.03661X0.03661*%
%ADD15R,0.02200X0.06700*%
%ADD16R,0.02178X0.03937*%
%ADD17R,0.03200X0.03000*%
%ADD18C,0.01000*%
%ADD19C,0.04000*%
%ADD20C,0.02000*%
%ADD21C,0.03937*%
%ADD22C,0.06000*%
%ADD23C,0.04724*%
%ADD24R,0.04724X0.04724*%
%ADD25R,0.06000X0.06000*%
%ADD26P,0.06061X8X112.5*%
%ADD27P,0.06605X8X292.5*%
%ADD28P,0.17046X8X112.5*%
%ADD29C,0.07677*%
%ADD30P,0.17046X8X202.5*%
%ADD31P,0.07144X8X292.5*%
%ADD32C,0.05000*%
%ADD33C,0.02000*%
%ADD34C,0.04000*%
%ADD35R,0.07874X0.08661*%
%ADD36R,0.08661X0.07874*%
%ADD37R,0.03400X0.03500*%
%ADD38R,0.01772X0.01575*%
%ADD39R,0.04409X0.06772*%
%ADD40C,0.00984*%
%ADD41C,0.00600*%
%ADD42C,0.00787*%
%ADD43C,0.00500*%
%ADD44C,0.00800*%
%ADD45C,0.00400*%
%ADD46C,0.02800*%
%ADD47C,0.01500*%
%ADD48R,0.02000X0.02000*%
%ADD49R,0.34658X0.42926*%
%ADD50R,0.14973X0.05328*%
%ADD51R,0.04461X0.04461*%
%ADD52R,0.04461X0.04461*%
%ADD53R,0.03000X0.07500*%
%ADD54C,0.06800*%
%ADD55C,0.05524*%
%ADD56R,0.05524X0.05524*%
%ADD57P,0.06927X8X112.5*%
%ADD58P,0.07471X8X292.5*%
%ADD59P,0.17912X8X112.5*%
%ADD60C,0.08477*%
%ADD61P,0.17912X8X202.5*%
%ADD62P,0.08010X8X292.5*%
%ADD63C,0.05800*%
%ADD64C,0.02800*%
%ADD65R,0.02572X0.02375*%
%ADD66R,0.05209X0.07572*%
%ADD67C,0.04800*%
D41*
X424400Y60161D02*
Y60839D01*
X428600Y60161D02*
Y60839D01*
X436400Y60161D02*
Y60839D01*
X440600Y60161D02*
Y60839D01*
X424400Y157161D02*
Y157839D01*
X428600Y157161D02*
Y157839D01*
X436400Y157161D02*
Y157839D01*
X440600Y157161D02*
Y157839D01*
D43*
X423799Y64437D02*
G03*
X423799Y64437I-394J0D01*
G01*
X423299Y161937D02*
G03*
X423299Y161937I-394J0D01*
G01*
X429961Y57350D02*
Y63650D01*
X435039Y57350D02*
Y63650D01*
X429961Y154350D02*
Y160650D01*
X435039Y154350D02*
Y160650D01*
D45*
X415901Y48499D02*
X416300Y48899D01*
X417100D01*
X417500Y48499D01*
Y46900D01*
X417100Y46500D01*
X416300D01*
X415901Y46900D01*
X413501Y48899D02*
X415101D01*
Y47700D01*
X414301Y48099D01*
X413901D01*
X413501Y47700D01*
Y46900D01*
X413901Y46500D01*
X414701D01*
X415101Y46900D01*
X444100Y68001D02*
X443700Y67601D01*
X442900D01*
X442500Y68001D01*
Y69600D01*
X442900Y70000D01*
X443700D01*
X444100Y69600D01*
X446499Y67601D02*
X445699Y68001D01*
X444899Y68800D01*
Y69600D01*
X445299Y70000D01*
X446099D01*
X446499Y69600D01*
Y69200D01*
X446099Y68800D01*
X444899D01*
X432900Y69499D02*
X433300Y69899D01*
X434100D01*
X434500Y69499D01*
Y67900D01*
X434100Y67500D01*
X433300D01*
X432900Y67900D01*
X432101Y69899D02*
X430501D01*
Y69499D01*
X432101Y67900D01*
Y67500D01*
X414100Y144001D02*
X413700Y143601D01*
X412900D01*
X412500Y144001D01*
Y145600D01*
X412900Y146000D01*
X413700D01*
X414100Y145600D01*
X414899Y144001D02*
X415299Y143601D01*
X416099D01*
X416499Y144001D01*
Y144401D01*
X416099Y144800D01*
X415699D01*
X416099D01*
X416499Y145200D01*
Y145600D01*
X416099Y146000D01*
X415299D01*
X414899Y145600D01*
X417298Y144001D02*
X417698Y143601D01*
X418498D01*
X418898Y144001D01*
Y145600D01*
X418498Y146000D01*
X417698D01*
X417298Y145600D01*
Y144001D01*
X448901Y166499D02*
X449300Y166899D01*
X450100D01*
X450500Y166499D01*
Y164900D01*
X450100Y164500D01*
X449300D01*
X448901Y164900D01*
X448101Y166499D02*
X447701Y166899D01*
X446901D01*
X446501Y166499D01*
Y166100D01*
X446901Y165700D01*
X447301D01*
X446901D01*
X446501Y165300D01*
Y164900D01*
X446901Y164500D01*
X447701D01*
X448101Y164900D01*
X445702Y164500D02*
X444902D01*
X445302D01*
Y166899D01*
X445702Y166499D01*
X434679Y166569D02*
X435079Y166969D01*
X435879D01*
X436279Y166569D01*
Y164970D01*
X435879Y164570D01*
X435079D01*
X434679Y164970D01*
X433880Y166569D02*
X433480Y166969D01*
X432680D01*
X432280Y166569D01*
Y166169D01*
X432680Y165769D01*
X433080D01*
X432680D01*
X432280Y165369D01*
Y164970D01*
X432680Y164570D01*
X433480D01*
X433880Y164970D01*
X429881Y164570D02*
X431480D01*
X429881Y166169D01*
Y166569D01*
X430281Y166969D01*
X431080D01*
X431480Y166569D01*
X449500Y75399D02*
Y73000D01*
X447900D01*
X445901D02*
X446701D01*
X447101Y73400D01*
Y74200D01*
X446701Y74599D01*
X445901D01*
X445501Y74200D01*
Y73800D01*
X447101D01*
X444302Y73000D02*
Y74999D01*
Y74200D01*
X444702D01*
X443902D01*
X444302D01*
Y74999D01*
X443902Y75399D01*
X442302Y74999D02*
Y74599D01*
X442702D01*
X441902D01*
X442302D01*
Y73400D01*
X441902Y73000D01*
X436704Y74999D02*
X437104Y75399D01*
X437904D01*
X438304Y74999D01*
Y73400D01*
X437904Y73000D01*
X437104D01*
X436704Y73400D01*
X434305Y74999D02*
X434705Y75399D01*
X435505D01*
X435904Y74999D01*
Y73400D01*
X435505Y73000D01*
X434705D01*
X434305Y73400D01*
X432306Y75399D02*
X433105D01*
X433505Y74999D01*
Y73400D01*
X433105Y73000D01*
X432306D01*
X431906Y73400D01*
Y74999D01*
X432306Y75399D01*
X428707Y74599D02*
Y73000D01*
Y73800D01*
X428307Y74200D01*
X427907Y74599D01*
X427507D01*
X425108Y73000D02*
X425908D01*
X426307Y73400D01*
Y74200D01*
X425908Y74599D01*
X425108D01*
X424708Y74200D01*
Y73800D01*
X426307D01*
X423109Y72200D02*
X422709D01*
X422309Y72600D01*
Y74599D01*
X423508D01*
X423908Y74200D01*
Y73400D01*
X423508Y73000D01*
X422309D01*
X421509Y74599D02*
Y73400D01*
X421109Y73000D01*
X419910D01*
Y74599D01*
X419110Y73000D02*
X418310D01*
X418710D01*
Y75399D01*
X419110D01*
X416711Y74599D02*
X415911D01*
X415511Y74200D01*
Y73000D01*
X416711D01*
X417110Y73400D01*
X416711Y73800D01*
X415511D01*
X414311Y74999D02*
Y74599D01*
X414711D01*
X413912D01*
X414311D01*
Y73400D01*
X413912Y73000D01*
X412312D02*
X411512D01*
X411112Y73400D01*
Y74200D01*
X411512Y74599D01*
X412312D01*
X412712Y74200D01*
Y73400D01*
X412312Y73000D01*
X410313Y74599D02*
Y73000D01*
Y73800D01*
X409913Y74200D01*
X409513Y74599D01*
X409113D01*
X428500Y67500D02*
Y69899D01*
X427300D01*
X426900Y69499D01*
Y68700D01*
X427300Y68300D01*
X428500D01*
X427700D02*
X426900Y67500D01*
X424501Y69899D02*
X426101D01*
Y68700D01*
X425301Y69099D01*
X424901D01*
X424501Y68700D01*
Y67900D01*
X424901Y67500D01*
X425701D01*
X426101Y67900D01*
X440500Y67500D02*
Y69899D01*
X439300D01*
X438901Y69499D01*
Y68700D01*
X439300Y68300D01*
X440500D01*
X439700D02*
X438901Y67500D01*
X436501Y69899D02*
X437301Y69499D01*
X438101Y68700D01*
Y67900D01*
X437701Y67500D01*
X436901D01*
X436501Y67900D01*
Y68300D01*
X436901Y68700D01*
X438101D01*
X428500Y164500D02*
Y166899D01*
X427300D01*
X426900Y166499D01*
Y165700D01*
X427300Y165300D01*
X428500D01*
X427700D02*
X426900Y164500D01*
X426101D02*
X425301D01*
X425701D01*
Y166899D01*
X426101Y166499D01*
X424101Y164500D02*
X423302D01*
X423702D01*
Y166899D01*
X424101Y166499D01*
X443500Y164500D02*
Y166899D01*
X442300D01*
X441900Y166499D01*
Y165700D01*
X442300Y165300D01*
X443500D01*
X442700D02*
X441900Y164500D01*
X441101D02*
X440301D01*
X440701D01*
Y166899D01*
X441101Y166499D01*
X437502Y164500D02*
X439101D01*
X437502Y166100D01*
Y166499D01*
X437902Y166899D01*
X438702D01*
X439101Y166499D01*
X411000Y172000D02*
Y169601D01*
X412200D01*
X412600Y170001D01*
Y170800D01*
X412200Y171200D01*
X411000D01*
X411800D02*
X412600Y172000D01*
X413399D02*
X414199D01*
X413799D01*
Y170401D01*
X413399D01*
X416198Y172800D02*
X416598D01*
X416998Y172400D01*
Y170401D01*
X415798D01*
X415399Y170800D01*
Y171600D01*
X415798Y172000D01*
X416998D01*
X417798Y169601D02*
Y172000D01*
Y170800D01*
X418198Y170401D01*
X418997D01*
X419397Y170800D01*
Y172000D01*
X420597Y170001D02*
Y170401D01*
X420197D01*
X420997D01*
X420597D01*
Y171600D01*
X420997Y172000D01*
X426195Y170001D02*
X425795Y169601D01*
X424995D01*
X424596Y170001D01*
Y171600D01*
X424995Y172000D01*
X425795D01*
X426195Y171600D01*
X428594Y170001D02*
X428194Y169601D01*
X427395D01*
X426995Y170001D01*
Y171600D01*
X427395Y172000D01*
X428194D01*
X428594Y171600D01*
X430594Y169601D02*
X429794D01*
X429394Y170001D01*
Y171600D01*
X429794Y172000D01*
X430594D01*
X430994Y171600D01*
Y170001D01*
X430594Y169601D01*
X434193Y170401D02*
Y172000D01*
Y171200D01*
X434592Y170800D01*
X434992Y170401D01*
X435392D01*
X437791Y172000D02*
X436992D01*
X436592Y171600D01*
Y170800D01*
X436992Y170401D01*
X437791D01*
X438191Y170800D01*
Y171200D01*
X436592D01*
X439791Y172800D02*
X440191D01*
X440590Y172400D01*
Y170401D01*
X439391D01*
X438991Y170800D01*
Y171600D01*
X439391Y172000D01*
X440590D01*
X441390Y170401D02*
Y171600D01*
X441790Y172000D01*
X442990D01*
Y170401D01*
X443789Y172000D02*
X444589D01*
X444189D01*
Y169601D01*
X443789D01*
X446189Y170401D02*
X446988D01*
X447388Y170800D01*
Y172000D01*
X446189D01*
X445789Y171600D01*
X446189Y171200D01*
X447388D01*
X448588Y170001D02*
Y170401D01*
X448188D01*
X448988D01*
X448588D01*
Y171600D01*
X448988Y172000D01*
X450587D02*
X451387D01*
X451787Y171600D01*
Y170800D01*
X451387Y170401D01*
X450587D01*
X450187Y170800D01*
Y171600D01*
X450587Y172000D01*
X452587Y170401D02*
Y172000D01*
Y171200D01*
X452986Y170800D01*
X453386Y170401D01*
X453786D01*
M02*
